%TF.GenerationSoftware,KiCad,Pcbnew,(6.0.9)*%
%TF.CreationDate,2023-02-25T15:14:18+00:00*%
%TF.ProjectId,Atom_VGA_Tube_Combo,41746f6d-5f56-4474-915f-547562655f43,rev?*%
%TF.SameCoordinates,Original*%
%TF.FileFunction,Soldermask,Top*%
%TF.FilePolarity,Negative*%
%FSLAX46Y46*%
G04 Gerber Fmt 4.6, Leading zero omitted, Abs format (unit mm)*
G04 Created by KiCad (PCBNEW (6.0.9)) date 2023-02-25 15:14:18*
%MOMM*%
%LPD*%
G01*
G04 APERTURE LIST*
G04 Aperture macros list*
%AMRoundRect*
0 Rectangle with rounded corners*
0 $1 Rounding radius*
0 $2 $3 $4 $5 $6 $7 $8 $9 X,Y pos of 4 corners*
0 Add a 4 corners polygon primitive as box body*
4,1,4,$2,$3,$4,$5,$6,$7,$8,$9,$2,$3,0*
0 Add four circle primitives for the rounded corners*
1,1,$1+$1,$2,$3*
1,1,$1+$1,$4,$5*
1,1,$1+$1,$6,$7*
1,1,$1+$1,$8,$9*
0 Add four rect primitives between the rounded corners*
20,1,$1+$1,$2,$3,$4,$5,0*
20,1,$1+$1,$4,$5,$6,$7,0*
20,1,$1+$1,$6,$7,$8,$9,0*
20,1,$1+$1,$8,$9,$2,$3,0*%
G04 Aperture macros list end*
%ADD10C,0.010000*%
%ADD11RoundRect,0.250000X-0.600000X-0.600000X0.600000X-0.600000X0.600000X0.600000X-0.600000X0.600000X0*%
%ADD12C,1.700000*%
%ADD13RoundRect,0.225000X0.250000X-0.225000X0.250000X0.225000X-0.250000X0.225000X-0.250000X-0.225000X0*%
%ADD14RoundRect,0.200000X0.200000X0.275000X-0.200000X0.275000X-0.200000X-0.275000X0.200000X-0.275000X0*%
%ADD15RoundRect,0.150000X-0.587500X-0.150000X0.587500X-0.150000X0.587500X0.150000X-0.587500X0.150000X0*%
%ADD16R,1.700000X1.700000*%
%ADD17O,1.700000X1.700000*%
%ADD18RoundRect,0.200000X0.275000X-0.200000X0.275000X0.200000X-0.275000X0.200000X-0.275000X-0.200000X0*%
%ADD19R,0.500000X0.320000*%
%ADD20RoundRect,0.140000X-0.140000X-0.170000X0.140000X-0.170000X0.140000X0.170000X-0.140000X0.170000X0*%
%ADD21RoundRect,0.200000X-0.200000X-0.275000X0.200000X-0.275000X0.200000X0.275000X-0.200000X0.275000X0*%
%ADD22RoundRect,0.100000X-0.637500X-0.100000X0.637500X-0.100000X0.637500X0.100000X-0.637500X0.100000X0*%
%ADD23RoundRect,0.225000X-0.250000X0.225000X-0.250000X-0.225000X0.250000X-0.225000X0.250000X0.225000X0*%
%ADD24C,2.100000*%
%ADD25O,1.600000X3.200000*%
%ADD26O,1.800000X1.100000*%
%ADD27O,1.450000X1.050000*%
%ADD28RoundRect,0.450000X-0.300000X0.300000X-0.300000X-0.300000X0.300000X-0.300000X0.300000X0.300000X0*%
%ADD29RoundRect,0.140000X0.140000X0.170000X-0.140000X0.170000X-0.140000X-0.170000X0.140000X-0.170000X0*%
%ADD30C,6.000000*%
%ADD31R,0.600000X0.450000*%
%ADD32RoundRect,0.218750X0.218750X0.256250X-0.218750X0.256250X-0.218750X-0.256250X0.218750X-0.256250X0*%
%ADD33R,1.600000X1.600000*%
%ADD34O,1.600000X1.600000*%
%ADD35C,2.850000*%
%ADD36RoundRect,0.249999X-0.525001X-0.525001X0.525001X-0.525001X0.525001X0.525001X-0.525001X0.525001X0*%
%ADD37C,1.550000*%
G04 APERTURE END LIST*
%TO.C,U1*%
G36*
X108578500Y-93396500D02*
G01*
X108577500Y-93443500D01*
X108573500Y-93490500D01*
X108567500Y-93537500D01*
X108558500Y-93583500D01*
X108547500Y-93629500D01*
X108534500Y-93674500D01*
X108518500Y-93719500D01*
X108500500Y-93762500D01*
X108480500Y-93805500D01*
X108457500Y-93846500D01*
X108433500Y-93886500D01*
X108406500Y-93925500D01*
X108377500Y-93962500D01*
X108347500Y-93998500D01*
X108314500Y-94032500D01*
X108280500Y-94065500D01*
X108244500Y-94095500D01*
X108207500Y-94124500D01*
X108168500Y-94151500D01*
X108128500Y-94175500D01*
X108087500Y-94198500D01*
X108044500Y-94218500D01*
X108001500Y-94236500D01*
X107956500Y-94252500D01*
X107911500Y-94265500D01*
X107865500Y-94276500D01*
X107819500Y-94285500D01*
X107772500Y-94291500D01*
X107725500Y-94295500D01*
X107678500Y-94296500D01*
X107631500Y-94295500D01*
X107584500Y-94291500D01*
X107537500Y-94285500D01*
X107491500Y-94276500D01*
X107445500Y-94265500D01*
X107400500Y-94252500D01*
X107355500Y-94236500D01*
X107312500Y-94218500D01*
X107269500Y-94198500D01*
X107228500Y-94175500D01*
X107188500Y-94151500D01*
X107149500Y-94124500D01*
X107112500Y-94095500D01*
X107076500Y-94065500D01*
X107042500Y-94032500D01*
X107009500Y-93998500D01*
X106979500Y-93962500D01*
X106950500Y-93925500D01*
X106923500Y-93886500D01*
X106899500Y-93846500D01*
X106876500Y-93805500D01*
X106856500Y-93762500D01*
X106838500Y-93719500D01*
X106822500Y-93674500D01*
X106809500Y-93629500D01*
X106798500Y-93583500D01*
X106789500Y-93537500D01*
X106783500Y-93490500D01*
X106779500Y-93443500D01*
X106778500Y-93396500D01*
X106778500Y-90896500D01*
X108578500Y-90896500D01*
X108578500Y-93396500D01*
G37*
D10*
X108578500Y-93396500D02*
X108577500Y-93443500D01*
X108573500Y-93490500D01*
X108567500Y-93537500D01*
X108558500Y-93583500D01*
X108547500Y-93629500D01*
X108534500Y-93674500D01*
X108518500Y-93719500D01*
X108500500Y-93762500D01*
X108480500Y-93805500D01*
X108457500Y-93846500D01*
X108433500Y-93886500D01*
X108406500Y-93925500D01*
X108377500Y-93962500D01*
X108347500Y-93998500D01*
X108314500Y-94032500D01*
X108280500Y-94065500D01*
X108244500Y-94095500D01*
X108207500Y-94124500D01*
X108168500Y-94151500D01*
X108128500Y-94175500D01*
X108087500Y-94198500D01*
X108044500Y-94218500D01*
X108001500Y-94236500D01*
X107956500Y-94252500D01*
X107911500Y-94265500D01*
X107865500Y-94276500D01*
X107819500Y-94285500D01*
X107772500Y-94291500D01*
X107725500Y-94295500D01*
X107678500Y-94296500D01*
X107631500Y-94295500D01*
X107584500Y-94291500D01*
X107537500Y-94285500D01*
X107491500Y-94276500D01*
X107445500Y-94265500D01*
X107400500Y-94252500D01*
X107355500Y-94236500D01*
X107312500Y-94218500D01*
X107269500Y-94198500D01*
X107228500Y-94175500D01*
X107188500Y-94151500D01*
X107149500Y-94124500D01*
X107112500Y-94095500D01*
X107076500Y-94065500D01*
X107042500Y-94032500D01*
X107009500Y-93998500D01*
X106979500Y-93962500D01*
X106950500Y-93925500D01*
X106923500Y-93886500D01*
X106899500Y-93846500D01*
X106876500Y-93805500D01*
X106856500Y-93762500D01*
X106838500Y-93719500D01*
X106822500Y-93674500D01*
X106809500Y-93629500D01*
X106798500Y-93583500D01*
X106789500Y-93537500D01*
X106783500Y-93490500D01*
X106779500Y-93443500D01*
X106778500Y-93396500D01*
X106778500Y-90896500D01*
X108578500Y-90896500D01*
X108578500Y-93396500D01*
G36*
X136518500Y-93396500D02*
G01*
X136517500Y-93443500D01*
X136513500Y-93490500D01*
X136507500Y-93537500D01*
X136498500Y-93583500D01*
X136487500Y-93629500D01*
X136474500Y-93674500D01*
X136458500Y-93719500D01*
X136440500Y-93762500D01*
X136420500Y-93805500D01*
X136397500Y-93846500D01*
X136373500Y-93886500D01*
X136346500Y-93925500D01*
X136317500Y-93962500D01*
X136287500Y-93998500D01*
X136254500Y-94032500D01*
X136220500Y-94065500D01*
X136184500Y-94095500D01*
X136147500Y-94124500D01*
X136108500Y-94151500D01*
X136068500Y-94175500D01*
X136027500Y-94198500D01*
X135984500Y-94218500D01*
X135941500Y-94236500D01*
X135896500Y-94252500D01*
X135851500Y-94265500D01*
X135805500Y-94276500D01*
X135759500Y-94285500D01*
X135712500Y-94291500D01*
X135665500Y-94295500D01*
X135618500Y-94296500D01*
X135571500Y-94295500D01*
X135524500Y-94291500D01*
X135477500Y-94285500D01*
X135431500Y-94276500D01*
X135385500Y-94265500D01*
X135340500Y-94252500D01*
X135295500Y-94236500D01*
X135252500Y-94218500D01*
X135209500Y-94198500D01*
X135168500Y-94175500D01*
X135128500Y-94151500D01*
X135089500Y-94124500D01*
X135052500Y-94095500D01*
X135016500Y-94065500D01*
X134982500Y-94032500D01*
X134949500Y-93998500D01*
X134919500Y-93962500D01*
X134890500Y-93925500D01*
X134863500Y-93886500D01*
X134839500Y-93846500D01*
X134816500Y-93805500D01*
X134796500Y-93762500D01*
X134778500Y-93719500D01*
X134762500Y-93674500D01*
X134749500Y-93629500D01*
X134738500Y-93583500D01*
X134729500Y-93537500D01*
X134723500Y-93490500D01*
X134719500Y-93443500D01*
X134718500Y-93396500D01*
X134718500Y-90896500D01*
X136518500Y-90896500D01*
X136518500Y-93396500D01*
G37*
X136518500Y-93396500D02*
X136517500Y-93443500D01*
X136513500Y-93490500D01*
X136507500Y-93537500D01*
X136498500Y-93583500D01*
X136487500Y-93629500D01*
X136474500Y-93674500D01*
X136458500Y-93719500D01*
X136440500Y-93762500D01*
X136420500Y-93805500D01*
X136397500Y-93846500D01*
X136373500Y-93886500D01*
X136346500Y-93925500D01*
X136317500Y-93962500D01*
X136287500Y-93998500D01*
X136254500Y-94032500D01*
X136220500Y-94065500D01*
X136184500Y-94095500D01*
X136147500Y-94124500D01*
X136108500Y-94151500D01*
X136068500Y-94175500D01*
X136027500Y-94198500D01*
X135984500Y-94218500D01*
X135941500Y-94236500D01*
X135896500Y-94252500D01*
X135851500Y-94265500D01*
X135805500Y-94276500D01*
X135759500Y-94285500D01*
X135712500Y-94291500D01*
X135665500Y-94295500D01*
X135618500Y-94296500D01*
X135571500Y-94295500D01*
X135524500Y-94291500D01*
X135477500Y-94285500D01*
X135431500Y-94276500D01*
X135385500Y-94265500D01*
X135340500Y-94252500D01*
X135295500Y-94236500D01*
X135252500Y-94218500D01*
X135209500Y-94198500D01*
X135168500Y-94175500D01*
X135128500Y-94151500D01*
X135089500Y-94124500D01*
X135052500Y-94095500D01*
X135016500Y-94065500D01*
X134982500Y-94032500D01*
X134949500Y-93998500D01*
X134919500Y-93962500D01*
X134890500Y-93925500D01*
X134863500Y-93886500D01*
X134839500Y-93846500D01*
X134816500Y-93805500D01*
X134796500Y-93762500D01*
X134778500Y-93719500D01*
X134762500Y-93674500D01*
X134749500Y-93629500D01*
X134738500Y-93583500D01*
X134729500Y-93537500D01*
X134723500Y-93490500D01*
X134719500Y-93443500D01*
X134718500Y-93396500D01*
X134718500Y-90896500D01*
X136518500Y-90896500D01*
X136518500Y-93396500D01*
G36*
X95878500Y-93396500D02*
G01*
X95877500Y-93443500D01*
X95873500Y-93490500D01*
X95867500Y-93537500D01*
X95858500Y-93583500D01*
X95847500Y-93629500D01*
X95834500Y-93674500D01*
X95818500Y-93719500D01*
X95800500Y-93762500D01*
X95780500Y-93805500D01*
X95757500Y-93846500D01*
X95733500Y-93886500D01*
X95706500Y-93925500D01*
X95677500Y-93962500D01*
X95647500Y-93998500D01*
X95614500Y-94032500D01*
X95580500Y-94065500D01*
X95544500Y-94095500D01*
X95507500Y-94124500D01*
X95468500Y-94151500D01*
X95428500Y-94175500D01*
X95387500Y-94198500D01*
X95344500Y-94218500D01*
X95301500Y-94236500D01*
X95256500Y-94252500D01*
X95211500Y-94265500D01*
X95165500Y-94276500D01*
X95119500Y-94285500D01*
X95072500Y-94291500D01*
X95025500Y-94295500D01*
X94978500Y-94296500D01*
X94931500Y-94295500D01*
X94884500Y-94291500D01*
X94837500Y-94285500D01*
X94791500Y-94276500D01*
X94745500Y-94265500D01*
X94700500Y-94252500D01*
X94655500Y-94236500D01*
X94612500Y-94218500D01*
X94569500Y-94198500D01*
X94528500Y-94175500D01*
X94488500Y-94151500D01*
X94449500Y-94124500D01*
X94412500Y-94095500D01*
X94376500Y-94065500D01*
X94342500Y-94032500D01*
X94309500Y-93998500D01*
X94279500Y-93962500D01*
X94250500Y-93925500D01*
X94223500Y-93886500D01*
X94199500Y-93846500D01*
X94176500Y-93805500D01*
X94156500Y-93762500D01*
X94138500Y-93719500D01*
X94122500Y-93674500D01*
X94109500Y-93629500D01*
X94098500Y-93583500D01*
X94089500Y-93537500D01*
X94083500Y-93490500D01*
X94079500Y-93443500D01*
X94078500Y-93396500D01*
X94078500Y-90896500D01*
X95878500Y-90896500D01*
X95878500Y-93396500D01*
G37*
X95878500Y-93396500D02*
X95877500Y-93443500D01*
X95873500Y-93490500D01*
X95867500Y-93537500D01*
X95858500Y-93583500D01*
X95847500Y-93629500D01*
X95834500Y-93674500D01*
X95818500Y-93719500D01*
X95800500Y-93762500D01*
X95780500Y-93805500D01*
X95757500Y-93846500D01*
X95733500Y-93886500D01*
X95706500Y-93925500D01*
X95677500Y-93962500D01*
X95647500Y-93998500D01*
X95614500Y-94032500D01*
X95580500Y-94065500D01*
X95544500Y-94095500D01*
X95507500Y-94124500D01*
X95468500Y-94151500D01*
X95428500Y-94175500D01*
X95387500Y-94198500D01*
X95344500Y-94218500D01*
X95301500Y-94236500D01*
X95256500Y-94252500D01*
X95211500Y-94265500D01*
X95165500Y-94276500D01*
X95119500Y-94285500D01*
X95072500Y-94291500D01*
X95025500Y-94295500D01*
X94978500Y-94296500D01*
X94931500Y-94295500D01*
X94884500Y-94291500D01*
X94837500Y-94285500D01*
X94791500Y-94276500D01*
X94745500Y-94265500D01*
X94700500Y-94252500D01*
X94655500Y-94236500D01*
X94612500Y-94218500D01*
X94569500Y-94198500D01*
X94528500Y-94175500D01*
X94488500Y-94151500D01*
X94449500Y-94124500D01*
X94412500Y-94095500D01*
X94376500Y-94065500D01*
X94342500Y-94032500D01*
X94309500Y-93998500D01*
X94279500Y-93962500D01*
X94250500Y-93925500D01*
X94223500Y-93886500D01*
X94199500Y-93846500D01*
X94176500Y-93805500D01*
X94156500Y-93762500D01*
X94138500Y-93719500D01*
X94122500Y-93674500D01*
X94109500Y-93629500D01*
X94098500Y-93583500D01*
X94089500Y-93537500D01*
X94083500Y-93490500D01*
X94079500Y-93443500D01*
X94078500Y-93396500D01*
X94078500Y-90896500D01*
X95878500Y-90896500D01*
X95878500Y-93396500D01*
G36*
X111118500Y-93396500D02*
G01*
X111117500Y-93443500D01*
X111113500Y-93490500D01*
X111107500Y-93537500D01*
X111098500Y-93583500D01*
X111087500Y-93629500D01*
X111074500Y-93674500D01*
X111058500Y-93719500D01*
X111040500Y-93762500D01*
X111020500Y-93805500D01*
X110997500Y-93846500D01*
X110973500Y-93886500D01*
X110946500Y-93925500D01*
X110917500Y-93962500D01*
X110887500Y-93998500D01*
X110854500Y-94032500D01*
X110820500Y-94065500D01*
X110784500Y-94095500D01*
X110747500Y-94124500D01*
X110708500Y-94151500D01*
X110668500Y-94175500D01*
X110627500Y-94198500D01*
X110584500Y-94218500D01*
X110541500Y-94236500D01*
X110496500Y-94252500D01*
X110451500Y-94265500D01*
X110405500Y-94276500D01*
X110359500Y-94285500D01*
X110312500Y-94291500D01*
X110265500Y-94295500D01*
X110218500Y-94296500D01*
X110171500Y-94295500D01*
X110124500Y-94291500D01*
X110077500Y-94285500D01*
X110031500Y-94276500D01*
X109985500Y-94265500D01*
X109940500Y-94252500D01*
X109895500Y-94236500D01*
X109852500Y-94218500D01*
X109809500Y-94198500D01*
X109768500Y-94175500D01*
X109728500Y-94151500D01*
X109689500Y-94124500D01*
X109652500Y-94095500D01*
X109616500Y-94065500D01*
X109582500Y-94032500D01*
X109549500Y-93998500D01*
X109519500Y-93962500D01*
X109490500Y-93925500D01*
X109463500Y-93886500D01*
X109439500Y-93846500D01*
X109416500Y-93805500D01*
X109396500Y-93762500D01*
X109378500Y-93719500D01*
X109362500Y-93674500D01*
X109349500Y-93629500D01*
X109338500Y-93583500D01*
X109329500Y-93537500D01*
X109323500Y-93490500D01*
X109319500Y-93443500D01*
X109318500Y-93396500D01*
X109318500Y-90896500D01*
X111118500Y-90896500D01*
X111118500Y-93396500D01*
G37*
X111118500Y-93396500D02*
X111117500Y-93443500D01*
X111113500Y-93490500D01*
X111107500Y-93537500D01*
X111098500Y-93583500D01*
X111087500Y-93629500D01*
X111074500Y-93674500D01*
X111058500Y-93719500D01*
X111040500Y-93762500D01*
X111020500Y-93805500D01*
X110997500Y-93846500D01*
X110973500Y-93886500D01*
X110946500Y-93925500D01*
X110917500Y-93962500D01*
X110887500Y-93998500D01*
X110854500Y-94032500D01*
X110820500Y-94065500D01*
X110784500Y-94095500D01*
X110747500Y-94124500D01*
X110708500Y-94151500D01*
X110668500Y-94175500D01*
X110627500Y-94198500D01*
X110584500Y-94218500D01*
X110541500Y-94236500D01*
X110496500Y-94252500D01*
X110451500Y-94265500D01*
X110405500Y-94276500D01*
X110359500Y-94285500D01*
X110312500Y-94291500D01*
X110265500Y-94295500D01*
X110218500Y-94296500D01*
X110171500Y-94295500D01*
X110124500Y-94291500D01*
X110077500Y-94285500D01*
X110031500Y-94276500D01*
X109985500Y-94265500D01*
X109940500Y-94252500D01*
X109895500Y-94236500D01*
X109852500Y-94218500D01*
X109809500Y-94198500D01*
X109768500Y-94175500D01*
X109728500Y-94151500D01*
X109689500Y-94124500D01*
X109652500Y-94095500D01*
X109616500Y-94065500D01*
X109582500Y-94032500D01*
X109549500Y-93998500D01*
X109519500Y-93962500D01*
X109490500Y-93925500D01*
X109463500Y-93886500D01*
X109439500Y-93846500D01*
X109416500Y-93805500D01*
X109396500Y-93762500D01*
X109378500Y-93719500D01*
X109362500Y-93674500D01*
X109349500Y-93629500D01*
X109338500Y-93583500D01*
X109329500Y-93537500D01*
X109323500Y-93490500D01*
X109319500Y-93443500D01*
X109318500Y-93396500D01*
X109318500Y-90896500D01*
X111118500Y-90896500D01*
X111118500Y-93396500D01*
G36*
X133125500Y-110277500D02*
G01*
X133172500Y-110281500D01*
X133219500Y-110287500D01*
X133265500Y-110296500D01*
X133311500Y-110307500D01*
X133356500Y-110320500D01*
X133401500Y-110336500D01*
X133444500Y-110354500D01*
X133487500Y-110374500D01*
X133528500Y-110397500D01*
X133568500Y-110421500D01*
X133607500Y-110448500D01*
X133644500Y-110477500D01*
X133680500Y-110507500D01*
X133714500Y-110540500D01*
X133747500Y-110574500D01*
X133777500Y-110610500D01*
X133806500Y-110647500D01*
X133833500Y-110686500D01*
X133857500Y-110726500D01*
X133880500Y-110767500D01*
X133900500Y-110810500D01*
X133918500Y-110853500D01*
X133934500Y-110898500D01*
X133947500Y-110943500D01*
X133958500Y-110989500D01*
X133967500Y-111035500D01*
X133973500Y-111082500D01*
X133977500Y-111129500D01*
X133978500Y-111176500D01*
X133978500Y-113676500D01*
X132178500Y-113676500D01*
X132178500Y-111176500D01*
X132179500Y-111129500D01*
X132183500Y-111082500D01*
X132189500Y-111035500D01*
X132198500Y-110989500D01*
X132209500Y-110943500D01*
X132222500Y-110898500D01*
X132238500Y-110853500D01*
X132256500Y-110810500D01*
X132276500Y-110767500D01*
X132299500Y-110726500D01*
X132323500Y-110686500D01*
X132350500Y-110647500D01*
X132379500Y-110610500D01*
X132409500Y-110574500D01*
X132442500Y-110540500D01*
X132476500Y-110507500D01*
X132512500Y-110477500D01*
X132549500Y-110448500D01*
X132588500Y-110421500D01*
X132628500Y-110397500D01*
X132669500Y-110374500D01*
X132712500Y-110354500D01*
X132755500Y-110336500D01*
X132800500Y-110320500D01*
X132845500Y-110307500D01*
X132891500Y-110296500D01*
X132937500Y-110287500D01*
X132984500Y-110281500D01*
X133031500Y-110277500D01*
X133078500Y-110276500D01*
X133125500Y-110277500D01*
G37*
X133125500Y-110277500D02*
X133172500Y-110281500D01*
X133219500Y-110287500D01*
X133265500Y-110296500D01*
X133311500Y-110307500D01*
X133356500Y-110320500D01*
X133401500Y-110336500D01*
X133444500Y-110354500D01*
X133487500Y-110374500D01*
X133528500Y-110397500D01*
X133568500Y-110421500D01*
X133607500Y-110448500D01*
X133644500Y-110477500D01*
X133680500Y-110507500D01*
X133714500Y-110540500D01*
X133747500Y-110574500D01*
X133777500Y-110610500D01*
X133806500Y-110647500D01*
X133833500Y-110686500D01*
X133857500Y-110726500D01*
X133880500Y-110767500D01*
X133900500Y-110810500D01*
X133918500Y-110853500D01*
X133934500Y-110898500D01*
X133947500Y-110943500D01*
X133958500Y-110989500D01*
X133967500Y-111035500D01*
X133973500Y-111082500D01*
X133977500Y-111129500D01*
X133978500Y-111176500D01*
X133978500Y-113676500D01*
X132178500Y-113676500D01*
X132178500Y-111176500D01*
X132179500Y-111129500D01*
X132183500Y-111082500D01*
X132189500Y-111035500D01*
X132198500Y-110989500D01*
X132209500Y-110943500D01*
X132222500Y-110898500D01*
X132238500Y-110853500D01*
X132256500Y-110810500D01*
X132276500Y-110767500D01*
X132299500Y-110726500D01*
X132323500Y-110686500D01*
X132350500Y-110647500D01*
X132379500Y-110610500D01*
X132409500Y-110574500D01*
X132442500Y-110540500D01*
X132476500Y-110507500D01*
X132512500Y-110477500D01*
X132549500Y-110448500D01*
X132588500Y-110421500D01*
X132628500Y-110397500D01*
X132669500Y-110374500D01*
X132712500Y-110354500D01*
X132755500Y-110336500D01*
X132800500Y-110320500D01*
X132845500Y-110307500D01*
X132891500Y-110296500D01*
X132937500Y-110287500D01*
X132984500Y-110281500D01*
X133031500Y-110277500D01*
X133078500Y-110276500D01*
X133125500Y-110277500D01*
G36*
X128898500Y-93396500D02*
G01*
X128897500Y-93443500D01*
X128893500Y-93490500D01*
X128887500Y-93537500D01*
X128878500Y-93583500D01*
X128867500Y-93629500D01*
X128854500Y-93674500D01*
X128838500Y-93719500D01*
X128820500Y-93762500D01*
X128800500Y-93805500D01*
X128777500Y-93846500D01*
X128753500Y-93886500D01*
X128726500Y-93925500D01*
X128697500Y-93962500D01*
X128667500Y-93998500D01*
X128634500Y-94032500D01*
X128600500Y-94065500D01*
X128564500Y-94095500D01*
X128527500Y-94124500D01*
X128488500Y-94151500D01*
X128448500Y-94175500D01*
X128407500Y-94198500D01*
X128364500Y-94218500D01*
X128321500Y-94236500D01*
X128276500Y-94252500D01*
X128231500Y-94265500D01*
X128185500Y-94276500D01*
X128139500Y-94285500D01*
X128092500Y-94291500D01*
X128045500Y-94295500D01*
X127998500Y-94296500D01*
X127951500Y-94295500D01*
X127904500Y-94291500D01*
X127857500Y-94285500D01*
X127811500Y-94276500D01*
X127765500Y-94265500D01*
X127720500Y-94252500D01*
X127675500Y-94236500D01*
X127632500Y-94218500D01*
X127589500Y-94198500D01*
X127548500Y-94175500D01*
X127508500Y-94151500D01*
X127469500Y-94124500D01*
X127432500Y-94095500D01*
X127396500Y-94065500D01*
X127362500Y-94032500D01*
X127329500Y-93998500D01*
X127299500Y-93962500D01*
X127270500Y-93925500D01*
X127243500Y-93886500D01*
X127219500Y-93846500D01*
X127196500Y-93805500D01*
X127176500Y-93762500D01*
X127158500Y-93719500D01*
X127142500Y-93674500D01*
X127129500Y-93629500D01*
X127118500Y-93583500D01*
X127109500Y-93537500D01*
X127103500Y-93490500D01*
X127099500Y-93443500D01*
X127098500Y-93396500D01*
X127098500Y-90896500D01*
X128898500Y-90896500D01*
X128898500Y-93396500D01*
G37*
X128898500Y-93396500D02*
X128897500Y-93443500D01*
X128893500Y-93490500D01*
X128887500Y-93537500D01*
X128878500Y-93583500D01*
X128867500Y-93629500D01*
X128854500Y-93674500D01*
X128838500Y-93719500D01*
X128820500Y-93762500D01*
X128800500Y-93805500D01*
X128777500Y-93846500D01*
X128753500Y-93886500D01*
X128726500Y-93925500D01*
X128697500Y-93962500D01*
X128667500Y-93998500D01*
X128634500Y-94032500D01*
X128600500Y-94065500D01*
X128564500Y-94095500D01*
X128527500Y-94124500D01*
X128488500Y-94151500D01*
X128448500Y-94175500D01*
X128407500Y-94198500D01*
X128364500Y-94218500D01*
X128321500Y-94236500D01*
X128276500Y-94252500D01*
X128231500Y-94265500D01*
X128185500Y-94276500D01*
X128139500Y-94285500D01*
X128092500Y-94291500D01*
X128045500Y-94295500D01*
X127998500Y-94296500D01*
X127951500Y-94295500D01*
X127904500Y-94291500D01*
X127857500Y-94285500D01*
X127811500Y-94276500D01*
X127765500Y-94265500D01*
X127720500Y-94252500D01*
X127675500Y-94236500D01*
X127632500Y-94218500D01*
X127589500Y-94198500D01*
X127548500Y-94175500D01*
X127508500Y-94151500D01*
X127469500Y-94124500D01*
X127432500Y-94095500D01*
X127396500Y-94065500D01*
X127362500Y-94032500D01*
X127329500Y-93998500D01*
X127299500Y-93962500D01*
X127270500Y-93925500D01*
X127243500Y-93886500D01*
X127219500Y-93846500D01*
X127196500Y-93805500D01*
X127176500Y-93762500D01*
X127158500Y-93719500D01*
X127142500Y-93674500D01*
X127129500Y-93629500D01*
X127118500Y-93583500D01*
X127109500Y-93537500D01*
X127103500Y-93490500D01*
X127099500Y-93443500D01*
X127098500Y-93396500D01*
X127098500Y-90896500D01*
X128898500Y-90896500D01*
X128898500Y-93396500D01*
G36*
X113658500Y-93396500D02*
G01*
X113657500Y-93443500D01*
X113653500Y-93490500D01*
X113647500Y-93537500D01*
X113638500Y-93583500D01*
X113627500Y-93629500D01*
X113614500Y-93674500D01*
X113598500Y-93719500D01*
X113580500Y-93762500D01*
X113560500Y-93805500D01*
X113537500Y-93846500D01*
X113513500Y-93886500D01*
X113486500Y-93925500D01*
X113457500Y-93962500D01*
X113427500Y-93998500D01*
X113394500Y-94032500D01*
X113360500Y-94065500D01*
X113324500Y-94095500D01*
X113287500Y-94124500D01*
X113248500Y-94151500D01*
X113208500Y-94175500D01*
X113167500Y-94198500D01*
X113124500Y-94218500D01*
X113081500Y-94236500D01*
X113036500Y-94252500D01*
X112991500Y-94265500D01*
X112945500Y-94276500D01*
X112899500Y-94285500D01*
X112852500Y-94291500D01*
X112805500Y-94295500D01*
X112758500Y-94296500D01*
X112711500Y-94295500D01*
X112664500Y-94291500D01*
X112617500Y-94285500D01*
X112571500Y-94276500D01*
X112525500Y-94265500D01*
X112480500Y-94252500D01*
X112435500Y-94236500D01*
X112392500Y-94218500D01*
X112349500Y-94198500D01*
X112308500Y-94175500D01*
X112268500Y-94151500D01*
X112229500Y-94124500D01*
X112192500Y-94095500D01*
X112156500Y-94065500D01*
X112122500Y-94032500D01*
X112089500Y-93998500D01*
X112059500Y-93962500D01*
X112030500Y-93925500D01*
X112003500Y-93886500D01*
X111979500Y-93846500D01*
X111956500Y-93805500D01*
X111936500Y-93762500D01*
X111918500Y-93719500D01*
X111902500Y-93674500D01*
X111889500Y-93629500D01*
X111878500Y-93583500D01*
X111869500Y-93537500D01*
X111863500Y-93490500D01*
X111859500Y-93443500D01*
X111858500Y-93396500D01*
X111858500Y-90896500D01*
X113658500Y-90896500D01*
X113658500Y-93396500D01*
G37*
X113658500Y-93396500D02*
X113657500Y-93443500D01*
X113653500Y-93490500D01*
X113647500Y-93537500D01*
X113638500Y-93583500D01*
X113627500Y-93629500D01*
X113614500Y-93674500D01*
X113598500Y-93719500D01*
X113580500Y-93762500D01*
X113560500Y-93805500D01*
X113537500Y-93846500D01*
X113513500Y-93886500D01*
X113486500Y-93925500D01*
X113457500Y-93962500D01*
X113427500Y-93998500D01*
X113394500Y-94032500D01*
X113360500Y-94065500D01*
X113324500Y-94095500D01*
X113287500Y-94124500D01*
X113248500Y-94151500D01*
X113208500Y-94175500D01*
X113167500Y-94198500D01*
X113124500Y-94218500D01*
X113081500Y-94236500D01*
X113036500Y-94252500D01*
X112991500Y-94265500D01*
X112945500Y-94276500D01*
X112899500Y-94285500D01*
X112852500Y-94291500D01*
X112805500Y-94295500D01*
X112758500Y-94296500D01*
X112711500Y-94295500D01*
X112664500Y-94291500D01*
X112617500Y-94285500D01*
X112571500Y-94276500D01*
X112525500Y-94265500D01*
X112480500Y-94252500D01*
X112435500Y-94236500D01*
X112392500Y-94218500D01*
X112349500Y-94198500D01*
X112308500Y-94175500D01*
X112268500Y-94151500D01*
X112229500Y-94124500D01*
X112192500Y-94095500D01*
X112156500Y-94065500D01*
X112122500Y-94032500D01*
X112089500Y-93998500D01*
X112059500Y-93962500D01*
X112030500Y-93925500D01*
X112003500Y-93886500D01*
X111979500Y-93846500D01*
X111956500Y-93805500D01*
X111936500Y-93762500D01*
X111918500Y-93719500D01*
X111902500Y-93674500D01*
X111889500Y-93629500D01*
X111878500Y-93583500D01*
X111869500Y-93537500D01*
X111863500Y-93490500D01*
X111859500Y-93443500D01*
X111858500Y-93396500D01*
X111858500Y-90896500D01*
X113658500Y-90896500D01*
X113658500Y-93396500D01*
G36*
X88258500Y-93396500D02*
G01*
X88257500Y-93443500D01*
X88253500Y-93490500D01*
X88247500Y-93537500D01*
X88238500Y-93583500D01*
X88227500Y-93629500D01*
X88214500Y-93674500D01*
X88198500Y-93719500D01*
X88180500Y-93762500D01*
X88160500Y-93805500D01*
X88137500Y-93846500D01*
X88113500Y-93886500D01*
X88086500Y-93925500D01*
X88057500Y-93962500D01*
X88027500Y-93998500D01*
X87994500Y-94032500D01*
X87960500Y-94065500D01*
X87924500Y-94095500D01*
X87887500Y-94124500D01*
X87848500Y-94151500D01*
X87808500Y-94175500D01*
X87767500Y-94198500D01*
X87724500Y-94218500D01*
X87681500Y-94236500D01*
X87636500Y-94252500D01*
X87591500Y-94265500D01*
X87545500Y-94276500D01*
X87499500Y-94285500D01*
X87452500Y-94291500D01*
X87405500Y-94295500D01*
X87358500Y-94296500D01*
X87311500Y-94295500D01*
X87264500Y-94291500D01*
X87217500Y-94285500D01*
X87171500Y-94276500D01*
X87125500Y-94265500D01*
X87080500Y-94252500D01*
X87035500Y-94236500D01*
X86992500Y-94218500D01*
X86949500Y-94198500D01*
X86908500Y-94175500D01*
X86868500Y-94151500D01*
X86829500Y-94124500D01*
X86792500Y-94095500D01*
X86756500Y-94065500D01*
X86722500Y-94032500D01*
X86689500Y-93998500D01*
X86659500Y-93962500D01*
X86630500Y-93925500D01*
X86603500Y-93886500D01*
X86579500Y-93846500D01*
X86556500Y-93805500D01*
X86536500Y-93762500D01*
X86518500Y-93719500D01*
X86502500Y-93674500D01*
X86489500Y-93629500D01*
X86478500Y-93583500D01*
X86469500Y-93537500D01*
X86463500Y-93490500D01*
X86459500Y-93443500D01*
X86458500Y-93396500D01*
X86458500Y-90896500D01*
X88258500Y-90896500D01*
X88258500Y-93396500D01*
G37*
X88258500Y-93396500D02*
X88257500Y-93443500D01*
X88253500Y-93490500D01*
X88247500Y-93537500D01*
X88238500Y-93583500D01*
X88227500Y-93629500D01*
X88214500Y-93674500D01*
X88198500Y-93719500D01*
X88180500Y-93762500D01*
X88160500Y-93805500D01*
X88137500Y-93846500D01*
X88113500Y-93886500D01*
X88086500Y-93925500D01*
X88057500Y-93962500D01*
X88027500Y-93998500D01*
X87994500Y-94032500D01*
X87960500Y-94065500D01*
X87924500Y-94095500D01*
X87887500Y-94124500D01*
X87848500Y-94151500D01*
X87808500Y-94175500D01*
X87767500Y-94198500D01*
X87724500Y-94218500D01*
X87681500Y-94236500D01*
X87636500Y-94252500D01*
X87591500Y-94265500D01*
X87545500Y-94276500D01*
X87499500Y-94285500D01*
X87452500Y-94291500D01*
X87405500Y-94295500D01*
X87358500Y-94296500D01*
X87311500Y-94295500D01*
X87264500Y-94291500D01*
X87217500Y-94285500D01*
X87171500Y-94276500D01*
X87125500Y-94265500D01*
X87080500Y-94252500D01*
X87035500Y-94236500D01*
X86992500Y-94218500D01*
X86949500Y-94198500D01*
X86908500Y-94175500D01*
X86868500Y-94151500D01*
X86829500Y-94124500D01*
X86792500Y-94095500D01*
X86756500Y-94065500D01*
X86722500Y-94032500D01*
X86689500Y-93998500D01*
X86659500Y-93962500D01*
X86630500Y-93925500D01*
X86603500Y-93886500D01*
X86579500Y-93846500D01*
X86556500Y-93805500D01*
X86536500Y-93762500D01*
X86518500Y-93719500D01*
X86502500Y-93674500D01*
X86489500Y-93629500D01*
X86478500Y-93583500D01*
X86469500Y-93537500D01*
X86463500Y-93490500D01*
X86459500Y-93443500D01*
X86458500Y-93396500D01*
X86458500Y-90896500D01*
X88258500Y-90896500D01*
X88258500Y-93396500D01*
G36*
X102645500Y-110277500D02*
G01*
X102692500Y-110281500D01*
X102739500Y-110287500D01*
X102785500Y-110296500D01*
X102831500Y-110307500D01*
X102876500Y-110320500D01*
X102921500Y-110336500D01*
X102964500Y-110354500D01*
X103007500Y-110374500D01*
X103048500Y-110397500D01*
X103088500Y-110421500D01*
X103127500Y-110448500D01*
X103164500Y-110477500D01*
X103200500Y-110507500D01*
X103234500Y-110540500D01*
X103267500Y-110574500D01*
X103297500Y-110610500D01*
X103326500Y-110647500D01*
X103353500Y-110686500D01*
X103377500Y-110726500D01*
X103400500Y-110767500D01*
X103420500Y-110810500D01*
X103438500Y-110853500D01*
X103454500Y-110898500D01*
X103467500Y-110943500D01*
X103478500Y-110989500D01*
X103487500Y-111035500D01*
X103493500Y-111082500D01*
X103497500Y-111129500D01*
X103498500Y-111176500D01*
X103498500Y-113676500D01*
X101698500Y-113676500D01*
X101698500Y-111176500D01*
X101699500Y-111129500D01*
X101703500Y-111082500D01*
X101709500Y-111035500D01*
X101718500Y-110989500D01*
X101729500Y-110943500D01*
X101742500Y-110898500D01*
X101758500Y-110853500D01*
X101776500Y-110810500D01*
X101796500Y-110767500D01*
X101819500Y-110726500D01*
X101843500Y-110686500D01*
X101870500Y-110647500D01*
X101899500Y-110610500D01*
X101929500Y-110574500D01*
X101962500Y-110540500D01*
X101996500Y-110507500D01*
X102032500Y-110477500D01*
X102069500Y-110448500D01*
X102108500Y-110421500D01*
X102148500Y-110397500D01*
X102189500Y-110374500D01*
X102232500Y-110354500D01*
X102275500Y-110336500D01*
X102320500Y-110320500D01*
X102365500Y-110307500D01*
X102411500Y-110296500D01*
X102457500Y-110287500D01*
X102504500Y-110281500D01*
X102551500Y-110277500D01*
X102598500Y-110276500D01*
X102645500Y-110277500D01*
G37*
X102645500Y-110277500D02*
X102692500Y-110281500D01*
X102739500Y-110287500D01*
X102785500Y-110296500D01*
X102831500Y-110307500D01*
X102876500Y-110320500D01*
X102921500Y-110336500D01*
X102964500Y-110354500D01*
X103007500Y-110374500D01*
X103048500Y-110397500D01*
X103088500Y-110421500D01*
X103127500Y-110448500D01*
X103164500Y-110477500D01*
X103200500Y-110507500D01*
X103234500Y-110540500D01*
X103267500Y-110574500D01*
X103297500Y-110610500D01*
X103326500Y-110647500D01*
X103353500Y-110686500D01*
X103377500Y-110726500D01*
X103400500Y-110767500D01*
X103420500Y-110810500D01*
X103438500Y-110853500D01*
X103454500Y-110898500D01*
X103467500Y-110943500D01*
X103478500Y-110989500D01*
X103487500Y-111035500D01*
X103493500Y-111082500D01*
X103497500Y-111129500D01*
X103498500Y-111176500D01*
X103498500Y-113676500D01*
X101698500Y-113676500D01*
X101698500Y-111176500D01*
X101699500Y-111129500D01*
X101703500Y-111082500D01*
X101709500Y-111035500D01*
X101718500Y-110989500D01*
X101729500Y-110943500D01*
X101742500Y-110898500D01*
X101758500Y-110853500D01*
X101776500Y-110810500D01*
X101796500Y-110767500D01*
X101819500Y-110726500D01*
X101843500Y-110686500D01*
X101870500Y-110647500D01*
X101899500Y-110610500D01*
X101929500Y-110574500D01*
X101962500Y-110540500D01*
X101996500Y-110507500D01*
X102032500Y-110477500D01*
X102069500Y-110448500D01*
X102108500Y-110421500D01*
X102148500Y-110397500D01*
X102189500Y-110374500D01*
X102232500Y-110354500D01*
X102275500Y-110336500D01*
X102320500Y-110320500D01*
X102365500Y-110307500D01*
X102411500Y-110296500D01*
X102457500Y-110287500D01*
X102504500Y-110281500D01*
X102551500Y-110277500D01*
X102598500Y-110276500D01*
X102645500Y-110277500D01*
G36*
X116198500Y-93396500D02*
G01*
X116197500Y-93443500D01*
X116193500Y-93490500D01*
X116187500Y-93537500D01*
X116178500Y-93583500D01*
X116167500Y-93629500D01*
X116154500Y-93674500D01*
X116138500Y-93719500D01*
X116120500Y-93762500D01*
X116100500Y-93805500D01*
X116077500Y-93846500D01*
X116053500Y-93886500D01*
X116026500Y-93925500D01*
X115997500Y-93962500D01*
X115967500Y-93998500D01*
X115934500Y-94032500D01*
X115900500Y-94065500D01*
X115864500Y-94095500D01*
X115827500Y-94124500D01*
X115788500Y-94151500D01*
X115748500Y-94175500D01*
X115707500Y-94198500D01*
X115664500Y-94218500D01*
X115621500Y-94236500D01*
X115576500Y-94252500D01*
X115531500Y-94265500D01*
X115485500Y-94276500D01*
X115439500Y-94285500D01*
X115392500Y-94291500D01*
X115345500Y-94295500D01*
X115298500Y-94296500D01*
X115251500Y-94295500D01*
X115204500Y-94291500D01*
X115157500Y-94285500D01*
X115111500Y-94276500D01*
X115065500Y-94265500D01*
X115020500Y-94252500D01*
X114975500Y-94236500D01*
X114932500Y-94218500D01*
X114889500Y-94198500D01*
X114848500Y-94175500D01*
X114808500Y-94151500D01*
X114769500Y-94124500D01*
X114732500Y-94095500D01*
X114696500Y-94065500D01*
X114662500Y-94032500D01*
X114629500Y-93998500D01*
X114599500Y-93962500D01*
X114570500Y-93925500D01*
X114543500Y-93886500D01*
X114519500Y-93846500D01*
X114496500Y-93805500D01*
X114476500Y-93762500D01*
X114458500Y-93719500D01*
X114442500Y-93674500D01*
X114429500Y-93629500D01*
X114418500Y-93583500D01*
X114409500Y-93537500D01*
X114403500Y-93490500D01*
X114399500Y-93443500D01*
X114398500Y-93396500D01*
X114398500Y-90896500D01*
X116198500Y-90896500D01*
X116198500Y-93396500D01*
G37*
X116198500Y-93396500D02*
X116197500Y-93443500D01*
X116193500Y-93490500D01*
X116187500Y-93537500D01*
X116178500Y-93583500D01*
X116167500Y-93629500D01*
X116154500Y-93674500D01*
X116138500Y-93719500D01*
X116120500Y-93762500D01*
X116100500Y-93805500D01*
X116077500Y-93846500D01*
X116053500Y-93886500D01*
X116026500Y-93925500D01*
X115997500Y-93962500D01*
X115967500Y-93998500D01*
X115934500Y-94032500D01*
X115900500Y-94065500D01*
X115864500Y-94095500D01*
X115827500Y-94124500D01*
X115788500Y-94151500D01*
X115748500Y-94175500D01*
X115707500Y-94198500D01*
X115664500Y-94218500D01*
X115621500Y-94236500D01*
X115576500Y-94252500D01*
X115531500Y-94265500D01*
X115485500Y-94276500D01*
X115439500Y-94285500D01*
X115392500Y-94291500D01*
X115345500Y-94295500D01*
X115298500Y-94296500D01*
X115251500Y-94295500D01*
X115204500Y-94291500D01*
X115157500Y-94285500D01*
X115111500Y-94276500D01*
X115065500Y-94265500D01*
X115020500Y-94252500D01*
X114975500Y-94236500D01*
X114932500Y-94218500D01*
X114889500Y-94198500D01*
X114848500Y-94175500D01*
X114808500Y-94151500D01*
X114769500Y-94124500D01*
X114732500Y-94095500D01*
X114696500Y-94065500D01*
X114662500Y-94032500D01*
X114629500Y-93998500D01*
X114599500Y-93962500D01*
X114570500Y-93925500D01*
X114543500Y-93886500D01*
X114519500Y-93846500D01*
X114496500Y-93805500D01*
X114476500Y-93762500D01*
X114458500Y-93719500D01*
X114442500Y-93674500D01*
X114429500Y-93629500D01*
X114418500Y-93583500D01*
X114409500Y-93537500D01*
X114403500Y-93490500D01*
X114399500Y-93443500D01*
X114398500Y-93396500D01*
X114398500Y-90896500D01*
X116198500Y-90896500D01*
X116198500Y-93396500D01*
G36*
X110265500Y-110277500D02*
G01*
X110312500Y-110281500D01*
X110359500Y-110287500D01*
X110405500Y-110296500D01*
X110451500Y-110307500D01*
X110496500Y-110320500D01*
X110541500Y-110336500D01*
X110584500Y-110354500D01*
X110627500Y-110374500D01*
X110668500Y-110397500D01*
X110708500Y-110421500D01*
X110747500Y-110448500D01*
X110784500Y-110477500D01*
X110820500Y-110507500D01*
X110854500Y-110540500D01*
X110887500Y-110574500D01*
X110917500Y-110610500D01*
X110946500Y-110647500D01*
X110973500Y-110686500D01*
X110997500Y-110726500D01*
X111020500Y-110767500D01*
X111040500Y-110810500D01*
X111058500Y-110853500D01*
X111074500Y-110898500D01*
X111087500Y-110943500D01*
X111098500Y-110989500D01*
X111107500Y-111035500D01*
X111113500Y-111082500D01*
X111117500Y-111129500D01*
X111118500Y-111176500D01*
X111118500Y-113676500D01*
X109318500Y-113676500D01*
X109318500Y-111176500D01*
X109319500Y-111129500D01*
X109323500Y-111082500D01*
X109329500Y-111035500D01*
X109338500Y-110989500D01*
X109349500Y-110943500D01*
X109362500Y-110898500D01*
X109378500Y-110853500D01*
X109396500Y-110810500D01*
X109416500Y-110767500D01*
X109439500Y-110726500D01*
X109463500Y-110686500D01*
X109490500Y-110647500D01*
X109519500Y-110610500D01*
X109549500Y-110574500D01*
X109582500Y-110540500D01*
X109616500Y-110507500D01*
X109652500Y-110477500D01*
X109689500Y-110448500D01*
X109728500Y-110421500D01*
X109768500Y-110397500D01*
X109809500Y-110374500D01*
X109852500Y-110354500D01*
X109895500Y-110336500D01*
X109940500Y-110320500D01*
X109985500Y-110307500D01*
X110031500Y-110296500D01*
X110077500Y-110287500D01*
X110124500Y-110281500D01*
X110171500Y-110277500D01*
X110218500Y-110276500D01*
X110265500Y-110277500D01*
G37*
X110265500Y-110277500D02*
X110312500Y-110281500D01*
X110359500Y-110287500D01*
X110405500Y-110296500D01*
X110451500Y-110307500D01*
X110496500Y-110320500D01*
X110541500Y-110336500D01*
X110584500Y-110354500D01*
X110627500Y-110374500D01*
X110668500Y-110397500D01*
X110708500Y-110421500D01*
X110747500Y-110448500D01*
X110784500Y-110477500D01*
X110820500Y-110507500D01*
X110854500Y-110540500D01*
X110887500Y-110574500D01*
X110917500Y-110610500D01*
X110946500Y-110647500D01*
X110973500Y-110686500D01*
X110997500Y-110726500D01*
X111020500Y-110767500D01*
X111040500Y-110810500D01*
X111058500Y-110853500D01*
X111074500Y-110898500D01*
X111087500Y-110943500D01*
X111098500Y-110989500D01*
X111107500Y-111035500D01*
X111113500Y-111082500D01*
X111117500Y-111129500D01*
X111118500Y-111176500D01*
X111118500Y-113676500D01*
X109318500Y-113676500D01*
X109318500Y-111176500D01*
X109319500Y-111129500D01*
X109323500Y-111082500D01*
X109329500Y-111035500D01*
X109338500Y-110989500D01*
X109349500Y-110943500D01*
X109362500Y-110898500D01*
X109378500Y-110853500D01*
X109396500Y-110810500D01*
X109416500Y-110767500D01*
X109439500Y-110726500D01*
X109463500Y-110686500D01*
X109490500Y-110647500D01*
X109519500Y-110610500D01*
X109549500Y-110574500D01*
X109582500Y-110540500D01*
X109616500Y-110507500D01*
X109652500Y-110477500D01*
X109689500Y-110448500D01*
X109728500Y-110421500D01*
X109768500Y-110397500D01*
X109809500Y-110374500D01*
X109852500Y-110354500D01*
X109895500Y-110336500D01*
X109940500Y-110320500D01*
X109985500Y-110307500D01*
X110031500Y-110296500D01*
X110077500Y-110287500D01*
X110124500Y-110281500D01*
X110171500Y-110277500D01*
X110218500Y-110276500D01*
X110265500Y-110277500D01*
G36*
X115345500Y-110277500D02*
G01*
X115392500Y-110281500D01*
X115439500Y-110287500D01*
X115485500Y-110296500D01*
X115531500Y-110307500D01*
X115576500Y-110320500D01*
X115621500Y-110336500D01*
X115664500Y-110354500D01*
X115707500Y-110374500D01*
X115748500Y-110397500D01*
X115788500Y-110421500D01*
X115827500Y-110448500D01*
X115864500Y-110477500D01*
X115900500Y-110507500D01*
X115934500Y-110540500D01*
X115967500Y-110574500D01*
X115997500Y-110610500D01*
X116026500Y-110647500D01*
X116053500Y-110686500D01*
X116077500Y-110726500D01*
X116100500Y-110767500D01*
X116120500Y-110810500D01*
X116138500Y-110853500D01*
X116154500Y-110898500D01*
X116167500Y-110943500D01*
X116178500Y-110989500D01*
X116187500Y-111035500D01*
X116193500Y-111082500D01*
X116197500Y-111129500D01*
X116198500Y-111176500D01*
X116198500Y-113676500D01*
X114398500Y-113676500D01*
X114398500Y-111176500D01*
X114399500Y-111129500D01*
X114403500Y-111082500D01*
X114409500Y-111035500D01*
X114418500Y-110989500D01*
X114429500Y-110943500D01*
X114442500Y-110898500D01*
X114458500Y-110853500D01*
X114476500Y-110810500D01*
X114496500Y-110767500D01*
X114519500Y-110726500D01*
X114543500Y-110686500D01*
X114570500Y-110647500D01*
X114599500Y-110610500D01*
X114629500Y-110574500D01*
X114662500Y-110540500D01*
X114696500Y-110507500D01*
X114732500Y-110477500D01*
X114769500Y-110448500D01*
X114808500Y-110421500D01*
X114848500Y-110397500D01*
X114889500Y-110374500D01*
X114932500Y-110354500D01*
X114975500Y-110336500D01*
X115020500Y-110320500D01*
X115065500Y-110307500D01*
X115111500Y-110296500D01*
X115157500Y-110287500D01*
X115204500Y-110281500D01*
X115251500Y-110277500D01*
X115298500Y-110276500D01*
X115345500Y-110277500D01*
G37*
X115345500Y-110277500D02*
X115392500Y-110281500D01*
X115439500Y-110287500D01*
X115485500Y-110296500D01*
X115531500Y-110307500D01*
X115576500Y-110320500D01*
X115621500Y-110336500D01*
X115664500Y-110354500D01*
X115707500Y-110374500D01*
X115748500Y-110397500D01*
X115788500Y-110421500D01*
X115827500Y-110448500D01*
X115864500Y-110477500D01*
X115900500Y-110507500D01*
X115934500Y-110540500D01*
X115967500Y-110574500D01*
X115997500Y-110610500D01*
X116026500Y-110647500D01*
X116053500Y-110686500D01*
X116077500Y-110726500D01*
X116100500Y-110767500D01*
X116120500Y-110810500D01*
X116138500Y-110853500D01*
X116154500Y-110898500D01*
X116167500Y-110943500D01*
X116178500Y-110989500D01*
X116187500Y-111035500D01*
X116193500Y-111082500D01*
X116197500Y-111129500D01*
X116198500Y-111176500D01*
X116198500Y-113676500D01*
X114398500Y-113676500D01*
X114398500Y-111176500D01*
X114399500Y-111129500D01*
X114403500Y-111082500D01*
X114409500Y-111035500D01*
X114418500Y-110989500D01*
X114429500Y-110943500D01*
X114442500Y-110898500D01*
X114458500Y-110853500D01*
X114476500Y-110810500D01*
X114496500Y-110767500D01*
X114519500Y-110726500D01*
X114543500Y-110686500D01*
X114570500Y-110647500D01*
X114599500Y-110610500D01*
X114629500Y-110574500D01*
X114662500Y-110540500D01*
X114696500Y-110507500D01*
X114732500Y-110477500D01*
X114769500Y-110448500D01*
X114808500Y-110421500D01*
X114848500Y-110397500D01*
X114889500Y-110374500D01*
X114932500Y-110354500D01*
X114975500Y-110336500D01*
X115020500Y-110320500D01*
X115065500Y-110307500D01*
X115111500Y-110296500D01*
X115157500Y-110287500D01*
X115204500Y-110281500D01*
X115251500Y-110277500D01*
X115298500Y-110276500D01*
X115345500Y-110277500D01*
G36*
X122965500Y-110277500D02*
G01*
X123012500Y-110281500D01*
X123059500Y-110287500D01*
X123105500Y-110296500D01*
X123151500Y-110307500D01*
X123196500Y-110320500D01*
X123241500Y-110336500D01*
X123284500Y-110354500D01*
X123327500Y-110374500D01*
X123368500Y-110397500D01*
X123408500Y-110421500D01*
X123447500Y-110448500D01*
X123484500Y-110477500D01*
X123520500Y-110507500D01*
X123554500Y-110540500D01*
X123587500Y-110574500D01*
X123617500Y-110610500D01*
X123646500Y-110647500D01*
X123673500Y-110686500D01*
X123697500Y-110726500D01*
X123720500Y-110767500D01*
X123740500Y-110810500D01*
X123758500Y-110853500D01*
X123774500Y-110898500D01*
X123787500Y-110943500D01*
X123798500Y-110989500D01*
X123807500Y-111035500D01*
X123813500Y-111082500D01*
X123817500Y-111129500D01*
X123818500Y-111176500D01*
X123818500Y-113676500D01*
X122018500Y-113676500D01*
X122018500Y-111176500D01*
X122019500Y-111129500D01*
X122023500Y-111082500D01*
X122029500Y-111035500D01*
X122038500Y-110989500D01*
X122049500Y-110943500D01*
X122062500Y-110898500D01*
X122078500Y-110853500D01*
X122096500Y-110810500D01*
X122116500Y-110767500D01*
X122139500Y-110726500D01*
X122163500Y-110686500D01*
X122190500Y-110647500D01*
X122219500Y-110610500D01*
X122249500Y-110574500D01*
X122282500Y-110540500D01*
X122316500Y-110507500D01*
X122352500Y-110477500D01*
X122389500Y-110448500D01*
X122428500Y-110421500D01*
X122468500Y-110397500D01*
X122509500Y-110374500D01*
X122552500Y-110354500D01*
X122595500Y-110336500D01*
X122640500Y-110320500D01*
X122685500Y-110307500D01*
X122731500Y-110296500D01*
X122777500Y-110287500D01*
X122824500Y-110281500D01*
X122871500Y-110277500D01*
X122918500Y-110276500D01*
X122965500Y-110277500D01*
G37*
X122965500Y-110277500D02*
X123012500Y-110281500D01*
X123059500Y-110287500D01*
X123105500Y-110296500D01*
X123151500Y-110307500D01*
X123196500Y-110320500D01*
X123241500Y-110336500D01*
X123284500Y-110354500D01*
X123327500Y-110374500D01*
X123368500Y-110397500D01*
X123408500Y-110421500D01*
X123447500Y-110448500D01*
X123484500Y-110477500D01*
X123520500Y-110507500D01*
X123554500Y-110540500D01*
X123587500Y-110574500D01*
X123617500Y-110610500D01*
X123646500Y-110647500D01*
X123673500Y-110686500D01*
X123697500Y-110726500D01*
X123720500Y-110767500D01*
X123740500Y-110810500D01*
X123758500Y-110853500D01*
X123774500Y-110898500D01*
X123787500Y-110943500D01*
X123798500Y-110989500D01*
X123807500Y-111035500D01*
X123813500Y-111082500D01*
X123817500Y-111129500D01*
X123818500Y-111176500D01*
X123818500Y-113676500D01*
X122018500Y-113676500D01*
X122018500Y-111176500D01*
X122019500Y-111129500D01*
X122023500Y-111082500D01*
X122029500Y-111035500D01*
X122038500Y-110989500D01*
X122049500Y-110943500D01*
X122062500Y-110898500D01*
X122078500Y-110853500D01*
X122096500Y-110810500D01*
X122116500Y-110767500D01*
X122139500Y-110726500D01*
X122163500Y-110686500D01*
X122190500Y-110647500D01*
X122219500Y-110610500D01*
X122249500Y-110574500D01*
X122282500Y-110540500D01*
X122316500Y-110507500D01*
X122352500Y-110477500D01*
X122389500Y-110448500D01*
X122428500Y-110421500D01*
X122468500Y-110397500D01*
X122509500Y-110374500D01*
X122552500Y-110354500D01*
X122595500Y-110336500D01*
X122640500Y-110320500D01*
X122685500Y-110307500D01*
X122731500Y-110296500D01*
X122777500Y-110287500D01*
X122824500Y-110281500D01*
X122871500Y-110277500D01*
X122918500Y-110276500D01*
X122965500Y-110277500D01*
G36*
X135665500Y-110277500D02*
G01*
X135712500Y-110281500D01*
X135759500Y-110287500D01*
X135805500Y-110296500D01*
X135851500Y-110307500D01*
X135896500Y-110320500D01*
X135941500Y-110336500D01*
X135984500Y-110354500D01*
X136027500Y-110374500D01*
X136068500Y-110397500D01*
X136108500Y-110421500D01*
X136147500Y-110448500D01*
X136184500Y-110477500D01*
X136220500Y-110507500D01*
X136254500Y-110540500D01*
X136287500Y-110574500D01*
X136317500Y-110610500D01*
X136346500Y-110647500D01*
X136373500Y-110686500D01*
X136397500Y-110726500D01*
X136420500Y-110767500D01*
X136440500Y-110810500D01*
X136458500Y-110853500D01*
X136474500Y-110898500D01*
X136487500Y-110943500D01*
X136498500Y-110989500D01*
X136507500Y-111035500D01*
X136513500Y-111082500D01*
X136517500Y-111129500D01*
X136518500Y-111176500D01*
X136518500Y-113676500D01*
X134718500Y-113676500D01*
X134718500Y-111176500D01*
X134719500Y-111129500D01*
X134723500Y-111082500D01*
X134729500Y-111035500D01*
X134738500Y-110989500D01*
X134749500Y-110943500D01*
X134762500Y-110898500D01*
X134778500Y-110853500D01*
X134796500Y-110810500D01*
X134816500Y-110767500D01*
X134839500Y-110726500D01*
X134863500Y-110686500D01*
X134890500Y-110647500D01*
X134919500Y-110610500D01*
X134949500Y-110574500D01*
X134982500Y-110540500D01*
X135016500Y-110507500D01*
X135052500Y-110477500D01*
X135089500Y-110448500D01*
X135128500Y-110421500D01*
X135168500Y-110397500D01*
X135209500Y-110374500D01*
X135252500Y-110354500D01*
X135295500Y-110336500D01*
X135340500Y-110320500D01*
X135385500Y-110307500D01*
X135431500Y-110296500D01*
X135477500Y-110287500D01*
X135524500Y-110281500D01*
X135571500Y-110277500D01*
X135618500Y-110276500D01*
X135665500Y-110277500D01*
G37*
X135665500Y-110277500D02*
X135712500Y-110281500D01*
X135759500Y-110287500D01*
X135805500Y-110296500D01*
X135851500Y-110307500D01*
X135896500Y-110320500D01*
X135941500Y-110336500D01*
X135984500Y-110354500D01*
X136027500Y-110374500D01*
X136068500Y-110397500D01*
X136108500Y-110421500D01*
X136147500Y-110448500D01*
X136184500Y-110477500D01*
X136220500Y-110507500D01*
X136254500Y-110540500D01*
X136287500Y-110574500D01*
X136317500Y-110610500D01*
X136346500Y-110647500D01*
X136373500Y-110686500D01*
X136397500Y-110726500D01*
X136420500Y-110767500D01*
X136440500Y-110810500D01*
X136458500Y-110853500D01*
X136474500Y-110898500D01*
X136487500Y-110943500D01*
X136498500Y-110989500D01*
X136507500Y-111035500D01*
X136513500Y-111082500D01*
X136517500Y-111129500D01*
X136518500Y-111176500D01*
X136518500Y-113676500D01*
X134718500Y-113676500D01*
X134718500Y-111176500D01*
X134719500Y-111129500D01*
X134723500Y-111082500D01*
X134729500Y-111035500D01*
X134738500Y-110989500D01*
X134749500Y-110943500D01*
X134762500Y-110898500D01*
X134778500Y-110853500D01*
X134796500Y-110810500D01*
X134816500Y-110767500D01*
X134839500Y-110726500D01*
X134863500Y-110686500D01*
X134890500Y-110647500D01*
X134919500Y-110610500D01*
X134949500Y-110574500D01*
X134982500Y-110540500D01*
X135016500Y-110507500D01*
X135052500Y-110477500D01*
X135089500Y-110448500D01*
X135128500Y-110421500D01*
X135168500Y-110397500D01*
X135209500Y-110374500D01*
X135252500Y-110354500D01*
X135295500Y-110336500D01*
X135340500Y-110320500D01*
X135385500Y-110307500D01*
X135431500Y-110296500D01*
X135477500Y-110287500D01*
X135524500Y-110281500D01*
X135571500Y-110277500D01*
X135618500Y-110276500D01*
X135665500Y-110277500D01*
G36*
X118469500Y-110278500D02*
G01*
X118485500Y-110280500D01*
X118500500Y-110283500D01*
X118516500Y-110286500D01*
X118546500Y-110296500D01*
X118560500Y-110302500D01*
X118588500Y-110316500D01*
X118601500Y-110324500D01*
X118614500Y-110333500D01*
X118627500Y-110343500D01*
X118639500Y-110353500D01*
X118661500Y-110375500D01*
X118671500Y-110387500D01*
X118681500Y-110400500D01*
X118690500Y-110413500D01*
X118698500Y-110426500D01*
X118712500Y-110454500D01*
X118718500Y-110468500D01*
X118728500Y-110498500D01*
X118731500Y-110514500D01*
X118734500Y-110529500D01*
X118736500Y-110545500D01*
X118738500Y-110560500D01*
X118738500Y-113676500D01*
X116938500Y-113676500D01*
X116938500Y-110560500D01*
X116940500Y-110545500D01*
X116942500Y-110529500D01*
X116945500Y-110514500D01*
X116948500Y-110498500D01*
X116958500Y-110468500D01*
X116964500Y-110454500D01*
X116978500Y-110426500D01*
X116986500Y-110413500D01*
X116995500Y-110400500D01*
X117005500Y-110387500D01*
X117015500Y-110375500D01*
X117037500Y-110353500D01*
X117049500Y-110343500D01*
X117062500Y-110333500D01*
X117075500Y-110324500D01*
X117088500Y-110316500D01*
X117116500Y-110302500D01*
X117130500Y-110296500D01*
X117160500Y-110286500D01*
X117176500Y-110283500D01*
X117191500Y-110280500D01*
X117207500Y-110278500D01*
X117222500Y-110276500D01*
X118454500Y-110276500D01*
X118469500Y-110278500D01*
G37*
X118469500Y-110278500D02*
X118485500Y-110280500D01*
X118500500Y-110283500D01*
X118516500Y-110286500D01*
X118546500Y-110296500D01*
X118560500Y-110302500D01*
X118588500Y-110316500D01*
X118601500Y-110324500D01*
X118614500Y-110333500D01*
X118627500Y-110343500D01*
X118639500Y-110353500D01*
X118661500Y-110375500D01*
X118671500Y-110387500D01*
X118681500Y-110400500D01*
X118690500Y-110413500D01*
X118698500Y-110426500D01*
X118712500Y-110454500D01*
X118718500Y-110468500D01*
X118728500Y-110498500D01*
X118731500Y-110514500D01*
X118734500Y-110529500D01*
X118736500Y-110545500D01*
X118738500Y-110560500D01*
X118738500Y-113676500D01*
X116938500Y-113676500D01*
X116938500Y-110560500D01*
X116940500Y-110545500D01*
X116942500Y-110529500D01*
X116945500Y-110514500D01*
X116948500Y-110498500D01*
X116958500Y-110468500D01*
X116964500Y-110454500D01*
X116978500Y-110426500D01*
X116986500Y-110413500D01*
X116995500Y-110400500D01*
X117005500Y-110387500D01*
X117015500Y-110375500D01*
X117037500Y-110353500D01*
X117049500Y-110343500D01*
X117062500Y-110333500D01*
X117075500Y-110324500D01*
X117088500Y-110316500D01*
X117116500Y-110302500D01*
X117130500Y-110296500D01*
X117160500Y-110286500D01*
X117176500Y-110283500D01*
X117191500Y-110280500D01*
X117207500Y-110278500D01*
X117222500Y-110276500D01*
X118454500Y-110276500D01*
X118469500Y-110278500D01*
G36*
X100958500Y-93396500D02*
G01*
X100957500Y-93443500D01*
X100953500Y-93490500D01*
X100947500Y-93537500D01*
X100938500Y-93583500D01*
X100927500Y-93629500D01*
X100914500Y-93674500D01*
X100898500Y-93719500D01*
X100880500Y-93762500D01*
X100860500Y-93805500D01*
X100837500Y-93846500D01*
X100813500Y-93886500D01*
X100786500Y-93925500D01*
X100757500Y-93962500D01*
X100727500Y-93998500D01*
X100694500Y-94032500D01*
X100660500Y-94065500D01*
X100624500Y-94095500D01*
X100587500Y-94124500D01*
X100548500Y-94151500D01*
X100508500Y-94175500D01*
X100467500Y-94198500D01*
X100424500Y-94218500D01*
X100381500Y-94236500D01*
X100336500Y-94252500D01*
X100291500Y-94265500D01*
X100245500Y-94276500D01*
X100199500Y-94285500D01*
X100152500Y-94291500D01*
X100105500Y-94295500D01*
X100058500Y-94296500D01*
X100011500Y-94295500D01*
X99964500Y-94291500D01*
X99917500Y-94285500D01*
X99871500Y-94276500D01*
X99825500Y-94265500D01*
X99780500Y-94252500D01*
X99735500Y-94236500D01*
X99692500Y-94218500D01*
X99649500Y-94198500D01*
X99608500Y-94175500D01*
X99568500Y-94151500D01*
X99529500Y-94124500D01*
X99492500Y-94095500D01*
X99456500Y-94065500D01*
X99422500Y-94032500D01*
X99389500Y-93998500D01*
X99359500Y-93962500D01*
X99330500Y-93925500D01*
X99303500Y-93886500D01*
X99279500Y-93846500D01*
X99256500Y-93805500D01*
X99236500Y-93762500D01*
X99218500Y-93719500D01*
X99202500Y-93674500D01*
X99189500Y-93629500D01*
X99178500Y-93583500D01*
X99169500Y-93537500D01*
X99163500Y-93490500D01*
X99159500Y-93443500D01*
X99158500Y-93396500D01*
X99158500Y-90896500D01*
X100958500Y-90896500D01*
X100958500Y-93396500D01*
G37*
X100958500Y-93396500D02*
X100957500Y-93443500D01*
X100953500Y-93490500D01*
X100947500Y-93537500D01*
X100938500Y-93583500D01*
X100927500Y-93629500D01*
X100914500Y-93674500D01*
X100898500Y-93719500D01*
X100880500Y-93762500D01*
X100860500Y-93805500D01*
X100837500Y-93846500D01*
X100813500Y-93886500D01*
X100786500Y-93925500D01*
X100757500Y-93962500D01*
X100727500Y-93998500D01*
X100694500Y-94032500D01*
X100660500Y-94065500D01*
X100624500Y-94095500D01*
X100587500Y-94124500D01*
X100548500Y-94151500D01*
X100508500Y-94175500D01*
X100467500Y-94198500D01*
X100424500Y-94218500D01*
X100381500Y-94236500D01*
X100336500Y-94252500D01*
X100291500Y-94265500D01*
X100245500Y-94276500D01*
X100199500Y-94285500D01*
X100152500Y-94291500D01*
X100105500Y-94295500D01*
X100058500Y-94296500D01*
X100011500Y-94295500D01*
X99964500Y-94291500D01*
X99917500Y-94285500D01*
X99871500Y-94276500D01*
X99825500Y-94265500D01*
X99780500Y-94252500D01*
X99735500Y-94236500D01*
X99692500Y-94218500D01*
X99649500Y-94198500D01*
X99608500Y-94175500D01*
X99568500Y-94151500D01*
X99529500Y-94124500D01*
X99492500Y-94095500D01*
X99456500Y-94065500D01*
X99422500Y-94032500D01*
X99389500Y-93998500D01*
X99359500Y-93962500D01*
X99330500Y-93925500D01*
X99303500Y-93886500D01*
X99279500Y-93846500D01*
X99256500Y-93805500D01*
X99236500Y-93762500D01*
X99218500Y-93719500D01*
X99202500Y-93674500D01*
X99189500Y-93629500D01*
X99178500Y-93583500D01*
X99169500Y-93537500D01*
X99163500Y-93490500D01*
X99159500Y-93443500D01*
X99158500Y-93396500D01*
X99158500Y-90896500D01*
X100958500Y-90896500D01*
X100958500Y-93396500D01*
G36*
X126358500Y-93396500D02*
G01*
X126357500Y-93443500D01*
X126353500Y-93490500D01*
X126347500Y-93537500D01*
X126338500Y-93583500D01*
X126327500Y-93629500D01*
X126314500Y-93674500D01*
X126298500Y-93719500D01*
X126280500Y-93762500D01*
X126260500Y-93805500D01*
X126237500Y-93846500D01*
X126213500Y-93886500D01*
X126186500Y-93925500D01*
X126157500Y-93962500D01*
X126127500Y-93998500D01*
X126094500Y-94032500D01*
X126060500Y-94065500D01*
X126024500Y-94095500D01*
X125987500Y-94124500D01*
X125948500Y-94151500D01*
X125908500Y-94175500D01*
X125867500Y-94198500D01*
X125824500Y-94218500D01*
X125781500Y-94236500D01*
X125736500Y-94252500D01*
X125691500Y-94265500D01*
X125645500Y-94276500D01*
X125599500Y-94285500D01*
X125552500Y-94291500D01*
X125505500Y-94295500D01*
X125458500Y-94296500D01*
X125411500Y-94295500D01*
X125364500Y-94291500D01*
X125317500Y-94285500D01*
X125271500Y-94276500D01*
X125225500Y-94265500D01*
X125180500Y-94252500D01*
X125135500Y-94236500D01*
X125092500Y-94218500D01*
X125049500Y-94198500D01*
X125008500Y-94175500D01*
X124968500Y-94151500D01*
X124929500Y-94124500D01*
X124892500Y-94095500D01*
X124856500Y-94065500D01*
X124822500Y-94032500D01*
X124789500Y-93998500D01*
X124759500Y-93962500D01*
X124730500Y-93925500D01*
X124703500Y-93886500D01*
X124679500Y-93846500D01*
X124656500Y-93805500D01*
X124636500Y-93762500D01*
X124618500Y-93719500D01*
X124602500Y-93674500D01*
X124589500Y-93629500D01*
X124578500Y-93583500D01*
X124569500Y-93537500D01*
X124563500Y-93490500D01*
X124559500Y-93443500D01*
X124558500Y-93396500D01*
X124558500Y-90896500D01*
X126358500Y-90896500D01*
X126358500Y-93396500D01*
G37*
X126358500Y-93396500D02*
X126357500Y-93443500D01*
X126353500Y-93490500D01*
X126347500Y-93537500D01*
X126338500Y-93583500D01*
X126327500Y-93629500D01*
X126314500Y-93674500D01*
X126298500Y-93719500D01*
X126280500Y-93762500D01*
X126260500Y-93805500D01*
X126237500Y-93846500D01*
X126213500Y-93886500D01*
X126186500Y-93925500D01*
X126157500Y-93962500D01*
X126127500Y-93998500D01*
X126094500Y-94032500D01*
X126060500Y-94065500D01*
X126024500Y-94095500D01*
X125987500Y-94124500D01*
X125948500Y-94151500D01*
X125908500Y-94175500D01*
X125867500Y-94198500D01*
X125824500Y-94218500D01*
X125781500Y-94236500D01*
X125736500Y-94252500D01*
X125691500Y-94265500D01*
X125645500Y-94276500D01*
X125599500Y-94285500D01*
X125552500Y-94291500D01*
X125505500Y-94295500D01*
X125458500Y-94296500D01*
X125411500Y-94295500D01*
X125364500Y-94291500D01*
X125317500Y-94285500D01*
X125271500Y-94276500D01*
X125225500Y-94265500D01*
X125180500Y-94252500D01*
X125135500Y-94236500D01*
X125092500Y-94218500D01*
X125049500Y-94198500D01*
X125008500Y-94175500D01*
X124968500Y-94151500D01*
X124929500Y-94124500D01*
X124892500Y-94095500D01*
X124856500Y-94065500D01*
X124822500Y-94032500D01*
X124789500Y-93998500D01*
X124759500Y-93962500D01*
X124730500Y-93925500D01*
X124703500Y-93886500D01*
X124679500Y-93846500D01*
X124656500Y-93805500D01*
X124636500Y-93762500D01*
X124618500Y-93719500D01*
X124602500Y-93674500D01*
X124589500Y-93629500D01*
X124578500Y-93583500D01*
X124569500Y-93537500D01*
X124563500Y-93490500D01*
X124559500Y-93443500D01*
X124558500Y-93396500D01*
X124558500Y-90896500D01*
X126358500Y-90896500D01*
X126358500Y-93396500D01*
G36*
X120425500Y-110277500D02*
G01*
X120472500Y-110281500D01*
X120519500Y-110287500D01*
X120565500Y-110296500D01*
X120611500Y-110307500D01*
X120656500Y-110320500D01*
X120701500Y-110336500D01*
X120744500Y-110354500D01*
X120787500Y-110374500D01*
X120828500Y-110397500D01*
X120868500Y-110421500D01*
X120907500Y-110448500D01*
X120944500Y-110477500D01*
X120980500Y-110507500D01*
X121014500Y-110540500D01*
X121047500Y-110574500D01*
X121077500Y-110610500D01*
X121106500Y-110647500D01*
X121133500Y-110686500D01*
X121157500Y-110726500D01*
X121180500Y-110767500D01*
X121200500Y-110810500D01*
X121218500Y-110853500D01*
X121234500Y-110898500D01*
X121247500Y-110943500D01*
X121258500Y-110989500D01*
X121267500Y-111035500D01*
X121273500Y-111082500D01*
X121277500Y-111129500D01*
X121278500Y-111176500D01*
X121278500Y-113676500D01*
X119478500Y-113676500D01*
X119478500Y-111176500D01*
X119479500Y-111129500D01*
X119483500Y-111082500D01*
X119489500Y-111035500D01*
X119498500Y-110989500D01*
X119509500Y-110943500D01*
X119522500Y-110898500D01*
X119538500Y-110853500D01*
X119556500Y-110810500D01*
X119576500Y-110767500D01*
X119599500Y-110726500D01*
X119623500Y-110686500D01*
X119650500Y-110647500D01*
X119679500Y-110610500D01*
X119709500Y-110574500D01*
X119742500Y-110540500D01*
X119776500Y-110507500D01*
X119812500Y-110477500D01*
X119849500Y-110448500D01*
X119888500Y-110421500D01*
X119928500Y-110397500D01*
X119969500Y-110374500D01*
X120012500Y-110354500D01*
X120055500Y-110336500D01*
X120100500Y-110320500D01*
X120145500Y-110307500D01*
X120191500Y-110296500D01*
X120237500Y-110287500D01*
X120284500Y-110281500D01*
X120331500Y-110277500D01*
X120378500Y-110276500D01*
X120425500Y-110277500D01*
G37*
X120425500Y-110277500D02*
X120472500Y-110281500D01*
X120519500Y-110287500D01*
X120565500Y-110296500D01*
X120611500Y-110307500D01*
X120656500Y-110320500D01*
X120701500Y-110336500D01*
X120744500Y-110354500D01*
X120787500Y-110374500D01*
X120828500Y-110397500D01*
X120868500Y-110421500D01*
X120907500Y-110448500D01*
X120944500Y-110477500D01*
X120980500Y-110507500D01*
X121014500Y-110540500D01*
X121047500Y-110574500D01*
X121077500Y-110610500D01*
X121106500Y-110647500D01*
X121133500Y-110686500D01*
X121157500Y-110726500D01*
X121180500Y-110767500D01*
X121200500Y-110810500D01*
X121218500Y-110853500D01*
X121234500Y-110898500D01*
X121247500Y-110943500D01*
X121258500Y-110989500D01*
X121267500Y-111035500D01*
X121273500Y-111082500D01*
X121277500Y-111129500D01*
X121278500Y-111176500D01*
X121278500Y-113676500D01*
X119478500Y-113676500D01*
X119478500Y-111176500D01*
X119479500Y-111129500D01*
X119483500Y-111082500D01*
X119489500Y-111035500D01*
X119498500Y-110989500D01*
X119509500Y-110943500D01*
X119522500Y-110898500D01*
X119538500Y-110853500D01*
X119556500Y-110810500D01*
X119576500Y-110767500D01*
X119599500Y-110726500D01*
X119623500Y-110686500D01*
X119650500Y-110647500D01*
X119679500Y-110610500D01*
X119709500Y-110574500D01*
X119742500Y-110540500D01*
X119776500Y-110507500D01*
X119812500Y-110477500D01*
X119849500Y-110448500D01*
X119888500Y-110421500D01*
X119928500Y-110397500D01*
X119969500Y-110374500D01*
X120012500Y-110354500D01*
X120055500Y-110336500D01*
X120100500Y-110320500D01*
X120145500Y-110307500D01*
X120191500Y-110296500D01*
X120237500Y-110287500D01*
X120284500Y-110281500D01*
X120331500Y-110277500D01*
X120378500Y-110276500D01*
X120425500Y-110277500D01*
G36*
X89945500Y-110277500D02*
G01*
X89992500Y-110281500D01*
X90039500Y-110287500D01*
X90085500Y-110296500D01*
X90131500Y-110307500D01*
X90176500Y-110320500D01*
X90221500Y-110336500D01*
X90264500Y-110354500D01*
X90307500Y-110374500D01*
X90348500Y-110397500D01*
X90388500Y-110421500D01*
X90427500Y-110448500D01*
X90464500Y-110477500D01*
X90500500Y-110507500D01*
X90534500Y-110540500D01*
X90567500Y-110574500D01*
X90597500Y-110610500D01*
X90626500Y-110647500D01*
X90653500Y-110686500D01*
X90677500Y-110726500D01*
X90700500Y-110767500D01*
X90720500Y-110810500D01*
X90738500Y-110853500D01*
X90754500Y-110898500D01*
X90767500Y-110943500D01*
X90778500Y-110989500D01*
X90787500Y-111035500D01*
X90793500Y-111082500D01*
X90797500Y-111129500D01*
X90798500Y-111176500D01*
X90798500Y-113676500D01*
X88998500Y-113676500D01*
X88998500Y-111176500D01*
X88999500Y-111129500D01*
X89003500Y-111082500D01*
X89009500Y-111035500D01*
X89018500Y-110989500D01*
X89029500Y-110943500D01*
X89042500Y-110898500D01*
X89058500Y-110853500D01*
X89076500Y-110810500D01*
X89096500Y-110767500D01*
X89119500Y-110726500D01*
X89143500Y-110686500D01*
X89170500Y-110647500D01*
X89199500Y-110610500D01*
X89229500Y-110574500D01*
X89262500Y-110540500D01*
X89296500Y-110507500D01*
X89332500Y-110477500D01*
X89369500Y-110448500D01*
X89408500Y-110421500D01*
X89448500Y-110397500D01*
X89489500Y-110374500D01*
X89532500Y-110354500D01*
X89575500Y-110336500D01*
X89620500Y-110320500D01*
X89665500Y-110307500D01*
X89711500Y-110296500D01*
X89757500Y-110287500D01*
X89804500Y-110281500D01*
X89851500Y-110277500D01*
X89898500Y-110276500D01*
X89945500Y-110277500D01*
G37*
X89945500Y-110277500D02*
X89992500Y-110281500D01*
X90039500Y-110287500D01*
X90085500Y-110296500D01*
X90131500Y-110307500D01*
X90176500Y-110320500D01*
X90221500Y-110336500D01*
X90264500Y-110354500D01*
X90307500Y-110374500D01*
X90348500Y-110397500D01*
X90388500Y-110421500D01*
X90427500Y-110448500D01*
X90464500Y-110477500D01*
X90500500Y-110507500D01*
X90534500Y-110540500D01*
X90567500Y-110574500D01*
X90597500Y-110610500D01*
X90626500Y-110647500D01*
X90653500Y-110686500D01*
X90677500Y-110726500D01*
X90700500Y-110767500D01*
X90720500Y-110810500D01*
X90738500Y-110853500D01*
X90754500Y-110898500D01*
X90767500Y-110943500D01*
X90778500Y-110989500D01*
X90787500Y-111035500D01*
X90793500Y-111082500D01*
X90797500Y-111129500D01*
X90798500Y-111176500D01*
X90798500Y-113676500D01*
X88998500Y-113676500D01*
X88998500Y-111176500D01*
X88999500Y-111129500D01*
X89003500Y-111082500D01*
X89009500Y-111035500D01*
X89018500Y-110989500D01*
X89029500Y-110943500D01*
X89042500Y-110898500D01*
X89058500Y-110853500D01*
X89076500Y-110810500D01*
X89096500Y-110767500D01*
X89119500Y-110726500D01*
X89143500Y-110686500D01*
X89170500Y-110647500D01*
X89199500Y-110610500D01*
X89229500Y-110574500D01*
X89262500Y-110540500D01*
X89296500Y-110507500D01*
X89332500Y-110477500D01*
X89369500Y-110448500D01*
X89408500Y-110421500D01*
X89448500Y-110397500D01*
X89489500Y-110374500D01*
X89532500Y-110354500D01*
X89575500Y-110336500D01*
X89620500Y-110320500D01*
X89665500Y-110307500D01*
X89711500Y-110296500D01*
X89757500Y-110287500D01*
X89804500Y-110281500D01*
X89851500Y-110277500D01*
X89898500Y-110276500D01*
X89945500Y-110277500D01*
G36*
X112805500Y-110277500D02*
G01*
X112852500Y-110281500D01*
X112899500Y-110287500D01*
X112945500Y-110296500D01*
X112991500Y-110307500D01*
X113036500Y-110320500D01*
X113081500Y-110336500D01*
X113124500Y-110354500D01*
X113167500Y-110374500D01*
X113208500Y-110397500D01*
X113248500Y-110421500D01*
X113287500Y-110448500D01*
X113324500Y-110477500D01*
X113360500Y-110507500D01*
X113394500Y-110540500D01*
X113427500Y-110574500D01*
X113457500Y-110610500D01*
X113486500Y-110647500D01*
X113513500Y-110686500D01*
X113537500Y-110726500D01*
X113560500Y-110767500D01*
X113580500Y-110810500D01*
X113598500Y-110853500D01*
X113614500Y-110898500D01*
X113627500Y-110943500D01*
X113638500Y-110989500D01*
X113647500Y-111035500D01*
X113653500Y-111082500D01*
X113657500Y-111129500D01*
X113658500Y-111176500D01*
X113658500Y-113676500D01*
X111858500Y-113676500D01*
X111858500Y-111176500D01*
X111859500Y-111129500D01*
X111863500Y-111082500D01*
X111869500Y-111035500D01*
X111878500Y-110989500D01*
X111889500Y-110943500D01*
X111902500Y-110898500D01*
X111918500Y-110853500D01*
X111936500Y-110810500D01*
X111956500Y-110767500D01*
X111979500Y-110726500D01*
X112003500Y-110686500D01*
X112030500Y-110647500D01*
X112059500Y-110610500D01*
X112089500Y-110574500D01*
X112122500Y-110540500D01*
X112156500Y-110507500D01*
X112192500Y-110477500D01*
X112229500Y-110448500D01*
X112268500Y-110421500D01*
X112308500Y-110397500D01*
X112349500Y-110374500D01*
X112392500Y-110354500D01*
X112435500Y-110336500D01*
X112480500Y-110320500D01*
X112525500Y-110307500D01*
X112571500Y-110296500D01*
X112617500Y-110287500D01*
X112664500Y-110281500D01*
X112711500Y-110277500D01*
X112758500Y-110276500D01*
X112805500Y-110277500D01*
G37*
X112805500Y-110277500D02*
X112852500Y-110281500D01*
X112899500Y-110287500D01*
X112945500Y-110296500D01*
X112991500Y-110307500D01*
X113036500Y-110320500D01*
X113081500Y-110336500D01*
X113124500Y-110354500D01*
X113167500Y-110374500D01*
X113208500Y-110397500D01*
X113248500Y-110421500D01*
X113287500Y-110448500D01*
X113324500Y-110477500D01*
X113360500Y-110507500D01*
X113394500Y-110540500D01*
X113427500Y-110574500D01*
X113457500Y-110610500D01*
X113486500Y-110647500D01*
X113513500Y-110686500D01*
X113537500Y-110726500D01*
X113560500Y-110767500D01*
X113580500Y-110810500D01*
X113598500Y-110853500D01*
X113614500Y-110898500D01*
X113627500Y-110943500D01*
X113638500Y-110989500D01*
X113647500Y-111035500D01*
X113653500Y-111082500D01*
X113657500Y-111129500D01*
X113658500Y-111176500D01*
X113658500Y-113676500D01*
X111858500Y-113676500D01*
X111858500Y-111176500D01*
X111859500Y-111129500D01*
X111863500Y-111082500D01*
X111869500Y-111035500D01*
X111878500Y-110989500D01*
X111889500Y-110943500D01*
X111902500Y-110898500D01*
X111918500Y-110853500D01*
X111936500Y-110810500D01*
X111956500Y-110767500D01*
X111979500Y-110726500D01*
X112003500Y-110686500D01*
X112030500Y-110647500D01*
X112059500Y-110610500D01*
X112089500Y-110574500D01*
X112122500Y-110540500D01*
X112156500Y-110507500D01*
X112192500Y-110477500D01*
X112229500Y-110448500D01*
X112268500Y-110421500D01*
X112308500Y-110397500D01*
X112349500Y-110374500D01*
X112392500Y-110354500D01*
X112435500Y-110336500D01*
X112480500Y-110320500D01*
X112525500Y-110307500D01*
X112571500Y-110296500D01*
X112617500Y-110287500D01*
X112664500Y-110281500D01*
X112711500Y-110277500D01*
X112758500Y-110276500D01*
X112805500Y-110277500D01*
G36*
X131438500Y-94012500D02*
G01*
X131436500Y-94027500D01*
X131434500Y-94043500D01*
X131431500Y-94058500D01*
X131428500Y-94074500D01*
X131418500Y-94104500D01*
X131412500Y-94118500D01*
X131398500Y-94146500D01*
X131390500Y-94159500D01*
X131381500Y-94172500D01*
X131371500Y-94185500D01*
X131361500Y-94197500D01*
X131339500Y-94219500D01*
X131327500Y-94229500D01*
X131314500Y-94239500D01*
X131301500Y-94248500D01*
X131288500Y-94256500D01*
X131260500Y-94270500D01*
X131246500Y-94276500D01*
X131216500Y-94286500D01*
X131200500Y-94289500D01*
X131185500Y-94292500D01*
X131169500Y-94294500D01*
X131154500Y-94296500D01*
X129922500Y-94296500D01*
X129907500Y-94294500D01*
X129891500Y-94292500D01*
X129876500Y-94289500D01*
X129860500Y-94286500D01*
X129830500Y-94276500D01*
X129816500Y-94270500D01*
X129788500Y-94256500D01*
X129775500Y-94248500D01*
X129762500Y-94239500D01*
X129749500Y-94229500D01*
X129737500Y-94219500D01*
X129715500Y-94197500D01*
X129705500Y-94185500D01*
X129695500Y-94172500D01*
X129686500Y-94159500D01*
X129678500Y-94146500D01*
X129664500Y-94118500D01*
X129658500Y-94104500D01*
X129648500Y-94074500D01*
X129645500Y-94058500D01*
X129642500Y-94043500D01*
X129640500Y-94027500D01*
X129638500Y-94012500D01*
X129638500Y-90896500D01*
X131438500Y-90896500D01*
X131438500Y-94012500D01*
G37*
X131438500Y-94012500D02*
X131436500Y-94027500D01*
X131434500Y-94043500D01*
X131431500Y-94058500D01*
X131428500Y-94074500D01*
X131418500Y-94104500D01*
X131412500Y-94118500D01*
X131398500Y-94146500D01*
X131390500Y-94159500D01*
X131381500Y-94172500D01*
X131371500Y-94185500D01*
X131361500Y-94197500D01*
X131339500Y-94219500D01*
X131327500Y-94229500D01*
X131314500Y-94239500D01*
X131301500Y-94248500D01*
X131288500Y-94256500D01*
X131260500Y-94270500D01*
X131246500Y-94276500D01*
X131216500Y-94286500D01*
X131200500Y-94289500D01*
X131185500Y-94292500D01*
X131169500Y-94294500D01*
X131154500Y-94296500D01*
X129922500Y-94296500D01*
X129907500Y-94294500D01*
X129891500Y-94292500D01*
X129876500Y-94289500D01*
X129860500Y-94286500D01*
X129830500Y-94276500D01*
X129816500Y-94270500D01*
X129788500Y-94256500D01*
X129775500Y-94248500D01*
X129762500Y-94239500D01*
X129749500Y-94229500D01*
X129737500Y-94219500D01*
X129715500Y-94197500D01*
X129705500Y-94185500D01*
X129695500Y-94172500D01*
X129686500Y-94159500D01*
X129678500Y-94146500D01*
X129664500Y-94118500D01*
X129658500Y-94104500D01*
X129648500Y-94074500D01*
X129645500Y-94058500D01*
X129642500Y-94043500D01*
X129640500Y-94027500D01*
X129638500Y-94012500D01*
X129638500Y-90896500D01*
X131438500Y-90896500D01*
X131438500Y-94012500D01*
G36*
X105769500Y-110278500D02*
G01*
X105785500Y-110280500D01*
X105800500Y-110283500D01*
X105816500Y-110286500D01*
X105846500Y-110296500D01*
X105860500Y-110302500D01*
X105888500Y-110316500D01*
X105901500Y-110324500D01*
X105914500Y-110333500D01*
X105927500Y-110343500D01*
X105939500Y-110353500D01*
X105961500Y-110375500D01*
X105971500Y-110387500D01*
X105981500Y-110400500D01*
X105990500Y-110413500D01*
X105998500Y-110426500D01*
X106012500Y-110454500D01*
X106018500Y-110468500D01*
X106028500Y-110498500D01*
X106031500Y-110514500D01*
X106034500Y-110529500D01*
X106036500Y-110545500D01*
X106038500Y-110560500D01*
X106038500Y-113676500D01*
X104238500Y-113676500D01*
X104238500Y-110560500D01*
X104240500Y-110545500D01*
X104242500Y-110529500D01*
X104245500Y-110514500D01*
X104248500Y-110498500D01*
X104258500Y-110468500D01*
X104264500Y-110454500D01*
X104278500Y-110426500D01*
X104286500Y-110413500D01*
X104295500Y-110400500D01*
X104305500Y-110387500D01*
X104315500Y-110375500D01*
X104337500Y-110353500D01*
X104349500Y-110343500D01*
X104362500Y-110333500D01*
X104375500Y-110324500D01*
X104388500Y-110316500D01*
X104416500Y-110302500D01*
X104430500Y-110296500D01*
X104460500Y-110286500D01*
X104476500Y-110283500D01*
X104491500Y-110280500D01*
X104507500Y-110278500D01*
X104522500Y-110276500D01*
X105754500Y-110276500D01*
X105769500Y-110278500D01*
G37*
X105769500Y-110278500D02*
X105785500Y-110280500D01*
X105800500Y-110283500D01*
X105816500Y-110286500D01*
X105846500Y-110296500D01*
X105860500Y-110302500D01*
X105888500Y-110316500D01*
X105901500Y-110324500D01*
X105914500Y-110333500D01*
X105927500Y-110343500D01*
X105939500Y-110353500D01*
X105961500Y-110375500D01*
X105971500Y-110387500D01*
X105981500Y-110400500D01*
X105990500Y-110413500D01*
X105998500Y-110426500D01*
X106012500Y-110454500D01*
X106018500Y-110468500D01*
X106028500Y-110498500D01*
X106031500Y-110514500D01*
X106034500Y-110529500D01*
X106036500Y-110545500D01*
X106038500Y-110560500D01*
X106038500Y-113676500D01*
X104238500Y-113676500D01*
X104238500Y-110560500D01*
X104240500Y-110545500D01*
X104242500Y-110529500D01*
X104245500Y-110514500D01*
X104248500Y-110498500D01*
X104258500Y-110468500D01*
X104264500Y-110454500D01*
X104278500Y-110426500D01*
X104286500Y-110413500D01*
X104295500Y-110400500D01*
X104305500Y-110387500D01*
X104315500Y-110375500D01*
X104337500Y-110353500D01*
X104349500Y-110343500D01*
X104362500Y-110333500D01*
X104375500Y-110324500D01*
X104388500Y-110316500D01*
X104416500Y-110302500D01*
X104430500Y-110296500D01*
X104460500Y-110286500D01*
X104476500Y-110283500D01*
X104491500Y-110280500D01*
X104507500Y-110278500D01*
X104522500Y-110276500D01*
X105754500Y-110276500D01*
X105769500Y-110278500D01*
G36*
X95025500Y-110277500D02*
G01*
X95072500Y-110281500D01*
X95119500Y-110287500D01*
X95165500Y-110296500D01*
X95211500Y-110307500D01*
X95256500Y-110320500D01*
X95301500Y-110336500D01*
X95344500Y-110354500D01*
X95387500Y-110374500D01*
X95428500Y-110397500D01*
X95468500Y-110421500D01*
X95507500Y-110448500D01*
X95544500Y-110477500D01*
X95580500Y-110507500D01*
X95614500Y-110540500D01*
X95647500Y-110574500D01*
X95677500Y-110610500D01*
X95706500Y-110647500D01*
X95733500Y-110686500D01*
X95757500Y-110726500D01*
X95780500Y-110767500D01*
X95800500Y-110810500D01*
X95818500Y-110853500D01*
X95834500Y-110898500D01*
X95847500Y-110943500D01*
X95858500Y-110989500D01*
X95867500Y-111035500D01*
X95873500Y-111082500D01*
X95877500Y-111129500D01*
X95878500Y-111176500D01*
X95878500Y-113676500D01*
X94078500Y-113676500D01*
X94078500Y-111176500D01*
X94079500Y-111129500D01*
X94083500Y-111082500D01*
X94089500Y-111035500D01*
X94098500Y-110989500D01*
X94109500Y-110943500D01*
X94122500Y-110898500D01*
X94138500Y-110853500D01*
X94156500Y-110810500D01*
X94176500Y-110767500D01*
X94199500Y-110726500D01*
X94223500Y-110686500D01*
X94250500Y-110647500D01*
X94279500Y-110610500D01*
X94309500Y-110574500D01*
X94342500Y-110540500D01*
X94376500Y-110507500D01*
X94412500Y-110477500D01*
X94449500Y-110448500D01*
X94488500Y-110421500D01*
X94528500Y-110397500D01*
X94569500Y-110374500D01*
X94612500Y-110354500D01*
X94655500Y-110336500D01*
X94700500Y-110320500D01*
X94745500Y-110307500D01*
X94791500Y-110296500D01*
X94837500Y-110287500D01*
X94884500Y-110281500D01*
X94931500Y-110277500D01*
X94978500Y-110276500D01*
X95025500Y-110277500D01*
G37*
X95025500Y-110277500D02*
X95072500Y-110281500D01*
X95119500Y-110287500D01*
X95165500Y-110296500D01*
X95211500Y-110307500D01*
X95256500Y-110320500D01*
X95301500Y-110336500D01*
X95344500Y-110354500D01*
X95387500Y-110374500D01*
X95428500Y-110397500D01*
X95468500Y-110421500D01*
X95507500Y-110448500D01*
X95544500Y-110477500D01*
X95580500Y-110507500D01*
X95614500Y-110540500D01*
X95647500Y-110574500D01*
X95677500Y-110610500D01*
X95706500Y-110647500D01*
X95733500Y-110686500D01*
X95757500Y-110726500D01*
X95780500Y-110767500D01*
X95800500Y-110810500D01*
X95818500Y-110853500D01*
X95834500Y-110898500D01*
X95847500Y-110943500D01*
X95858500Y-110989500D01*
X95867500Y-111035500D01*
X95873500Y-111082500D01*
X95877500Y-111129500D01*
X95878500Y-111176500D01*
X95878500Y-113676500D01*
X94078500Y-113676500D01*
X94078500Y-111176500D01*
X94079500Y-111129500D01*
X94083500Y-111082500D01*
X94089500Y-111035500D01*
X94098500Y-110989500D01*
X94109500Y-110943500D01*
X94122500Y-110898500D01*
X94138500Y-110853500D01*
X94156500Y-110810500D01*
X94176500Y-110767500D01*
X94199500Y-110726500D01*
X94223500Y-110686500D01*
X94250500Y-110647500D01*
X94279500Y-110610500D01*
X94309500Y-110574500D01*
X94342500Y-110540500D01*
X94376500Y-110507500D01*
X94412500Y-110477500D01*
X94449500Y-110448500D01*
X94488500Y-110421500D01*
X94528500Y-110397500D01*
X94569500Y-110374500D01*
X94612500Y-110354500D01*
X94655500Y-110336500D01*
X94700500Y-110320500D01*
X94745500Y-110307500D01*
X94791500Y-110296500D01*
X94837500Y-110287500D01*
X94884500Y-110281500D01*
X94931500Y-110277500D01*
X94978500Y-110276500D01*
X95025500Y-110277500D01*
G36*
X106038500Y-94012500D02*
G01*
X106036500Y-94027500D01*
X106034500Y-94043500D01*
X106031500Y-94058500D01*
X106028500Y-94074500D01*
X106018500Y-94104500D01*
X106012500Y-94118500D01*
X105998500Y-94146500D01*
X105990500Y-94159500D01*
X105981500Y-94172500D01*
X105971500Y-94185500D01*
X105961500Y-94197500D01*
X105939500Y-94219500D01*
X105927500Y-94229500D01*
X105914500Y-94239500D01*
X105901500Y-94248500D01*
X105888500Y-94256500D01*
X105860500Y-94270500D01*
X105846500Y-94276500D01*
X105816500Y-94286500D01*
X105800500Y-94289500D01*
X105785500Y-94292500D01*
X105769500Y-94294500D01*
X105754500Y-94296500D01*
X104522500Y-94296500D01*
X104507500Y-94294500D01*
X104491500Y-94292500D01*
X104476500Y-94289500D01*
X104460500Y-94286500D01*
X104430500Y-94276500D01*
X104416500Y-94270500D01*
X104388500Y-94256500D01*
X104375500Y-94248500D01*
X104362500Y-94239500D01*
X104349500Y-94229500D01*
X104337500Y-94219500D01*
X104315500Y-94197500D01*
X104305500Y-94185500D01*
X104295500Y-94172500D01*
X104286500Y-94159500D01*
X104278500Y-94146500D01*
X104264500Y-94118500D01*
X104258500Y-94104500D01*
X104248500Y-94074500D01*
X104245500Y-94058500D01*
X104242500Y-94043500D01*
X104240500Y-94027500D01*
X104238500Y-94012500D01*
X104238500Y-90896500D01*
X106038500Y-90896500D01*
X106038500Y-94012500D01*
G37*
X106038500Y-94012500D02*
X106036500Y-94027500D01*
X106034500Y-94043500D01*
X106031500Y-94058500D01*
X106028500Y-94074500D01*
X106018500Y-94104500D01*
X106012500Y-94118500D01*
X105998500Y-94146500D01*
X105990500Y-94159500D01*
X105981500Y-94172500D01*
X105971500Y-94185500D01*
X105961500Y-94197500D01*
X105939500Y-94219500D01*
X105927500Y-94229500D01*
X105914500Y-94239500D01*
X105901500Y-94248500D01*
X105888500Y-94256500D01*
X105860500Y-94270500D01*
X105846500Y-94276500D01*
X105816500Y-94286500D01*
X105800500Y-94289500D01*
X105785500Y-94292500D01*
X105769500Y-94294500D01*
X105754500Y-94296500D01*
X104522500Y-94296500D01*
X104507500Y-94294500D01*
X104491500Y-94292500D01*
X104476500Y-94289500D01*
X104460500Y-94286500D01*
X104430500Y-94276500D01*
X104416500Y-94270500D01*
X104388500Y-94256500D01*
X104375500Y-94248500D01*
X104362500Y-94239500D01*
X104349500Y-94229500D01*
X104337500Y-94219500D01*
X104315500Y-94197500D01*
X104305500Y-94185500D01*
X104295500Y-94172500D01*
X104286500Y-94159500D01*
X104278500Y-94146500D01*
X104264500Y-94118500D01*
X104258500Y-94104500D01*
X104248500Y-94074500D01*
X104245500Y-94058500D01*
X104242500Y-94043500D01*
X104240500Y-94027500D01*
X104238500Y-94012500D01*
X104238500Y-90896500D01*
X106038500Y-90896500D01*
X106038500Y-94012500D01*
G36*
X98418500Y-93396500D02*
G01*
X98417500Y-93443500D01*
X98413500Y-93490500D01*
X98407500Y-93537500D01*
X98398500Y-93583500D01*
X98387500Y-93629500D01*
X98374500Y-93674500D01*
X98358500Y-93719500D01*
X98340500Y-93762500D01*
X98320500Y-93805500D01*
X98297500Y-93846500D01*
X98273500Y-93886500D01*
X98246500Y-93925500D01*
X98217500Y-93962500D01*
X98187500Y-93998500D01*
X98154500Y-94032500D01*
X98120500Y-94065500D01*
X98084500Y-94095500D01*
X98047500Y-94124500D01*
X98008500Y-94151500D01*
X97968500Y-94175500D01*
X97927500Y-94198500D01*
X97884500Y-94218500D01*
X97841500Y-94236500D01*
X97796500Y-94252500D01*
X97751500Y-94265500D01*
X97705500Y-94276500D01*
X97659500Y-94285500D01*
X97612500Y-94291500D01*
X97565500Y-94295500D01*
X97518500Y-94296500D01*
X97471500Y-94295500D01*
X97424500Y-94291500D01*
X97377500Y-94285500D01*
X97331500Y-94276500D01*
X97285500Y-94265500D01*
X97240500Y-94252500D01*
X97195500Y-94236500D01*
X97152500Y-94218500D01*
X97109500Y-94198500D01*
X97068500Y-94175500D01*
X97028500Y-94151500D01*
X96989500Y-94124500D01*
X96952500Y-94095500D01*
X96916500Y-94065500D01*
X96882500Y-94032500D01*
X96849500Y-93998500D01*
X96819500Y-93962500D01*
X96790500Y-93925500D01*
X96763500Y-93886500D01*
X96739500Y-93846500D01*
X96716500Y-93805500D01*
X96696500Y-93762500D01*
X96678500Y-93719500D01*
X96662500Y-93674500D01*
X96649500Y-93629500D01*
X96638500Y-93583500D01*
X96629500Y-93537500D01*
X96623500Y-93490500D01*
X96619500Y-93443500D01*
X96618500Y-93396500D01*
X96618500Y-90896500D01*
X98418500Y-90896500D01*
X98418500Y-93396500D01*
G37*
X98418500Y-93396500D02*
X98417500Y-93443500D01*
X98413500Y-93490500D01*
X98407500Y-93537500D01*
X98398500Y-93583500D01*
X98387500Y-93629500D01*
X98374500Y-93674500D01*
X98358500Y-93719500D01*
X98340500Y-93762500D01*
X98320500Y-93805500D01*
X98297500Y-93846500D01*
X98273500Y-93886500D01*
X98246500Y-93925500D01*
X98217500Y-93962500D01*
X98187500Y-93998500D01*
X98154500Y-94032500D01*
X98120500Y-94065500D01*
X98084500Y-94095500D01*
X98047500Y-94124500D01*
X98008500Y-94151500D01*
X97968500Y-94175500D01*
X97927500Y-94198500D01*
X97884500Y-94218500D01*
X97841500Y-94236500D01*
X97796500Y-94252500D01*
X97751500Y-94265500D01*
X97705500Y-94276500D01*
X97659500Y-94285500D01*
X97612500Y-94291500D01*
X97565500Y-94295500D01*
X97518500Y-94296500D01*
X97471500Y-94295500D01*
X97424500Y-94291500D01*
X97377500Y-94285500D01*
X97331500Y-94276500D01*
X97285500Y-94265500D01*
X97240500Y-94252500D01*
X97195500Y-94236500D01*
X97152500Y-94218500D01*
X97109500Y-94198500D01*
X97068500Y-94175500D01*
X97028500Y-94151500D01*
X96989500Y-94124500D01*
X96952500Y-94095500D01*
X96916500Y-94065500D01*
X96882500Y-94032500D01*
X96849500Y-93998500D01*
X96819500Y-93962500D01*
X96790500Y-93925500D01*
X96763500Y-93886500D01*
X96739500Y-93846500D01*
X96716500Y-93805500D01*
X96696500Y-93762500D01*
X96678500Y-93719500D01*
X96662500Y-93674500D01*
X96649500Y-93629500D01*
X96638500Y-93583500D01*
X96629500Y-93537500D01*
X96623500Y-93490500D01*
X96619500Y-93443500D01*
X96618500Y-93396500D01*
X96618500Y-90896500D01*
X98418500Y-90896500D01*
X98418500Y-93396500D01*
G36*
X121278500Y-93396500D02*
G01*
X121277500Y-93443500D01*
X121273500Y-93490500D01*
X121267500Y-93537500D01*
X121258500Y-93583500D01*
X121247500Y-93629500D01*
X121234500Y-93674500D01*
X121218500Y-93719500D01*
X121200500Y-93762500D01*
X121180500Y-93805500D01*
X121157500Y-93846500D01*
X121133500Y-93886500D01*
X121106500Y-93925500D01*
X121077500Y-93962500D01*
X121047500Y-93998500D01*
X121014500Y-94032500D01*
X120980500Y-94065500D01*
X120944500Y-94095500D01*
X120907500Y-94124500D01*
X120868500Y-94151500D01*
X120828500Y-94175500D01*
X120787500Y-94198500D01*
X120744500Y-94218500D01*
X120701500Y-94236500D01*
X120656500Y-94252500D01*
X120611500Y-94265500D01*
X120565500Y-94276500D01*
X120519500Y-94285500D01*
X120472500Y-94291500D01*
X120425500Y-94295500D01*
X120378500Y-94296500D01*
X120331500Y-94295500D01*
X120284500Y-94291500D01*
X120237500Y-94285500D01*
X120191500Y-94276500D01*
X120145500Y-94265500D01*
X120100500Y-94252500D01*
X120055500Y-94236500D01*
X120012500Y-94218500D01*
X119969500Y-94198500D01*
X119928500Y-94175500D01*
X119888500Y-94151500D01*
X119849500Y-94124500D01*
X119812500Y-94095500D01*
X119776500Y-94065500D01*
X119742500Y-94032500D01*
X119709500Y-93998500D01*
X119679500Y-93962500D01*
X119650500Y-93925500D01*
X119623500Y-93886500D01*
X119599500Y-93846500D01*
X119576500Y-93805500D01*
X119556500Y-93762500D01*
X119538500Y-93719500D01*
X119522500Y-93674500D01*
X119509500Y-93629500D01*
X119498500Y-93583500D01*
X119489500Y-93537500D01*
X119483500Y-93490500D01*
X119479500Y-93443500D01*
X119478500Y-93396500D01*
X119478500Y-90896500D01*
X121278500Y-90896500D01*
X121278500Y-93396500D01*
G37*
X121278500Y-93396500D02*
X121277500Y-93443500D01*
X121273500Y-93490500D01*
X121267500Y-93537500D01*
X121258500Y-93583500D01*
X121247500Y-93629500D01*
X121234500Y-93674500D01*
X121218500Y-93719500D01*
X121200500Y-93762500D01*
X121180500Y-93805500D01*
X121157500Y-93846500D01*
X121133500Y-93886500D01*
X121106500Y-93925500D01*
X121077500Y-93962500D01*
X121047500Y-93998500D01*
X121014500Y-94032500D01*
X120980500Y-94065500D01*
X120944500Y-94095500D01*
X120907500Y-94124500D01*
X120868500Y-94151500D01*
X120828500Y-94175500D01*
X120787500Y-94198500D01*
X120744500Y-94218500D01*
X120701500Y-94236500D01*
X120656500Y-94252500D01*
X120611500Y-94265500D01*
X120565500Y-94276500D01*
X120519500Y-94285500D01*
X120472500Y-94291500D01*
X120425500Y-94295500D01*
X120378500Y-94296500D01*
X120331500Y-94295500D01*
X120284500Y-94291500D01*
X120237500Y-94285500D01*
X120191500Y-94276500D01*
X120145500Y-94265500D01*
X120100500Y-94252500D01*
X120055500Y-94236500D01*
X120012500Y-94218500D01*
X119969500Y-94198500D01*
X119928500Y-94175500D01*
X119888500Y-94151500D01*
X119849500Y-94124500D01*
X119812500Y-94095500D01*
X119776500Y-94065500D01*
X119742500Y-94032500D01*
X119709500Y-93998500D01*
X119679500Y-93962500D01*
X119650500Y-93925500D01*
X119623500Y-93886500D01*
X119599500Y-93846500D01*
X119576500Y-93805500D01*
X119556500Y-93762500D01*
X119538500Y-93719500D01*
X119522500Y-93674500D01*
X119509500Y-93629500D01*
X119498500Y-93583500D01*
X119489500Y-93537500D01*
X119483500Y-93490500D01*
X119479500Y-93443500D01*
X119478500Y-93396500D01*
X119478500Y-90896500D01*
X121278500Y-90896500D01*
X121278500Y-93396500D01*
G36*
X118738500Y-94012500D02*
G01*
X118736500Y-94027500D01*
X118734500Y-94043500D01*
X118731500Y-94058500D01*
X118728500Y-94074500D01*
X118718500Y-94104500D01*
X118712500Y-94118500D01*
X118698500Y-94146500D01*
X118690500Y-94159500D01*
X118681500Y-94172500D01*
X118671500Y-94185500D01*
X118661500Y-94197500D01*
X118639500Y-94219500D01*
X118627500Y-94229500D01*
X118614500Y-94239500D01*
X118601500Y-94248500D01*
X118588500Y-94256500D01*
X118560500Y-94270500D01*
X118546500Y-94276500D01*
X118516500Y-94286500D01*
X118500500Y-94289500D01*
X118485500Y-94292500D01*
X118469500Y-94294500D01*
X118454500Y-94296500D01*
X117222500Y-94296500D01*
X117207500Y-94294500D01*
X117191500Y-94292500D01*
X117176500Y-94289500D01*
X117160500Y-94286500D01*
X117130500Y-94276500D01*
X117116500Y-94270500D01*
X117088500Y-94256500D01*
X117075500Y-94248500D01*
X117062500Y-94239500D01*
X117049500Y-94229500D01*
X117037500Y-94219500D01*
X117015500Y-94197500D01*
X117005500Y-94185500D01*
X116995500Y-94172500D01*
X116986500Y-94159500D01*
X116978500Y-94146500D01*
X116964500Y-94118500D01*
X116958500Y-94104500D01*
X116948500Y-94074500D01*
X116945500Y-94058500D01*
X116942500Y-94043500D01*
X116940500Y-94027500D01*
X116938500Y-94012500D01*
X116938500Y-90896500D01*
X118738500Y-90896500D01*
X118738500Y-94012500D01*
G37*
X118738500Y-94012500D02*
X118736500Y-94027500D01*
X118734500Y-94043500D01*
X118731500Y-94058500D01*
X118728500Y-94074500D01*
X118718500Y-94104500D01*
X118712500Y-94118500D01*
X118698500Y-94146500D01*
X118690500Y-94159500D01*
X118681500Y-94172500D01*
X118671500Y-94185500D01*
X118661500Y-94197500D01*
X118639500Y-94219500D01*
X118627500Y-94229500D01*
X118614500Y-94239500D01*
X118601500Y-94248500D01*
X118588500Y-94256500D01*
X118560500Y-94270500D01*
X118546500Y-94276500D01*
X118516500Y-94286500D01*
X118500500Y-94289500D01*
X118485500Y-94292500D01*
X118469500Y-94294500D01*
X118454500Y-94296500D01*
X117222500Y-94296500D01*
X117207500Y-94294500D01*
X117191500Y-94292500D01*
X117176500Y-94289500D01*
X117160500Y-94286500D01*
X117130500Y-94276500D01*
X117116500Y-94270500D01*
X117088500Y-94256500D01*
X117075500Y-94248500D01*
X117062500Y-94239500D01*
X117049500Y-94229500D01*
X117037500Y-94219500D01*
X117015500Y-94197500D01*
X117005500Y-94185500D01*
X116995500Y-94172500D01*
X116986500Y-94159500D01*
X116978500Y-94146500D01*
X116964500Y-94118500D01*
X116958500Y-94104500D01*
X116948500Y-94074500D01*
X116945500Y-94058500D01*
X116942500Y-94043500D01*
X116940500Y-94027500D01*
X116938500Y-94012500D01*
X116938500Y-90896500D01*
X118738500Y-90896500D01*
X118738500Y-94012500D01*
G36*
X131169500Y-110278500D02*
G01*
X131185500Y-110280500D01*
X131200500Y-110283500D01*
X131216500Y-110286500D01*
X131246500Y-110296500D01*
X131260500Y-110302500D01*
X131288500Y-110316500D01*
X131301500Y-110324500D01*
X131314500Y-110333500D01*
X131327500Y-110343500D01*
X131339500Y-110353500D01*
X131361500Y-110375500D01*
X131371500Y-110387500D01*
X131381500Y-110400500D01*
X131390500Y-110413500D01*
X131398500Y-110426500D01*
X131412500Y-110454500D01*
X131418500Y-110468500D01*
X131428500Y-110498500D01*
X131431500Y-110514500D01*
X131434500Y-110529500D01*
X131436500Y-110545500D01*
X131438500Y-110560500D01*
X131438500Y-113676500D01*
X129638500Y-113676500D01*
X129638500Y-110560500D01*
X129640500Y-110545500D01*
X129642500Y-110529500D01*
X129645500Y-110514500D01*
X129648500Y-110498500D01*
X129658500Y-110468500D01*
X129664500Y-110454500D01*
X129678500Y-110426500D01*
X129686500Y-110413500D01*
X129695500Y-110400500D01*
X129705500Y-110387500D01*
X129715500Y-110375500D01*
X129737500Y-110353500D01*
X129749500Y-110343500D01*
X129762500Y-110333500D01*
X129775500Y-110324500D01*
X129788500Y-110316500D01*
X129816500Y-110302500D01*
X129830500Y-110296500D01*
X129860500Y-110286500D01*
X129876500Y-110283500D01*
X129891500Y-110280500D01*
X129907500Y-110278500D01*
X129922500Y-110276500D01*
X131154500Y-110276500D01*
X131169500Y-110278500D01*
G37*
X131169500Y-110278500D02*
X131185500Y-110280500D01*
X131200500Y-110283500D01*
X131216500Y-110286500D01*
X131246500Y-110296500D01*
X131260500Y-110302500D01*
X131288500Y-110316500D01*
X131301500Y-110324500D01*
X131314500Y-110333500D01*
X131327500Y-110343500D01*
X131339500Y-110353500D01*
X131361500Y-110375500D01*
X131371500Y-110387500D01*
X131381500Y-110400500D01*
X131390500Y-110413500D01*
X131398500Y-110426500D01*
X131412500Y-110454500D01*
X131418500Y-110468500D01*
X131428500Y-110498500D01*
X131431500Y-110514500D01*
X131434500Y-110529500D01*
X131436500Y-110545500D01*
X131438500Y-110560500D01*
X131438500Y-113676500D01*
X129638500Y-113676500D01*
X129638500Y-110560500D01*
X129640500Y-110545500D01*
X129642500Y-110529500D01*
X129645500Y-110514500D01*
X129648500Y-110498500D01*
X129658500Y-110468500D01*
X129664500Y-110454500D01*
X129678500Y-110426500D01*
X129686500Y-110413500D01*
X129695500Y-110400500D01*
X129705500Y-110387500D01*
X129715500Y-110375500D01*
X129737500Y-110353500D01*
X129749500Y-110343500D01*
X129762500Y-110333500D01*
X129775500Y-110324500D01*
X129788500Y-110316500D01*
X129816500Y-110302500D01*
X129830500Y-110296500D01*
X129860500Y-110286500D01*
X129876500Y-110283500D01*
X129891500Y-110280500D01*
X129907500Y-110278500D01*
X129922500Y-110276500D01*
X131154500Y-110276500D01*
X131169500Y-110278500D01*
G36*
X133978500Y-93396500D02*
G01*
X133977500Y-93443500D01*
X133973500Y-93490500D01*
X133967500Y-93537500D01*
X133958500Y-93583500D01*
X133947500Y-93629500D01*
X133934500Y-93674500D01*
X133918500Y-93719500D01*
X133900500Y-93762500D01*
X133880500Y-93805500D01*
X133857500Y-93846500D01*
X133833500Y-93886500D01*
X133806500Y-93925500D01*
X133777500Y-93962500D01*
X133747500Y-93998500D01*
X133714500Y-94032500D01*
X133680500Y-94065500D01*
X133644500Y-94095500D01*
X133607500Y-94124500D01*
X133568500Y-94151500D01*
X133528500Y-94175500D01*
X133487500Y-94198500D01*
X133444500Y-94218500D01*
X133401500Y-94236500D01*
X133356500Y-94252500D01*
X133311500Y-94265500D01*
X133265500Y-94276500D01*
X133219500Y-94285500D01*
X133172500Y-94291500D01*
X133125500Y-94295500D01*
X133078500Y-94296500D01*
X133031500Y-94295500D01*
X132984500Y-94291500D01*
X132937500Y-94285500D01*
X132891500Y-94276500D01*
X132845500Y-94265500D01*
X132800500Y-94252500D01*
X132755500Y-94236500D01*
X132712500Y-94218500D01*
X132669500Y-94198500D01*
X132628500Y-94175500D01*
X132588500Y-94151500D01*
X132549500Y-94124500D01*
X132512500Y-94095500D01*
X132476500Y-94065500D01*
X132442500Y-94032500D01*
X132409500Y-93998500D01*
X132379500Y-93962500D01*
X132350500Y-93925500D01*
X132323500Y-93886500D01*
X132299500Y-93846500D01*
X132276500Y-93805500D01*
X132256500Y-93762500D01*
X132238500Y-93719500D01*
X132222500Y-93674500D01*
X132209500Y-93629500D01*
X132198500Y-93583500D01*
X132189500Y-93537500D01*
X132183500Y-93490500D01*
X132179500Y-93443500D01*
X132178500Y-93396500D01*
X132178500Y-90896500D01*
X133978500Y-90896500D01*
X133978500Y-93396500D01*
G37*
X133978500Y-93396500D02*
X133977500Y-93443500D01*
X133973500Y-93490500D01*
X133967500Y-93537500D01*
X133958500Y-93583500D01*
X133947500Y-93629500D01*
X133934500Y-93674500D01*
X133918500Y-93719500D01*
X133900500Y-93762500D01*
X133880500Y-93805500D01*
X133857500Y-93846500D01*
X133833500Y-93886500D01*
X133806500Y-93925500D01*
X133777500Y-93962500D01*
X133747500Y-93998500D01*
X133714500Y-94032500D01*
X133680500Y-94065500D01*
X133644500Y-94095500D01*
X133607500Y-94124500D01*
X133568500Y-94151500D01*
X133528500Y-94175500D01*
X133487500Y-94198500D01*
X133444500Y-94218500D01*
X133401500Y-94236500D01*
X133356500Y-94252500D01*
X133311500Y-94265500D01*
X133265500Y-94276500D01*
X133219500Y-94285500D01*
X133172500Y-94291500D01*
X133125500Y-94295500D01*
X133078500Y-94296500D01*
X133031500Y-94295500D01*
X132984500Y-94291500D01*
X132937500Y-94285500D01*
X132891500Y-94276500D01*
X132845500Y-94265500D01*
X132800500Y-94252500D01*
X132755500Y-94236500D01*
X132712500Y-94218500D01*
X132669500Y-94198500D01*
X132628500Y-94175500D01*
X132588500Y-94151500D01*
X132549500Y-94124500D01*
X132512500Y-94095500D01*
X132476500Y-94065500D01*
X132442500Y-94032500D01*
X132409500Y-93998500D01*
X132379500Y-93962500D01*
X132350500Y-93925500D01*
X132323500Y-93886500D01*
X132299500Y-93846500D01*
X132276500Y-93805500D01*
X132256500Y-93762500D01*
X132238500Y-93719500D01*
X132222500Y-93674500D01*
X132209500Y-93629500D01*
X132198500Y-93583500D01*
X132189500Y-93537500D01*
X132183500Y-93490500D01*
X132179500Y-93443500D01*
X132178500Y-93396500D01*
X132178500Y-90896500D01*
X133978500Y-90896500D01*
X133978500Y-93396500D01*
G36*
X100105500Y-110277500D02*
G01*
X100152500Y-110281500D01*
X100199500Y-110287500D01*
X100245500Y-110296500D01*
X100291500Y-110307500D01*
X100336500Y-110320500D01*
X100381500Y-110336500D01*
X100424500Y-110354500D01*
X100467500Y-110374500D01*
X100508500Y-110397500D01*
X100548500Y-110421500D01*
X100587500Y-110448500D01*
X100624500Y-110477500D01*
X100660500Y-110507500D01*
X100694500Y-110540500D01*
X100727500Y-110574500D01*
X100757500Y-110610500D01*
X100786500Y-110647500D01*
X100813500Y-110686500D01*
X100837500Y-110726500D01*
X100860500Y-110767500D01*
X100880500Y-110810500D01*
X100898500Y-110853500D01*
X100914500Y-110898500D01*
X100927500Y-110943500D01*
X100938500Y-110989500D01*
X100947500Y-111035500D01*
X100953500Y-111082500D01*
X100957500Y-111129500D01*
X100958500Y-111176500D01*
X100958500Y-113676500D01*
X99158500Y-113676500D01*
X99158500Y-111176500D01*
X99159500Y-111129500D01*
X99163500Y-111082500D01*
X99169500Y-111035500D01*
X99178500Y-110989500D01*
X99189500Y-110943500D01*
X99202500Y-110898500D01*
X99218500Y-110853500D01*
X99236500Y-110810500D01*
X99256500Y-110767500D01*
X99279500Y-110726500D01*
X99303500Y-110686500D01*
X99330500Y-110647500D01*
X99359500Y-110610500D01*
X99389500Y-110574500D01*
X99422500Y-110540500D01*
X99456500Y-110507500D01*
X99492500Y-110477500D01*
X99529500Y-110448500D01*
X99568500Y-110421500D01*
X99608500Y-110397500D01*
X99649500Y-110374500D01*
X99692500Y-110354500D01*
X99735500Y-110336500D01*
X99780500Y-110320500D01*
X99825500Y-110307500D01*
X99871500Y-110296500D01*
X99917500Y-110287500D01*
X99964500Y-110281500D01*
X100011500Y-110277500D01*
X100058500Y-110276500D01*
X100105500Y-110277500D01*
G37*
X100105500Y-110277500D02*
X100152500Y-110281500D01*
X100199500Y-110287500D01*
X100245500Y-110296500D01*
X100291500Y-110307500D01*
X100336500Y-110320500D01*
X100381500Y-110336500D01*
X100424500Y-110354500D01*
X100467500Y-110374500D01*
X100508500Y-110397500D01*
X100548500Y-110421500D01*
X100587500Y-110448500D01*
X100624500Y-110477500D01*
X100660500Y-110507500D01*
X100694500Y-110540500D01*
X100727500Y-110574500D01*
X100757500Y-110610500D01*
X100786500Y-110647500D01*
X100813500Y-110686500D01*
X100837500Y-110726500D01*
X100860500Y-110767500D01*
X100880500Y-110810500D01*
X100898500Y-110853500D01*
X100914500Y-110898500D01*
X100927500Y-110943500D01*
X100938500Y-110989500D01*
X100947500Y-111035500D01*
X100953500Y-111082500D01*
X100957500Y-111129500D01*
X100958500Y-111176500D01*
X100958500Y-113676500D01*
X99158500Y-113676500D01*
X99158500Y-111176500D01*
X99159500Y-111129500D01*
X99163500Y-111082500D01*
X99169500Y-111035500D01*
X99178500Y-110989500D01*
X99189500Y-110943500D01*
X99202500Y-110898500D01*
X99218500Y-110853500D01*
X99236500Y-110810500D01*
X99256500Y-110767500D01*
X99279500Y-110726500D01*
X99303500Y-110686500D01*
X99330500Y-110647500D01*
X99359500Y-110610500D01*
X99389500Y-110574500D01*
X99422500Y-110540500D01*
X99456500Y-110507500D01*
X99492500Y-110477500D01*
X99529500Y-110448500D01*
X99568500Y-110421500D01*
X99608500Y-110397500D01*
X99649500Y-110374500D01*
X99692500Y-110354500D01*
X99735500Y-110336500D01*
X99780500Y-110320500D01*
X99825500Y-110307500D01*
X99871500Y-110296500D01*
X99917500Y-110287500D01*
X99964500Y-110281500D01*
X100011500Y-110277500D01*
X100058500Y-110276500D01*
X100105500Y-110277500D01*
G36*
X97565500Y-110277500D02*
G01*
X97612500Y-110281500D01*
X97659500Y-110287500D01*
X97705500Y-110296500D01*
X97751500Y-110307500D01*
X97796500Y-110320500D01*
X97841500Y-110336500D01*
X97884500Y-110354500D01*
X97927500Y-110374500D01*
X97968500Y-110397500D01*
X98008500Y-110421500D01*
X98047500Y-110448500D01*
X98084500Y-110477500D01*
X98120500Y-110507500D01*
X98154500Y-110540500D01*
X98187500Y-110574500D01*
X98217500Y-110610500D01*
X98246500Y-110647500D01*
X98273500Y-110686500D01*
X98297500Y-110726500D01*
X98320500Y-110767500D01*
X98340500Y-110810500D01*
X98358500Y-110853500D01*
X98374500Y-110898500D01*
X98387500Y-110943500D01*
X98398500Y-110989500D01*
X98407500Y-111035500D01*
X98413500Y-111082500D01*
X98417500Y-111129500D01*
X98418500Y-111176500D01*
X98418500Y-113676500D01*
X96618500Y-113676500D01*
X96618500Y-111176500D01*
X96619500Y-111129500D01*
X96623500Y-111082500D01*
X96629500Y-111035500D01*
X96638500Y-110989500D01*
X96649500Y-110943500D01*
X96662500Y-110898500D01*
X96678500Y-110853500D01*
X96696500Y-110810500D01*
X96716500Y-110767500D01*
X96739500Y-110726500D01*
X96763500Y-110686500D01*
X96790500Y-110647500D01*
X96819500Y-110610500D01*
X96849500Y-110574500D01*
X96882500Y-110540500D01*
X96916500Y-110507500D01*
X96952500Y-110477500D01*
X96989500Y-110448500D01*
X97028500Y-110421500D01*
X97068500Y-110397500D01*
X97109500Y-110374500D01*
X97152500Y-110354500D01*
X97195500Y-110336500D01*
X97240500Y-110320500D01*
X97285500Y-110307500D01*
X97331500Y-110296500D01*
X97377500Y-110287500D01*
X97424500Y-110281500D01*
X97471500Y-110277500D01*
X97518500Y-110276500D01*
X97565500Y-110277500D01*
G37*
X97565500Y-110277500D02*
X97612500Y-110281500D01*
X97659500Y-110287500D01*
X97705500Y-110296500D01*
X97751500Y-110307500D01*
X97796500Y-110320500D01*
X97841500Y-110336500D01*
X97884500Y-110354500D01*
X97927500Y-110374500D01*
X97968500Y-110397500D01*
X98008500Y-110421500D01*
X98047500Y-110448500D01*
X98084500Y-110477500D01*
X98120500Y-110507500D01*
X98154500Y-110540500D01*
X98187500Y-110574500D01*
X98217500Y-110610500D01*
X98246500Y-110647500D01*
X98273500Y-110686500D01*
X98297500Y-110726500D01*
X98320500Y-110767500D01*
X98340500Y-110810500D01*
X98358500Y-110853500D01*
X98374500Y-110898500D01*
X98387500Y-110943500D01*
X98398500Y-110989500D01*
X98407500Y-111035500D01*
X98413500Y-111082500D01*
X98417500Y-111129500D01*
X98418500Y-111176500D01*
X98418500Y-113676500D01*
X96618500Y-113676500D01*
X96618500Y-111176500D01*
X96619500Y-111129500D01*
X96623500Y-111082500D01*
X96629500Y-111035500D01*
X96638500Y-110989500D01*
X96649500Y-110943500D01*
X96662500Y-110898500D01*
X96678500Y-110853500D01*
X96696500Y-110810500D01*
X96716500Y-110767500D01*
X96739500Y-110726500D01*
X96763500Y-110686500D01*
X96790500Y-110647500D01*
X96819500Y-110610500D01*
X96849500Y-110574500D01*
X96882500Y-110540500D01*
X96916500Y-110507500D01*
X96952500Y-110477500D01*
X96989500Y-110448500D01*
X97028500Y-110421500D01*
X97068500Y-110397500D01*
X97109500Y-110374500D01*
X97152500Y-110354500D01*
X97195500Y-110336500D01*
X97240500Y-110320500D01*
X97285500Y-110307500D01*
X97331500Y-110296500D01*
X97377500Y-110287500D01*
X97424500Y-110281500D01*
X97471500Y-110277500D01*
X97518500Y-110276500D01*
X97565500Y-110277500D01*
G36*
X103498500Y-93396500D02*
G01*
X103497500Y-93443500D01*
X103493500Y-93490500D01*
X103487500Y-93537500D01*
X103478500Y-93583500D01*
X103467500Y-93629500D01*
X103454500Y-93674500D01*
X103438500Y-93719500D01*
X103420500Y-93762500D01*
X103400500Y-93805500D01*
X103377500Y-93846500D01*
X103353500Y-93886500D01*
X103326500Y-93925500D01*
X103297500Y-93962500D01*
X103267500Y-93998500D01*
X103234500Y-94032500D01*
X103200500Y-94065500D01*
X103164500Y-94095500D01*
X103127500Y-94124500D01*
X103088500Y-94151500D01*
X103048500Y-94175500D01*
X103007500Y-94198500D01*
X102964500Y-94218500D01*
X102921500Y-94236500D01*
X102876500Y-94252500D01*
X102831500Y-94265500D01*
X102785500Y-94276500D01*
X102739500Y-94285500D01*
X102692500Y-94291500D01*
X102645500Y-94295500D01*
X102598500Y-94296500D01*
X102551500Y-94295500D01*
X102504500Y-94291500D01*
X102457500Y-94285500D01*
X102411500Y-94276500D01*
X102365500Y-94265500D01*
X102320500Y-94252500D01*
X102275500Y-94236500D01*
X102232500Y-94218500D01*
X102189500Y-94198500D01*
X102148500Y-94175500D01*
X102108500Y-94151500D01*
X102069500Y-94124500D01*
X102032500Y-94095500D01*
X101996500Y-94065500D01*
X101962500Y-94032500D01*
X101929500Y-93998500D01*
X101899500Y-93962500D01*
X101870500Y-93925500D01*
X101843500Y-93886500D01*
X101819500Y-93846500D01*
X101796500Y-93805500D01*
X101776500Y-93762500D01*
X101758500Y-93719500D01*
X101742500Y-93674500D01*
X101729500Y-93629500D01*
X101718500Y-93583500D01*
X101709500Y-93537500D01*
X101703500Y-93490500D01*
X101699500Y-93443500D01*
X101698500Y-93396500D01*
X101698500Y-90896500D01*
X103498500Y-90896500D01*
X103498500Y-93396500D01*
G37*
X103498500Y-93396500D02*
X103497500Y-93443500D01*
X103493500Y-93490500D01*
X103487500Y-93537500D01*
X103478500Y-93583500D01*
X103467500Y-93629500D01*
X103454500Y-93674500D01*
X103438500Y-93719500D01*
X103420500Y-93762500D01*
X103400500Y-93805500D01*
X103377500Y-93846500D01*
X103353500Y-93886500D01*
X103326500Y-93925500D01*
X103297500Y-93962500D01*
X103267500Y-93998500D01*
X103234500Y-94032500D01*
X103200500Y-94065500D01*
X103164500Y-94095500D01*
X103127500Y-94124500D01*
X103088500Y-94151500D01*
X103048500Y-94175500D01*
X103007500Y-94198500D01*
X102964500Y-94218500D01*
X102921500Y-94236500D01*
X102876500Y-94252500D01*
X102831500Y-94265500D01*
X102785500Y-94276500D01*
X102739500Y-94285500D01*
X102692500Y-94291500D01*
X102645500Y-94295500D01*
X102598500Y-94296500D01*
X102551500Y-94295500D01*
X102504500Y-94291500D01*
X102457500Y-94285500D01*
X102411500Y-94276500D01*
X102365500Y-94265500D01*
X102320500Y-94252500D01*
X102275500Y-94236500D01*
X102232500Y-94218500D01*
X102189500Y-94198500D01*
X102148500Y-94175500D01*
X102108500Y-94151500D01*
X102069500Y-94124500D01*
X102032500Y-94095500D01*
X101996500Y-94065500D01*
X101962500Y-94032500D01*
X101929500Y-93998500D01*
X101899500Y-93962500D01*
X101870500Y-93925500D01*
X101843500Y-93886500D01*
X101819500Y-93846500D01*
X101796500Y-93805500D01*
X101776500Y-93762500D01*
X101758500Y-93719500D01*
X101742500Y-93674500D01*
X101729500Y-93629500D01*
X101718500Y-93583500D01*
X101709500Y-93537500D01*
X101703500Y-93490500D01*
X101699500Y-93443500D01*
X101698500Y-93396500D01*
X101698500Y-90896500D01*
X103498500Y-90896500D01*
X103498500Y-93396500D01*
G36*
X93069500Y-110278500D02*
G01*
X93085500Y-110280500D01*
X93100500Y-110283500D01*
X93116500Y-110286500D01*
X93146500Y-110296500D01*
X93160500Y-110302500D01*
X93188500Y-110316500D01*
X93201500Y-110324500D01*
X93214500Y-110333500D01*
X93227500Y-110343500D01*
X93239500Y-110353500D01*
X93261500Y-110375500D01*
X93271500Y-110387500D01*
X93281500Y-110400500D01*
X93290500Y-110413500D01*
X93298500Y-110426500D01*
X93312500Y-110454500D01*
X93318500Y-110468500D01*
X93328500Y-110498500D01*
X93331500Y-110514500D01*
X93334500Y-110529500D01*
X93336500Y-110545500D01*
X93338500Y-110560500D01*
X93338500Y-113676500D01*
X91538500Y-113676500D01*
X91538500Y-110560500D01*
X91540500Y-110545500D01*
X91542500Y-110529500D01*
X91545500Y-110514500D01*
X91548500Y-110498500D01*
X91558500Y-110468500D01*
X91564500Y-110454500D01*
X91578500Y-110426500D01*
X91586500Y-110413500D01*
X91595500Y-110400500D01*
X91605500Y-110387500D01*
X91615500Y-110375500D01*
X91637500Y-110353500D01*
X91649500Y-110343500D01*
X91662500Y-110333500D01*
X91675500Y-110324500D01*
X91688500Y-110316500D01*
X91716500Y-110302500D01*
X91730500Y-110296500D01*
X91760500Y-110286500D01*
X91776500Y-110283500D01*
X91791500Y-110280500D01*
X91807500Y-110278500D01*
X91822500Y-110276500D01*
X93054500Y-110276500D01*
X93069500Y-110278500D01*
G37*
X93069500Y-110278500D02*
X93085500Y-110280500D01*
X93100500Y-110283500D01*
X93116500Y-110286500D01*
X93146500Y-110296500D01*
X93160500Y-110302500D01*
X93188500Y-110316500D01*
X93201500Y-110324500D01*
X93214500Y-110333500D01*
X93227500Y-110343500D01*
X93239500Y-110353500D01*
X93261500Y-110375500D01*
X93271500Y-110387500D01*
X93281500Y-110400500D01*
X93290500Y-110413500D01*
X93298500Y-110426500D01*
X93312500Y-110454500D01*
X93318500Y-110468500D01*
X93328500Y-110498500D01*
X93331500Y-110514500D01*
X93334500Y-110529500D01*
X93336500Y-110545500D01*
X93338500Y-110560500D01*
X93338500Y-113676500D01*
X91538500Y-113676500D01*
X91538500Y-110560500D01*
X91540500Y-110545500D01*
X91542500Y-110529500D01*
X91545500Y-110514500D01*
X91548500Y-110498500D01*
X91558500Y-110468500D01*
X91564500Y-110454500D01*
X91578500Y-110426500D01*
X91586500Y-110413500D01*
X91595500Y-110400500D01*
X91605500Y-110387500D01*
X91615500Y-110375500D01*
X91637500Y-110353500D01*
X91649500Y-110343500D01*
X91662500Y-110333500D01*
X91675500Y-110324500D01*
X91688500Y-110316500D01*
X91716500Y-110302500D01*
X91730500Y-110296500D01*
X91760500Y-110286500D01*
X91776500Y-110283500D01*
X91791500Y-110280500D01*
X91807500Y-110278500D01*
X91822500Y-110276500D01*
X93054500Y-110276500D01*
X93069500Y-110278500D01*
G36*
X107725500Y-110277500D02*
G01*
X107772500Y-110281500D01*
X107819500Y-110287500D01*
X107865500Y-110296500D01*
X107911500Y-110307500D01*
X107956500Y-110320500D01*
X108001500Y-110336500D01*
X108044500Y-110354500D01*
X108087500Y-110374500D01*
X108128500Y-110397500D01*
X108168500Y-110421500D01*
X108207500Y-110448500D01*
X108244500Y-110477500D01*
X108280500Y-110507500D01*
X108314500Y-110540500D01*
X108347500Y-110574500D01*
X108377500Y-110610500D01*
X108406500Y-110647500D01*
X108433500Y-110686500D01*
X108457500Y-110726500D01*
X108480500Y-110767500D01*
X108500500Y-110810500D01*
X108518500Y-110853500D01*
X108534500Y-110898500D01*
X108547500Y-110943500D01*
X108558500Y-110989500D01*
X108567500Y-111035500D01*
X108573500Y-111082500D01*
X108577500Y-111129500D01*
X108578500Y-111176500D01*
X108578500Y-113676500D01*
X106778500Y-113676500D01*
X106778500Y-111176500D01*
X106779500Y-111129500D01*
X106783500Y-111082500D01*
X106789500Y-111035500D01*
X106798500Y-110989500D01*
X106809500Y-110943500D01*
X106822500Y-110898500D01*
X106838500Y-110853500D01*
X106856500Y-110810500D01*
X106876500Y-110767500D01*
X106899500Y-110726500D01*
X106923500Y-110686500D01*
X106950500Y-110647500D01*
X106979500Y-110610500D01*
X107009500Y-110574500D01*
X107042500Y-110540500D01*
X107076500Y-110507500D01*
X107112500Y-110477500D01*
X107149500Y-110448500D01*
X107188500Y-110421500D01*
X107228500Y-110397500D01*
X107269500Y-110374500D01*
X107312500Y-110354500D01*
X107355500Y-110336500D01*
X107400500Y-110320500D01*
X107445500Y-110307500D01*
X107491500Y-110296500D01*
X107537500Y-110287500D01*
X107584500Y-110281500D01*
X107631500Y-110277500D01*
X107678500Y-110276500D01*
X107725500Y-110277500D01*
G37*
X107725500Y-110277500D02*
X107772500Y-110281500D01*
X107819500Y-110287500D01*
X107865500Y-110296500D01*
X107911500Y-110307500D01*
X107956500Y-110320500D01*
X108001500Y-110336500D01*
X108044500Y-110354500D01*
X108087500Y-110374500D01*
X108128500Y-110397500D01*
X108168500Y-110421500D01*
X108207500Y-110448500D01*
X108244500Y-110477500D01*
X108280500Y-110507500D01*
X108314500Y-110540500D01*
X108347500Y-110574500D01*
X108377500Y-110610500D01*
X108406500Y-110647500D01*
X108433500Y-110686500D01*
X108457500Y-110726500D01*
X108480500Y-110767500D01*
X108500500Y-110810500D01*
X108518500Y-110853500D01*
X108534500Y-110898500D01*
X108547500Y-110943500D01*
X108558500Y-110989500D01*
X108567500Y-111035500D01*
X108573500Y-111082500D01*
X108577500Y-111129500D01*
X108578500Y-111176500D01*
X108578500Y-113676500D01*
X106778500Y-113676500D01*
X106778500Y-111176500D01*
X106779500Y-111129500D01*
X106783500Y-111082500D01*
X106789500Y-111035500D01*
X106798500Y-110989500D01*
X106809500Y-110943500D01*
X106822500Y-110898500D01*
X106838500Y-110853500D01*
X106856500Y-110810500D01*
X106876500Y-110767500D01*
X106899500Y-110726500D01*
X106923500Y-110686500D01*
X106950500Y-110647500D01*
X106979500Y-110610500D01*
X107009500Y-110574500D01*
X107042500Y-110540500D01*
X107076500Y-110507500D01*
X107112500Y-110477500D01*
X107149500Y-110448500D01*
X107188500Y-110421500D01*
X107228500Y-110397500D01*
X107269500Y-110374500D01*
X107312500Y-110354500D01*
X107355500Y-110336500D01*
X107400500Y-110320500D01*
X107445500Y-110307500D01*
X107491500Y-110296500D01*
X107537500Y-110287500D01*
X107584500Y-110281500D01*
X107631500Y-110277500D01*
X107678500Y-110276500D01*
X107725500Y-110277500D01*
G36*
X125505500Y-110277500D02*
G01*
X125552500Y-110281500D01*
X125599500Y-110287500D01*
X125645500Y-110296500D01*
X125691500Y-110307500D01*
X125736500Y-110320500D01*
X125781500Y-110336500D01*
X125824500Y-110354500D01*
X125867500Y-110374500D01*
X125908500Y-110397500D01*
X125948500Y-110421500D01*
X125987500Y-110448500D01*
X126024500Y-110477500D01*
X126060500Y-110507500D01*
X126094500Y-110540500D01*
X126127500Y-110574500D01*
X126157500Y-110610500D01*
X126186500Y-110647500D01*
X126213500Y-110686500D01*
X126237500Y-110726500D01*
X126260500Y-110767500D01*
X126280500Y-110810500D01*
X126298500Y-110853500D01*
X126314500Y-110898500D01*
X126327500Y-110943500D01*
X126338500Y-110989500D01*
X126347500Y-111035500D01*
X126353500Y-111082500D01*
X126357500Y-111129500D01*
X126358500Y-111176500D01*
X126358500Y-113676500D01*
X124558500Y-113676500D01*
X124558500Y-111176500D01*
X124559500Y-111129500D01*
X124563500Y-111082500D01*
X124569500Y-111035500D01*
X124578500Y-110989500D01*
X124589500Y-110943500D01*
X124602500Y-110898500D01*
X124618500Y-110853500D01*
X124636500Y-110810500D01*
X124656500Y-110767500D01*
X124679500Y-110726500D01*
X124703500Y-110686500D01*
X124730500Y-110647500D01*
X124759500Y-110610500D01*
X124789500Y-110574500D01*
X124822500Y-110540500D01*
X124856500Y-110507500D01*
X124892500Y-110477500D01*
X124929500Y-110448500D01*
X124968500Y-110421500D01*
X125008500Y-110397500D01*
X125049500Y-110374500D01*
X125092500Y-110354500D01*
X125135500Y-110336500D01*
X125180500Y-110320500D01*
X125225500Y-110307500D01*
X125271500Y-110296500D01*
X125317500Y-110287500D01*
X125364500Y-110281500D01*
X125411500Y-110277500D01*
X125458500Y-110276500D01*
X125505500Y-110277500D01*
G37*
X125505500Y-110277500D02*
X125552500Y-110281500D01*
X125599500Y-110287500D01*
X125645500Y-110296500D01*
X125691500Y-110307500D01*
X125736500Y-110320500D01*
X125781500Y-110336500D01*
X125824500Y-110354500D01*
X125867500Y-110374500D01*
X125908500Y-110397500D01*
X125948500Y-110421500D01*
X125987500Y-110448500D01*
X126024500Y-110477500D01*
X126060500Y-110507500D01*
X126094500Y-110540500D01*
X126127500Y-110574500D01*
X126157500Y-110610500D01*
X126186500Y-110647500D01*
X126213500Y-110686500D01*
X126237500Y-110726500D01*
X126260500Y-110767500D01*
X126280500Y-110810500D01*
X126298500Y-110853500D01*
X126314500Y-110898500D01*
X126327500Y-110943500D01*
X126338500Y-110989500D01*
X126347500Y-111035500D01*
X126353500Y-111082500D01*
X126357500Y-111129500D01*
X126358500Y-111176500D01*
X126358500Y-113676500D01*
X124558500Y-113676500D01*
X124558500Y-111176500D01*
X124559500Y-111129500D01*
X124563500Y-111082500D01*
X124569500Y-111035500D01*
X124578500Y-110989500D01*
X124589500Y-110943500D01*
X124602500Y-110898500D01*
X124618500Y-110853500D01*
X124636500Y-110810500D01*
X124656500Y-110767500D01*
X124679500Y-110726500D01*
X124703500Y-110686500D01*
X124730500Y-110647500D01*
X124759500Y-110610500D01*
X124789500Y-110574500D01*
X124822500Y-110540500D01*
X124856500Y-110507500D01*
X124892500Y-110477500D01*
X124929500Y-110448500D01*
X124968500Y-110421500D01*
X125008500Y-110397500D01*
X125049500Y-110374500D01*
X125092500Y-110354500D01*
X125135500Y-110336500D01*
X125180500Y-110320500D01*
X125225500Y-110307500D01*
X125271500Y-110296500D01*
X125317500Y-110287500D01*
X125364500Y-110281500D01*
X125411500Y-110277500D01*
X125458500Y-110276500D01*
X125505500Y-110277500D01*
G36*
X87405500Y-110277500D02*
G01*
X87452500Y-110281500D01*
X87499500Y-110287500D01*
X87545500Y-110296500D01*
X87591500Y-110307500D01*
X87636500Y-110320500D01*
X87681500Y-110336500D01*
X87724500Y-110354500D01*
X87767500Y-110374500D01*
X87808500Y-110397500D01*
X87848500Y-110421500D01*
X87887500Y-110448500D01*
X87924500Y-110477500D01*
X87960500Y-110507500D01*
X87994500Y-110540500D01*
X88027500Y-110574500D01*
X88057500Y-110610500D01*
X88086500Y-110647500D01*
X88113500Y-110686500D01*
X88137500Y-110726500D01*
X88160500Y-110767500D01*
X88180500Y-110810500D01*
X88198500Y-110853500D01*
X88214500Y-110898500D01*
X88227500Y-110943500D01*
X88238500Y-110989500D01*
X88247500Y-111035500D01*
X88253500Y-111082500D01*
X88257500Y-111129500D01*
X88258500Y-111176500D01*
X88258500Y-113676500D01*
X86458500Y-113676500D01*
X86458500Y-111176500D01*
X86459500Y-111129500D01*
X86463500Y-111082500D01*
X86469500Y-111035500D01*
X86478500Y-110989500D01*
X86489500Y-110943500D01*
X86502500Y-110898500D01*
X86518500Y-110853500D01*
X86536500Y-110810500D01*
X86556500Y-110767500D01*
X86579500Y-110726500D01*
X86603500Y-110686500D01*
X86630500Y-110647500D01*
X86659500Y-110610500D01*
X86689500Y-110574500D01*
X86722500Y-110540500D01*
X86756500Y-110507500D01*
X86792500Y-110477500D01*
X86829500Y-110448500D01*
X86868500Y-110421500D01*
X86908500Y-110397500D01*
X86949500Y-110374500D01*
X86992500Y-110354500D01*
X87035500Y-110336500D01*
X87080500Y-110320500D01*
X87125500Y-110307500D01*
X87171500Y-110296500D01*
X87217500Y-110287500D01*
X87264500Y-110281500D01*
X87311500Y-110277500D01*
X87358500Y-110276500D01*
X87405500Y-110277500D01*
G37*
X87405500Y-110277500D02*
X87452500Y-110281500D01*
X87499500Y-110287500D01*
X87545500Y-110296500D01*
X87591500Y-110307500D01*
X87636500Y-110320500D01*
X87681500Y-110336500D01*
X87724500Y-110354500D01*
X87767500Y-110374500D01*
X87808500Y-110397500D01*
X87848500Y-110421500D01*
X87887500Y-110448500D01*
X87924500Y-110477500D01*
X87960500Y-110507500D01*
X87994500Y-110540500D01*
X88027500Y-110574500D01*
X88057500Y-110610500D01*
X88086500Y-110647500D01*
X88113500Y-110686500D01*
X88137500Y-110726500D01*
X88160500Y-110767500D01*
X88180500Y-110810500D01*
X88198500Y-110853500D01*
X88214500Y-110898500D01*
X88227500Y-110943500D01*
X88238500Y-110989500D01*
X88247500Y-111035500D01*
X88253500Y-111082500D01*
X88257500Y-111129500D01*
X88258500Y-111176500D01*
X88258500Y-113676500D01*
X86458500Y-113676500D01*
X86458500Y-111176500D01*
X86459500Y-111129500D01*
X86463500Y-111082500D01*
X86469500Y-111035500D01*
X86478500Y-110989500D01*
X86489500Y-110943500D01*
X86502500Y-110898500D01*
X86518500Y-110853500D01*
X86536500Y-110810500D01*
X86556500Y-110767500D01*
X86579500Y-110726500D01*
X86603500Y-110686500D01*
X86630500Y-110647500D01*
X86659500Y-110610500D01*
X86689500Y-110574500D01*
X86722500Y-110540500D01*
X86756500Y-110507500D01*
X86792500Y-110477500D01*
X86829500Y-110448500D01*
X86868500Y-110421500D01*
X86908500Y-110397500D01*
X86949500Y-110374500D01*
X86992500Y-110354500D01*
X87035500Y-110336500D01*
X87080500Y-110320500D01*
X87125500Y-110307500D01*
X87171500Y-110296500D01*
X87217500Y-110287500D01*
X87264500Y-110281500D01*
X87311500Y-110277500D01*
X87358500Y-110276500D01*
X87405500Y-110277500D01*
G36*
X123818500Y-93396500D02*
G01*
X123817500Y-93443500D01*
X123813500Y-93490500D01*
X123807500Y-93537500D01*
X123798500Y-93583500D01*
X123787500Y-93629500D01*
X123774500Y-93674500D01*
X123758500Y-93719500D01*
X123740500Y-93762500D01*
X123720500Y-93805500D01*
X123697500Y-93846500D01*
X123673500Y-93886500D01*
X123646500Y-93925500D01*
X123617500Y-93962500D01*
X123587500Y-93998500D01*
X123554500Y-94032500D01*
X123520500Y-94065500D01*
X123484500Y-94095500D01*
X123447500Y-94124500D01*
X123408500Y-94151500D01*
X123368500Y-94175500D01*
X123327500Y-94198500D01*
X123284500Y-94218500D01*
X123241500Y-94236500D01*
X123196500Y-94252500D01*
X123151500Y-94265500D01*
X123105500Y-94276500D01*
X123059500Y-94285500D01*
X123012500Y-94291500D01*
X122965500Y-94295500D01*
X122918500Y-94296500D01*
X122871500Y-94295500D01*
X122824500Y-94291500D01*
X122777500Y-94285500D01*
X122731500Y-94276500D01*
X122685500Y-94265500D01*
X122640500Y-94252500D01*
X122595500Y-94236500D01*
X122552500Y-94218500D01*
X122509500Y-94198500D01*
X122468500Y-94175500D01*
X122428500Y-94151500D01*
X122389500Y-94124500D01*
X122352500Y-94095500D01*
X122316500Y-94065500D01*
X122282500Y-94032500D01*
X122249500Y-93998500D01*
X122219500Y-93962500D01*
X122190500Y-93925500D01*
X122163500Y-93886500D01*
X122139500Y-93846500D01*
X122116500Y-93805500D01*
X122096500Y-93762500D01*
X122078500Y-93719500D01*
X122062500Y-93674500D01*
X122049500Y-93629500D01*
X122038500Y-93583500D01*
X122029500Y-93537500D01*
X122023500Y-93490500D01*
X122019500Y-93443500D01*
X122018500Y-93396500D01*
X122018500Y-90896500D01*
X123818500Y-90896500D01*
X123818500Y-93396500D01*
G37*
X123818500Y-93396500D02*
X123817500Y-93443500D01*
X123813500Y-93490500D01*
X123807500Y-93537500D01*
X123798500Y-93583500D01*
X123787500Y-93629500D01*
X123774500Y-93674500D01*
X123758500Y-93719500D01*
X123740500Y-93762500D01*
X123720500Y-93805500D01*
X123697500Y-93846500D01*
X123673500Y-93886500D01*
X123646500Y-93925500D01*
X123617500Y-93962500D01*
X123587500Y-93998500D01*
X123554500Y-94032500D01*
X123520500Y-94065500D01*
X123484500Y-94095500D01*
X123447500Y-94124500D01*
X123408500Y-94151500D01*
X123368500Y-94175500D01*
X123327500Y-94198500D01*
X123284500Y-94218500D01*
X123241500Y-94236500D01*
X123196500Y-94252500D01*
X123151500Y-94265500D01*
X123105500Y-94276500D01*
X123059500Y-94285500D01*
X123012500Y-94291500D01*
X122965500Y-94295500D01*
X122918500Y-94296500D01*
X122871500Y-94295500D01*
X122824500Y-94291500D01*
X122777500Y-94285500D01*
X122731500Y-94276500D01*
X122685500Y-94265500D01*
X122640500Y-94252500D01*
X122595500Y-94236500D01*
X122552500Y-94218500D01*
X122509500Y-94198500D01*
X122468500Y-94175500D01*
X122428500Y-94151500D01*
X122389500Y-94124500D01*
X122352500Y-94095500D01*
X122316500Y-94065500D01*
X122282500Y-94032500D01*
X122249500Y-93998500D01*
X122219500Y-93962500D01*
X122190500Y-93925500D01*
X122163500Y-93886500D01*
X122139500Y-93846500D01*
X122116500Y-93805500D01*
X122096500Y-93762500D01*
X122078500Y-93719500D01*
X122062500Y-93674500D01*
X122049500Y-93629500D01*
X122038500Y-93583500D01*
X122029500Y-93537500D01*
X122023500Y-93490500D01*
X122019500Y-93443500D01*
X122018500Y-93396500D01*
X122018500Y-90896500D01*
X123818500Y-90896500D01*
X123818500Y-93396500D01*
G36*
X93338500Y-94012500D02*
G01*
X93336500Y-94027500D01*
X93334500Y-94043500D01*
X93331500Y-94058500D01*
X93328500Y-94074500D01*
X93318500Y-94104500D01*
X93312500Y-94118500D01*
X93298500Y-94146500D01*
X93290500Y-94159500D01*
X93281500Y-94172500D01*
X93271500Y-94185500D01*
X93261500Y-94197500D01*
X93239500Y-94219500D01*
X93227500Y-94229500D01*
X93214500Y-94239500D01*
X93201500Y-94248500D01*
X93188500Y-94256500D01*
X93160500Y-94270500D01*
X93146500Y-94276500D01*
X93116500Y-94286500D01*
X93100500Y-94289500D01*
X93085500Y-94292500D01*
X93069500Y-94294500D01*
X93054500Y-94296500D01*
X91822500Y-94296500D01*
X91807500Y-94294500D01*
X91791500Y-94292500D01*
X91776500Y-94289500D01*
X91760500Y-94286500D01*
X91730500Y-94276500D01*
X91716500Y-94270500D01*
X91688500Y-94256500D01*
X91675500Y-94248500D01*
X91662500Y-94239500D01*
X91649500Y-94229500D01*
X91637500Y-94219500D01*
X91615500Y-94197500D01*
X91605500Y-94185500D01*
X91595500Y-94172500D01*
X91586500Y-94159500D01*
X91578500Y-94146500D01*
X91564500Y-94118500D01*
X91558500Y-94104500D01*
X91548500Y-94074500D01*
X91545500Y-94058500D01*
X91542500Y-94043500D01*
X91540500Y-94027500D01*
X91538500Y-94012500D01*
X91538500Y-90896500D01*
X93338500Y-90896500D01*
X93338500Y-94012500D01*
G37*
X93338500Y-94012500D02*
X93336500Y-94027500D01*
X93334500Y-94043500D01*
X93331500Y-94058500D01*
X93328500Y-94074500D01*
X93318500Y-94104500D01*
X93312500Y-94118500D01*
X93298500Y-94146500D01*
X93290500Y-94159500D01*
X93281500Y-94172500D01*
X93271500Y-94185500D01*
X93261500Y-94197500D01*
X93239500Y-94219500D01*
X93227500Y-94229500D01*
X93214500Y-94239500D01*
X93201500Y-94248500D01*
X93188500Y-94256500D01*
X93160500Y-94270500D01*
X93146500Y-94276500D01*
X93116500Y-94286500D01*
X93100500Y-94289500D01*
X93085500Y-94292500D01*
X93069500Y-94294500D01*
X93054500Y-94296500D01*
X91822500Y-94296500D01*
X91807500Y-94294500D01*
X91791500Y-94292500D01*
X91776500Y-94289500D01*
X91760500Y-94286500D01*
X91730500Y-94276500D01*
X91716500Y-94270500D01*
X91688500Y-94256500D01*
X91675500Y-94248500D01*
X91662500Y-94239500D01*
X91649500Y-94229500D01*
X91637500Y-94219500D01*
X91615500Y-94197500D01*
X91605500Y-94185500D01*
X91595500Y-94172500D01*
X91586500Y-94159500D01*
X91578500Y-94146500D01*
X91564500Y-94118500D01*
X91558500Y-94104500D01*
X91548500Y-94074500D01*
X91545500Y-94058500D01*
X91542500Y-94043500D01*
X91540500Y-94027500D01*
X91538500Y-94012500D01*
X91538500Y-90896500D01*
X93338500Y-90896500D01*
X93338500Y-94012500D01*
G36*
X128045500Y-110277500D02*
G01*
X128092500Y-110281500D01*
X128139500Y-110287500D01*
X128185500Y-110296500D01*
X128231500Y-110307500D01*
X128276500Y-110320500D01*
X128321500Y-110336500D01*
X128364500Y-110354500D01*
X128407500Y-110374500D01*
X128448500Y-110397500D01*
X128488500Y-110421500D01*
X128527500Y-110448500D01*
X128564500Y-110477500D01*
X128600500Y-110507500D01*
X128634500Y-110540500D01*
X128667500Y-110574500D01*
X128697500Y-110610500D01*
X128726500Y-110647500D01*
X128753500Y-110686500D01*
X128777500Y-110726500D01*
X128800500Y-110767500D01*
X128820500Y-110810500D01*
X128838500Y-110853500D01*
X128854500Y-110898500D01*
X128867500Y-110943500D01*
X128878500Y-110989500D01*
X128887500Y-111035500D01*
X128893500Y-111082500D01*
X128897500Y-111129500D01*
X128898500Y-111176500D01*
X128898500Y-113676500D01*
X127098500Y-113676500D01*
X127098500Y-111176500D01*
X127099500Y-111129500D01*
X127103500Y-111082500D01*
X127109500Y-111035500D01*
X127118500Y-110989500D01*
X127129500Y-110943500D01*
X127142500Y-110898500D01*
X127158500Y-110853500D01*
X127176500Y-110810500D01*
X127196500Y-110767500D01*
X127219500Y-110726500D01*
X127243500Y-110686500D01*
X127270500Y-110647500D01*
X127299500Y-110610500D01*
X127329500Y-110574500D01*
X127362500Y-110540500D01*
X127396500Y-110507500D01*
X127432500Y-110477500D01*
X127469500Y-110448500D01*
X127508500Y-110421500D01*
X127548500Y-110397500D01*
X127589500Y-110374500D01*
X127632500Y-110354500D01*
X127675500Y-110336500D01*
X127720500Y-110320500D01*
X127765500Y-110307500D01*
X127811500Y-110296500D01*
X127857500Y-110287500D01*
X127904500Y-110281500D01*
X127951500Y-110277500D01*
X127998500Y-110276500D01*
X128045500Y-110277500D01*
G37*
X128045500Y-110277500D02*
X128092500Y-110281500D01*
X128139500Y-110287500D01*
X128185500Y-110296500D01*
X128231500Y-110307500D01*
X128276500Y-110320500D01*
X128321500Y-110336500D01*
X128364500Y-110354500D01*
X128407500Y-110374500D01*
X128448500Y-110397500D01*
X128488500Y-110421500D01*
X128527500Y-110448500D01*
X128564500Y-110477500D01*
X128600500Y-110507500D01*
X128634500Y-110540500D01*
X128667500Y-110574500D01*
X128697500Y-110610500D01*
X128726500Y-110647500D01*
X128753500Y-110686500D01*
X128777500Y-110726500D01*
X128800500Y-110767500D01*
X128820500Y-110810500D01*
X128838500Y-110853500D01*
X128854500Y-110898500D01*
X128867500Y-110943500D01*
X128878500Y-110989500D01*
X128887500Y-111035500D01*
X128893500Y-111082500D01*
X128897500Y-111129500D01*
X128898500Y-111176500D01*
X128898500Y-113676500D01*
X127098500Y-113676500D01*
X127098500Y-111176500D01*
X127099500Y-111129500D01*
X127103500Y-111082500D01*
X127109500Y-111035500D01*
X127118500Y-110989500D01*
X127129500Y-110943500D01*
X127142500Y-110898500D01*
X127158500Y-110853500D01*
X127176500Y-110810500D01*
X127196500Y-110767500D01*
X127219500Y-110726500D01*
X127243500Y-110686500D01*
X127270500Y-110647500D01*
X127299500Y-110610500D01*
X127329500Y-110574500D01*
X127362500Y-110540500D01*
X127396500Y-110507500D01*
X127432500Y-110477500D01*
X127469500Y-110448500D01*
X127508500Y-110421500D01*
X127548500Y-110397500D01*
X127589500Y-110374500D01*
X127632500Y-110354500D01*
X127675500Y-110336500D01*
X127720500Y-110320500D01*
X127765500Y-110307500D01*
X127811500Y-110296500D01*
X127857500Y-110287500D01*
X127904500Y-110281500D01*
X127951500Y-110277500D01*
X127998500Y-110276500D01*
X128045500Y-110277500D01*
G36*
X90798500Y-93396500D02*
G01*
X90797500Y-93443500D01*
X90793500Y-93490500D01*
X90787500Y-93537500D01*
X90778500Y-93583500D01*
X90767500Y-93629500D01*
X90754500Y-93674500D01*
X90738500Y-93719500D01*
X90720500Y-93762500D01*
X90700500Y-93805500D01*
X90677500Y-93846500D01*
X90653500Y-93886500D01*
X90626500Y-93925500D01*
X90597500Y-93962500D01*
X90567500Y-93998500D01*
X90534500Y-94032500D01*
X90500500Y-94065500D01*
X90464500Y-94095500D01*
X90427500Y-94124500D01*
X90388500Y-94151500D01*
X90348500Y-94175500D01*
X90307500Y-94198500D01*
X90264500Y-94218500D01*
X90221500Y-94236500D01*
X90176500Y-94252500D01*
X90131500Y-94265500D01*
X90085500Y-94276500D01*
X90039500Y-94285500D01*
X89992500Y-94291500D01*
X89945500Y-94295500D01*
X89898500Y-94296500D01*
X89851500Y-94295500D01*
X89804500Y-94291500D01*
X89757500Y-94285500D01*
X89711500Y-94276500D01*
X89665500Y-94265500D01*
X89620500Y-94252500D01*
X89575500Y-94236500D01*
X89532500Y-94218500D01*
X89489500Y-94198500D01*
X89448500Y-94175500D01*
X89408500Y-94151500D01*
X89369500Y-94124500D01*
X89332500Y-94095500D01*
X89296500Y-94065500D01*
X89262500Y-94032500D01*
X89229500Y-93998500D01*
X89199500Y-93962500D01*
X89170500Y-93925500D01*
X89143500Y-93886500D01*
X89119500Y-93846500D01*
X89096500Y-93805500D01*
X89076500Y-93762500D01*
X89058500Y-93719500D01*
X89042500Y-93674500D01*
X89029500Y-93629500D01*
X89018500Y-93583500D01*
X89009500Y-93537500D01*
X89003500Y-93490500D01*
X88999500Y-93443500D01*
X88998500Y-93396500D01*
X88998500Y-90896500D01*
X90798500Y-90896500D01*
X90798500Y-93396500D01*
G37*
X90798500Y-93396500D02*
X90797500Y-93443500D01*
X90793500Y-93490500D01*
X90787500Y-93537500D01*
X90778500Y-93583500D01*
X90767500Y-93629500D01*
X90754500Y-93674500D01*
X90738500Y-93719500D01*
X90720500Y-93762500D01*
X90700500Y-93805500D01*
X90677500Y-93846500D01*
X90653500Y-93886500D01*
X90626500Y-93925500D01*
X90597500Y-93962500D01*
X90567500Y-93998500D01*
X90534500Y-94032500D01*
X90500500Y-94065500D01*
X90464500Y-94095500D01*
X90427500Y-94124500D01*
X90388500Y-94151500D01*
X90348500Y-94175500D01*
X90307500Y-94198500D01*
X90264500Y-94218500D01*
X90221500Y-94236500D01*
X90176500Y-94252500D01*
X90131500Y-94265500D01*
X90085500Y-94276500D01*
X90039500Y-94285500D01*
X89992500Y-94291500D01*
X89945500Y-94295500D01*
X89898500Y-94296500D01*
X89851500Y-94295500D01*
X89804500Y-94291500D01*
X89757500Y-94285500D01*
X89711500Y-94276500D01*
X89665500Y-94265500D01*
X89620500Y-94252500D01*
X89575500Y-94236500D01*
X89532500Y-94218500D01*
X89489500Y-94198500D01*
X89448500Y-94175500D01*
X89408500Y-94151500D01*
X89369500Y-94124500D01*
X89332500Y-94095500D01*
X89296500Y-94065500D01*
X89262500Y-94032500D01*
X89229500Y-93998500D01*
X89199500Y-93962500D01*
X89170500Y-93925500D01*
X89143500Y-93886500D01*
X89119500Y-93846500D01*
X89096500Y-93805500D01*
X89076500Y-93762500D01*
X89058500Y-93719500D01*
X89042500Y-93674500D01*
X89029500Y-93629500D01*
X89018500Y-93583500D01*
X89009500Y-93537500D01*
X89003500Y-93490500D01*
X88999500Y-93443500D01*
X88998500Y-93396500D01*
X88998500Y-90896500D01*
X90798500Y-90896500D01*
X90798500Y-93396500D01*
%TD*%
D11*
%TO.C,CN2*%
X125366499Y-27198000D03*
D12*
X127906499Y-27198000D03*
X125366499Y-29738000D03*
X127906499Y-29738000D03*
X125366499Y-32278000D03*
X127906499Y-32278000D03*
X125366499Y-34818000D03*
X127906499Y-34818000D03*
X125366499Y-37358000D03*
X127906499Y-37358000D03*
X125366499Y-39898000D03*
X127906499Y-39898000D03*
X125366499Y-42438000D03*
X127906499Y-42438000D03*
X125366499Y-44978000D03*
X127906499Y-44978000D03*
X125366499Y-47518000D03*
X127906499Y-47518000D03*
X125366499Y-50058000D03*
X127906499Y-50058000D03*
X125366499Y-52598000D03*
X127906499Y-52598000D03*
X125366499Y-55138000D03*
X127906499Y-55138000D03*
X125366499Y-57678000D03*
X127906499Y-57678000D03*
X125366499Y-60218000D03*
X127906499Y-60218000D03*
X125366499Y-62758000D03*
X127906499Y-62758000D03*
X125366499Y-65298000D03*
X127906499Y-65298000D03*
X125366499Y-67838000D03*
X127906499Y-67838000D03*
X125366499Y-70378000D03*
X127906499Y-70378000D03*
X125366499Y-72918000D03*
X127906499Y-72918000D03*
X125366499Y-75458000D03*
X127906499Y-75458000D03*
%TD*%
D13*
%TO.C,C12*%
X116568500Y-86431600D03*
X116568500Y-84881600D03*
%TD*%
D14*
%TO.C,R16*%
X125521500Y-86112000D03*
X123871500Y-86112000D03*
%TD*%
%TO.C,R15*%
X113837500Y-86112000D03*
X112187500Y-86112000D03*
%TD*%
D15*
%TO.C,Q2*%
X111821000Y-87702000D03*
X111821000Y-89602000D03*
X113696000Y-88652000D03*
%TD*%
D16*
%TO.C,CN5*%
X126220500Y-83064000D03*
D17*
X128760500Y-83064000D03*
%TD*%
D18*
%TO.C,R2*%
X89898500Y-89999000D03*
X89898500Y-88349000D03*
%TD*%
D19*
%TO.C,RN2*%
X75445999Y-53804000D03*
X75445999Y-54304000D03*
X75445999Y-54804000D03*
X75445999Y-55304000D03*
X76445999Y-55304000D03*
X76445999Y-54804000D03*
X76445999Y-54304000D03*
X76445999Y-53804000D03*
%TD*%
D18*
%TO.C,R8*%
X121648500Y-89783600D03*
X121648500Y-88133600D03*
%TD*%
D16*
%TO.C,CN6*%
X106951499Y-32278000D03*
D17*
X106951499Y-29738000D03*
X109491499Y-32278000D03*
X109491499Y-29738000D03*
X112031499Y-32278000D03*
X112031499Y-29738000D03*
%TD*%
D19*
%TO.C,RN1*%
X75445999Y-51264000D03*
X75445999Y-51764000D03*
X75445999Y-52264000D03*
X75445999Y-52764000D03*
X76445999Y-52764000D03*
X76445999Y-52264000D03*
X76445999Y-51764000D03*
X76445999Y-51264000D03*
%TD*%
%TO.C,RN3*%
X75466000Y-61364000D03*
X75466000Y-61864000D03*
X75466000Y-62364000D03*
X75466000Y-62864000D03*
X76466000Y-62864000D03*
X76466000Y-62364000D03*
X76466000Y-61864000D03*
X76466000Y-61364000D03*
%TD*%
D20*
%TO.C,C8*%
X85900000Y-59574000D03*
X86860000Y-59574000D03*
%TD*%
D21*
%TO.C,R18*%
X82867999Y-22849000D03*
X84517999Y-22849000D03*
%TD*%
%TO.C,R19*%
X82740999Y-26024000D03*
X84390999Y-26024000D03*
%TD*%
D22*
%TO.C,U6*%
X78437500Y-59809000D03*
X78437500Y-60459000D03*
X78437500Y-61109000D03*
X78437500Y-61759000D03*
X78437500Y-62409000D03*
X78437500Y-63059000D03*
X78437500Y-63709000D03*
X78437500Y-64359000D03*
X78437500Y-65009000D03*
X78437500Y-65659000D03*
X78437500Y-66309000D03*
X78437500Y-66959000D03*
X84162500Y-66959000D03*
X84162500Y-66309000D03*
X84162500Y-65659000D03*
X84162500Y-65009000D03*
X84162500Y-64359000D03*
X84162500Y-63709000D03*
X84162500Y-63059000D03*
X84162500Y-62409000D03*
X84162500Y-61759000D03*
X84162500Y-61109000D03*
X84162500Y-60459000D03*
X84162500Y-59809000D03*
%TD*%
D19*
%TO.C,RN4*%
X75466000Y-63904000D03*
X75466000Y-64404000D03*
X75466000Y-64904000D03*
X75466000Y-65404000D03*
X76466000Y-65404000D03*
X76466000Y-64904000D03*
X76466000Y-64404000D03*
X76466000Y-63904000D03*
%TD*%
D23*
%TO.C,C13*%
X119108500Y-84881600D03*
X119108500Y-86431600D03*
%TD*%
D11*
%TO.C,CN4*%
X117692000Y-27198000D03*
D12*
X120232000Y-27198000D03*
X117692000Y-29738000D03*
X120232000Y-29738000D03*
X117692000Y-32278000D03*
X120232000Y-32278000D03*
X117692000Y-34818000D03*
X120232000Y-34818000D03*
X117692000Y-37358000D03*
X120232000Y-37358000D03*
X117692000Y-39898000D03*
X120232000Y-39898000D03*
%TD*%
D14*
%TO.C,R13*%
X84173500Y-108351000D03*
X82523500Y-108351000D03*
%TD*%
D18*
%TO.C,R9*%
X124188500Y-89783600D03*
X124188500Y-88133600D03*
%TD*%
%TO.C,R3*%
X94978500Y-89999000D03*
X94978500Y-88349000D03*
%TD*%
%TO.C,R1*%
X87358500Y-89999000D03*
X87358500Y-88349000D03*
%TD*%
D16*
%TO.C,J5*%
X92582999Y-22844000D03*
D12*
X92582999Y-25444000D03*
%TD*%
D18*
%TO.C,R6*%
X102598500Y-89999000D03*
X102598500Y-88349000D03*
%TD*%
%TO.C,R11*%
X129268500Y-89781600D03*
X129268500Y-88131600D03*
%TD*%
D22*
%TO.C,U4*%
X78437500Y-39609000D03*
X78437500Y-40259000D03*
X78437500Y-40909000D03*
X78437500Y-41559000D03*
X78437500Y-42209000D03*
X78437500Y-42859000D03*
X78437500Y-43509000D03*
X78437500Y-44159000D03*
X78437500Y-44809000D03*
X78437500Y-45459000D03*
X78437500Y-46109000D03*
X78437500Y-46759000D03*
X84162500Y-46759000D03*
X84162500Y-46109000D03*
X84162500Y-45459000D03*
X84162500Y-44809000D03*
X84162500Y-44159000D03*
X84162500Y-43509000D03*
X84162500Y-42859000D03*
X84162500Y-42209000D03*
X84162500Y-41559000D03*
X84162500Y-40909000D03*
X84162500Y-40259000D03*
X84162500Y-39609000D03*
%TD*%
D24*
%TO.C,U1*%
X134988500Y-107986500D03*
X134988500Y-96586500D03*
X87988500Y-96586500D03*
X87988500Y-107986500D03*
D25*
X135618500Y-93396500D03*
X133078500Y-93396500D03*
X130538500Y-93396500D03*
X127998500Y-93396500D03*
X125458500Y-93396500D03*
X122918500Y-93396500D03*
X120378500Y-93396500D03*
X117838500Y-93396500D03*
X115298500Y-93396500D03*
X112758500Y-93396500D03*
X110218500Y-93396500D03*
X107678500Y-93396500D03*
X105138500Y-93396500D03*
X102598500Y-93396500D03*
X100058500Y-93396500D03*
X97518500Y-93396500D03*
X94978500Y-93396500D03*
X92438500Y-93396500D03*
X89898500Y-93396500D03*
X87358500Y-93396500D03*
X87358500Y-111176500D03*
X89898500Y-111176500D03*
X92438500Y-111176500D03*
X94978500Y-111176500D03*
X97518500Y-111176500D03*
X100058500Y-111176500D03*
X102598500Y-111176500D03*
X105138500Y-111176500D03*
X107678500Y-111176500D03*
X110218500Y-111176500D03*
X112758500Y-111176500D03*
X115298500Y-111176500D03*
X117838500Y-111176500D03*
X120378500Y-111176500D03*
X122918500Y-111176500D03*
X125458500Y-111176500D03*
X127998500Y-111176500D03*
X130538500Y-111176500D03*
X133078500Y-111176500D03*
X135618500Y-111176500D03*
D26*
X135488500Y-99561500D03*
X135488500Y-105011500D03*
D27*
X132458500Y-99861500D03*
X132458500Y-104711500D03*
D28*
X132488500Y-102286500D03*
X135788500Y-103286500D03*
X135788500Y-101286500D03*
X128988500Y-99786500D03*
X126488500Y-99786500D03*
X123988500Y-99786500D03*
%TD*%
D14*
%TO.C,R14*%
X109074500Y-86112000D03*
X107424500Y-86112000D03*
%TD*%
D18*
%TO.C,R10*%
X126728500Y-89783600D03*
X126728500Y-88133600D03*
%TD*%
D11*
%TO.C,CN3*%
X75184000Y-91460000D03*
D12*
X77724000Y-91460000D03*
X75184000Y-94000000D03*
X77724000Y-94000000D03*
X75184000Y-96540000D03*
X77724000Y-96540000D03*
X75184000Y-99080000D03*
X77724000Y-99080000D03*
X75184000Y-101620000D03*
X77724000Y-101620000D03*
X75184000Y-104160000D03*
X77724000Y-104160000D03*
X75184000Y-106700000D03*
X77724000Y-106700000D03*
X75184000Y-109240000D03*
X77724000Y-109240000D03*
%TD*%
D29*
%TO.C,C3*%
X76679999Y-38980000D03*
X75719999Y-38980000D03*
%TD*%
D30*
%TO.C,U2*%
X98954999Y-82150000D03*
X75954999Y-82150000D03*
X75954999Y-24150000D03*
X98954999Y-24150000D03*
D16*
X97684999Y-77280000D03*
D17*
X100224999Y-77280000D03*
X97684999Y-74740000D03*
X100224999Y-74740000D03*
X97684999Y-72200000D03*
X100224999Y-72200000D03*
X97684999Y-69660000D03*
X100224999Y-69660000D03*
X97684999Y-67120000D03*
X100224999Y-67120000D03*
X97684999Y-64580000D03*
X100224999Y-64580000D03*
X97684999Y-62040000D03*
X100224999Y-62040000D03*
X97684999Y-59500000D03*
X100224999Y-59500000D03*
X97684999Y-56960000D03*
X100224999Y-56960000D03*
X97684999Y-54420000D03*
X100224999Y-54420000D03*
X97684999Y-51880000D03*
X100224999Y-51880000D03*
X97684999Y-49340000D03*
X100224999Y-49340000D03*
X97684999Y-46800000D03*
X100224999Y-46800000D03*
X97684999Y-44260000D03*
X100224999Y-44260000D03*
X97684999Y-41720000D03*
X100224999Y-41720000D03*
X97684999Y-39180000D03*
X100224999Y-39180000D03*
X97684999Y-36640000D03*
X100224999Y-36640000D03*
X97684999Y-34100000D03*
X100224999Y-34100000D03*
X97684999Y-31560000D03*
X100224999Y-31560000D03*
X97684999Y-29020000D03*
X100224999Y-29020000D03*
%TD*%
D16*
%TO.C,J1*%
X134494000Y-87550000D03*
D17*
X137034000Y-87550000D03*
%TD*%
D18*
%TO.C,R5*%
X100058500Y-89999000D03*
X100058500Y-88349000D03*
%TD*%
D31*
%TO.C,D1*%
X84235000Y-112923000D03*
X82135000Y-112923000D03*
%TD*%
D14*
%TO.C,R17*%
X128823500Y-86112000D03*
X127173500Y-86112000D03*
%TD*%
D29*
%TO.C,C5*%
X76679999Y-49385000D03*
X75719999Y-49385000D03*
%TD*%
%TO.C,C7*%
X76700000Y-59574000D03*
X75740000Y-59574000D03*
%TD*%
D20*
%TO.C,C11*%
X119806499Y-50693000D03*
X120766499Y-50693000D03*
%TD*%
D16*
%TO.C,J3*%
X122064499Y-75458000D03*
D17*
X122064499Y-72918000D03*
%TD*%
D32*
%TO.C,LED1*%
X89433499Y-22849000D03*
X87858499Y-22849000D03*
%TD*%
D22*
%TO.C,U3*%
X78437500Y-29509000D03*
X78437500Y-30159000D03*
X78437500Y-30809000D03*
X78437500Y-31459000D03*
X78437500Y-32109000D03*
X78437500Y-32759000D03*
X78437500Y-33409000D03*
X78437500Y-34059000D03*
X78437500Y-34709000D03*
X78437500Y-35359000D03*
X78437500Y-36009000D03*
X78437500Y-36659000D03*
X84162500Y-36659000D03*
X84162500Y-36009000D03*
X84162500Y-35359000D03*
X84162500Y-34709000D03*
X84162500Y-34059000D03*
X84162500Y-33409000D03*
X84162500Y-32759000D03*
X84162500Y-32109000D03*
X84162500Y-31459000D03*
X84162500Y-30809000D03*
X84162500Y-30159000D03*
X84162500Y-29509000D03*
%TD*%
D20*
%TO.C,C10*%
X85879999Y-69585000D03*
X86839999Y-69585000D03*
%TD*%
D18*
%TO.C,R7*%
X116568500Y-89783600D03*
X116568500Y-88133600D03*
%TD*%
D22*
%TO.C,U7*%
X78437500Y-69909000D03*
X78437500Y-70559000D03*
X78437500Y-71209000D03*
X78437500Y-71859000D03*
X78437500Y-72509000D03*
X78437500Y-73159000D03*
X78437500Y-73809000D03*
X78437500Y-74459000D03*
X78437500Y-75109000D03*
X78437500Y-75759000D03*
X78437500Y-76409000D03*
X78437500Y-77059000D03*
X84162500Y-77059000D03*
X84162500Y-76409000D03*
X84162500Y-75759000D03*
X84162500Y-75109000D03*
X84162500Y-74459000D03*
X84162500Y-73809000D03*
X84162500Y-73159000D03*
X84162500Y-72509000D03*
X84162500Y-71859000D03*
X84162500Y-71209000D03*
X84162500Y-70559000D03*
X84162500Y-69909000D03*
%TD*%
D29*
%TO.C,C1*%
X76679999Y-29274000D03*
X75719999Y-29274000D03*
%TD*%
D20*
%TO.C,C2*%
X85879999Y-29274000D03*
X86839999Y-29274000D03*
%TD*%
D18*
%TO.C,R4*%
X97518500Y-89999000D03*
X97518500Y-88349000D03*
%TD*%
D22*
%TO.C,U5*%
X78437500Y-49709000D03*
X78437500Y-50359000D03*
X78437500Y-51009000D03*
X78437500Y-51659000D03*
X78437500Y-52309000D03*
X78437500Y-52959000D03*
X78437500Y-53609000D03*
X78437500Y-54259000D03*
X78437500Y-54909000D03*
X78437500Y-55559000D03*
X78437500Y-56209000D03*
X78437500Y-56859000D03*
X84162500Y-56859000D03*
X84162500Y-56209000D03*
X84162500Y-55559000D03*
X84162500Y-54909000D03*
X84162500Y-54259000D03*
X84162500Y-53609000D03*
X84162500Y-52959000D03*
X84162500Y-52309000D03*
X84162500Y-51659000D03*
X84162500Y-51009000D03*
X84162500Y-50359000D03*
X84162500Y-49709000D03*
%TD*%
D20*
%TO.C,C4*%
X85879999Y-39285000D03*
X86839999Y-39285000D03*
%TD*%
D16*
%TO.C,J4*%
X110109000Y-81808000D03*
D17*
X112649000Y-81808000D03*
X115189000Y-81808000D03*
%TD*%
D33*
%TO.C,U8*%
X110109000Y-51836000D03*
D34*
X110109000Y-54376000D03*
X110109000Y-56916000D03*
X110109000Y-59456000D03*
X110109000Y-61996000D03*
X110109000Y-64536000D03*
X110109000Y-67076000D03*
X110109000Y-69616000D03*
X110109000Y-72156000D03*
X110109000Y-74696000D03*
X117729000Y-74696000D03*
X117729000Y-72156000D03*
X117729000Y-69616000D03*
X117729000Y-67076000D03*
X117729000Y-64536000D03*
X117729000Y-61996000D03*
X117729000Y-59456000D03*
X117729000Y-56916000D03*
X117729000Y-54376000D03*
X117729000Y-51836000D03*
%TD*%
D32*
%TO.C,LED2*%
X89433499Y-26024000D03*
X87858499Y-26024000D03*
%TD*%
D20*
%TO.C,C6*%
X85879999Y-49474000D03*
X86839999Y-49474000D03*
%TD*%
D29*
%TO.C,C9*%
X76679999Y-69585000D03*
X75719999Y-69585000D03*
%TD*%
D16*
%TO.C,J2*%
X110072000Y-42438000D03*
D17*
X110072000Y-39898000D03*
X110072000Y-37358000D03*
%TD*%
D14*
%TO.C,R12*%
X84173500Y-106700000D03*
X82523500Y-106700000D03*
%TD*%
D15*
%TO.C,Q1*%
X106995000Y-87702000D03*
X106995000Y-89602000D03*
X108870000Y-88652000D03*
%TD*%
D35*
%TO.C,CN1*%
X67010000Y-22330000D03*
X67010000Y-112330000D03*
D36*
X64770000Y-106700000D03*
D37*
X64770000Y-104160000D03*
X64770000Y-101620000D03*
X64770000Y-99080000D03*
X64770000Y-96540000D03*
X64770000Y-94000000D03*
X64770000Y-91460000D03*
X64770000Y-88920000D03*
X64770000Y-86380000D03*
X64770000Y-83840000D03*
X64770000Y-81300000D03*
X64770000Y-78760000D03*
X64770000Y-76220000D03*
X64770000Y-73680000D03*
X64770000Y-71140000D03*
X64770000Y-68600000D03*
X64770000Y-66060000D03*
X64770000Y-63520000D03*
X64770000Y-60980000D03*
X64770000Y-58440000D03*
X64770000Y-55900000D03*
X64770000Y-53360000D03*
X64770000Y-50820000D03*
X64770000Y-48280000D03*
X64770000Y-45740000D03*
X64770000Y-43200000D03*
X64770000Y-40660000D03*
X64770000Y-38120000D03*
X64770000Y-35580000D03*
X64770000Y-33040000D03*
X64770000Y-30500000D03*
X64770000Y-27960000D03*
X67310000Y-106700000D03*
X67310000Y-104160000D03*
X67310000Y-101620000D03*
X67310000Y-99080000D03*
X67310000Y-96540000D03*
X67310000Y-94000000D03*
X67310000Y-91460000D03*
X67310000Y-88920000D03*
X67310000Y-86380000D03*
X67310000Y-83840000D03*
X67310000Y-81300000D03*
X67310000Y-78760000D03*
X67310000Y-76220000D03*
X67310000Y-73680000D03*
X67310000Y-71140000D03*
X67310000Y-68600000D03*
X67310000Y-66060000D03*
X67310000Y-63520000D03*
X67310000Y-60980000D03*
X67310000Y-58440000D03*
X67310000Y-55900000D03*
X67310000Y-53360000D03*
X67310000Y-50820000D03*
X67310000Y-48280000D03*
X67310000Y-45740000D03*
X67310000Y-43200000D03*
X67310000Y-40660000D03*
X67310000Y-38120000D03*
X67310000Y-35580000D03*
X67310000Y-33040000D03*
X67310000Y-30500000D03*
X67310000Y-27960000D03*
%TD*%
M02*
