%TF.GenerationSoftware,KiCad,Pcbnew,(6.0.9)*%
%TF.CreationDate,2023-02-25T15:14:18+00:00*%
%TF.ProjectId,Atom_VGA_Tube_Combo,41746f6d-5f56-4474-915f-547562655f43,rev?*%
%TF.SameCoordinates,Original*%
%TF.FileFunction,Paste,Top*%
%TF.FilePolarity,Positive*%
%FSLAX46Y46*%
G04 Gerber Fmt 4.6, Leading zero omitted, Abs format (unit mm)*
G04 Created by KiCad (PCBNEW (6.0.9)) date 2023-02-25 15:14:18*
%MOMM*%
%LPD*%
G01*
G04 APERTURE LIST*
G04 Aperture macros list*
%AMRoundRect*
0 Rectangle with rounded corners*
0 $1 Rounding radius*
0 $2 $3 $4 $5 $6 $7 $8 $9 X,Y pos of 4 corners*
0 Add a 4 corners polygon primitive as box body*
4,1,4,$2,$3,$4,$5,$6,$7,$8,$9,$2,$3,0*
0 Add four circle primitives for the rounded corners*
1,1,$1+$1,$2,$3*
1,1,$1+$1,$4,$5*
1,1,$1+$1,$6,$7*
1,1,$1+$1,$8,$9*
0 Add four rect primitives between the rounded corners*
20,1,$1+$1,$2,$3,$4,$5,0*
20,1,$1+$1,$4,$5,$6,$7,0*
20,1,$1+$1,$6,$7,$8,$9,0*
20,1,$1+$1,$8,$9,$2,$3,0*%
G04 Aperture macros list end*
%ADD10C,0.010000*%
%ADD11RoundRect,0.225000X0.250000X-0.225000X0.250000X0.225000X-0.250000X0.225000X-0.250000X-0.225000X0*%
%ADD12RoundRect,0.200000X0.200000X0.275000X-0.200000X0.275000X-0.200000X-0.275000X0.200000X-0.275000X0*%
%ADD13RoundRect,0.150000X-0.587500X-0.150000X0.587500X-0.150000X0.587500X0.150000X-0.587500X0.150000X0*%
%ADD14RoundRect,0.200000X0.275000X-0.200000X0.275000X0.200000X-0.275000X0.200000X-0.275000X-0.200000X0*%
%ADD15R,0.500000X0.320000*%
%ADD16RoundRect,0.140000X-0.140000X-0.170000X0.140000X-0.170000X0.140000X0.170000X-0.140000X0.170000X0*%
%ADD17RoundRect,0.200000X-0.200000X-0.275000X0.200000X-0.275000X0.200000X0.275000X-0.200000X0.275000X0*%
%ADD18RoundRect,0.100000X-0.637500X-0.100000X0.637500X-0.100000X0.637500X0.100000X-0.637500X0.100000X0*%
%ADD19RoundRect,0.225000X-0.250000X0.225000X-0.250000X-0.225000X0.250000X-0.225000X0.250000X0.225000X0*%
%ADD20O,1.800000X1.100000*%
%ADD21O,1.450000X1.050000*%
%ADD22RoundRect,0.450000X-0.300000X0.300000X-0.300000X-0.300000X0.300000X-0.300000X0.300000X0.300000X0*%
%ADD23RoundRect,0.140000X0.140000X0.170000X-0.140000X0.170000X-0.140000X-0.170000X0.140000X-0.170000X0*%
%ADD24R,0.600000X0.450000*%
%ADD25RoundRect,0.218750X0.218750X0.256250X-0.218750X0.256250X-0.218750X-0.256250X0.218750X-0.256250X0*%
G04 APERTURE END LIST*
%TO.C,U1*%
G36*
X105759500Y-110377500D02*
G01*
X105769500Y-110378500D01*
X105780500Y-110380500D01*
X105810500Y-110389500D01*
X105819500Y-110393500D01*
X105829500Y-110398500D01*
X105847500Y-110408500D01*
X105856500Y-110414500D01*
X105864500Y-110421500D01*
X105872500Y-110427500D01*
X105879500Y-110435500D01*
X105887500Y-110442500D01*
X105893500Y-110450500D01*
X105900500Y-110458500D01*
X105906500Y-110467500D01*
X105916500Y-110485500D01*
X105921500Y-110495500D01*
X105925500Y-110504500D01*
X105934500Y-110534500D01*
X105936500Y-110545500D01*
X105937500Y-110555500D01*
X105938500Y-110566500D01*
X105938500Y-113576500D01*
X104338500Y-113576500D01*
X104338500Y-110566500D01*
X104339500Y-110555500D01*
X104340500Y-110545500D01*
X104342500Y-110534500D01*
X104351500Y-110504500D01*
X104355500Y-110495500D01*
X104360500Y-110485500D01*
X104370500Y-110467500D01*
X104376500Y-110458500D01*
X104383500Y-110450500D01*
X104389500Y-110442500D01*
X104397500Y-110435500D01*
X104404500Y-110427500D01*
X104412500Y-110421500D01*
X104420500Y-110414500D01*
X104429500Y-110408500D01*
X104447500Y-110398500D01*
X104457500Y-110393500D01*
X104466500Y-110389500D01*
X104496500Y-110380500D01*
X104507500Y-110378500D01*
X104517500Y-110377500D01*
X104528500Y-110376500D01*
X105748500Y-110376500D01*
X105759500Y-110377500D01*
G37*
D10*
X105759500Y-110377500D02*
X105769500Y-110378500D01*
X105780500Y-110380500D01*
X105810500Y-110389500D01*
X105819500Y-110393500D01*
X105829500Y-110398500D01*
X105847500Y-110408500D01*
X105856500Y-110414500D01*
X105864500Y-110421500D01*
X105872500Y-110427500D01*
X105879500Y-110435500D01*
X105887500Y-110442500D01*
X105893500Y-110450500D01*
X105900500Y-110458500D01*
X105906500Y-110467500D01*
X105916500Y-110485500D01*
X105921500Y-110495500D01*
X105925500Y-110504500D01*
X105934500Y-110534500D01*
X105936500Y-110545500D01*
X105937500Y-110555500D01*
X105938500Y-110566500D01*
X105938500Y-113576500D01*
X104338500Y-113576500D01*
X104338500Y-110566500D01*
X104339500Y-110555500D01*
X104340500Y-110545500D01*
X104342500Y-110534500D01*
X104351500Y-110504500D01*
X104355500Y-110495500D01*
X104360500Y-110485500D01*
X104370500Y-110467500D01*
X104376500Y-110458500D01*
X104383500Y-110450500D01*
X104389500Y-110442500D01*
X104397500Y-110435500D01*
X104404500Y-110427500D01*
X104412500Y-110421500D01*
X104420500Y-110414500D01*
X104429500Y-110408500D01*
X104447500Y-110398500D01*
X104457500Y-110393500D01*
X104466500Y-110389500D01*
X104496500Y-110380500D01*
X104507500Y-110378500D01*
X104517500Y-110377500D01*
X104528500Y-110376500D01*
X105748500Y-110376500D01*
X105759500Y-110377500D01*
G36*
X108478500Y-93396500D02*
G01*
X108477500Y-93438500D01*
X108474500Y-93480500D01*
X108468500Y-93521500D01*
X108461500Y-93562500D01*
X108451500Y-93603500D01*
X108439500Y-93643500D01*
X108425500Y-93683500D01*
X108409500Y-93721500D01*
X108391500Y-93759500D01*
X108371500Y-93796500D01*
X108349500Y-93832500D01*
X108325500Y-93866500D01*
X108300500Y-93899500D01*
X108273500Y-93931500D01*
X108244500Y-93962500D01*
X108213500Y-93991500D01*
X108181500Y-94018500D01*
X108148500Y-94043500D01*
X108114500Y-94067500D01*
X108078500Y-94089500D01*
X108041500Y-94109500D01*
X108003500Y-94127500D01*
X107965500Y-94143500D01*
X107925500Y-94157500D01*
X107885500Y-94169500D01*
X107844500Y-94179500D01*
X107803500Y-94186500D01*
X107762500Y-94192500D01*
X107720500Y-94195500D01*
X107678500Y-94196500D01*
X107636500Y-94195500D01*
X107594500Y-94192500D01*
X107553500Y-94186500D01*
X107512500Y-94179500D01*
X107471500Y-94169500D01*
X107431500Y-94157500D01*
X107391500Y-94143500D01*
X107353500Y-94127500D01*
X107315500Y-94109500D01*
X107278500Y-94089500D01*
X107242500Y-94067500D01*
X107208500Y-94043500D01*
X107175500Y-94018500D01*
X107143500Y-93991500D01*
X107112500Y-93962500D01*
X107083500Y-93931500D01*
X107056500Y-93899500D01*
X107031500Y-93866500D01*
X107007500Y-93832500D01*
X106985500Y-93796500D01*
X106965500Y-93759500D01*
X106947500Y-93721500D01*
X106931500Y-93683500D01*
X106917500Y-93643500D01*
X106905500Y-93603500D01*
X106895500Y-93562500D01*
X106888500Y-93521500D01*
X106882500Y-93480500D01*
X106879500Y-93438500D01*
X106878500Y-93396500D01*
X106878500Y-90996500D01*
X108478500Y-90996500D01*
X108478500Y-93396500D01*
G37*
X108478500Y-93396500D02*
X108477500Y-93438500D01*
X108474500Y-93480500D01*
X108468500Y-93521500D01*
X108461500Y-93562500D01*
X108451500Y-93603500D01*
X108439500Y-93643500D01*
X108425500Y-93683500D01*
X108409500Y-93721500D01*
X108391500Y-93759500D01*
X108371500Y-93796500D01*
X108349500Y-93832500D01*
X108325500Y-93866500D01*
X108300500Y-93899500D01*
X108273500Y-93931500D01*
X108244500Y-93962500D01*
X108213500Y-93991500D01*
X108181500Y-94018500D01*
X108148500Y-94043500D01*
X108114500Y-94067500D01*
X108078500Y-94089500D01*
X108041500Y-94109500D01*
X108003500Y-94127500D01*
X107965500Y-94143500D01*
X107925500Y-94157500D01*
X107885500Y-94169500D01*
X107844500Y-94179500D01*
X107803500Y-94186500D01*
X107762500Y-94192500D01*
X107720500Y-94195500D01*
X107678500Y-94196500D01*
X107636500Y-94195500D01*
X107594500Y-94192500D01*
X107553500Y-94186500D01*
X107512500Y-94179500D01*
X107471500Y-94169500D01*
X107431500Y-94157500D01*
X107391500Y-94143500D01*
X107353500Y-94127500D01*
X107315500Y-94109500D01*
X107278500Y-94089500D01*
X107242500Y-94067500D01*
X107208500Y-94043500D01*
X107175500Y-94018500D01*
X107143500Y-93991500D01*
X107112500Y-93962500D01*
X107083500Y-93931500D01*
X107056500Y-93899500D01*
X107031500Y-93866500D01*
X107007500Y-93832500D01*
X106985500Y-93796500D01*
X106965500Y-93759500D01*
X106947500Y-93721500D01*
X106931500Y-93683500D01*
X106917500Y-93643500D01*
X106905500Y-93603500D01*
X106895500Y-93562500D01*
X106888500Y-93521500D01*
X106882500Y-93480500D01*
X106879500Y-93438500D01*
X106878500Y-93396500D01*
X106878500Y-90996500D01*
X108478500Y-90996500D01*
X108478500Y-93396500D01*
G36*
X128798500Y-93396500D02*
G01*
X128797500Y-93438500D01*
X128794500Y-93480500D01*
X128788500Y-93521500D01*
X128781500Y-93562500D01*
X128771500Y-93603500D01*
X128759500Y-93643500D01*
X128745500Y-93683500D01*
X128729500Y-93721500D01*
X128711500Y-93759500D01*
X128691500Y-93796500D01*
X128669500Y-93832500D01*
X128645500Y-93866500D01*
X128620500Y-93899500D01*
X128593500Y-93931500D01*
X128564500Y-93962500D01*
X128533500Y-93991500D01*
X128501500Y-94018500D01*
X128468500Y-94043500D01*
X128434500Y-94067500D01*
X128398500Y-94089500D01*
X128361500Y-94109500D01*
X128323500Y-94127500D01*
X128285500Y-94143500D01*
X128245500Y-94157500D01*
X128205500Y-94169500D01*
X128164500Y-94179500D01*
X128123500Y-94186500D01*
X128082500Y-94192500D01*
X128040500Y-94195500D01*
X127998500Y-94196500D01*
X127956500Y-94195500D01*
X127914500Y-94192500D01*
X127873500Y-94186500D01*
X127832500Y-94179500D01*
X127791500Y-94169500D01*
X127751500Y-94157500D01*
X127711500Y-94143500D01*
X127673500Y-94127500D01*
X127635500Y-94109500D01*
X127598500Y-94089500D01*
X127562500Y-94067500D01*
X127528500Y-94043500D01*
X127495500Y-94018500D01*
X127463500Y-93991500D01*
X127432500Y-93962500D01*
X127403500Y-93931500D01*
X127376500Y-93899500D01*
X127351500Y-93866500D01*
X127327500Y-93832500D01*
X127305500Y-93796500D01*
X127285500Y-93759500D01*
X127267500Y-93721500D01*
X127251500Y-93683500D01*
X127237500Y-93643500D01*
X127225500Y-93603500D01*
X127215500Y-93562500D01*
X127208500Y-93521500D01*
X127202500Y-93480500D01*
X127199500Y-93438500D01*
X127198500Y-93396500D01*
X127198500Y-90996500D01*
X128798500Y-90996500D01*
X128798500Y-93396500D01*
G37*
X128798500Y-93396500D02*
X128797500Y-93438500D01*
X128794500Y-93480500D01*
X128788500Y-93521500D01*
X128781500Y-93562500D01*
X128771500Y-93603500D01*
X128759500Y-93643500D01*
X128745500Y-93683500D01*
X128729500Y-93721500D01*
X128711500Y-93759500D01*
X128691500Y-93796500D01*
X128669500Y-93832500D01*
X128645500Y-93866500D01*
X128620500Y-93899500D01*
X128593500Y-93931500D01*
X128564500Y-93962500D01*
X128533500Y-93991500D01*
X128501500Y-94018500D01*
X128468500Y-94043500D01*
X128434500Y-94067500D01*
X128398500Y-94089500D01*
X128361500Y-94109500D01*
X128323500Y-94127500D01*
X128285500Y-94143500D01*
X128245500Y-94157500D01*
X128205500Y-94169500D01*
X128164500Y-94179500D01*
X128123500Y-94186500D01*
X128082500Y-94192500D01*
X128040500Y-94195500D01*
X127998500Y-94196500D01*
X127956500Y-94195500D01*
X127914500Y-94192500D01*
X127873500Y-94186500D01*
X127832500Y-94179500D01*
X127791500Y-94169500D01*
X127751500Y-94157500D01*
X127711500Y-94143500D01*
X127673500Y-94127500D01*
X127635500Y-94109500D01*
X127598500Y-94089500D01*
X127562500Y-94067500D01*
X127528500Y-94043500D01*
X127495500Y-94018500D01*
X127463500Y-93991500D01*
X127432500Y-93962500D01*
X127403500Y-93931500D01*
X127376500Y-93899500D01*
X127351500Y-93866500D01*
X127327500Y-93832500D01*
X127305500Y-93796500D01*
X127285500Y-93759500D01*
X127267500Y-93721500D01*
X127251500Y-93683500D01*
X127237500Y-93643500D01*
X127225500Y-93603500D01*
X127215500Y-93562500D01*
X127208500Y-93521500D01*
X127202500Y-93480500D01*
X127199500Y-93438500D01*
X127198500Y-93396500D01*
X127198500Y-90996500D01*
X128798500Y-90996500D01*
X128798500Y-93396500D01*
G36*
X95020500Y-110377500D02*
G01*
X95062500Y-110380500D01*
X95103500Y-110386500D01*
X95144500Y-110393500D01*
X95185500Y-110403500D01*
X95225500Y-110415500D01*
X95265500Y-110429500D01*
X95303500Y-110445500D01*
X95341500Y-110463500D01*
X95378500Y-110483500D01*
X95414500Y-110505500D01*
X95448500Y-110529500D01*
X95481500Y-110554500D01*
X95513500Y-110581500D01*
X95544500Y-110610500D01*
X95573500Y-110641500D01*
X95600500Y-110673500D01*
X95625500Y-110706500D01*
X95649500Y-110740500D01*
X95671500Y-110776500D01*
X95691500Y-110813500D01*
X95709500Y-110851500D01*
X95725500Y-110889500D01*
X95739500Y-110929500D01*
X95751500Y-110969500D01*
X95761500Y-111010500D01*
X95768500Y-111051500D01*
X95774500Y-111092500D01*
X95777500Y-111134500D01*
X95778500Y-111176500D01*
X95778500Y-113576500D01*
X94178500Y-113576500D01*
X94178500Y-111176500D01*
X94179500Y-111134500D01*
X94182500Y-111092500D01*
X94188500Y-111051500D01*
X94195500Y-111010500D01*
X94205500Y-110969500D01*
X94217500Y-110929500D01*
X94231500Y-110889500D01*
X94247500Y-110851500D01*
X94265500Y-110813500D01*
X94285500Y-110776500D01*
X94307500Y-110740500D01*
X94331500Y-110706500D01*
X94356500Y-110673500D01*
X94383500Y-110641500D01*
X94412500Y-110610500D01*
X94443500Y-110581500D01*
X94475500Y-110554500D01*
X94508500Y-110529500D01*
X94542500Y-110505500D01*
X94578500Y-110483500D01*
X94615500Y-110463500D01*
X94653500Y-110445500D01*
X94691500Y-110429500D01*
X94731500Y-110415500D01*
X94771500Y-110403500D01*
X94812500Y-110393500D01*
X94853500Y-110386500D01*
X94894500Y-110380500D01*
X94936500Y-110377500D01*
X94978500Y-110376500D01*
X95020500Y-110377500D01*
G37*
X95020500Y-110377500D02*
X95062500Y-110380500D01*
X95103500Y-110386500D01*
X95144500Y-110393500D01*
X95185500Y-110403500D01*
X95225500Y-110415500D01*
X95265500Y-110429500D01*
X95303500Y-110445500D01*
X95341500Y-110463500D01*
X95378500Y-110483500D01*
X95414500Y-110505500D01*
X95448500Y-110529500D01*
X95481500Y-110554500D01*
X95513500Y-110581500D01*
X95544500Y-110610500D01*
X95573500Y-110641500D01*
X95600500Y-110673500D01*
X95625500Y-110706500D01*
X95649500Y-110740500D01*
X95671500Y-110776500D01*
X95691500Y-110813500D01*
X95709500Y-110851500D01*
X95725500Y-110889500D01*
X95739500Y-110929500D01*
X95751500Y-110969500D01*
X95761500Y-111010500D01*
X95768500Y-111051500D01*
X95774500Y-111092500D01*
X95777500Y-111134500D01*
X95778500Y-111176500D01*
X95778500Y-113576500D01*
X94178500Y-113576500D01*
X94178500Y-111176500D01*
X94179500Y-111134500D01*
X94182500Y-111092500D01*
X94188500Y-111051500D01*
X94195500Y-111010500D01*
X94205500Y-110969500D01*
X94217500Y-110929500D01*
X94231500Y-110889500D01*
X94247500Y-110851500D01*
X94265500Y-110813500D01*
X94285500Y-110776500D01*
X94307500Y-110740500D01*
X94331500Y-110706500D01*
X94356500Y-110673500D01*
X94383500Y-110641500D01*
X94412500Y-110610500D01*
X94443500Y-110581500D01*
X94475500Y-110554500D01*
X94508500Y-110529500D01*
X94542500Y-110505500D01*
X94578500Y-110483500D01*
X94615500Y-110463500D01*
X94653500Y-110445500D01*
X94691500Y-110429500D01*
X94731500Y-110415500D01*
X94771500Y-110403500D01*
X94812500Y-110393500D01*
X94853500Y-110386500D01*
X94894500Y-110380500D01*
X94936500Y-110377500D01*
X94978500Y-110376500D01*
X95020500Y-110377500D01*
G36*
X122960500Y-110377500D02*
G01*
X123002500Y-110380500D01*
X123043500Y-110386500D01*
X123084500Y-110393500D01*
X123125500Y-110403500D01*
X123165500Y-110415500D01*
X123205500Y-110429500D01*
X123243500Y-110445500D01*
X123281500Y-110463500D01*
X123318500Y-110483500D01*
X123354500Y-110505500D01*
X123388500Y-110529500D01*
X123421500Y-110554500D01*
X123453500Y-110581500D01*
X123484500Y-110610500D01*
X123513500Y-110641500D01*
X123540500Y-110673500D01*
X123565500Y-110706500D01*
X123589500Y-110740500D01*
X123611500Y-110776500D01*
X123631500Y-110813500D01*
X123649500Y-110851500D01*
X123665500Y-110889500D01*
X123679500Y-110929500D01*
X123691500Y-110969500D01*
X123701500Y-111010500D01*
X123708500Y-111051500D01*
X123714500Y-111092500D01*
X123717500Y-111134500D01*
X123718500Y-111176500D01*
X123718500Y-113576500D01*
X122118500Y-113576500D01*
X122118500Y-111176500D01*
X122119500Y-111134500D01*
X122122500Y-111092500D01*
X122128500Y-111051500D01*
X122135500Y-111010500D01*
X122145500Y-110969500D01*
X122157500Y-110929500D01*
X122171500Y-110889500D01*
X122187500Y-110851500D01*
X122205500Y-110813500D01*
X122225500Y-110776500D01*
X122247500Y-110740500D01*
X122271500Y-110706500D01*
X122296500Y-110673500D01*
X122323500Y-110641500D01*
X122352500Y-110610500D01*
X122383500Y-110581500D01*
X122415500Y-110554500D01*
X122448500Y-110529500D01*
X122482500Y-110505500D01*
X122518500Y-110483500D01*
X122555500Y-110463500D01*
X122593500Y-110445500D01*
X122631500Y-110429500D01*
X122671500Y-110415500D01*
X122711500Y-110403500D01*
X122752500Y-110393500D01*
X122793500Y-110386500D01*
X122834500Y-110380500D01*
X122876500Y-110377500D01*
X122918500Y-110376500D01*
X122960500Y-110377500D01*
G37*
X122960500Y-110377500D02*
X123002500Y-110380500D01*
X123043500Y-110386500D01*
X123084500Y-110393500D01*
X123125500Y-110403500D01*
X123165500Y-110415500D01*
X123205500Y-110429500D01*
X123243500Y-110445500D01*
X123281500Y-110463500D01*
X123318500Y-110483500D01*
X123354500Y-110505500D01*
X123388500Y-110529500D01*
X123421500Y-110554500D01*
X123453500Y-110581500D01*
X123484500Y-110610500D01*
X123513500Y-110641500D01*
X123540500Y-110673500D01*
X123565500Y-110706500D01*
X123589500Y-110740500D01*
X123611500Y-110776500D01*
X123631500Y-110813500D01*
X123649500Y-110851500D01*
X123665500Y-110889500D01*
X123679500Y-110929500D01*
X123691500Y-110969500D01*
X123701500Y-111010500D01*
X123708500Y-111051500D01*
X123714500Y-111092500D01*
X123717500Y-111134500D01*
X123718500Y-111176500D01*
X123718500Y-113576500D01*
X122118500Y-113576500D01*
X122118500Y-111176500D01*
X122119500Y-111134500D01*
X122122500Y-111092500D01*
X122128500Y-111051500D01*
X122135500Y-111010500D01*
X122145500Y-110969500D01*
X122157500Y-110929500D01*
X122171500Y-110889500D01*
X122187500Y-110851500D01*
X122205500Y-110813500D01*
X122225500Y-110776500D01*
X122247500Y-110740500D01*
X122271500Y-110706500D01*
X122296500Y-110673500D01*
X122323500Y-110641500D01*
X122352500Y-110610500D01*
X122383500Y-110581500D01*
X122415500Y-110554500D01*
X122448500Y-110529500D01*
X122482500Y-110505500D01*
X122518500Y-110483500D01*
X122555500Y-110463500D01*
X122593500Y-110445500D01*
X122631500Y-110429500D01*
X122671500Y-110415500D01*
X122711500Y-110403500D01*
X122752500Y-110393500D01*
X122793500Y-110386500D01*
X122834500Y-110380500D01*
X122876500Y-110377500D01*
X122918500Y-110376500D01*
X122960500Y-110377500D01*
G36*
X89940500Y-110377500D02*
G01*
X89982500Y-110380500D01*
X90023500Y-110386500D01*
X90064500Y-110393500D01*
X90105500Y-110403500D01*
X90145500Y-110415500D01*
X90185500Y-110429500D01*
X90223500Y-110445500D01*
X90261500Y-110463500D01*
X90298500Y-110483500D01*
X90334500Y-110505500D01*
X90368500Y-110529500D01*
X90401500Y-110554500D01*
X90433500Y-110581500D01*
X90464500Y-110610500D01*
X90493500Y-110641500D01*
X90520500Y-110673500D01*
X90545500Y-110706500D01*
X90569500Y-110740500D01*
X90591500Y-110776500D01*
X90611500Y-110813500D01*
X90629500Y-110851500D01*
X90645500Y-110889500D01*
X90659500Y-110929500D01*
X90671500Y-110969500D01*
X90681500Y-111010500D01*
X90688500Y-111051500D01*
X90694500Y-111092500D01*
X90697500Y-111134500D01*
X90698500Y-111176500D01*
X90698500Y-113576500D01*
X89098500Y-113576500D01*
X89098500Y-111176500D01*
X89099500Y-111134500D01*
X89102500Y-111092500D01*
X89108500Y-111051500D01*
X89115500Y-111010500D01*
X89125500Y-110969500D01*
X89137500Y-110929500D01*
X89151500Y-110889500D01*
X89167500Y-110851500D01*
X89185500Y-110813500D01*
X89205500Y-110776500D01*
X89227500Y-110740500D01*
X89251500Y-110706500D01*
X89276500Y-110673500D01*
X89303500Y-110641500D01*
X89332500Y-110610500D01*
X89363500Y-110581500D01*
X89395500Y-110554500D01*
X89428500Y-110529500D01*
X89462500Y-110505500D01*
X89498500Y-110483500D01*
X89535500Y-110463500D01*
X89573500Y-110445500D01*
X89611500Y-110429500D01*
X89651500Y-110415500D01*
X89691500Y-110403500D01*
X89732500Y-110393500D01*
X89773500Y-110386500D01*
X89814500Y-110380500D01*
X89856500Y-110377500D01*
X89898500Y-110376500D01*
X89940500Y-110377500D01*
G37*
X89940500Y-110377500D02*
X89982500Y-110380500D01*
X90023500Y-110386500D01*
X90064500Y-110393500D01*
X90105500Y-110403500D01*
X90145500Y-110415500D01*
X90185500Y-110429500D01*
X90223500Y-110445500D01*
X90261500Y-110463500D01*
X90298500Y-110483500D01*
X90334500Y-110505500D01*
X90368500Y-110529500D01*
X90401500Y-110554500D01*
X90433500Y-110581500D01*
X90464500Y-110610500D01*
X90493500Y-110641500D01*
X90520500Y-110673500D01*
X90545500Y-110706500D01*
X90569500Y-110740500D01*
X90591500Y-110776500D01*
X90611500Y-110813500D01*
X90629500Y-110851500D01*
X90645500Y-110889500D01*
X90659500Y-110929500D01*
X90671500Y-110969500D01*
X90681500Y-111010500D01*
X90688500Y-111051500D01*
X90694500Y-111092500D01*
X90697500Y-111134500D01*
X90698500Y-111176500D01*
X90698500Y-113576500D01*
X89098500Y-113576500D01*
X89098500Y-111176500D01*
X89099500Y-111134500D01*
X89102500Y-111092500D01*
X89108500Y-111051500D01*
X89115500Y-111010500D01*
X89125500Y-110969500D01*
X89137500Y-110929500D01*
X89151500Y-110889500D01*
X89167500Y-110851500D01*
X89185500Y-110813500D01*
X89205500Y-110776500D01*
X89227500Y-110740500D01*
X89251500Y-110706500D01*
X89276500Y-110673500D01*
X89303500Y-110641500D01*
X89332500Y-110610500D01*
X89363500Y-110581500D01*
X89395500Y-110554500D01*
X89428500Y-110529500D01*
X89462500Y-110505500D01*
X89498500Y-110483500D01*
X89535500Y-110463500D01*
X89573500Y-110445500D01*
X89611500Y-110429500D01*
X89651500Y-110415500D01*
X89691500Y-110403500D01*
X89732500Y-110393500D01*
X89773500Y-110386500D01*
X89814500Y-110380500D01*
X89856500Y-110377500D01*
X89898500Y-110376500D01*
X89940500Y-110377500D01*
G36*
X95778500Y-93396500D02*
G01*
X95777500Y-93438500D01*
X95774500Y-93480500D01*
X95768500Y-93521500D01*
X95761500Y-93562500D01*
X95751500Y-93603500D01*
X95739500Y-93643500D01*
X95725500Y-93683500D01*
X95709500Y-93721500D01*
X95691500Y-93759500D01*
X95671500Y-93796500D01*
X95649500Y-93832500D01*
X95625500Y-93866500D01*
X95600500Y-93899500D01*
X95573500Y-93931500D01*
X95544500Y-93962500D01*
X95513500Y-93991500D01*
X95481500Y-94018500D01*
X95448500Y-94043500D01*
X95414500Y-94067500D01*
X95378500Y-94089500D01*
X95341500Y-94109500D01*
X95303500Y-94127500D01*
X95265500Y-94143500D01*
X95225500Y-94157500D01*
X95185500Y-94169500D01*
X95144500Y-94179500D01*
X95103500Y-94186500D01*
X95062500Y-94192500D01*
X95020500Y-94195500D01*
X94978500Y-94196500D01*
X94936500Y-94195500D01*
X94894500Y-94192500D01*
X94853500Y-94186500D01*
X94812500Y-94179500D01*
X94771500Y-94169500D01*
X94731500Y-94157500D01*
X94691500Y-94143500D01*
X94653500Y-94127500D01*
X94615500Y-94109500D01*
X94578500Y-94089500D01*
X94542500Y-94067500D01*
X94508500Y-94043500D01*
X94475500Y-94018500D01*
X94443500Y-93991500D01*
X94412500Y-93962500D01*
X94383500Y-93931500D01*
X94356500Y-93899500D01*
X94331500Y-93866500D01*
X94307500Y-93832500D01*
X94285500Y-93796500D01*
X94265500Y-93759500D01*
X94247500Y-93721500D01*
X94231500Y-93683500D01*
X94217500Y-93643500D01*
X94205500Y-93603500D01*
X94195500Y-93562500D01*
X94188500Y-93521500D01*
X94182500Y-93480500D01*
X94179500Y-93438500D01*
X94178500Y-93396500D01*
X94178500Y-90996500D01*
X95778500Y-90996500D01*
X95778500Y-93396500D01*
G37*
X95778500Y-93396500D02*
X95777500Y-93438500D01*
X95774500Y-93480500D01*
X95768500Y-93521500D01*
X95761500Y-93562500D01*
X95751500Y-93603500D01*
X95739500Y-93643500D01*
X95725500Y-93683500D01*
X95709500Y-93721500D01*
X95691500Y-93759500D01*
X95671500Y-93796500D01*
X95649500Y-93832500D01*
X95625500Y-93866500D01*
X95600500Y-93899500D01*
X95573500Y-93931500D01*
X95544500Y-93962500D01*
X95513500Y-93991500D01*
X95481500Y-94018500D01*
X95448500Y-94043500D01*
X95414500Y-94067500D01*
X95378500Y-94089500D01*
X95341500Y-94109500D01*
X95303500Y-94127500D01*
X95265500Y-94143500D01*
X95225500Y-94157500D01*
X95185500Y-94169500D01*
X95144500Y-94179500D01*
X95103500Y-94186500D01*
X95062500Y-94192500D01*
X95020500Y-94195500D01*
X94978500Y-94196500D01*
X94936500Y-94195500D01*
X94894500Y-94192500D01*
X94853500Y-94186500D01*
X94812500Y-94179500D01*
X94771500Y-94169500D01*
X94731500Y-94157500D01*
X94691500Y-94143500D01*
X94653500Y-94127500D01*
X94615500Y-94109500D01*
X94578500Y-94089500D01*
X94542500Y-94067500D01*
X94508500Y-94043500D01*
X94475500Y-94018500D01*
X94443500Y-93991500D01*
X94412500Y-93962500D01*
X94383500Y-93931500D01*
X94356500Y-93899500D01*
X94331500Y-93866500D01*
X94307500Y-93832500D01*
X94285500Y-93796500D01*
X94265500Y-93759500D01*
X94247500Y-93721500D01*
X94231500Y-93683500D01*
X94217500Y-93643500D01*
X94205500Y-93603500D01*
X94195500Y-93562500D01*
X94188500Y-93521500D01*
X94182500Y-93480500D01*
X94179500Y-93438500D01*
X94178500Y-93396500D01*
X94178500Y-90996500D01*
X95778500Y-90996500D01*
X95778500Y-93396500D01*
G36*
X93238500Y-94006500D02*
G01*
X93237500Y-94017500D01*
X93236500Y-94027500D01*
X93234500Y-94038500D01*
X93225500Y-94068500D01*
X93221500Y-94077500D01*
X93216500Y-94087500D01*
X93206500Y-94105500D01*
X93200500Y-94114500D01*
X93193500Y-94122500D01*
X93187500Y-94130500D01*
X93179500Y-94137500D01*
X93172500Y-94145500D01*
X93164500Y-94151500D01*
X93156500Y-94158500D01*
X93147500Y-94164500D01*
X93129500Y-94174500D01*
X93119500Y-94179500D01*
X93110500Y-94183500D01*
X93080500Y-94192500D01*
X93069500Y-94194500D01*
X93059500Y-94195500D01*
X93048500Y-94196500D01*
X91828500Y-94196500D01*
X91817500Y-94195500D01*
X91807500Y-94194500D01*
X91796500Y-94192500D01*
X91766500Y-94183500D01*
X91757500Y-94179500D01*
X91747500Y-94174500D01*
X91729500Y-94164500D01*
X91720500Y-94158500D01*
X91712500Y-94151500D01*
X91704500Y-94145500D01*
X91697500Y-94137500D01*
X91689500Y-94130500D01*
X91683500Y-94122500D01*
X91676500Y-94114500D01*
X91670500Y-94105500D01*
X91660500Y-94087500D01*
X91655500Y-94077500D01*
X91651500Y-94068500D01*
X91642500Y-94038500D01*
X91640500Y-94027500D01*
X91639500Y-94017500D01*
X91638500Y-94006500D01*
X91638500Y-90996500D01*
X93238500Y-90996500D01*
X93238500Y-94006500D01*
G37*
X93238500Y-94006500D02*
X93237500Y-94017500D01*
X93236500Y-94027500D01*
X93234500Y-94038500D01*
X93225500Y-94068500D01*
X93221500Y-94077500D01*
X93216500Y-94087500D01*
X93206500Y-94105500D01*
X93200500Y-94114500D01*
X93193500Y-94122500D01*
X93187500Y-94130500D01*
X93179500Y-94137500D01*
X93172500Y-94145500D01*
X93164500Y-94151500D01*
X93156500Y-94158500D01*
X93147500Y-94164500D01*
X93129500Y-94174500D01*
X93119500Y-94179500D01*
X93110500Y-94183500D01*
X93080500Y-94192500D01*
X93069500Y-94194500D01*
X93059500Y-94195500D01*
X93048500Y-94196500D01*
X91828500Y-94196500D01*
X91817500Y-94195500D01*
X91807500Y-94194500D01*
X91796500Y-94192500D01*
X91766500Y-94183500D01*
X91757500Y-94179500D01*
X91747500Y-94174500D01*
X91729500Y-94164500D01*
X91720500Y-94158500D01*
X91712500Y-94151500D01*
X91704500Y-94145500D01*
X91697500Y-94137500D01*
X91689500Y-94130500D01*
X91683500Y-94122500D01*
X91676500Y-94114500D01*
X91670500Y-94105500D01*
X91660500Y-94087500D01*
X91655500Y-94077500D01*
X91651500Y-94068500D01*
X91642500Y-94038500D01*
X91640500Y-94027500D01*
X91639500Y-94017500D01*
X91638500Y-94006500D01*
X91638500Y-90996500D01*
X93238500Y-90996500D01*
X93238500Y-94006500D01*
G36*
X123718500Y-93396500D02*
G01*
X123717500Y-93438500D01*
X123714500Y-93480500D01*
X123708500Y-93521500D01*
X123701500Y-93562500D01*
X123691500Y-93603500D01*
X123679500Y-93643500D01*
X123665500Y-93683500D01*
X123649500Y-93721500D01*
X123631500Y-93759500D01*
X123611500Y-93796500D01*
X123589500Y-93832500D01*
X123565500Y-93866500D01*
X123540500Y-93899500D01*
X123513500Y-93931500D01*
X123484500Y-93962500D01*
X123453500Y-93991500D01*
X123421500Y-94018500D01*
X123388500Y-94043500D01*
X123354500Y-94067500D01*
X123318500Y-94089500D01*
X123281500Y-94109500D01*
X123243500Y-94127500D01*
X123205500Y-94143500D01*
X123165500Y-94157500D01*
X123125500Y-94169500D01*
X123084500Y-94179500D01*
X123043500Y-94186500D01*
X123002500Y-94192500D01*
X122960500Y-94195500D01*
X122918500Y-94196500D01*
X122876500Y-94195500D01*
X122834500Y-94192500D01*
X122793500Y-94186500D01*
X122752500Y-94179500D01*
X122711500Y-94169500D01*
X122671500Y-94157500D01*
X122631500Y-94143500D01*
X122593500Y-94127500D01*
X122555500Y-94109500D01*
X122518500Y-94089500D01*
X122482500Y-94067500D01*
X122448500Y-94043500D01*
X122415500Y-94018500D01*
X122383500Y-93991500D01*
X122352500Y-93962500D01*
X122323500Y-93931500D01*
X122296500Y-93899500D01*
X122271500Y-93866500D01*
X122247500Y-93832500D01*
X122225500Y-93796500D01*
X122205500Y-93759500D01*
X122187500Y-93721500D01*
X122171500Y-93683500D01*
X122157500Y-93643500D01*
X122145500Y-93603500D01*
X122135500Y-93562500D01*
X122128500Y-93521500D01*
X122122500Y-93480500D01*
X122119500Y-93438500D01*
X122118500Y-93396500D01*
X122118500Y-90996500D01*
X123718500Y-90996500D01*
X123718500Y-93396500D01*
G37*
X123718500Y-93396500D02*
X123717500Y-93438500D01*
X123714500Y-93480500D01*
X123708500Y-93521500D01*
X123701500Y-93562500D01*
X123691500Y-93603500D01*
X123679500Y-93643500D01*
X123665500Y-93683500D01*
X123649500Y-93721500D01*
X123631500Y-93759500D01*
X123611500Y-93796500D01*
X123589500Y-93832500D01*
X123565500Y-93866500D01*
X123540500Y-93899500D01*
X123513500Y-93931500D01*
X123484500Y-93962500D01*
X123453500Y-93991500D01*
X123421500Y-94018500D01*
X123388500Y-94043500D01*
X123354500Y-94067500D01*
X123318500Y-94089500D01*
X123281500Y-94109500D01*
X123243500Y-94127500D01*
X123205500Y-94143500D01*
X123165500Y-94157500D01*
X123125500Y-94169500D01*
X123084500Y-94179500D01*
X123043500Y-94186500D01*
X123002500Y-94192500D01*
X122960500Y-94195500D01*
X122918500Y-94196500D01*
X122876500Y-94195500D01*
X122834500Y-94192500D01*
X122793500Y-94186500D01*
X122752500Y-94179500D01*
X122711500Y-94169500D01*
X122671500Y-94157500D01*
X122631500Y-94143500D01*
X122593500Y-94127500D01*
X122555500Y-94109500D01*
X122518500Y-94089500D01*
X122482500Y-94067500D01*
X122448500Y-94043500D01*
X122415500Y-94018500D01*
X122383500Y-93991500D01*
X122352500Y-93962500D01*
X122323500Y-93931500D01*
X122296500Y-93899500D01*
X122271500Y-93866500D01*
X122247500Y-93832500D01*
X122225500Y-93796500D01*
X122205500Y-93759500D01*
X122187500Y-93721500D01*
X122171500Y-93683500D01*
X122157500Y-93643500D01*
X122145500Y-93603500D01*
X122135500Y-93562500D01*
X122128500Y-93521500D01*
X122122500Y-93480500D01*
X122119500Y-93438500D01*
X122118500Y-93396500D01*
X122118500Y-90996500D01*
X123718500Y-90996500D01*
X123718500Y-93396500D01*
G36*
X128040500Y-110377500D02*
G01*
X128082500Y-110380500D01*
X128123500Y-110386500D01*
X128164500Y-110393500D01*
X128205500Y-110403500D01*
X128245500Y-110415500D01*
X128285500Y-110429500D01*
X128323500Y-110445500D01*
X128361500Y-110463500D01*
X128398500Y-110483500D01*
X128434500Y-110505500D01*
X128468500Y-110529500D01*
X128501500Y-110554500D01*
X128533500Y-110581500D01*
X128564500Y-110610500D01*
X128593500Y-110641500D01*
X128620500Y-110673500D01*
X128645500Y-110706500D01*
X128669500Y-110740500D01*
X128691500Y-110776500D01*
X128711500Y-110813500D01*
X128729500Y-110851500D01*
X128745500Y-110889500D01*
X128759500Y-110929500D01*
X128771500Y-110969500D01*
X128781500Y-111010500D01*
X128788500Y-111051500D01*
X128794500Y-111092500D01*
X128797500Y-111134500D01*
X128798500Y-111176500D01*
X128798500Y-113576500D01*
X127198500Y-113576500D01*
X127198500Y-111176500D01*
X127199500Y-111134500D01*
X127202500Y-111092500D01*
X127208500Y-111051500D01*
X127215500Y-111010500D01*
X127225500Y-110969500D01*
X127237500Y-110929500D01*
X127251500Y-110889500D01*
X127267500Y-110851500D01*
X127285500Y-110813500D01*
X127305500Y-110776500D01*
X127327500Y-110740500D01*
X127351500Y-110706500D01*
X127376500Y-110673500D01*
X127403500Y-110641500D01*
X127432500Y-110610500D01*
X127463500Y-110581500D01*
X127495500Y-110554500D01*
X127528500Y-110529500D01*
X127562500Y-110505500D01*
X127598500Y-110483500D01*
X127635500Y-110463500D01*
X127673500Y-110445500D01*
X127711500Y-110429500D01*
X127751500Y-110415500D01*
X127791500Y-110403500D01*
X127832500Y-110393500D01*
X127873500Y-110386500D01*
X127914500Y-110380500D01*
X127956500Y-110377500D01*
X127998500Y-110376500D01*
X128040500Y-110377500D01*
G37*
X128040500Y-110377500D02*
X128082500Y-110380500D01*
X128123500Y-110386500D01*
X128164500Y-110393500D01*
X128205500Y-110403500D01*
X128245500Y-110415500D01*
X128285500Y-110429500D01*
X128323500Y-110445500D01*
X128361500Y-110463500D01*
X128398500Y-110483500D01*
X128434500Y-110505500D01*
X128468500Y-110529500D01*
X128501500Y-110554500D01*
X128533500Y-110581500D01*
X128564500Y-110610500D01*
X128593500Y-110641500D01*
X128620500Y-110673500D01*
X128645500Y-110706500D01*
X128669500Y-110740500D01*
X128691500Y-110776500D01*
X128711500Y-110813500D01*
X128729500Y-110851500D01*
X128745500Y-110889500D01*
X128759500Y-110929500D01*
X128771500Y-110969500D01*
X128781500Y-111010500D01*
X128788500Y-111051500D01*
X128794500Y-111092500D01*
X128797500Y-111134500D01*
X128798500Y-111176500D01*
X128798500Y-113576500D01*
X127198500Y-113576500D01*
X127198500Y-111176500D01*
X127199500Y-111134500D01*
X127202500Y-111092500D01*
X127208500Y-111051500D01*
X127215500Y-111010500D01*
X127225500Y-110969500D01*
X127237500Y-110929500D01*
X127251500Y-110889500D01*
X127267500Y-110851500D01*
X127285500Y-110813500D01*
X127305500Y-110776500D01*
X127327500Y-110740500D01*
X127351500Y-110706500D01*
X127376500Y-110673500D01*
X127403500Y-110641500D01*
X127432500Y-110610500D01*
X127463500Y-110581500D01*
X127495500Y-110554500D01*
X127528500Y-110529500D01*
X127562500Y-110505500D01*
X127598500Y-110483500D01*
X127635500Y-110463500D01*
X127673500Y-110445500D01*
X127711500Y-110429500D01*
X127751500Y-110415500D01*
X127791500Y-110403500D01*
X127832500Y-110393500D01*
X127873500Y-110386500D01*
X127914500Y-110380500D01*
X127956500Y-110377500D01*
X127998500Y-110376500D01*
X128040500Y-110377500D01*
G36*
X118638500Y-94006500D02*
G01*
X118637500Y-94017500D01*
X118636500Y-94027500D01*
X118634500Y-94038500D01*
X118625500Y-94068500D01*
X118621500Y-94077500D01*
X118616500Y-94087500D01*
X118606500Y-94105500D01*
X118600500Y-94114500D01*
X118593500Y-94122500D01*
X118587500Y-94130500D01*
X118579500Y-94137500D01*
X118572500Y-94145500D01*
X118564500Y-94151500D01*
X118556500Y-94158500D01*
X118547500Y-94164500D01*
X118529500Y-94174500D01*
X118519500Y-94179500D01*
X118510500Y-94183500D01*
X118480500Y-94192500D01*
X118469500Y-94194500D01*
X118459500Y-94195500D01*
X118448500Y-94196500D01*
X117228500Y-94196500D01*
X117217500Y-94195500D01*
X117207500Y-94194500D01*
X117196500Y-94192500D01*
X117166500Y-94183500D01*
X117157500Y-94179500D01*
X117147500Y-94174500D01*
X117129500Y-94164500D01*
X117120500Y-94158500D01*
X117112500Y-94151500D01*
X117104500Y-94145500D01*
X117097500Y-94137500D01*
X117089500Y-94130500D01*
X117083500Y-94122500D01*
X117076500Y-94114500D01*
X117070500Y-94105500D01*
X117060500Y-94087500D01*
X117055500Y-94077500D01*
X117051500Y-94068500D01*
X117042500Y-94038500D01*
X117040500Y-94027500D01*
X117039500Y-94017500D01*
X117038500Y-94006500D01*
X117038500Y-90996500D01*
X118638500Y-90996500D01*
X118638500Y-94006500D01*
G37*
X118638500Y-94006500D02*
X118637500Y-94017500D01*
X118636500Y-94027500D01*
X118634500Y-94038500D01*
X118625500Y-94068500D01*
X118621500Y-94077500D01*
X118616500Y-94087500D01*
X118606500Y-94105500D01*
X118600500Y-94114500D01*
X118593500Y-94122500D01*
X118587500Y-94130500D01*
X118579500Y-94137500D01*
X118572500Y-94145500D01*
X118564500Y-94151500D01*
X118556500Y-94158500D01*
X118547500Y-94164500D01*
X118529500Y-94174500D01*
X118519500Y-94179500D01*
X118510500Y-94183500D01*
X118480500Y-94192500D01*
X118469500Y-94194500D01*
X118459500Y-94195500D01*
X118448500Y-94196500D01*
X117228500Y-94196500D01*
X117217500Y-94195500D01*
X117207500Y-94194500D01*
X117196500Y-94192500D01*
X117166500Y-94183500D01*
X117157500Y-94179500D01*
X117147500Y-94174500D01*
X117129500Y-94164500D01*
X117120500Y-94158500D01*
X117112500Y-94151500D01*
X117104500Y-94145500D01*
X117097500Y-94137500D01*
X117089500Y-94130500D01*
X117083500Y-94122500D01*
X117076500Y-94114500D01*
X117070500Y-94105500D01*
X117060500Y-94087500D01*
X117055500Y-94077500D01*
X117051500Y-94068500D01*
X117042500Y-94038500D01*
X117040500Y-94027500D01*
X117039500Y-94017500D01*
X117038500Y-94006500D01*
X117038500Y-90996500D01*
X118638500Y-90996500D01*
X118638500Y-94006500D01*
G36*
X125500500Y-110377500D02*
G01*
X125542500Y-110380500D01*
X125583500Y-110386500D01*
X125624500Y-110393500D01*
X125665500Y-110403500D01*
X125705500Y-110415500D01*
X125745500Y-110429500D01*
X125783500Y-110445500D01*
X125821500Y-110463500D01*
X125858500Y-110483500D01*
X125894500Y-110505500D01*
X125928500Y-110529500D01*
X125961500Y-110554500D01*
X125993500Y-110581500D01*
X126024500Y-110610500D01*
X126053500Y-110641500D01*
X126080500Y-110673500D01*
X126105500Y-110706500D01*
X126129500Y-110740500D01*
X126151500Y-110776500D01*
X126171500Y-110813500D01*
X126189500Y-110851500D01*
X126205500Y-110889500D01*
X126219500Y-110929500D01*
X126231500Y-110969500D01*
X126241500Y-111010500D01*
X126248500Y-111051500D01*
X126254500Y-111092500D01*
X126257500Y-111134500D01*
X126258500Y-111176500D01*
X126258500Y-113576500D01*
X124658500Y-113576500D01*
X124658500Y-111176500D01*
X124659500Y-111134500D01*
X124662500Y-111092500D01*
X124668500Y-111051500D01*
X124675500Y-111010500D01*
X124685500Y-110969500D01*
X124697500Y-110929500D01*
X124711500Y-110889500D01*
X124727500Y-110851500D01*
X124745500Y-110813500D01*
X124765500Y-110776500D01*
X124787500Y-110740500D01*
X124811500Y-110706500D01*
X124836500Y-110673500D01*
X124863500Y-110641500D01*
X124892500Y-110610500D01*
X124923500Y-110581500D01*
X124955500Y-110554500D01*
X124988500Y-110529500D01*
X125022500Y-110505500D01*
X125058500Y-110483500D01*
X125095500Y-110463500D01*
X125133500Y-110445500D01*
X125171500Y-110429500D01*
X125211500Y-110415500D01*
X125251500Y-110403500D01*
X125292500Y-110393500D01*
X125333500Y-110386500D01*
X125374500Y-110380500D01*
X125416500Y-110377500D01*
X125458500Y-110376500D01*
X125500500Y-110377500D01*
G37*
X125500500Y-110377500D02*
X125542500Y-110380500D01*
X125583500Y-110386500D01*
X125624500Y-110393500D01*
X125665500Y-110403500D01*
X125705500Y-110415500D01*
X125745500Y-110429500D01*
X125783500Y-110445500D01*
X125821500Y-110463500D01*
X125858500Y-110483500D01*
X125894500Y-110505500D01*
X125928500Y-110529500D01*
X125961500Y-110554500D01*
X125993500Y-110581500D01*
X126024500Y-110610500D01*
X126053500Y-110641500D01*
X126080500Y-110673500D01*
X126105500Y-110706500D01*
X126129500Y-110740500D01*
X126151500Y-110776500D01*
X126171500Y-110813500D01*
X126189500Y-110851500D01*
X126205500Y-110889500D01*
X126219500Y-110929500D01*
X126231500Y-110969500D01*
X126241500Y-111010500D01*
X126248500Y-111051500D01*
X126254500Y-111092500D01*
X126257500Y-111134500D01*
X126258500Y-111176500D01*
X126258500Y-113576500D01*
X124658500Y-113576500D01*
X124658500Y-111176500D01*
X124659500Y-111134500D01*
X124662500Y-111092500D01*
X124668500Y-111051500D01*
X124675500Y-111010500D01*
X124685500Y-110969500D01*
X124697500Y-110929500D01*
X124711500Y-110889500D01*
X124727500Y-110851500D01*
X124745500Y-110813500D01*
X124765500Y-110776500D01*
X124787500Y-110740500D01*
X124811500Y-110706500D01*
X124836500Y-110673500D01*
X124863500Y-110641500D01*
X124892500Y-110610500D01*
X124923500Y-110581500D01*
X124955500Y-110554500D01*
X124988500Y-110529500D01*
X125022500Y-110505500D01*
X125058500Y-110483500D01*
X125095500Y-110463500D01*
X125133500Y-110445500D01*
X125171500Y-110429500D01*
X125211500Y-110415500D01*
X125251500Y-110403500D01*
X125292500Y-110393500D01*
X125333500Y-110386500D01*
X125374500Y-110380500D01*
X125416500Y-110377500D01*
X125458500Y-110376500D01*
X125500500Y-110377500D01*
G36*
X120420500Y-110377500D02*
G01*
X120462500Y-110380500D01*
X120503500Y-110386500D01*
X120544500Y-110393500D01*
X120585500Y-110403500D01*
X120625500Y-110415500D01*
X120665500Y-110429500D01*
X120703500Y-110445500D01*
X120741500Y-110463500D01*
X120778500Y-110483500D01*
X120814500Y-110505500D01*
X120848500Y-110529500D01*
X120881500Y-110554500D01*
X120913500Y-110581500D01*
X120944500Y-110610500D01*
X120973500Y-110641500D01*
X121000500Y-110673500D01*
X121025500Y-110706500D01*
X121049500Y-110740500D01*
X121071500Y-110776500D01*
X121091500Y-110813500D01*
X121109500Y-110851500D01*
X121125500Y-110889500D01*
X121139500Y-110929500D01*
X121151500Y-110969500D01*
X121161500Y-111010500D01*
X121168500Y-111051500D01*
X121174500Y-111092500D01*
X121177500Y-111134500D01*
X121178500Y-111176500D01*
X121178500Y-113576500D01*
X119578500Y-113576500D01*
X119578500Y-111176500D01*
X119579500Y-111134500D01*
X119582500Y-111092500D01*
X119588500Y-111051500D01*
X119595500Y-111010500D01*
X119605500Y-110969500D01*
X119617500Y-110929500D01*
X119631500Y-110889500D01*
X119647500Y-110851500D01*
X119665500Y-110813500D01*
X119685500Y-110776500D01*
X119707500Y-110740500D01*
X119731500Y-110706500D01*
X119756500Y-110673500D01*
X119783500Y-110641500D01*
X119812500Y-110610500D01*
X119843500Y-110581500D01*
X119875500Y-110554500D01*
X119908500Y-110529500D01*
X119942500Y-110505500D01*
X119978500Y-110483500D01*
X120015500Y-110463500D01*
X120053500Y-110445500D01*
X120091500Y-110429500D01*
X120131500Y-110415500D01*
X120171500Y-110403500D01*
X120212500Y-110393500D01*
X120253500Y-110386500D01*
X120294500Y-110380500D01*
X120336500Y-110377500D01*
X120378500Y-110376500D01*
X120420500Y-110377500D01*
G37*
X120420500Y-110377500D02*
X120462500Y-110380500D01*
X120503500Y-110386500D01*
X120544500Y-110393500D01*
X120585500Y-110403500D01*
X120625500Y-110415500D01*
X120665500Y-110429500D01*
X120703500Y-110445500D01*
X120741500Y-110463500D01*
X120778500Y-110483500D01*
X120814500Y-110505500D01*
X120848500Y-110529500D01*
X120881500Y-110554500D01*
X120913500Y-110581500D01*
X120944500Y-110610500D01*
X120973500Y-110641500D01*
X121000500Y-110673500D01*
X121025500Y-110706500D01*
X121049500Y-110740500D01*
X121071500Y-110776500D01*
X121091500Y-110813500D01*
X121109500Y-110851500D01*
X121125500Y-110889500D01*
X121139500Y-110929500D01*
X121151500Y-110969500D01*
X121161500Y-111010500D01*
X121168500Y-111051500D01*
X121174500Y-111092500D01*
X121177500Y-111134500D01*
X121178500Y-111176500D01*
X121178500Y-113576500D01*
X119578500Y-113576500D01*
X119578500Y-111176500D01*
X119579500Y-111134500D01*
X119582500Y-111092500D01*
X119588500Y-111051500D01*
X119595500Y-111010500D01*
X119605500Y-110969500D01*
X119617500Y-110929500D01*
X119631500Y-110889500D01*
X119647500Y-110851500D01*
X119665500Y-110813500D01*
X119685500Y-110776500D01*
X119707500Y-110740500D01*
X119731500Y-110706500D01*
X119756500Y-110673500D01*
X119783500Y-110641500D01*
X119812500Y-110610500D01*
X119843500Y-110581500D01*
X119875500Y-110554500D01*
X119908500Y-110529500D01*
X119942500Y-110505500D01*
X119978500Y-110483500D01*
X120015500Y-110463500D01*
X120053500Y-110445500D01*
X120091500Y-110429500D01*
X120131500Y-110415500D01*
X120171500Y-110403500D01*
X120212500Y-110393500D01*
X120253500Y-110386500D01*
X120294500Y-110380500D01*
X120336500Y-110377500D01*
X120378500Y-110376500D01*
X120420500Y-110377500D01*
G36*
X111018500Y-93396500D02*
G01*
X111017500Y-93438500D01*
X111014500Y-93480500D01*
X111008500Y-93521500D01*
X111001500Y-93562500D01*
X110991500Y-93603500D01*
X110979500Y-93643500D01*
X110965500Y-93683500D01*
X110949500Y-93721500D01*
X110931500Y-93759500D01*
X110911500Y-93796500D01*
X110889500Y-93832500D01*
X110865500Y-93866500D01*
X110840500Y-93899500D01*
X110813500Y-93931500D01*
X110784500Y-93962500D01*
X110753500Y-93991500D01*
X110721500Y-94018500D01*
X110688500Y-94043500D01*
X110654500Y-94067500D01*
X110618500Y-94089500D01*
X110581500Y-94109500D01*
X110543500Y-94127500D01*
X110505500Y-94143500D01*
X110465500Y-94157500D01*
X110425500Y-94169500D01*
X110384500Y-94179500D01*
X110343500Y-94186500D01*
X110302500Y-94192500D01*
X110260500Y-94195500D01*
X110218500Y-94196500D01*
X110176500Y-94195500D01*
X110134500Y-94192500D01*
X110093500Y-94186500D01*
X110052500Y-94179500D01*
X110011500Y-94169500D01*
X109971500Y-94157500D01*
X109931500Y-94143500D01*
X109893500Y-94127500D01*
X109855500Y-94109500D01*
X109818500Y-94089500D01*
X109782500Y-94067500D01*
X109748500Y-94043500D01*
X109715500Y-94018500D01*
X109683500Y-93991500D01*
X109652500Y-93962500D01*
X109623500Y-93931500D01*
X109596500Y-93899500D01*
X109571500Y-93866500D01*
X109547500Y-93832500D01*
X109525500Y-93796500D01*
X109505500Y-93759500D01*
X109487500Y-93721500D01*
X109471500Y-93683500D01*
X109457500Y-93643500D01*
X109445500Y-93603500D01*
X109435500Y-93562500D01*
X109428500Y-93521500D01*
X109422500Y-93480500D01*
X109419500Y-93438500D01*
X109418500Y-93396500D01*
X109418500Y-90996500D01*
X111018500Y-90996500D01*
X111018500Y-93396500D01*
G37*
X111018500Y-93396500D02*
X111017500Y-93438500D01*
X111014500Y-93480500D01*
X111008500Y-93521500D01*
X111001500Y-93562500D01*
X110991500Y-93603500D01*
X110979500Y-93643500D01*
X110965500Y-93683500D01*
X110949500Y-93721500D01*
X110931500Y-93759500D01*
X110911500Y-93796500D01*
X110889500Y-93832500D01*
X110865500Y-93866500D01*
X110840500Y-93899500D01*
X110813500Y-93931500D01*
X110784500Y-93962500D01*
X110753500Y-93991500D01*
X110721500Y-94018500D01*
X110688500Y-94043500D01*
X110654500Y-94067500D01*
X110618500Y-94089500D01*
X110581500Y-94109500D01*
X110543500Y-94127500D01*
X110505500Y-94143500D01*
X110465500Y-94157500D01*
X110425500Y-94169500D01*
X110384500Y-94179500D01*
X110343500Y-94186500D01*
X110302500Y-94192500D01*
X110260500Y-94195500D01*
X110218500Y-94196500D01*
X110176500Y-94195500D01*
X110134500Y-94192500D01*
X110093500Y-94186500D01*
X110052500Y-94179500D01*
X110011500Y-94169500D01*
X109971500Y-94157500D01*
X109931500Y-94143500D01*
X109893500Y-94127500D01*
X109855500Y-94109500D01*
X109818500Y-94089500D01*
X109782500Y-94067500D01*
X109748500Y-94043500D01*
X109715500Y-94018500D01*
X109683500Y-93991500D01*
X109652500Y-93962500D01*
X109623500Y-93931500D01*
X109596500Y-93899500D01*
X109571500Y-93866500D01*
X109547500Y-93832500D01*
X109525500Y-93796500D01*
X109505500Y-93759500D01*
X109487500Y-93721500D01*
X109471500Y-93683500D01*
X109457500Y-93643500D01*
X109445500Y-93603500D01*
X109435500Y-93562500D01*
X109428500Y-93521500D01*
X109422500Y-93480500D01*
X109419500Y-93438500D01*
X109418500Y-93396500D01*
X109418500Y-90996500D01*
X111018500Y-90996500D01*
X111018500Y-93396500D01*
G36*
X118459500Y-110377500D02*
G01*
X118469500Y-110378500D01*
X118480500Y-110380500D01*
X118510500Y-110389500D01*
X118519500Y-110393500D01*
X118529500Y-110398500D01*
X118547500Y-110408500D01*
X118556500Y-110414500D01*
X118564500Y-110421500D01*
X118572500Y-110427500D01*
X118579500Y-110435500D01*
X118587500Y-110442500D01*
X118593500Y-110450500D01*
X118600500Y-110458500D01*
X118606500Y-110467500D01*
X118616500Y-110485500D01*
X118621500Y-110495500D01*
X118625500Y-110504500D01*
X118634500Y-110534500D01*
X118636500Y-110545500D01*
X118637500Y-110555500D01*
X118638500Y-110566500D01*
X118638500Y-113576500D01*
X117038500Y-113576500D01*
X117038500Y-110566500D01*
X117039500Y-110555500D01*
X117040500Y-110545500D01*
X117042500Y-110534500D01*
X117051500Y-110504500D01*
X117055500Y-110495500D01*
X117060500Y-110485500D01*
X117070500Y-110467500D01*
X117076500Y-110458500D01*
X117083500Y-110450500D01*
X117089500Y-110442500D01*
X117097500Y-110435500D01*
X117104500Y-110427500D01*
X117112500Y-110421500D01*
X117120500Y-110414500D01*
X117129500Y-110408500D01*
X117147500Y-110398500D01*
X117157500Y-110393500D01*
X117166500Y-110389500D01*
X117196500Y-110380500D01*
X117207500Y-110378500D01*
X117217500Y-110377500D01*
X117228500Y-110376500D01*
X118448500Y-110376500D01*
X118459500Y-110377500D01*
G37*
X118459500Y-110377500D02*
X118469500Y-110378500D01*
X118480500Y-110380500D01*
X118510500Y-110389500D01*
X118519500Y-110393500D01*
X118529500Y-110398500D01*
X118547500Y-110408500D01*
X118556500Y-110414500D01*
X118564500Y-110421500D01*
X118572500Y-110427500D01*
X118579500Y-110435500D01*
X118587500Y-110442500D01*
X118593500Y-110450500D01*
X118600500Y-110458500D01*
X118606500Y-110467500D01*
X118616500Y-110485500D01*
X118621500Y-110495500D01*
X118625500Y-110504500D01*
X118634500Y-110534500D01*
X118636500Y-110545500D01*
X118637500Y-110555500D01*
X118638500Y-110566500D01*
X118638500Y-113576500D01*
X117038500Y-113576500D01*
X117038500Y-110566500D01*
X117039500Y-110555500D01*
X117040500Y-110545500D01*
X117042500Y-110534500D01*
X117051500Y-110504500D01*
X117055500Y-110495500D01*
X117060500Y-110485500D01*
X117070500Y-110467500D01*
X117076500Y-110458500D01*
X117083500Y-110450500D01*
X117089500Y-110442500D01*
X117097500Y-110435500D01*
X117104500Y-110427500D01*
X117112500Y-110421500D01*
X117120500Y-110414500D01*
X117129500Y-110408500D01*
X117147500Y-110398500D01*
X117157500Y-110393500D01*
X117166500Y-110389500D01*
X117196500Y-110380500D01*
X117207500Y-110378500D01*
X117217500Y-110377500D01*
X117228500Y-110376500D01*
X118448500Y-110376500D01*
X118459500Y-110377500D01*
G36*
X105938500Y-94006500D02*
G01*
X105937500Y-94017500D01*
X105936500Y-94027500D01*
X105934500Y-94038500D01*
X105925500Y-94068500D01*
X105921500Y-94077500D01*
X105916500Y-94087500D01*
X105906500Y-94105500D01*
X105900500Y-94114500D01*
X105893500Y-94122500D01*
X105887500Y-94130500D01*
X105879500Y-94137500D01*
X105872500Y-94145500D01*
X105864500Y-94151500D01*
X105856500Y-94158500D01*
X105847500Y-94164500D01*
X105829500Y-94174500D01*
X105819500Y-94179500D01*
X105810500Y-94183500D01*
X105780500Y-94192500D01*
X105769500Y-94194500D01*
X105759500Y-94195500D01*
X105748500Y-94196500D01*
X104528500Y-94196500D01*
X104517500Y-94195500D01*
X104507500Y-94194500D01*
X104496500Y-94192500D01*
X104466500Y-94183500D01*
X104457500Y-94179500D01*
X104447500Y-94174500D01*
X104429500Y-94164500D01*
X104420500Y-94158500D01*
X104412500Y-94151500D01*
X104404500Y-94145500D01*
X104397500Y-94137500D01*
X104389500Y-94130500D01*
X104383500Y-94122500D01*
X104376500Y-94114500D01*
X104370500Y-94105500D01*
X104360500Y-94087500D01*
X104355500Y-94077500D01*
X104351500Y-94068500D01*
X104342500Y-94038500D01*
X104340500Y-94027500D01*
X104339500Y-94017500D01*
X104338500Y-94006500D01*
X104338500Y-90996500D01*
X105938500Y-90996500D01*
X105938500Y-94006500D01*
G37*
X105938500Y-94006500D02*
X105937500Y-94017500D01*
X105936500Y-94027500D01*
X105934500Y-94038500D01*
X105925500Y-94068500D01*
X105921500Y-94077500D01*
X105916500Y-94087500D01*
X105906500Y-94105500D01*
X105900500Y-94114500D01*
X105893500Y-94122500D01*
X105887500Y-94130500D01*
X105879500Y-94137500D01*
X105872500Y-94145500D01*
X105864500Y-94151500D01*
X105856500Y-94158500D01*
X105847500Y-94164500D01*
X105829500Y-94174500D01*
X105819500Y-94179500D01*
X105810500Y-94183500D01*
X105780500Y-94192500D01*
X105769500Y-94194500D01*
X105759500Y-94195500D01*
X105748500Y-94196500D01*
X104528500Y-94196500D01*
X104517500Y-94195500D01*
X104507500Y-94194500D01*
X104496500Y-94192500D01*
X104466500Y-94183500D01*
X104457500Y-94179500D01*
X104447500Y-94174500D01*
X104429500Y-94164500D01*
X104420500Y-94158500D01*
X104412500Y-94151500D01*
X104404500Y-94145500D01*
X104397500Y-94137500D01*
X104389500Y-94130500D01*
X104383500Y-94122500D01*
X104376500Y-94114500D01*
X104370500Y-94105500D01*
X104360500Y-94087500D01*
X104355500Y-94077500D01*
X104351500Y-94068500D01*
X104342500Y-94038500D01*
X104340500Y-94027500D01*
X104339500Y-94017500D01*
X104338500Y-94006500D01*
X104338500Y-90996500D01*
X105938500Y-90996500D01*
X105938500Y-94006500D01*
G36*
X100100500Y-110377500D02*
G01*
X100142500Y-110380500D01*
X100183500Y-110386500D01*
X100224500Y-110393500D01*
X100265500Y-110403500D01*
X100305500Y-110415500D01*
X100345500Y-110429500D01*
X100383500Y-110445500D01*
X100421500Y-110463500D01*
X100458500Y-110483500D01*
X100494500Y-110505500D01*
X100528500Y-110529500D01*
X100561500Y-110554500D01*
X100593500Y-110581500D01*
X100624500Y-110610500D01*
X100653500Y-110641500D01*
X100680500Y-110673500D01*
X100705500Y-110706500D01*
X100729500Y-110740500D01*
X100751500Y-110776500D01*
X100771500Y-110813500D01*
X100789500Y-110851500D01*
X100805500Y-110889500D01*
X100819500Y-110929500D01*
X100831500Y-110969500D01*
X100841500Y-111010500D01*
X100848500Y-111051500D01*
X100854500Y-111092500D01*
X100857500Y-111134500D01*
X100858500Y-111176500D01*
X100858500Y-113576500D01*
X99258500Y-113576500D01*
X99258500Y-111176500D01*
X99259500Y-111134500D01*
X99262500Y-111092500D01*
X99268500Y-111051500D01*
X99275500Y-111010500D01*
X99285500Y-110969500D01*
X99297500Y-110929500D01*
X99311500Y-110889500D01*
X99327500Y-110851500D01*
X99345500Y-110813500D01*
X99365500Y-110776500D01*
X99387500Y-110740500D01*
X99411500Y-110706500D01*
X99436500Y-110673500D01*
X99463500Y-110641500D01*
X99492500Y-110610500D01*
X99523500Y-110581500D01*
X99555500Y-110554500D01*
X99588500Y-110529500D01*
X99622500Y-110505500D01*
X99658500Y-110483500D01*
X99695500Y-110463500D01*
X99733500Y-110445500D01*
X99771500Y-110429500D01*
X99811500Y-110415500D01*
X99851500Y-110403500D01*
X99892500Y-110393500D01*
X99933500Y-110386500D01*
X99974500Y-110380500D01*
X100016500Y-110377500D01*
X100058500Y-110376500D01*
X100100500Y-110377500D01*
G37*
X100100500Y-110377500D02*
X100142500Y-110380500D01*
X100183500Y-110386500D01*
X100224500Y-110393500D01*
X100265500Y-110403500D01*
X100305500Y-110415500D01*
X100345500Y-110429500D01*
X100383500Y-110445500D01*
X100421500Y-110463500D01*
X100458500Y-110483500D01*
X100494500Y-110505500D01*
X100528500Y-110529500D01*
X100561500Y-110554500D01*
X100593500Y-110581500D01*
X100624500Y-110610500D01*
X100653500Y-110641500D01*
X100680500Y-110673500D01*
X100705500Y-110706500D01*
X100729500Y-110740500D01*
X100751500Y-110776500D01*
X100771500Y-110813500D01*
X100789500Y-110851500D01*
X100805500Y-110889500D01*
X100819500Y-110929500D01*
X100831500Y-110969500D01*
X100841500Y-111010500D01*
X100848500Y-111051500D01*
X100854500Y-111092500D01*
X100857500Y-111134500D01*
X100858500Y-111176500D01*
X100858500Y-113576500D01*
X99258500Y-113576500D01*
X99258500Y-111176500D01*
X99259500Y-111134500D01*
X99262500Y-111092500D01*
X99268500Y-111051500D01*
X99275500Y-111010500D01*
X99285500Y-110969500D01*
X99297500Y-110929500D01*
X99311500Y-110889500D01*
X99327500Y-110851500D01*
X99345500Y-110813500D01*
X99365500Y-110776500D01*
X99387500Y-110740500D01*
X99411500Y-110706500D01*
X99436500Y-110673500D01*
X99463500Y-110641500D01*
X99492500Y-110610500D01*
X99523500Y-110581500D01*
X99555500Y-110554500D01*
X99588500Y-110529500D01*
X99622500Y-110505500D01*
X99658500Y-110483500D01*
X99695500Y-110463500D01*
X99733500Y-110445500D01*
X99771500Y-110429500D01*
X99811500Y-110415500D01*
X99851500Y-110403500D01*
X99892500Y-110393500D01*
X99933500Y-110386500D01*
X99974500Y-110380500D01*
X100016500Y-110377500D01*
X100058500Y-110376500D01*
X100100500Y-110377500D01*
G36*
X102640500Y-110377500D02*
G01*
X102682500Y-110380500D01*
X102723500Y-110386500D01*
X102764500Y-110393500D01*
X102805500Y-110403500D01*
X102845500Y-110415500D01*
X102885500Y-110429500D01*
X102923500Y-110445500D01*
X102961500Y-110463500D01*
X102998500Y-110483500D01*
X103034500Y-110505500D01*
X103068500Y-110529500D01*
X103101500Y-110554500D01*
X103133500Y-110581500D01*
X103164500Y-110610500D01*
X103193500Y-110641500D01*
X103220500Y-110673500D01*
X103245500Y-110706500D01*
X103269500Y-110740500D01*
X103291500Y-110776500D01*
X103311500Y-110813500D01*
X103329500Y-110851500D01*
X103345500Y-110889500D01*
X103359500Y-110929500D01*
X103371500Y-110969500D01*
X103381500Y-111010500D01*
X103388500Y-111051500D01*
X103394500Y-111092500D01*
X103397500Y-111134500D01*
X103398500Y-111176500D01*
X103398500Y-113576500D01*
X101798500Y-113576500D01*
X101798500Y-111176500D01*
X101799500Y-111134500D01*
X101802500Y-111092500D01*
X101808500Y-111051500D01*
X101815500Y-111010500D01*
X101825500Y-110969500D01*
X101837500Y-110929500D01*
X101851500Y-110889500D01*
X101867500Y-110851500D01*
X101885500Y-110813500D01*
X101905500Y-110776500D01*
X101927500Y-110740500D01*
X101951500Y-110706500D01*
X101976500Y-110673500D01*
X102003500Y-110641500D01*
X102032500Y-110610500D01*
X102063500Y-110581500D01*
X102095500Y-110554500D01*
X102128500Y-110529500D01*
X102162500Y-110505500D01*
X102198500Y-110483500D01*
X102235500Y-110463500D01*
X102273500Y-110445500D01*
X102311500Y-110429500D01*
X102351500Y-110415500D01*
X102391500Y-110403500D01*
X102432500Y-110393500D01*
X102473500Y-110386500D01*
X102514500Y-110380500D01*
X102556500Y-110377500D01*
X102598500Y-110376500D01*
X102640500Y-110377500D01*
G37*
X102640500Y-110377500D02*
X102682500Y-110380500D01*
X102723500Y-110386500D01*
X102764500Y-110393500D01*
X102805500Y-110403500D01*
X102845500Y-110415500D01*
X102885500Y-110429500D01*
X102923500Y-110445500D01*
X102961500Y-110463500D01*
X102998500Y-110483500D01*
X103034500Y-110505500D01*
X103068500Y-110529500D01*
X103101500Y-110554500D01*
X103133500Y-110581500D01*
X103164500Y-110610500D01*
X103193500Y-110641500D01*
X103220500Y-110673500D01*
X103245500Y-110706500D01*
X103269500Y-110740500D01*
X103291500Y-110776500D01*
X103311500Y-110813500D01*
X103329500Y-110851500D01*
X103345500Y-110889500D01*
X103359500Y-110929500D01*
X103371500Y-110969500D01*
X103381500Y-111010500D01*
X103388500Y-111051500D01*
X103394500Y-111092500D01*
X103397500Y-111134500D01*
X103398500Y-111176500D01*
X103398500Y-113576500D01*
X101798500Y-113576500D01*
X101798500Y-111176500D01*
X101799500Y-111134500D01*
X101802500Y-111092500D01*
X101808500Y-111051500D01*
X101815500Y-111010500D01*
X101825500Y-110969500D01*
X101837500Y-110929500D01*
X101851500Y-110889500D01*
X101867500Y-110851500D01*
X101885500Y-110813500D01*
X101905500Y-110776500D01*
X101927500Y-110740500D01*
X101951500Y-110706500D01*
X101976500Y-110673500D01*
X102003500Y-110641500D01*
X102032500Y-110610500D01*
X102063500Y-110581500D01*
X102095500Y-110554500D01*
X102128500Y-110529500D01*
X102162500Y-110505500D01*
X102198500Y-110483500D01*
X102235500Y-110463500D01*
X102273500Y-110445500D01*
X102311500Y-110429500D01*
X102351500Y-110415500D01*
X102391500Y-110403500D01*
X102432500Y-110393500D01*
X102473500Y-110386500D01*
X102514500Y-110380500D01*
X102556500Y-110377500D01*
X102598500Y-110376500D01*
X102640500Y-110377500D01*
G36*
X113558500Y-93396500D02*
G01*
X113557500Y-93438500D01*
X113554500Y-93480500D01*
X113548500Y-93521500D01*
X113541500Y-93562500D01*
X113531500Y-93603500D01*
X113519500Y-93643500D01*
X113505500Y-93683500D01*
X113489500Y-93721500D01*
X113471500Y-93759500D01*
X113451500Y-93796500D01*
X113429500Y-93832500D01*
X113405500Y-93866500D01*
X113380500Y-93899500D01*
X113353500Y-93931500D01*
X113324500Y-93962500D01*
X113293500Y-93991500D01*
X113261500Y-94018500D01*
X113228500Y-94043500D01*
X113194500Y-94067500D01*
X113158500Y-94089500D01*
X113121500Y-94109500D01*
X113083500Y-94127500D01*
X113045500Y-94143500D01*
X113005500Y-94157500D01*
X112965500Y-94169500D01*
X112924500Y-94179500D01*
X112883500Y-94186500D01*
X112842500Y-94192500D01*
X112800500Y-94195500D01*
X112758500Y-94196500D01*
X112716500Y-94195500D01*
X112674500Y-94192500D01*
X112633500Y-94186500D01*
X112592500Y-94179500D01*
X112551500Y-94169500D01*
X112511500Y-94157500D01*
X112471500Y-94143500D01*
X112433500Y-94127500D01*
X112395500Y-94109500D01*
X112358500Y-94089500D01*
X112322500Y-94067500D01*
X112288500Y-94043500D01*
X112255500Y-94018500D01*
X112223500Y-93991500D01*
X112192500Y-93962500D01*
X112163500Y-93931500D01*
X112136500Y-93899500D01*
X112111500Y-93866500D01*
X112087500Y-93832500D01*
X112065500Y-93796500D01*
X112045500Y-93759500D01*
X112027500Y-93721500D01*
X112011500Y-93683500D01*
X111997500Y-93643500D01*
X111985500Y-93603500D01*
X111975500Y-93562500D01*
X111968500Y-93521500D01*
X111962500Y-93480500D01*
X111959500Y-93438500D01*
X111958500Y-93396500D01*
X111958500Y-90996500D01*
X113558500Y-90996500D01*
X113558500Y-93396500D01*
G37*
X113558500Y-93396500D02*
X113557500Y-93438500D01*
X113554500Y-93480500D01*
X113548500Y-93521500D01*
X113541500Y-93562500D01*
X113531500Y-93603500D01*
X113519500Y-93643500D01*
X113505500Y-93683500D01*
X113489500Y-93721500D01*
X113471500Y-93759500D01*
X113451500Y-93796500D01*
X113429500Y-93832500D01*
X113405500Y-93866500D01*
X113380500Y-93899500D01*
X113353500Y-93931500D01*
X113324500Y-93962500D01*
X113293500Y-93991500D01*
X113261500Y-94018500D01*
X113228500Y-94043500D01*
X113194500Y-94067500D01*
X113158500Y-94089500D01*
X113121500Y-94109500D01*
X113083500Y-94127500D01*
X113045500Y-94143500D01*
X113005500Y-94157500D01*
X112965500Y-94169500D01*
X112924500Y-94179500D01*
X112883500Y-94186500D01*
X112842500Y-94192500D01*
X112800500Y-94195500D01*
X112758500Y-94196500D01*
X112716500Y-94195500D01*
X112674500Y-94192500D01*
X112633500Y-94186500D01*
X112592500Y-94179500D01*
X112551500Y-94169500D01*
X112511500Y-94157500D01*
X112471500Y-94143500D01*
X112433500Y-94127500D01*
X112395500Y-94109500D01*
X112358500Y-94089500D01*
X112322500Y-94067500D01*
X112288500Y-94043500D01*
X112255500Y-94018500D01*
X112223500Y-93991500D01*
X112192500Y-93962500D01*
X112163500Y-93931500D01*
X112136500Y-93899500D01*
X112111500Y-93866500D01*
X112087500Y-93832500D01*
X112065500Y-93796500D01*
X112045500Y-93759500D01*
X112027500Y-93721500D01*
X112011500Y-93683500D01*
X111997500Y-93643500D01*
X111985500Y-93603500D01*
X111975500Y-93562500D01*
X111968500Y-93521500D01*
X111962500Y-93480500D01*
X111959500Y-93438500D01*
X111958500Y-93396500D01*
X111958500Y-90996500D01*
X113558500Y-90996500D01*
X113558500Y-93396500D01*
G36*
X90698500Y-93396500D02*
G01*
X90697500Y-93438500D01*
X90694500Y-93480500D01*
X90688500Y-93521500D01*
X90681500Y-93562500D01*
X90671500Y-93603500D01*
X90659500Y-93643500D01*
X90645500Y-93683500D01*
X90629500Y-93721500D01*
X90611500Y-93759500D01*
X90591500Y-93796500D01*
X90569500Y-93832500D01*
X90545500Y-93866500D01*
X90520500Y-93899500D01*
X90493500Y-93931500D01*
X90464500Y-93962500D01*
X90433500Y-93991500D01*
X90401500Y-94018500D01*
X90368500Y-94043500D01*
X90334500Y-94067500D01*
X90298500Y-94089500D01*
X90261500Y-94109500D01*
X90223500Y-94127500D01*
X90185500Y-94143500D01*
X90145500Y-94157500D01*
X90105500Y-94169500D01*
X90064500Y-94179500D01*
X90023500Y-94186500D01*
X89982500Y-94192500D01*
X89940500Y-94195500D01*
X89898500Y-94196500D01*
X89856500Y-94195500D01*
X89814500Y-94192500D01*
X89773500Y-94186500D01*
X89732500Y-94179500D01*
X89691500Y-94169500D01*
X89651500Y-94157500D01*
X89611500Y-94143500D01*
X89573500Y-94127500D01*
X89535500Y-94109500D01*
X89498500Y-94089500D01*
X89462500Y-94067500D01*
X89428500Y-94043500D01*
X89395500Y-94018500D01*
X89363500Y-93991500D01*
X89332500Y-93962500D01*
X89303500Y-93931500D01*
X89276500Y-93899500D01*
X89251500Y-93866500D01*
X89227500Y-93832500D01*
X89205500Y-93796500D01*
X89185500Y-93759500D01*
X89167500Y-93721500D01*
X89151500Y-93683500D01*
X89137500Y-93643500D01*
X89125500Y-93603500D01*
X89115500Y-93562500D01*
X89108500Y-93521500D01*
X89102500Y-93480500D01*
X89099500Y-93438500D01*
X89098500Y-93396500D01*
X89098500Y-90996500D01*
X90698500Y-90996500D01*
X90698500Y-93396500D01*
G37*
X90698500Y-93396500D02*
X90697500Y-93438500D01*
X90694500Y-93480500D01*
X90688500Y-93521500D01*
X90681500Y-93562500D01*
X90671500Y-93603500D01*
X90659500Y-93643500D01*
X90645500Y-93683500D01*
X90629500Y-93721500D01*
X90611500Y-93759500D01*
X90591500Y-93796500D01*
X90569500Y-93832500D01*
X90545500Y-93866500D01*
X90520500Y-93899500D01*
X90493500Y-93931500D01*
X90464500Y-93962500D01*
X90433500Y-93991500D01*
X90401500Y-94018500D01*
X90368500Y-94043500D01*
X90334500Y-94067500D01*
X90298500Y-94089500D01*
X90261500Y-94109500D01*
X90223500Y-94127500D01*
X90185500Y-94143500D01*
X90145500Y-94157500D01*
X90105500Y-94169500D01*
X90064500Y-94179500D01*
X90023500Y-94186500D01*
X89982500Y-94192500D01*
X89940500Y-94195500D01*
X89898500Y-94196500D01*
X89856500Y-94195500D01*
X89814500Y-94192500D01*
X89773500Y-94186500D01*
X89732500Y-94179500D01*
X89691500Y-94169500D01*
X89651500Y-94157500D01*
X89611500Y-94143500D01*
X89573500Y-94127500D01*
X89535500Y-94109500D01*
X89498500Y-94089500D01*
X89462500Y-94067500D01*
X89428500Y-94043500D01*
X89395500Y-94018500D01*
X89363500Y-93991500D01*
X89332500Y-93962500D01*
X89303500Y-93931500D01*
X89276500Y-93899500D01*
X89251500Y-93866500D01*
X89227500Y-93832500D01*
X89205500Y-93796500D01*
X89185500Y-93759500D01*
X89167500Y-93721500D01*
X89151500Y-93683500D01*
X89137500Y-93643500D01*
X89125500Y-93603500D01*
X89115500Y-93562500D01*
X89108500Y-93521500D01*
X89102500Y-93480500D01*
X89099500Y-93438500D01*
X89098500Y-93396500D01*
X89098500Y-90996500D01*
X90698500Y-90996500D01*
X90698500Y-93396500D01*
G36*
X87400500Y-110377500D02*
G01*
X87442500Y-110380500D01*
X87483500Y-110386500D01*
X87524500Y-110393500D01*
X87565500Y-110403500D01*
X87605500Y-110415500D01*
X87645500Y-110429500D01*
X87683500Y-110445500D01*
X87721500Y-110463500D01*
X87758500Y-110483500D01*
X87794500Y-110505500D01*
X87828500Y-110529500D01*
X87861500Y-110554500D01*
X87893500Y-110581500D01*
X87924500Y-110610500D01*
X87953500Y-110641500D01*
X87980500Y-110673500D01*
X88005500Y-110706500D01*
X88029500Y-110740500D01*
X88051500Y-110776500D01*
X88071500Y-110813500D01*
X88089500Y-110851500D01*
X88105500Y-110889500D01*
X88119500Y-110929500D01*
X88131500Y-110969500D01*
X88141500Y-111010500D01*
X88148500Y-111051500D01*
X88154500Y-111092500D01*
X88157500Y-111134500D01*
X88158500Y-111176500D01*
X88158500Y-113576500D01*
X86558500Y-113576500D01*
X86558500Y-111176500D01*
X86559500Y-111134500D01*
X86562500Y-111092500D01*
X86568500Y-111051500D01*
X86575500Y-111010500D01*
X86585500Y-110969500D01*
X86597500Y-110929500D01*
X86611500Y-110889500D01*
X86627500Y-110851500D01*
X86645500Y-110813500D01*
X86665500Y-110776500D01*
X86687500Y-110740500D01*
X86711500Y-110706500D01*
X86736500Y-110673500D01*
X86763500Y-110641500D01*
X86792500Y-110610500D01*
X86823500Y-110581500D01*
X86855500Y-110554500D01*
X86888500Y-110529500D01*
X86922500Y-110505500D01*
X86958500Y-110483500D01*
X86995500Y-110463500D01*
X87033500Y-110445500D01*
X87071500Y-110429500D01*
X87111500Y-110415500D01*
X87151500Y-110403500D01*
X87192500Y-110393500D01*
X87233500Y-110386500D01*
X87274500Y-110380500D01*
X87316500Y-110377500D01*
X87358500Y-110376500D01*
X87400500Y-110377500D01*
G37*
X87400500Y-110377500D02*
X87442500Y-110380500D01*
X87483500Y-110386500D01*
X87524500Y-110393500D01*
X87565500Y-110403500D01*
X87605500Y-110415500D01*
X87645500Y-110429500D01*
X87683500Y-110445500D01*
X87721500Y-110463500D01*
X87758500Y-110483500D01*
X87794500Y-110505500D01*
X87828500Y-110529500D01*
X87861500Y-110554500D01*
X87893500Y-110581500D01*
X87924500Y-110610500D01*
X87953500Y-110641500D01*
X87980500Y-110673500D01*
X88005500Y-110706500D01*
X88029500Y-110740500D01*
X88051500Y-110776500D01*
X88071500Y-110813500D01*
X88089500Y-110851500D01*
X88105500Y-110889500D01*
X88119500Y-110929500D01*
X88131500Y-110969500D01*
X88141500Y-111010500D01*
X88148500Y-111051500D01*
X88154500Y-111092500D01*
X88157500Y-111134500D01*
X88158500Y-111176500D01*
X88158500Y-113576500D01*
X86558500Y-113576500D01*
X86558500Y-111176500D01*
X86559500Y-111134500D01*
X86562500Y-111092500D01*
X86568500Y-111051500D01*
X86575500Y-111010500D01*
X86585500Y-110969500D01*
X86597500Y-110929500D01*
X86611500Y-110889500D01*
X86627500Y-110851500D01*
X86645500Y-110813500D01*
X86665500Y-110776500D01*
X86687500Y-110740500D01*
X86711500Y-110706500D01*
X86736500Y-110673500D01*
X86763500Y-110641500D01*
X86792500Y-110610500D01*
X86823500Y-110581500D01*
X86855500Y-110554500D01*
X86888500Y-110529500D01*
X86922500Y-110505500D01*
X86958500Y-110483500D01*
X86995500Y-110463500D01*
X87033500Y-110445500D01*
X87071500Y-110429500D01*
X87111500Y-110415500D01*
X87151500Y-110403500D01*
X87192500Y-110393500D01*
X87233500Y-110386500D01*
X87274500Y-110380500D01*
X87316500Y-110377500D01*
X87358500Y-110376500D01*
X87400500Y-110377500D01*
G36*
X100858500Y-93396500D02*
G01*
X100857500Y-93438500D01*
X100854500Y-93480500D01*
X100848500Y-93521500D01*
X100841500Y-93562500D01*
X100831500Y-93603500D01*
X100819500Y-93643500D01*
X100805500Y-93683500D01*
X100789500Y-93721500D01*
X100771500Y-93759500D01*
X100751500Y-93796500D01*
X100729500Y-93832500D01*
X100705500Y-93866500D01*
X100680500Y-93899500D01*
X100653500Y-93931500D01*
X100624500Y-93962500D01*
X100593500Y-93991500D01*
X100561500Y-94018500D01*
X100528500Y-94043500D01*
X100494500Y-94067500D01*
X100458500Y-94089500D01*
X100421500Y-94109500D01*
X100383500Y-94127500D01*
X100345500Y-94143500D01*
X100305500Y-94157500D01*
X100265500Y-94169500D01*
X100224500Y-94179500D01*
X100183500Y-94186500D01*
X100142500Y-94192500D01*
X100100500Y-94195500D01*
X100058500Y-94196500D01*
X100016500Y-94195500D01*
X99974500Y-94192500D01*
X99933500Y-94186500D01*
X99892500Y-94179500D01*
X99851500Y-94169500D01*
X99811500Y-94157500D01*
X99771500Y-94143500D01*
X99733500Y-94127500D01*
X99695500Y-94109500D01*
X99658500Y-94089500D01*
X99622500Y-94067500D01*
X99588500Y-94043500D01*
X99555500Y-94018500D01*
X99523500Y-93991500D01*
X99492500Y-93962500D01*
X99463500Y-93931500D01*
X99436500Y-93899500D01*
X99411500Y-93866500D01*
X99387500Y-93832500D01*
X99365500Y-93796500D01*
X99345500Y-93759500D01*
X99327500Y-93721500D01*
X99311500Y-93683500D01*
X99297500Y-93643500D01*
X99285500Y-93603500D01*
X99275500Y-93562500D01*
X99268500Y-93521500D01*
X99262500Y-93480500D01*
X99259500Y-93438500D01*
X99258500Y-93396500D01*
X99258500Y-90996500D01*
X100858500Y-90996500D01*
X100858500Y-93396500D01*
G37*
X100858500Y-93396500D02*
X100857500Y-93438500D01*
X100854500Y-93480500D01*
X100848500Y-93521500D01*
X100841500Y-93562500D01*
X100831500Y-93603500D01*
X100819500Y-93643500D01*
X100805500Y-93683500D01*
X100789500Y-93721500D01*
X100771500Y-93759500D01*
X100751500Y-93796500D01*
X100729500Y-93832500D01*
X100705500Y-93866500D01*
X100680500Y-93899500D01*
X100653500Y-93931500D01*
X100624500Y-93962500D01*
X100593500Y-93991500D01*
X100561500Y-94018500D01*
X100528500Y-94043500D01*
X100494500Y-94067500D01*
X100458500Y-94089500D01*
X100421500Y-94109500D01*
X100383500Y-94127500D01*
X100345500Y-94143500D01*
X100305500Y-94157500D01*
X100265500Y-94169500D01*
X100224500Y-94179500D01*
X100183500Y-94186500D01*
X100142500Y-94192500D01*
X100100500Y-94195500D01*
X100058500Y-94196500D01*
X100016500Y-94195500D01*
X99974500Y-94192500D01*
X99933500Y-94186500D01*
X99892500Y-94179500D01*
X99851500Y-94169500D01*
X99811500Y-94157500D01*
X99771500Y-94143500D01*
X99733500Y-94127500D01*
X99695500Y-94109500D01*
X99658500Y-94089500D01*
X99622500Y-94067500D01*
X99588500Y-94043500D01*
X99555500Y-94018500D01*
X99523500Y-93991500D01*
X99492500Y-93962500D01*
X99463500Y-93931500D01*
X99436500Y-93899500D01*
X99411500Y-93866500D01*
X99387500Y-93832500D01*
X99365500Y-93796500D01*
X99345500Y-93759500D01*
X99327500Y-93721500D01*
X99311500Y-93683500D01*
X99297500Y-93643500D01*
X99285500Y-93603500D01*
X99275500Y-93562500D01*
X99268500Y-93521500D01*
X99262500Y-93480500D01*
X99259500Y-93438500D01*
X99258500Y-93396500D01*
X99258500Y-90996500D01*
X100858500Y-90996500D01*
X100858500Y-93396500D01*
G36*
X133878500Y-93396500D02*
G01*
X133877500Y-93438500D01*
X133874500Y-93480500D01*
X133868500Y-93521500D01*
X133861500Y-93562500D01*
X133851500Y-93603500D01*
X133839500Y-93643500D01*
X133825500Y-93683500D01*
X133809500Y-93721500D01*
X133791500Y-93759500D01*
X133771500Y-93796500D01*
X133749500Y-93832500D01*
X133725500Y-93866500D01*
X133700500Y-93899500D01*
X133673500Y-93931500D01*
X133644500Y-93962500D01*
X133613500Y-93991500D01*
X133581500Y-94018500D01*
X133548500Y-94043500D01*
X133514500Y-94067500D01*
X133478500Y-94089500D01*
X133441500Y-94109500D01*
X133403500Y-94127500D01*
X133365500Y-94143500D01*
X133325500Y-94157500D01*
X133285500Y-94169500D01*
X133244500Y-94179500D01*
X133203500Y-94186500D01*
X133162500Y-94192500D01*
X133120500Y-94195500D01*
X133078500Y-94196500D01*
X133036500Y-94195500D01*
X132994500Y-94192500D01*
X132953500Y-94186500D01*
X132912500Y-94179500D01*
X132871500Y-94169500D01*
X132831500Y-94157500D01*
X132791500Y-94143500D01*
X132753500Y-94127500D01*
X132715500Y-94109500D01*
X132678500Y-94089500D01*
X132642500Y-94067500D01*
X132608500Y-94043500D01*
X132575500Y-94018500D01*
X132543500Y-93991500D01*
X132512500Y-93962500D01*
X132483500Y-93931500D01*
X132456500Y-93899500D01*
X132431500Y-93866500D01*
X132407500Y-93832500D01*
X132385500Y-93796500D01*
X132365500Y-93759500D01*
X132347500Y-93721500D01*
X132331500Y-93683500D01*
X132317500Y-93643500D01*
X132305500Y-93603500D01*
X132295500Y-93562500D01*
X132288500Y-93521500D01*
X132282500Y-93480500D01*
X132279500Y-93438500D01*
X132278500Y-93396500D01*
X132278500Y-90996500D01*
X133878500Y-90996500D01*
X133878500Y-93396500D01*
G37*
X133878500Y-93396500D02*
X133877500Y-93438500D01*
X133874500Y-93480500D01*
X133868500Y-93521500D01*
X133861500Y-93562500D01*
X133851500Y-93603500D01*
X133839500Y-93643500D01*
X133825500Y-93683500D01*
X133809500Y-93721500D01*
X133791500Y-93759500D01*
X133771500Y-93796500D01*
X133749500Y-93832500D01*
X133725500Y-93866500D01*
X133700500Y-93899500D01*
X133673500Y-93931500D01*
X133644500Y-93962500D01*
X133613500Y-93991500D01*
X133581500Y-94018500D01*
X133548500Y-94043500D01*
X133514500Y-94067500D01*
X133478500Y-94089500D01*
X133441500Y-94109500D01*
X133403500Y-94127500D01*
X133365500Y-94143500D01*
X133325500Y-94157500D01*
X133285500Y-94169500D01*
X133244500Y-94179500D01*
X133203500Y-94186500D01*
X133162500Y-94192500D01*
X133120500Y-94195500D01*
X133078500Y-94196500D01*
X133036500Y-94195500D01*
X132994500Y-94192500D01*
X132953500Y-94186500D01*
X132912500Y-94179500D01*
X132871500Y-94169500D01*
X132831500Y-94157500D01*
X132791500Y-94143500D01*
X132753500Y-94127500D01*
X132715500Y-94109500D01*
X132678500Y-94089500D01*
X132642500Y-94067500D01*
X132608500Y-94043500D01*
X132575500Y-94018500D01*
X132543500Y-93991500D01*
X132512500Y-93962500D01*
X132483500Y-93931500D01*
X132456500Y-93899500D01*
X132431500Y-93866500D01*
X132407500Y-93832500D01*
X132385500Y-93796500D01*
X132365500Y-93759500D01*
X132347500Y-93721500D01*
X132331500Y-93683500D01*
X132317500Y-93643500D01*
X132305500Y-93603500D01*
X132295500Y-93562500D01*
X132288500Y-93521500D01*
X132282500Y-93480500D01*
X132279500Y-93438500D01*
X132278500Y-93396500D01*
X132278500Y-90996500D01*
X133878500Y-90996500D01*
X133878500Y-93396500D01*
G36*
X136418500Y-93396500D02*
G01*
X136417500Y-93438500D01*
X136414500Y-93480500D01*
X136408500Y-93521500D01*
X136401500Y-93562500D01*
X136391500Y-93603500D01*
X136379500Y-93643500D01*
X136365500Y-93683500D01*
X136349500Y-93721500D01*
X136331500Y-93759500D01*
X136311500Y-93796500D01*
X136289500Y-93832500D01*
X136265500Y-93866500D01*
X136240500Y-93899500D01*
X136213500Y-93931500D01*
X136184500Y-93962500D01*
X136153500Y-93991500D01*
X136121500Y-94018500D01*
X136088500Y-94043500D01*
X136054500Y-94067500D01*
X136018500Y-94089500D01*
X135981500Y-94109500D01*
X135943500Y-94127500D01*
X135905500Y-94143500D01*
X135865500Y-94157500D01*
X135825500Y-94169500D01*
X135784500Y-94179500D01*
X135743500Y-94186500D01*
X135702500Y-94192500D01*
X135660500Y-94195500D01*
X135618500Y-94196500D01*
X135576500Y-94195500D01*
X135534500Y-94192500D01*
X135493500Y-94186500D01*
X135452500Y-94179500D01*
X135411500Y-94169500D01*
X135371500Y-94157500D01*
X135331500Y-94143500D01*
X135293500Y-94127500D01*
X135255500Y-94109500D01*
X135218500Y-94089500D01*
X135182500Y-94067500D01*
X135148500Y-94043500D01*
X135115500Y-94018500D01*
X135083500Y-93991500D01*
X135052500Y-93962500D01*
X135023500Y-93931500D01*
X134996500Y-93899500D01*
X134971500Y-93866500D01*
X134947500Y-93832500D01*
X134925500Y-93796500D01*
X134905500Y-93759500D01*
X134887500Y-93721500D01*
X134871500Y-93683500D01*
X134857500Y-93643500D01*
X134845500Y-93603500D01*
X134835500Y-93562500D01*
X134828500Y-93521500D01*
X134822500Y-93480500D01*
X134819500Y-93438500D01*
X134818500Y-93396500D01*
X134818500Y-90996500D01*
X136418500Y-90996500D01*
X136418500Y-93396500D01*
G37*
X136418500Y-93396500D02*
X136417500Y-93438500D01*
X136414500Y-93480500D01*
X136408500Y-93521500D01*
X136401500Y-93562500D01*
X136391500Y-93603500D01*
X136379500Y-93643500D01*
X136365500Y-93683500D01*
X136349500Y-93721500D01*
X136331500Y-93759500D01*
X136311500Y-93796500D01*
X136289500Y-93832500D01*
X136265500Y-93866500D01*
X136240500Y-93899500D01*
X136213500Y-93931500D01*
X136184500Y-93962500D01*
X136153500Y-93991500D01*
X136121500Y-94018500D01*
X136088500Y-94043500D01*
X136054500Y-94067500D01*
X136018500Y-94089500D01*
X135981500Y-94109500D01*
X135943500Y-94127500D01*
X135905500Y-94143500D01*
X135865500Y-94157500D01*
X135825500Y-94169500D01*
X135784500Y-94179500D01*
X135743500Y-94186500D01*
X135702500Y-94192500D01*
X135660500Y-94195500D01*
X135618500Y-94196500D01*
X135576500Y-94195500D01*
X135534500Y-94192500D01*
X135493500Y-94186500D01*
X135452500Y-94179500D01*
X135411500Y-94169500D01*
X135371500Y-94157500D01*
X135331500Y-94143500D01*
X135293500Y-94127500D01*
X135255500Y-94109500D01*
X135218500Y-94089500D01*
X135182500Y-94067500D01*
X135148500Y-94043500D01*
X135115500Y-94018500D01*
X135083500Y-93991500D01*
X135052500Y-93962500D01*
X135023500Y-93931500D01*
X134996500Y-93899500D01*
X134971500Y-93866500D01*
X134947500Y-93832500D01*
X134925500Y-93796500D01*
X134905500Y-93759500D01*
X134887500Y-93721500D01*
X134871500Y-93683500D01*
X134857500Y-93643500D01*
X134845500Y-93603500D01*
X134835500Y-93562500D01*
X134828500Y-93521500D01*
X134822500Y-93480500D01*
X134819500Y-93438500D01*
X134818500Y-93396500D01*
X134818500Y-90996500D01*
X136418500Y-90996500D01*
X136418500Y-93396500D01*
G36*
X131338500Y-94006500D02*
G01*
X131337500Y-94017500D01*
X131336500Y-94027500D01*
X131334500Y-94038500D01*
X131325500Y-94068500D01*
X131321500Y-94077500D01*
X131316500Y-94087500D01*
X131306500Y-94105500D01*
X131300500Y-94114500D01*
X131293500Y-94122500D01*
X131287500Y-94130500D01*
X131279500Y-94137500D01*
X131272500Y-94145500D01*
X131264500Y-94151500D01*
X131256500Y-94158500D01*
X131247500Y-94164500D01*
X131229500Y-94174500D01*
X131219500Y-94179500D01*
X131210500Y-94183500D01*
X131180500Y-94192500D01*
X131169500Y-94194500D01*
X131159500Y-94195500D01*
X131148500Y-94196500D01*
X129928500Y-94196500D01*
X129917500Y-94195500D01*
X129907500Y-94194500D01*
X129896500Y-94192500D01*
X129866500Y-94183500D01*
X129857500Y-94179500D01*
X129847500Y-94174500D01*
X129829500Y-94164500D01*
X129820500Y-94158500D01*
X129812500Y-94151500D01*
X129804500Y-94145500D01*
X129797500Y-94137500D01*
X129789500Y-94130500D01*
X129783500Y-94122500D01*
X129776500Y-94114500D01*
X129770500Y-94105500D01*
X129760500Y-94087500D01*
X129755500Y-94077500D01*
X129751500Y-94068500D01*
X129742500Y-94038500D01*
X129740500Y-94027500D01*
X129739500Y-94017500D01*
X129738500Y-94006500D01*
X129738500Y-90996500D01*
X131338500Y-90996500D01*
X131338500Y-94006500D01*
G37*
X131338500Y-94006500D02*
X131337500Y-94017500D01*
X131336500Y-94027500D01*
X131334500Y-94038500D01*
X131325500Y-94068500D01*
X131321500Y-94077500D01*
X131316500Y-94087500D01*
X131306500Y-94105500D01*
X131300500Y-94114500D01*
X131293500Y-94122500D01*
X131287500Y-94130500D01*
X131279500Y-94137500D01*
X131272500Y-94145500D01*
X131264500Y-94151500D01*
X131256500Y-94158500D01*
X131247500Y-94164500D01*
X131229500Y-94174500D01*
X131219500Y-94179500D01*
X131210500Y-94183500D01*
X131180500Y-94192500D01*
X131169500Y-94194500D01*
X131159500Y-94195500D01*
X131148500Y-94196500D01*
X129928500Y-94196500D01*
X129917500Y-94195500D01*
X129907500Y-94194500D01*
X129896500Y-94192500D01*
X129866500Y-94183500D01*
X129857500Y-94179500D01*
X129847500Y-94174500D01*
X129829500Y-94164500D01*
X129820500Y-94158500D01*
X129812500Y-94151500D01*
X129804500Y-94145500D01*
X129797500Y-94137500D01*
X129789500Y-94130500D01*
X129783500Y-94122500D01*
X129776500Y-94114500D01*
X129770500Y-94105500D01*
X129760500Y-94087500D01*
X129755500Y-94077500D01*
X129751500Y-94068500D01*
X129742500Y-94038500D01*
X129740500Y-94027500D01*
X129739500Y-94017500D01*
X129738500Y-94006500D01*
X129738500Y-90996500D01*
X131338500Y-90996500D01*
X131338500Y-94006500D01*
G36*
X103398500Y-93396500D02*
G01*
X103397500Y-93438500D01*
X103394500Y-93480500D01*
X103388500Y-93521500D01*
X103381500Y-93562500D01*
X103371500Y-93603500D01*
X103359500Y-93643500D01*
X103345500Y-93683500D01*
X103329500Y-93721500D01*
X103311500Y-93759500D01*
X103291500Y-93796500D01*
X103269500Y-93832500D01*
X103245500Y-93866500D01*
X103220500Y-93899500D01*
X103193500Y-93931500D01*
X103164500Y-93962500D01*
X103133500Y-93991500D01*
X103101500Y-94018500D01*
X103068500Y-94043500D01*
X103034500Y-94067500D01*
X102998500Y-94089500D01*
X102961500Y-94109500D01*
X102923500Y-94127500D01*
X102885500Y-94143500D01*
X102845500Y-94157500D01*
X102805500Y-94169500D01*
X102764500Y-94179500D01*
X102723500Y-94186500D01*
X102682500Y-94192500D01*
X102640500Y-94195500D01*
X102598500Y-94196500D01*
X102556500Y-94195500D01*
X102514500Y-94192500D01*
X102473500Y-94186500D01*
X102432500Y-94179500D01*
X102391500Y-94169500D01*
X102351500Y-94157500D01*
X102311500Y-94143500D01*
X102273500Y-94127500D01*
X102235500Y-94109500D01*
X102198500Y-94089500D01*
X102162500Y-94067500D01*
X102128500Y-94043500D01*
X102095500Y-94018500D01*
X102063500Y-93991500D01*
X102032500Y-93962500D01*
X102003500Y-93931500D01*
X101976500Y-93899500D01*
X101951500Y-93866500D01*
X101927500Y-93832500D01*
X101905500Y-93796500D01*
X101885500Y-93759500D01*
X101867500Y-93721500D01*
X101851500Y-93683500D01*
X101837500Y-93643500D01*
X101825500Y-93603500D01*
X101815500Y-93562500D01*
X101808500Y-93521500D01*
X101802500Y-93480500D01*
X101799500Y-93438500D01*
X101798500Y-93396500D01*
X101798500Y-90996500D01*
X103398500Y-90996500D01*
X103398500Y-93396500D01*
G37*
X103398500Y-93396500D02*
X103397500Y-93438500D01*
X103394500Y-93480500D01*
X103388500Y-93521500D01*
X103381500Y-93562500D01*
X103371500Y-93603500D01*
X103359500Y-93643500D01*
X103345500Y-93683500D01*
X103329500Y-93721500D01*
X103311500Y-93759500D01*
X103291500Y-93796500D01*
X103269500Y-93832500D01*
X103245500Y-93866500D01*
X103220500Y-93899500D01*
X103193500Y-93931500D01*
X103164500Y-93962500D01*
X103133500Y-93991500D01*
X103101500Y-94018500D01*
X103068500Y-94043500D01*
X103034500Y-94067500D01*
X102998500Y-94089500D01*
X102961500Y-94109500D01*
X102923500Y-94127500D01*
X102885500Y-94143500D01*
X102845500Y-94157500D01*
X102805500Y-94169500D01*
X102764500Y-94179500D01*
X102723500Y-94186500D01*
X102682500Y-94192500D01*
X102640500Y-94195500D01*
X102598500Y-94196500D01*
X102556500Y-94195500D01*
X102514500Y-94192500D01*
X102473500Y-94186500D01*
X102432500Y-94179500D01*
X102391500Y-94169500D01*
X102351500Y-94157500D01*
X102311500Y-94143500D01*
X102273500Y-94127500D01*
X102235500Y-94109500D01*
X102198500Y-94089500D01*
X102162500Y-94067500D01*
X102128500Y-94043500D01*
X102095500Y-94018500D01*
X102063500Y-93991500D01*
X102032500Y-93962500D01*
X102003500Y-93931500D01*
X101976500Y-93899500D01*
X101951500Y-93866500D01*
X101927500Y-93832500D01*
X101905500Y-93796500D01*
X101885500Y-93759500D01*
X101867500Y-93721500D01*
X101851500Y-93683500D01*
X101837500Y-93643500D01*
X101825500Y-93603500D01*
X101815500Y-93562500D01*
X101808500Y-93521500D01*
X101802500Y-93480500D01*
X101799500Y-93438500D01*
X101798500Y-93396500D01*
X101798500Y-90996500D01*
X103398500Y-90996500D01*
X103398500Y-93396500D01*
G36*
X107720500Y-110377500D02*
G01*
X107762500Y-110380500D01*
X107803500Y-110386500D01*
X107844500Y-110393500D01*
X107885500Y-110403500D01*
X107925500Y-110415500D01*
X107965500Y-110429500D01*
X108003500Y-110445500D01*
X108041500Y-110463500D01*
X108078500Y-110483500D01*
X108114500Y-110505500D01*
X108148500Y-110529500D01*
X108181500Y-110554500D01*
X108213500Y-110581500D01*
X108244500Y-110610500D01*
X108273500Y-110641500D01*
X108300500Y-110673500D01*
X108325500Y-110706500D01*
X108349500Y-110740500D01*
X108371500Y-110776500D01*
X108391500Y-110813500D01*
X108409500Y-110851500D01*
X108425500Y-110889500D01*
X108439500Y-110929500D01*
X108451500Y-110969500D01*
X108461500Y-111010500D01*
X108468500Y-111051500D01*
X108474500Y-111092500D01*
X108477500Y-111134500D01*
X108478500Y-111176500D01*
X108478500Y-113576500D01*
X106878500Y-113576500D01*
X106878500Y-111176500D01*
X106879500Y-111134500D01*
X106882500Y-111092500D01*
X106888500Y-111051500D01*
X106895500Y-111010500D01*
X106905500Y-110969500D01*
X106917500Y-110929500D01*
X106931500Y-110889500D01*
X106947500Y-110851500D01*
X106965500Y-110813500D01*
X106985500Y-110776500D01*
X107007500Y-110740500D01*
X107031500Y-110706500D01*
X107056500Y-110673500D01*
X107083500Y-110641500D01*
X107112500Y-110610500D01*
X107143500Y-110581500D01*
X107175500Y-110554500D01*
X107208500Y-110529500D01*
X107242500Y-110505500D01*
X107278500Y-110483500D01*
X107315500Y-110463500D01*
X107353500Y-110445500D01*
X107391500Y-110429500D01*
X107431500Y-110415500D01*
X107471500Y-110403500D01*
X107512500Y-110393500D01*
X107553500Y-110386500D01*
X107594500Y-110380500D01*
X107636500Y-110377500D01*
X107678500Y-110376500D01*
X107720500Y-110377500D01*
G37*
X107720500Y-110377500D02*
X107762500Y-110380500D01*
X107803500Y-110386500D01*
X107844500Y-110393500D01*
X107885500Y-110403500D01*
X107925500Y-110415500D01*
X107965500Y-110429500D01*
X108003500Y-110445500D01*
X108041500Y-110463500D01*
X108078500Y-110483500D01*
X108114500Y-110505500D01*
X108148500Y-110529500D01*
X108181500Y-110554500D01*
X108213500Y-110581500D01*
X108244500Y-110610500D01*
X108273500Y-110641500D01*
X108300500Y-110673500D01*
X108325500Y-110706500D01*
X108349500Y-110740500D01*
X108371500Y-110776500D01*
X108391500Y-110813500D01*
X108409500Y-110851500D01*
X108425500Y-110889500D01*
X108439500Y-110929500D01*
X108451500Y-110969500D01*
X108461500Y-111010500D01*
X108468500Y-111051500D01*
X108474500Y-111092500D01*
X108477500Y-111134500D01*
X108478500Y-111176500D01*
X108478500Y-113576500D01*
X106878500Y-113576500D01*
X106878500Y-111176500D01*
X106879500Y-111134500D01*
X106882500Y-111092500D01*
X106888500Y-111051500D01*
X106895500Y-111010500D01*
X106905500Y-110969500D01*
X106917500Y-110929500D01*
X106931500Y-110889500D01*
X106947500Y-110851500D01*
X106965500Y-110813500D01*
X106985500Y-110776500D01*
X107007500Y-110740500D01*
X107031500Y-110706500D01*
X107056500Y-110673500D01*
X107083500Y-110641500D01*
X107112500Y-110610500D01*
X107143500Y-110581500D01*
X107175500Y-110554500D01*
X107208500Y-110529500D01*
X107242500Y-110505500D01*
X107278500Y-110483500D01*
X107315500Y-110463500D01*
X107353500Y-110445500D01*
X107391500Y-110429500D01*
X107431500Y-110415500D01*
X107471500Y-110403500D01*
X107512500Y-110393500D01*
X107553500Y-110386500D01*
X107594500Y-110380500D01*
X107636500Y-110377500D01*
X107678500Y-110376500D01*
X107720500Y-110377500D01*
G36*
X131159500Y-110377500D02*
G01*
X131169500Y-110378500D01*
X131180500Y-110380500D01*
X131210500Y-110389500D01*
X131219500Y-110393500D01*
X131229500Y-110398500D01*
X131247500Y-110408500D01*
X131256500Y-110414500D01*
X131264500Y-110421500D01*
X131272500Y-110427500D01*
X131279500Y-110435500D01*
X131287500Y-110442500D01*
X131293500Y-110450500D01*
X131300500Y-110458500D01*
X131306500Y-110467500D01*
X131316500Y-110485500D01*
X131321500Y-110495500D01*
X131325500Y-110504500D01*
X131334500Y-110534500D01*
X131336500Y-110545500D01*
X131337500Y-110555500D01*
X131338500Y-110566500D01*
X131338500Y-113576500D01*
X129738500Y-113576500D01*
X129738500Y-110566500D01*
X129739500Y-110555500D01*
X129740500Y-110545500D01*
X129742500Y-110534500D01*
X129751500Y-110504500D01*
X129755500Y-110495500D01*
X129760500Y-110485500D01*
X129770500Y-110467500D01*
X129776500Y-110458500D01*
X129783500Y-110450500D01*
X129789500Y-110442500D01*
X129797500Y-110435500D01*
X129804500Y-110427500D01*
X129812500Y-110421500D01*
X129820500Y-110414500D01*
X129829500Y-110408500D01*
X129847500Y-110398500D01*
X129857500Y-110393500D01*
X129866500Y-110389500D01*
X129896500Y-110380500D01*
X129907500Y-110378500D01*
X129917500Y-110377500D01*
X129928500Y-110376500D01*
X131148500Y-110376500D01*
X131159500Y-110377500D01*
G37*
X131159500Y-110377500D02*
X131169500Y-110378500D01*
X131180500Y-110380500D01*
X131210500Y-110389500D01*
X131219500Y-110393500D01*
X131229500Y-110398500D01*
X131247500Y-110408500D01*
X131256500Y-110414500D01*
X131264500Y-110421500D01*
X131272500Y-110427500D01*
X131279500Y-110435500D01*
X131287500Y-110442500D01*
X131293500Y-110450500D01*
X131300500Y-110458500D01*
X131306500Y-110467500D01*
X131316500Y-110485500D01*
X131321500Y-110495500D01*
X131325500Y-110504500D01*
X131334500Y-110534500D01*
X131336500Y-110545500D01*
X131337500Y-110555500D01*
X131338500Y-110566500D01*
X131338500Y-113576500D01*
X129738500Y-113576500D01*
X129738500Y-110566500D01*
X129739500Y-110555500D01*
X129740500Y-110545500D01*
X129742500Y-110534500D01*
X129751500Y-110504500D01*
X129755500Y-110495500D01*
X129760500Y-110485500D01*
X129770500Y-110467500D01*
X129776500Y-110458500D01*
X129783500Y-110450500D01*
X129789500Y-110442500D01*
X129797500Y-110435500D01*
X129804500Y-110427500D01*
X129812500Y-110421500D01*
X129820500Y-110414500D01*
X129829500Y-110408500D01*
X129847500Y-110398500D01*
X129857500Y-110393500D01*
X129866500Y-110389500D01*
X129896500Y-110380500D01*
X129907500Y-110378500D01*
X129917500Y-110377500D01*
X129928500Y-110376500D01*
X131148500Y-110376500D01*
X131159500Y-110377500D01*
G36*
X126258500Y-93396500D02*
G01*
X126257500Y-93438500D01*
X126254500Y-93480500D01*
X126248500Y-93521500D01*
X126241500Y-93562500D01*
X126231500Y-93603500D01*
X126219500Y-93643500D01*
X126205500Y-93683500D01*
X126189500Y-93721500D01*
X126171500Y-93759500D01*
X126151500Y-93796500D01*
X126129500Y-93832500D01*
X126105500Y-93866500D01*
X126080500Y-93899500D01*
X126053500Y-93931500D01*
X126024500Y-93962500D01*
X125993500Y-93991500D01*
X125961500Y-94018500D01*
X125928500Y-94043500D01*
X125894500Y-94067500D01*
X125858500Y-94089500D01*
X125821500Y-94109500D01*
X125783500Y-94127500D01*
X125745500Y-94143500D01*
X125705500Y-94157500D01*
X125665500Y-94169500D01*
X125624500Y-94179500D01*
X125583500Y-94186500D01*
X125542500Y-94192500D01*
X125500500Y-94195500D01*
X125458500Y-94196500D01*
X125416500Y-94195500D01*
X125374500Y-94192500D01*
X125333500Y-94186500D01*
X125292500Y-94179500D01*
X125251500Y-94169500D01*
X125211500Y-94157500D01*
X125171500Y-94143500D01*
X125133500Y-94127500D01*
X125095500Y-94109500D01*
X125058500Y-94089500D01*
X125022500Y-94067500D01*
X124988500Y-94043500D01*
X124955500Y-94018500D01*
X124923500Y-93991500D01*
X124892500Y-93962500D01*
X124863500Y-93931500D01*
X124836500Y-93899500D01*
X124811500Y-93866500D01*
X124787500Y-93832500D01*
X124765500Y-93796500D01*
X124745500Y-93759500D01*
X124727500Y-93721500D01*
X124711500Y-93683500D01*
X124697500Y-93643500D01*
X124685500Y-93603500D01*
X124675500Y-93562500D01*
X124668500Y-93521500D01*
X124662500Y-93480500D01*
X124659500Y-93438500D01*
X124658500Y-93396500D01*
X124658500Y-90996500D01*
X126258500Y-90996500D01*
X126258500Y-93396500D01*
G37*
X126258500Y-93396500D02*
X126257500Y-93438500D01*
X126254500Y-93480500D01*
X126248500Y-93521500D01*
X126241500Y-93562500D01*
X126231500Y-93603500D01*
X126219500Y-93643500D01*
X126205500Y-93683500D01*
X126189500Y-93721500D01*
X126171500Y-93759500D01*
X126151500Y-93796500D01*
X126129500Y-93832500D01*
X126105500Y-93866500D01*
X126080500Y-93899500D01*
X126053500Y-93931500D01*
X126024500Y-93962500D01*
X125993500Y-93991500D01*
X125961500Y-94018500D01*
X125928500Y-94043500D01*
X125894500Y-94067500D01*
X125858500Y-94089500D01*
X125821500Y-94109500D01*
X125783500Y-94127500D01*
X125745500Y-94143500D01*
X125705500Y-94157500D01*
X125665500Y-94169500D01*
X125624500Y-94179500D01*
X125583500Y-94186500D01*
X125542500Y-94192500D01*
X125500500Y-94195500D01*
X125458500Y-94196500D01*
X125416500Y-94195500D01*
X125374500Y-94192500D01*
X125333500Y-94186500D01*
X125292500Y-94179500D01*
X125251500Y-94169500D01*
X125211500Y-94157500D01*
X125171500Y-94143500D01*
X125133500Y-94127500D01*
X125095500Y-94109500D01*
X125058500Y-94089500D01*
X125022500Y-94067500D01*
X124988500Y-94043500D01*
X124955500Y-94018500D01*
X124923500Y-93991500D01*
X124892500Y-93962500D01*
X124863500Y-93931500D01*
X124836500Y-93899500D01*
X124811500Y-93866500D01*
X124787500Y-93832500D01*
X124765500Y-93796500D01*
X124745500Y-93759500D01*
X124727500Y-93721500D01*
X124711500Y-93683500D01*
X124697500Y-93643500D01*
X124685500Y-93603500D01*
X124675500Y-93562500D01*
X124668500Y-93521500D01*
X124662500Y-93480500D01*
X124659500Y-93438500D01*
X124658500Y-93396500D01*
X124658500Y-90996500D01*
X126258500Y-90996500D01*
X126258500Y-93396500D01*
G36*
X97560500Y-110377500D02*
G01*
X97602500Y-110380500D01*
X97643500Y-110386500D01*
X97684500Y-110393500D01*
X97725500Y-110403500D01*
X97765500Y-110415500D01*
X97805500Y-110429500D01*
X97843500Y-110445500D01*
X97881500Y-110463500D01*
X97918500Y-110483500D01*
X97954500Y-110505500D01*
X97988500Y-110529500D01*
X98021500Y-110554500D01*
X98053500Y-110581500D01*
X98084500Y-110610500D01*
X98113500Y-110641500D01*
X98140500Y-110673500D01*
X98165500Y-110706500D01*
X98189500Y-110740500D01*
X98211500Y-110776500D01*
X98231500Y-110813500D01*
X98249500Y-110851500D01*
X98265500Y-110889500D01*
X98279500Y-110929500D01*
X98291500Y-110969500D01*
X98301500Y-111010500D01*
X98308500Y-111051500D01*
X98314500Y-111092500D01*
X98317500Y-111134500D01*
X98318500Y-111176500D01*
X98318500Y-113576500D01*
X96718500Y-113576500D01*
X96718500Y-111176500D01*
X96719500Y-111134500D01*
X96722500Y-111092500D01*
X96728500Y-111051500D01*
X96735500Y-111010500D01*
X96745500Y-110969500D01*
X96757500Y-110929500D01*
X96771500Y-110889500D01*
X96787500Y-110851500D01*
X96805500Y-110813500D01*
X96825500Y-110776500D01*
X96847500Y-110740500D01*
X96871500Y-110706500D01*
X96896500Y-110673500D01*
X96923500Y-110641500D01*
X96952500Y-110610500D01*
X96983500Y-110581500D01*
X97015500Y-110554500D01*
X97048500Y-110529500D01*
X97082500Y-110505500D01*
X97118500Y-110483500D01*
X97155500Y-110463500D01*
X97193500Y-110445500D01*
X97231500Y-110429500D01*
X97271500Y-110415500D01*
X97311500Y-110403500D01*
X97352500Y-110393500D01*
X97393500Y-110386500D01*
X97434500Y-110380500D01*
X97476500Y-110377500D01*
X97518500Y-110376500D01*
X97560500Y-110377500D01*
G37*
X97560500Y-110377500D02*
X97602500Y-110380500D01*
X97643500Y-110386500D01*
X97684500Y-110393500D01*
X97725500Y-110403500D01*
X97765500Y-110415500D01*
X97805500Y-110429500D01*
X97843500Y-110445500D01*
X97881500Y-110463500D01*
X97918500Y-110483500D01*
X97954500Y-110505500D01*
X97988500Y-110529500D01*
X98021500Y-110554500D01*
X98053500Y-110581500D01*
X98084500Y-110610500D01*
X98113500Y-110641500D01*
X98140500Y-110673500D01*
X98165500Y-110706500D01*
X98189500Y-110740500D01*
X98211500Y-110776500D01*
X98231500Y-110813500D01*
X98249500Y-110851500D01*
X98265500Y-110889500D01*
X98279500Y-110929500D01*
X98291500Y-110969500D01*
X98301500Y-111010500D01*
X98308500Y-111051500D01*
X98314500Y-111092500D01*
X98317500Y-111134500D01*
X98318500Y-111176500D01*
X98318500Y-113576500D01*
X96718500Y-113576500D01*
X96718500Y-111176500D01*
X96719500Y-111134500D01*
X96722500Y-111092500D01*
X96728500Y-111051500D01*
X96735500Y-111010500D01*
X96745500Y-110969500D01*
X96757500Y-110929500D01*
X96771500Y-110889500D01*
X96787500Y-110851500D01*
X96805500Y-110813500D01*
X96825500Y-110776500D01*
X96847500Y-110740500D01*
X96871500Y-110706500D01*
X96896500Y-110673500D01*
X96923500Y-110641500D01*
X96952500Y-110610500D01*
X96983500Y-110581500D01*
X97015500Y-110554500D01*
X97048500Y-110529500D01*
X97082500Y-110505500D01*
X97118500Y-110483500D01*
X97155500Y-110463500D01*
X97193500Y-110445500D01*
X97231500Y-110429500D01*
X97271500Y-110415500D01*
X97311500Y-110403500D01*
X97352500Y-110393500D01*
X97393500Y-110386500D01*
X97434500Y-110380500D01*
X97476500Y-110377500D01*
X97518500Y-110376500D01*
X97560500Y-110377500D01*
G36*
X121178500Y-93396500D02*
G01*
X121177500Y-93438500D01*
X121174500Y-93480500D01*
X121168500Y-93521500D01*
X121161500Y-93562500D01*
X121151500Y-93603500D01*
X121139500Y-93643500D01*
X121125500Y-93683500D01*
X121109500Y-93721500D01*
X121091500Y-93759500D01*
X121071500Y-93796500D01*
X121049500Y-93832500D01*
X121025500Y-93866500D01*
X121000500Y-93899500D01*
X120973500Y-93931500D01*
X120944500Y-93962500D01*
X120913500Y-93991500D01*
X120881500Y-94018500D01*
X120848500Y-94043500D01*
X120814500Y-94067500D01*
X120778500Y-94089500D01*
X120741500Y-94109500D01*
X120703500Y-94127500D01*
X120665500Y-94143500D01*
X120625500Y-94157500D01*
X120585500Y-94169500D01*
X120544500Y-94179500D01*
X120503500Y-94186500D01*
X120462500Y-94192500D01*
X120420500Y-94195500D01*
X120378500Y-94196500D01*
X120336500Y-94195500D01*
X120294500Y-94192500D01*
X120253500Y-94186500D01*
X120212500Y-94179500D01*
X120171500Y-94169500D01*
X120131500Y-94157500D01*
X120091500Y-94143500D01*
X120053500Y-94127500D01*
X120015500Y-94109500D01*
X119978500Y-94089500D01*
X119942500Y-94067500D01*
X119908500Y-94043500D01*
X119875500Y-94018500D01*
X119843500Y-93991500D01*
X119812500Y-93962500D01*
X119783500Y-93931500D01*
X119756500Y-93899500D01*
X119731500Y-93866500D01*
X119707500Y-93832500D01*
X119685500Y-93796500D01*
X119665500Y-93759500D01*
X119647500Y-93721500D01*
X119631500Y-93683500D01*
X119617500Y-93643500D01*
X119605500Y-93603500D01*
X119595500Y-93562500D01*
X119588500Y-93521500D01*
X119582500Y-93480500D01*
X119579500Y-93438500D01*
X119578500Y-93396500D01*
X119578500Y-90996500D01*
X121178500Y-90996500D01*
X121178500Y-93396500D01*
G37*
X121178500Y-93396500D02*
X121177500Y-93438500D01*
X121174500Y-93480500D01*
X121168500Y-93521500D01*
X121161500Y-93562500D01*
X121151500Y-93603500D01*
X121139500Y-93643500D01*
X121125500Y-93683500D01*
X121109500Y-93721500D01*
X121091500Y-93759500D01*
X121071500Y-93796500D01*
X121049500Y-93832500D01*
X121025500Y-93866500D01*
X121000500Y-93899500D01*
X120973500Y-93931500D01*
X120944500Y-93962500D01*
X120913500Y-93991500D01*
X120881500Y-94018500D01*
X120848500Y-94043500D01*
X120814500Y-94067500D01*
X120778500Y-94089500D01*
X120741500Y-94109500D01*
X120703500Y-94127500D01*
X120665500Y-94143500D01*
X120625500Y-94157500D01*
X120585500Y-94169500D01*
X120544500Y-94179500D01*
X120503500Y-94186500D01*
X120462500Y-94192500D01*
X120420500Y-94195500D01*
X120378500Y-94196500D01*
X120336500Y-94195500D01*
X120294500Y-94192500D01*
X120253500Y-94186500D01*
X120212500Y-94179500D01*
X120171500Y-94169500D01*
X120131500Y-94157500D01*
X120091500Y-94143500D01*
X120053500Y-94127500D01*
X120015500Y-94109500D01*
X119978500Y-94089500D01*
X119942500Y-94067500D01*
X119908500Y-94043500D01*
X119875500Y-94018500D01*
X119843500Y-93991500D01*
X119812500Y-93962500D01*
X119783500Y-93931500D01*
X119756500Y-93899500D01*
X119731500Y-93866500D01*
X119707500Y-93832500D01*
X119685500Y-93796500D01*
X119665500Y-93759500D01*
X119647500Y-93721500D01*
X119631500Y-93683500D01*
X119617500Y-93643500D01*
X119605500Y-93603500D01*
X119595500Y-93562500D01*
X119588500Y-93521500D01*
X119582500Y-93480500D01*
X119579500Y-93438500D01*
X119578500Y-93396500D01*
X119578500Y-90996500D01*
X121178500Y-90996500D01*
X121178500Y-93396500D01*
G36*
X98318500Y-93396500D02*
G01*
X98317500Y-93438500D01*
X98314500Y-93480500D01*
X98308500Y-93521500D01*
X98301500Y-93562500D01*
X98291500Y-93603500D01*
X98279500Y-93643500D01*
X98265500Y-93683500D01*
X98249500Y-93721500D01*
X98231500Y-93759500D01*
X98211500Y-93796500D01*
X98189500Y-93832500D01*
X98165500Y-93866500D01*
X98140500Y-93899500D01*
X98113500Y-93931500D01*
X98084500Y-93962500D01*
X98053500Y-93991500D01*
X98021500Y-94018500D01*
X97988500Y-94043500D01*
X97954500Y-94067500D01*
X97918500Y-94089500D01*
X97881500Y-94109500D01*
X97843500Y-94127500D01*
X97805500Y-94143500D01*
X97765500Y-94157500D01*
X97725500Y-94169500D01*
X97684500Y-94179500D01*
X97643500Y-94186500D01*
X97602500Y-94192500D01*
X97560500Y-94195500D01*
X97518500Y-94196500D01*
X97476500Y-94195500D01*
X97434500Y-94192500D01*
X97393500Y-94186500D01*
X97352500Y-94179500D01*
X97311500Y-94169500D01*
X97271500Y-94157500D01*
X97231500Y-94143500D01*
X97193500Y-94127500D01*
X97155500Y-94109500D01*
X97118500Y-94089500D01*
X97082500Y-94067500D01*
X97048500Y-94043500D01*
X97015500Y-94018500D01*
X96983500Y-93991500D01*
X96952500Y-93962500D01*
X96923500Y-93931500D01*
X96896500Y-93899500D01*
X96871500Y-93866500D01*
X96847500Y-93832500D01*
X96825500Y-93796500D01*
X96805500Y-93759500D01*
X96787500Y-93721500D01*
X96771500Y-93683500D01*
X96757500Y-93643500D01*
X96745500Y-93603500D01*
X96735500Y-93562500D01*
X96728500Y-93521500D01*
X96722500Y-93480500D01*
X96719500Y-93438500D01*
X96718500Y-93396500D01*
X96718500Y-90996500D01*
X98318500Y-90996500D01*
X98318500Y-93396500D01*
G37*
X98318500Y-93396500D02*
X98317500Y-93438500D01*
X98314500Y-93480500D01*
X98308500Y-93521500D01*
X98301500Y-93562500D01*
X98291500Y-93603500D01*
X98279500Y-93643500D01*
X98265500Y-93683500D01*
X98249500Y-93721500D01*
X98231500Y-93759500D01*
X98211500Y-93796500D01*
X98189500Y-93832500D01*
X98165500Y-93866500D01*
X98140500Y-93899500D01*
X98113500Y-93931500D01*
X98084500Y-93962500D01*
X98053500Y-93991500D01*
X98021500Y-94018500D01*
X97988500Y-94043500D01*
X97954500Y-94067500D01*
X97918500Y-94089500D01*
X97881500Y-94109500D01*
X97843500Y-94127500D01*
X97805500Y-94143500D01*
X97765500Y-94157500D01*
X97725500Y-94169500D01*
X97684500Y-94179500D01*
X97643500Y-94186500D01*
X97602500Y-94192500D01*
X97560500Y-94195500D01*
X97518500Y-94196500D01*
X97476500Y-94195500D01*
X97434500Y-94192500D01*
X97393500Y-94186500D01*
X97352500Y-94179500D01*
X97311500Y-94169500D01*
X97271500Y-94157500D01*
X97231500Y-94143500D01*
X97193500Y-94127500D01*
X97155500Y-94109500D01*
X97118500Y-94089500D01*
X97082500Y-94067500D01*
X97048500Y-94043500D01*
X97015500Y-94018500D01*
X96983500Y-93991500D01*
X96952500Y-93962500D01*
X96923500Y-93931500D01*
X96896500Y-93899500D01*
X96871500Y-93866500D01*
X96847500Y-93832500D01*
X96825500Y-93796500D01*
X96805500Y-93759500D01*
X96787500Y-93721500D01*
X96771500Y-93683500D01*
X96757500Y-93643500D01*
X96745500Y-93603500D01*
X96735500Y-93562500D01*
X96728500Y-93521500D01*
X96722500Y-93480500D01*
X96719500Y-93438500D01*
X96718500Y-93396500D01*
X96718500Y-90996500D01*
X98318500Y-90996500D01*
X98318500Y-93396500D01*
G36*
X133120500Y-110377500D02*
G01*
X133162500Y-110380500D01*
X133203500Y-110386500D01*
X133244500Y-110393500D01*
X133285500Y-110403500D01*
X133325500Y-110415500D01*
X133365500Y-110429500D01*
X133403500Y-110445500D01*
X133441500Y-110463500D01*
X133478500Y-110483500D01*
X133514500Y-110505500D01*
X133548500Y-110529500D01*
X133581500Y-110554500D01*
X133613500Y-110581500D01*
X133644500Y-110610500D01*
X133673500Y-110641500D01*
X133700500Y-110673500D01*
X133725500Y-110706500D01*
X133749500Y-110740500D01*
X133771500Y-110776500D01*
X133791500Y-110813500D01*
X133809500Y-110851500D01*
X133825500Y-110889500D01*
X133839500Y-110929500D01*
X133851500Y-110969500D01*
X133861500Y-111010500D01*
X133868500Y-111051500D01*
X133874500Y-111092500D01*
X133877500Y-111134500D01*
X133878500Y-111176500D01*
X133878500Y-113576500D01*
X132278500Y-113576500D01*
X132278500Y-111176500D01*
X132279500Y-111134500D01*
X132282500Y-111092500D01*
X132288500Y-111051500D01*
X132295500Y-111010500D01*
X132305500Y-110969500D01*
X132317500Y-110929500D01*
X132331500Y-110889500D01*
X132347500Y-110851500D01*
X132365500Y-110813500D01*
X132385500Y-110776500D01*
X132407500Y-110740500D01*
X132431500Y-110706500D01*
X132456500Y-110673500D01*
X132483500Y-110641500D01*
X132512500Y-110610500D01*
X132543500Y-110581500D01*
X132575500Y-110554500D01*
X132608500Y-110529500D01*
X132642500Y-110505500D01*
X132678500Y-110483500D01*
X132715500Y-110463500D01*
X132753500Y-110445500D01*
X132791500Y-110429500D01*
X132831500Y-110415500D01*
X132871500Y-110403500D01*
X132912500Y-110393500D01*
X132953500Y-110386500D01*
X132994500Y-110380500D01*
X133036500Y-110377500D01*
X133078500Y-110376500D01*
X133120500Y-110377500D01*
G37*
X133120500Y-110377500D02*
X133162500Y-110380500D01*
X133203500Y-110386500D01*
X133244500Y-110393500D01*
X133285500Y-110403500D01*
X133325500Y-110415500D01*
X133365500Y-110429500D01*
X133403500Y-110445500D01*
X133441500Y-110463500D01*
X133478500Y-110483500D01*
X133514500Y-110505500D01*
X133548500Y-110529500D01*
X133581500Y-110554500D01*
X133613500Y-110581500D01*
X133644500Y-110610500D01*
X133673500Y-110641500D01*
X133700500Y-110673500D01*
X133725500Y-110706500D01*
X133749500Y-110740500D01*
X133771500Y-110776500D01*
X133791500Y-110813500D01*
X133809500Y-110851500D01*
X133825500Y-110889500D01*
X133839500Y-110929500D01*
X133851500Y-110969500D01*
X133861500Y-111010500D01*
X133868500Y-111051500D01*
X133874500Y-111092500D01*
X133877500Y-111134500D01*
X133878500Y-111176500D01*
X133878500Y-113576500D01*
X132278500Y-113576500D01*
X132278500Y-111176500D01*
X132279500Y-111134500D01*
X132282500Y-111092500D01*
X132288500Y-111051500D01*
X132295500Y-111010500D01*
X132305500Y-110969500D01*
X132317500Y-110929500D01*
X132331500Y-110889500D01*
X132347500Y-110851500D01*
X132365500Y-110813500D01*
X132385500Y-110776500D01*
X132407500Y-110740500D01*
X132431500Y-110706500D01*
X132456500Y-110673500D01*
X132483500Y-110641500D01*
X132512500Y-110610500D01*
X132543500Y-110581500D01*
X132575500Y-110554500D01*
X132608500Y-110529500D01*
X132642500Y-110505500D01*
X132678500Y-110483500D01*
X132715500Y-110463500D01*
X132753500Y-110445500D01*
X132791500Y-110429500D01*
X132831500Y-110415500D01*
X132871500Y-110403500D01*
X132912500Y-110393500D01*
X132953500Y-110386500D01*
X132994500Y-110380500D01*
X133036500Y-110377500D01*
X133078500Y-110376500D01*
X133120500Y-110377500D01*
G36*
X112800500Y-110377500D02*
G01*
X112842500Y-110380500D01*
X112883500Y-110386500D01*
X112924500Y-110393500D01*
X112965500Y-110403500D01*
X113005500Y-110415500D01*
X113045500Y-110429500D01*
X113083500Y-110445500D01*
X113121500Y-110463500D01*
X113158500Y-110483500D01*
X113194500Y-110505500D01*
X113228500Y-110529500D01*
X113261500Y-110554500D01*
X113293500Y-110581500D01*
X113324500Y-110610500D01*
X113353500Y-110641500D01*
X113380500Y-110673500D01*
X113405500Y-110706500D01*
X113429500Y-110740500D01*
X113451500Y-110776500D01*
X113471500Y-110813500D01*
X113489500Y-110851500D01*
X113505500Y-110889500D01*
X113519500Y-110929500D01*
X113531500Y-110969500D01*
X113541500Y-111010500D01*
X113548500Y-111051500D01*
X113554500Y-111092500D01*
X113557500Y-111134500D01*
X113558500Y-111176500D01*
X113558500Y-113576500D01*
X111958500Y-113576500D01*
X111958500Y-111176500D01*
X111959500Y-111134500D01*
X111962500Y-111092500D01*
X111968500Y-111051500D01*
X111975500Y-111010500D01*
X111985500Y-110969500D01*
X111997500Y-110929500D01*
X112011500Y-110889500D01*
X112027500Y-110851500D01*
X112045500Y-110813500D01*
X112065500Y-110776500D01*
X112087500Y-110740500D01*
X112111500Y-110706500D01*
X112136500Y-110673500D01*
X112163500Y-110641500D01*
X112192500Y-110610500D01*
X112223500Y-110581500D01*
X112255500Y-110554500D01*
X112288500Y-110529500D01*
X112322500Y-110505500D01*
X112358500Y-110483500D01*
X112395500Y-110463500D01*
X112433500Y-110445500D01*
X112471500Y-110429500D01*
X112511500Y-110415500D01*
X112551500Y-110403500D01*
X112592500Y-110393500D01*
X112633500Y-110386500D01*
X112674500Y-110380500D01*
X112716500Y-110377500D01*
X112758500Y-110376500D01*
X112800500Y-110377500D01*
G37*
X112800500Y-110377500D02*
X112842500Y-110380500D01*
X112883500Y-110386500D01*
X112924500Y-110393500D01*
X112965500Y-110403500D01*
X113005500Y-110415500D01*
X113045500Y-110429500D01*
X113083500Y-110445500D01*
X113121500Y-110463500D01*
X113158500Y-110483500D01*
X113194500Y-110505500D01*
X113228500Y-110529500D01*
X113261500Y-110554500D01*
X113293500Y-110581500D01*
X113324500Y-110610500D01*
X113353500Y-110641500D01*
X113380500Y-110673500D01*
X113405500Y-110706500D01*
X113429500Y-110740500D01*
X113451500Y-110776500D01*
X113471500Y-110813500D01*
X113489500Y-110851500D01*
X113505500Y-110889500D01*
X113519500Y-110929500D01*
X113531500Y-110969500D01*
X113541500Y-111010500D01*
X113548500Y-111051500D01*
X113554500Y-111092500D01*
X113557500Y-111134500D01*
X113558500Y-111176500D01*
X113558500Y-113576500D01*
X111958500Y-113576500D01*
X111958500Y-111176500D01*
X111959500Y-111134500D01*
X111962500Y-111092500D01*
X111968500Y-111051500D01*
X111975500Y-111010500D01*
X111985500Y-110969500D01*
X111997500Y-110929500D01*
X112011500Y-110889500D01*
X112027500Y-110851500D01*
X112045500Y-110813500D01*
X112065500Y-110776500D01*
X112087500Y-110740500D01*
X112111500Y-110706500D01*
X112136500Y-110673500D01*
X112163500Y-110641500D01*
X112192500Y-110610500D01*
X112223500Y-110581500D01*
X112255500Y-110554500D01*
X112288500Y-110529500D01*
X112322500Y-110505500D01*
X112358500Y-110483500D01*
X112395500Y-110463500D01*
X112433500Y-110445500D01*
X112471500Y-110429500D01*
X112511500Y-110415500D01*
X112551500Y-110403500D01*
X112592500Y-110393500D01*
X112633500Y-110386500D01*
X112674500Y-110380500D01*
X112716500Y-110377500D01*
X112758500Y-110376500D01*
X112800500Y-110377500D01*
G36*
X116098500Y-93396500D02*
G01*
X116097500Y-93438500D01*
X116094500Y-93480500D01*
X116088500Y-93521500D01*
X116081500Y-93562500D01*
X116071500Y-93603500D01*
X116059500Y-93643500D01*
X116045500Y-93683500D01*
X116029500Y-93721500D01*
X116011500Y-93759500D01*
X115991500Y-93796500D01*
X115969500Y-93832500D01*
X115945500Y-93866500D01*
X115920500Y-93899500D01*
X115893500Y-93931500D01*
X115864500Y-93962500D01*
X115833500Y-93991500D01*
X115801500Y-94018500D01*
X115768500Y-94043500D01*
X115734500Y-94067500D01*
X115698500Y-94089500D01*
X115661500Y-94109500D01*
X115623500Y-94127500D01*
X115585500Y-94143500D01*
X115545500Y-94157500D01*
X115505500Y-94169500D01*
X115464500Y-94179500D01*
X115423500Y-94186500D01*
X115382500Y-94192500D01*
X115340500Y-94195500D01*
X115298500Y-94196500D01*
X115256500Y-94195500D01*
X115214500Y-94192500D01*
X115173500Y-94186500D01*
X115132500Y-94179500D01*
X115091500Y-94169500D01*
X115051500Y-94157500D01*
X115011500Y-94143500D01*
X114973500Y-94127500D01*
X114935500Y-94109500D01*
X114898500Y-94089500D01*
X114862500Y-94067500D01*
X114828500Y-94043500D01*
X114795500Y-94018500D01*
X114763500Y-93991500D01*
X114732500Y-93962500D01*
X114703500Y-93931500D01*
X114676500Y-93899500D01*
X114651500Y-93866500D01*
X114627500Y-93832500D01*
X114605500Y-93796500D01*
X114585500Y-93759500D01*
X114567500Y-93721500D01*
X114551500Y-93683500D01*
X114537500Y-93643500D01*
X114525500Y-93603500D01*
X114515500Y-93562500D01*
X114508500Y-93521500D01*
X114502500Y-93480500D01*
X114499500Y-93438500D01*
X114498500Y-93396500D01*
X114498500Y-90996500D01*
X116098500Y-90996500D01*
X116098500Y-93396500D01*
G37*
X116098500Y-93396500D02*
X116097500Y-93438500D01*
X116094500Y-93480500D01*
X116088500Y-93521500D01*
X116081500Y-93562500D01*
X116071500Y-93603500D01*
X116059500Y-93643500D01*
X116045500Y-93683500D01*
X116029500Y-93721500D01*
X116011500Y-93759500D01*
X115991500Y-93796500D01*
X115969500Y-93832500D01*
X115945500Y-93866500D01*
X115920500Y-93899500D01*
X115893500Y-93931500D01*
X115864500Y-93962500D01*
X115833500Y-93991500D01*
X115801500Y-94018500D01*
X115768500Y-94043500D01*
X115734500Y-94067500D01*
X115698500Y-94089500D01*
X115661500Y-94109500D01*
X115623500Y-94127500D01*
X115585500Y-94143500D01*
X115545500Y-94157500D01*
X115505500Y-94169500D01*
X115464500Y-94179500D01*
X115423500Y-94186500D01*
X115382500Y-94192500D01*
X115340500Y-94195500D01*
X115298500Y-94196500D01*
X115256500Y-94195500D01*
X115214500Y-94192500D01*
X115173500Y-94186500D01*
X115132500Y-94179500D01*
X115091500Y-94169500D01*
X115051500Y-94157500D01*
X115011500Y-94143500D01*
X114973500Y-94127500D01*
X114935500Y-94109500D01*
X114898500Y-94089500D01*
X114862500Y-94067500D01*
X114828500Y-94043500D01*
X114795500Y-94018500D01*
X114763500Y-93991500D01*
X114732500Y-93962500D01*
X114703500Y-93931500D01*
X114676500Y-93899500D01*
X114651500Y-93866500D01*
X114627500Y-93832500D01*
X114605500Y-93796500D01*
X114585500Y-93759500D01*
X114567500Y-93721500D01*
X114551500Y-93683500D01*
X114537500Y-93643500D01*
X114525500Y-93603500D01*
X114515500Y-93562500D01*
X114508500Y-93521500D01*
X114502500Y-93480500D01*
X114499500Y-93438500D01*
X114498500Y-93396500D01*
X114498500Y-90996500D01*
X116098500Y-90996500D01*
X116098500Y-93396500D01*
G36*
X110260500Y-110377500D02*
G01*
X110302500Y-110380500D01*
X110343500Y-110386500D01*
X110384500Y-110393500D01*
X110425500Y-110403500D01*
X110465500Y-110415500D01*
X110505500Y-110429500D01*
X110543500Y-110445500D01*
X110581500Y-110463500D01*
X110618500Y-110483500D01*
X110654500Y-110505500D01*
X110688500Y-110529500D01*
X110721500Y-110554500D01*
X110753500Y-110581500D01*
X110784500Y-110610500D01*
X110813500Y-110641500D01*
X110840500Y-110673500D01*
X110865500Y-110706500D01*
X110889500Y-110740500D01*
X110911500Y-110776500D01*
X110931500Y-110813500D01*
X110949500Y-110851500D01*
X110965500Y-110889500D01*
X110979500Y-110929500D01*
X110991500Y-110969500D01*
X111001500Y-111010500D01*
X111008500Y-111051500D01*
X111014500Y-111092500D01*
X111017500Y-111134500D01*
X111018500Y-111176500D01*
X111018500Y-113576500D01*
X109418500Y-113576500D01*
X109418500Y-111176500D01*
X109419500Y-111134500D01*
X109422500Y-111092500D01*
X109428500Y-111051500D01*
X109435500Y-111010500D01*
X109445500Y-110969500D01*
X109457500Y-110929500D01*
X109471500Y-110889500D01*
X109487500Y-110851500D01*
X109505500Y-110813500D01*
X109525500Y-110776500D01*
X109547500Y-110740500D01*
X109571500Y-110706500D01*
X109596500Y-110673500D01*
X109623500Y-110641500D01*
X109652500Y-110610500D01*
X109683500Y-110581500D01*
X109715500Y-110554500D01*
X109748500Y-110529500D01*
X109782500Y-110505500D01*
X109818500Y-110483500D01*
X109855500Y-110463500D01*
X109893500Y-110445500D01*
X109931500Y-110429500D01*
X109971500Y-110415500D01*
X110011500Y-110403500D01*
X110052500Y-110393500D01*
X110093500Y-110386500D01*
X110134500Y-110380500D01*
X110176500Y-110377500D01*
X110218500Y-110376500D01*
X110260500Y-110377500D01*
G37*
X110260500Y-110377500D02*
X110302500Y-110380500D01*
X110343500Y-110386500D01*
X110384500Y-110393500D01*
X110425500Y-110403500D01*
X110465500Y-110415500D01*
X110505500Y-110429500D01*
X110543500Y-110445500D01*
X110581500Y-110463500D01*
X110618500Y-110483500D01*
X110654500Y-110505500D01*
X110688500Y-110529500D01*
X110721500Y-110554500D01*
X110753500Y-110581500D01*
X110784500Y-110610500D01*
X110813500Y-110641500D01*
X110840500Y-110673500D01*
X110865500Y-110706500D01*
X110889500Y-110740500D01*
X110911500Y-110776500D01*
X110931500Y-110813500D01*
X110949500Y-110851500D01*
X110965500Y-110889500D01*
X110979500Y-110929500D01*
X110991500Y-110969500D01*
X111001500Y-111010500D01*
X111008500Y-111051500D01*
X111014500Y-111092500D01*
X111017500Y-111134500D01*
X111018500Y-111176500D01*
X111018500Y-113576500D01*
X109418500Y-113576500D01*
X109418500Y-111176500D01*
X109419500Y-111134500D01*
X109422500Y-111092500D01*
X109428500Y-111051500D01*
X109435500Y-111010500D01*
X109445500Y-110969500D01*
X109457500Y-110929500D01*
X109471500Y-110889500D01*
X109487500Y-110851500D01*
X109505500Y-110813500D01*
X109525500Y-110776500D01*
X109547500Y-110740500D01*
X109571500Y-110706500D01*
X109596500Y-110673500D01*
X109623500Y-110641500D01*
X109652500Y-110610500D01*
X109683500Y-110581500D01*
X109715500Y-110554500D01*
X109748500Y-110529500D01*
X109782500Y-110505500D01*
X109818500Y-110483500D01*
X109855500Y-110463500D01*
X109893500Y-110445500D01*
X109931500Y-110429500D01*
X109971500Y-110415500D01*
X110011500Y-110403500D01*
X110052500Y-110393500D01*
X110093500Y-110386500D01*
X110134500Y-110380500D01*
X110176500Y-110377500D01*
X110218500Y-110376500D01*
X110260500Y-110377500D01*
G36*
X115340500Y-110377500D02*
G01*
X115382500Y-110380500D01*
X115423500Y-110386500D01*
X115464500Y-110393500D01*
X115505500Y-110403500D01*
X115545500Y-110415500D01*
X115585500Y-110429500D01*
X115623500Y-110445500D01*
X115661500Y-110463500D01*
X115698500Y-110483500D01*
X115734500Y-110505500D01*
X115768500Y-110529500D01*
X115801500Y-110554500D01*
X115833500Y-110581500D01*
X115864500Y-110610500D01*
X115893500Y-110641500D01*
X115920500Y-110673500D01*
X115945500Y-110706500D01*
X115969500Y-110740500D01*
X115991500Y-110776500D01*
X116011500Y-110813500D01*
X116029500Y-110851500D01*
X116045500Y-110889500D01*
X116059500Y-110929500D01*
X116071500Y-110969500D01*
X116081500Y-111010500D01*
X116088500Y-111051500D01*
X116094500Y-111092500D01*
X116097500Y-111134500D01*
X116098500Y-111176500D01*
X116098500Y-113576500D01*
X114498500Y-113576500D01*
X114498500Y-111176500D01*
X114499500Y-111134500D01*
X114502500Y-111092500D01*
X114508500Y-111051500D01*
X114515500Y-111010500D01*
X114525500Y-110969500D01*
X114537500Y-110929500D01*
X114551500Y-110889500D01*
X114567500Y-110851500D01*
X114585500Y-110813500D01*
X114605500Y-110776500D01*
X114627500Y-110740500D01*
X114651500Y-110706500D01*
X114676500Y-110673500D01*
X114703500Y-110641500D01*
X114732500Y-110610500D01*
X114763500Y-110581500D01*
X114795500Y-110554500D01*
X114828500Y-110529500D01*
X114862500Y-110505500D01*
X114898500Y-110483500D01*
X114935500Y-110463500D01*
X114973500Y-110445500D01*
X115011500Y-110429500D01*
X115051500Y-110415500D01*
X115091500Y-110403500D01*
X115132500Y-110393500D01*
X115173500Y-110386500D01*
X115214500Y-110380500D01*
X115256500Y-110377500D01*
X115298500Y-110376500D01*
X115340500Y-110377500D01*
G37*
X115340500Y-110377500D02*
X115382500Y-110380500D01*
X115423500Y-110386500D01*
X115464500Y-110393500D01*
X115505500Y-110403500D01*
X115545500Y-110415500D01*
X115585500Y-110429500D01*
X115623500Y-110445500D01*
X115661500Y-110463500D01*
X115698500Y-110483500D01*
X115734500Y-110505500D01*
X115768500Y-110529500D01*
X115801500Y-110554500D01*
X115833500Y-110581500D01*
X115864500Y-110610500D01*
X115893500Y-110641500D01*
X115920500Y-110673500D01*
X115945500Y-110706500D01*
X115969500Y-110740500D01*
X115991500Y-110776500D01*
X116011500Y-110813500D01*
X116029500Y-110851500D01*
X116045500Y-110889500D01*
X116059500Y-110929500D01*
X116071500Y-110969500D01*
X116081500Y-111010500D01*
X116088500Y-111051500D01*
X116094500Y-111092500D01*
X116097500Y-111134500D01*
X116098500Y-111176500D01*
X116098500Y-113576500D01*
X114498500Y-113576500D01*
X114498500Y-111176500D01*
X114499500Y-111134500D01*
X114502500Y-111092500D01*
X114508500Y-111051500D01*
X114515500Y-111010500D01*
X114525500Y-110969500D01*
X114537500Y-110929500D01*
X114551500Y-110889500D01*
X114567500Y-110851500D01*
X114585500Y-110813500D01*
X114605500Y-110776500D01*
X114627500Y-110740500D01*
X114651500Y-110706500D01*
X114676500Y-110673500D01*
X114703500Y-110641500D01*
X114732500Y-110610500D01*
X114763500Y-110581500D01*
X114795500Y-110554500D01*
X114828500Y-110529500D01*
X114862500Y-110505500D01*
X114898500Y-110483500D01*
X114935500Y-110463500D01*
X114973500Y-110445500D01*
X115011500Y-110429500D01*
X115051500Y-110415500D01*
X115091500Y-110403500D01*
X115132500Y-110393500D01*
X115173500Y-110386500D01*
X115214500Y-110380500D01*
X115256500Y-110377500D01*
X115298500Y-110376500D01*
X115340500Y-110377500D01*
G36*
X93059500Y-110377500D02*
G01*
X93069500Y-110378500D01*
X93080500Y-110380500D01*
X93110500Y-110389500D01*
X93119500Y-110393500D01*
X93129500Y-110398500D01*
X93147500Y-110408500D01*
X93156500Y-110414500D01*
X93164500Y-110421500D01*
X93172500Y-110427500D01*
X93179500Y-110435500D01*
X93187500Y-110442500D01*
X93193500Y-110450500D01*
X93200500Y-110458500D01*
X93206500Y-110467500D01*
X93216500Y-110485500D01*
X93221500Y-110495500D01*
X93225500Y-110504500D01*
X93234500Y-110534500D01*
X93236500Y-110545500D01*
X93237500Y-110555500D01*
X93238500Y-110566500D01*
X93238500Y-113576500D01*
X91638500Y-113576500D01*
X91638500Y-110566500D01*
X91639500Y-110555500D01*
X91640500Y-110545500D01*
X91642500Y-110534500D01*
X91651500Y-110504500D01*
X91655500Y-110495500D01*
X91660500Y-110485500D01*
X91670500Y-110467500D01*
X91676500Y-110458500D01*
X91683500Y-110450500D01*
X91689500Y-110442500D01*
X91697500Y-110435500D01*
X91704500Y-110427500D01*
X91712500Y-110421500D01*
X91720500Y-110414500D01*
X91729500Y-110408500D01*
X91747500Y-110398500D01*
X91757500Y-110393500D01*
X91766500Y-110389500D01*
X91796500Y-110380500D01*
X91807500Y-110378500D01*
X91817500Y-110377500D01*
X91828500Y-110376500D01*
X93048500Y-110376500D01*
X93059500Y-110377500D01*
G37*
X93059500Y-110377500D02*
X93069500Y-110378500D01*
X93080500Y-110380500D01*
X93110500Y-110389500D01*
X93119500Y-110393500D01*
X93129500Y-110398500D01*
X93147500Y-110408500D01*
X93156500Y-110414500D01*
X93164500Y-110421500D01*
X93172500Y-110427500D01*
X93179500Y-110435500D01*
X93187500Y-110442500D01*
X93193500Y-110450500D01*
X93200500Y-110458500D01*
X93206500Y-110467500D01*
X93216500Y-110485500D01*
X93221500Y-110495500D01*
X93225500Y-110504500D01*
X93234500Y-110534500D01*
X93236500Y-110545500D01*
X93237500Y-110555500D01*
X93238500Y-110566500D01*
X93238500Y-113576500D01*
X91638500Y-113576500D01*
X91638500Y-110566500D01*
X91639500Y-110555500D01*
X91640500Y-110545500D01*
X91642500Y-110534500D01*
X91651500Y-110504500D01*
X91655500Y-110495500D01*
X91660500Y-110485500D01*
X91670500Y-110467500D01*
X91676500Y-110458500D01*
X91683500Y-110450500D01*
X91689500Y-110442500D01*
X91697500Y-110435500D01*
X91704500Y-110427500D01*
X91712500Y-110421500D01*
X91720500Y-110414500D01*
X91729500Y-110408500D01*
X91747500Y-110398500D01*
X91757500Y-110393500D01*
X91766500Y-110389500D01*
X91796500Y-110380500D01*
X91807500Y-110378500D01*
X91817500Y-110377500D01*
X91828500Y-110376500D01*
X93048500Y-110376500D01*
X93059500Y-110377500D01*
G36*
X88158500Y-93396500D02*
G01*
X88157500Y-93438500D01*
X88154500Y-93480500D01*
X88148500Y-93521500D01*
X88141500Y-93562500D01*
X88131500Y-93603500D01*
X88119500Y-93643500D01*
X88105500Y-93683500D01*
X88089500Y-93721500D01*
X88071500Y-93759500D01*
X88051500Y-93796500D01*
X88029500Y-93832500D01*
X88005500Y-93866500D01*
X87980500Y-93899500D01*
X87953500Y-93931500D01*
X87924500Y-93962500D01*
X87893500Y-93991500D01*
X87861500Y-94018500D01*
X87828500Y-94043500D01*
X87794500Y-94067500D01*
X87758500Y-94089500D01*
X87721500Y-94109500D01*
X87683500Y-94127500D01*
X87645500Y-94143500D01*
X87605500Y-94157500D01*
X87565500Y-94169500D01*
X87524500Y-94179500D01*
X87483500Y-94186500D01*
X87442500Y-94192500D01*
X87400500Y-94195500D01*
X87358500Y-94196500D01*
X87316500Y-94195500D01*
X87274500Y-94192500D01*
X87233500Y-94186500D01*
X87192500Y-94179500D01*
X87151500Y-94169500D01*
X87111500Y-94157500D01*
X87071500Y-94143500D01*
X87033500Y-94127500D01*
X86995500Y-94109500D01*
X86958500Y-94089500D01*
X86922500Y-94067500D01*
X86888500Y-94043500D01*
X86855500Y-94018500D01*
X86823500Y-93991500D01*
X86792500Y-93962500D01*
X86763500Y-93931500D01*
X86736500Y-93899500D01*
X86711500Y-93866500D01*
X86687500Y-93832500D01*
X86665500Y-93796500D01*
X86645500Y-93759500D01*
X86627500Y-93721500D01*
X86611500Y-93683500D01*
X86597500Y-93643500D01*
X86585500Y-93603500D01*
X86575500Y-93562500D01*
X86568500Y-93521500D01*
X86562500Y-93480500D01*
X86559500Y-93438500D01*
X86558500Y-93396500D01*
X86558500Y-90996500D01*
X88158500Y-90996500D01*
X88158500Y-93396500D01*
G37*
X88158500Y-93396500D02*
X88157500Y-93438500D01*
X88154500Y-93480500D01*
X88148500Y-93521500D01*
X88141500Y-93562500D01*
X88131500Y-93603500D01*
X88119500Y-93643500D01*
X88105500Y-93683500D01*
X88089500Y-93721500D01*
X88071500Y-93759500D01*
X88051500Y-93796500D01*
X88029500Y-93832500D01*
X88005500Y-93866500D01*
X87980500Y-93899500D01*
X87953500Y-93931500D01*
X87924500Y-93962500D01*
X87893500Y-93991500D01*
X87861500Y-94018500D01*
X87828500Y-94043500D01*
X87794500Y-94067500D01*
X87758500Y-94089500D01*
X87721500Y-94109500D01*
X87683500Y-94127500D01*
X87645500Y-94143500D01*
X87605500Y-94157500D01*
X87565500Y-94169500D01*
X87524500Y-94179500D01*
X87483500Y-94186500D01*
X87442500Y-94192500D01*
X87400500Y-94195500D01*
X87358500Y-94196500D01*
X87316500Y-94195500D01*
X87274500Y-94192500D01*
X87233500Y-94186500D01*
X87192500Y-94179500D01*
X87151500Y-94169500D01*
X87111500Y-94157500D01*
X87071500Y-94143500D01*
X87033500Y-94127500D01*
X86995500Y-94109500D01*
X86958500Y-94089500D01*
X86922500Y-94067500D01*
X86888500Y-94043500D01*
X86855500Y-94018500D01*
X86823500Y-93991500D01*
X86792500Y-93962500D01*
X86763500Y-93931500D01*
X86736500Y-93899500D01*
X86711500Y-93866500D01*
X86687500Y-93832500D01*
X86665500Y-93796500D01*
X86645500Y-93759500D01*
X86627500Y-93721500D01*
X86611500Y-93683500D01*
X86597500Y-93643500D01*
X86585500Y-93603500D01*
X86575500Y-93562500D01*
X86568500Y-93521500D01*
X86562500Y-93480500D01*
X86559500Y-93438500D01*
X86558500Y-93396500D01*
X86558500Y-90996500D01*
X88158500Y-90996500D01*
X88158500Y-93396500D01*
G36*
X135660500Y-110377500D02*
G01*
X135702500Y-110380500D01*
X135743500Y-110386500D01*
X135784500Y-110393500D01*
X135825500Y-110403500D01*
X135865500Y-110415500D01*
X135905500Y-110429500D01*
X135943500Y-110445500D01*
X135981500Y-110463500D01*
X136018500Y-110483500D01*
X136054500Y-110505500D01*
X136088500Y-110529500D01*
X136121500Y-110554500D01*
X136153500Y-110581500D01*
X136184500Y-110610500D01*
X136213500Y-110641500D01*
X136240500Y-110673500D01*
X136265500Y-110706500D01*
X136289500Y-110740500D01*
X136311500Y-110776500D01*
X136331500Y-110813500D01*
X136349500Y-110851500D01*
X136365500Y-110889500D01*
X136379500Y-110929500D01*
X136391500Y-110969500D01*
X136401500Y-111010500D01*
X136408500Y-111051500D01*
X136414500Y-111092500D01*
X136417500Y-111134500D01*
X136418500Y-111176500D01*
X136418500Y-113576500D01*
X134818500Y-113576500D01*
X134818500Y-111176500D01*
X134819500Y-111134500D01*
X134822500Y-111092500D01*
X134828500Y-111051500D01*
X134835500Y-111010500D01*
X134845500Y-110969500D01*
X134857500Y-110929500D01*
X134871500Y-110889500D01*
X134887500Y-110851500D01*
X134905500Y-110813500D01*
X134925500Y-110776500D01*
X134947500Y-110740500D01*
X134971500Y-110706500D01*
X134996500Y-110673500D01*
X135023500Y-110641500D01*
X135052500Y-110610500D01*
X135083500Y-110581500D01*
X135115500Y-110554500D01*
X135148500Y-110529500D01*
X135182500Y-110505500D01*
X135218500Y-110483500D01*
X135255500Y-110463500D01*
X135293500Y-110445500D01*
X135331500Y-110429500D01*
X135371500Y-110415500D01*
X135411500Y-110403500D01*
X135452500Y-110393500D01*
X135493500Y-110386500D01*
X135534500Y-110380500D01*
X135576500Y-110377500D01*
X135618500Y-110376500D01*
X135660500Y-110377500D01*
G37*
X135660500Y-110377500D02*
X135702500Y-110380500D01*
X135743500Y-110386500D01*
X135784500Y-110393500D01*
X135825500Y-110403500D01*
X135865500Y-110415500D01*
X135905500Y-110429500D01*
X135943500Y-110445500D01*
X135981500Y-110463500D01*
X136018500Y-110483500D01*
X136054500Y-110505500D01*
X136088500Y-110529500D01*
X136121500Y-110554500D01*
X136153500Y-110581500D01*
X136184500Y-110610500D01*
X136213500Y-110641500D01*
X136240500Y-110673500D01*
X136265500Y-110706500D01*
X136289500Y-110740500D01*
X136311500Y-110776500D01*
X136331500Y-110813500D01*
X136349500Y-110851500D01*
X136365500Y-110889500D01*
X136379500Y-110929500D01*
X136391500Y-110969500D01*
X136401500Y-111010500D01*
X136408500Y-111051500D01*
X136414500Y-111092500D01*
X136417500Y-111134500D01*
X136418500Y-111176500D01*
X136418500Y-113576500D01*
X134818500Y-113576500D01*
X134818500Y-111176500D01*
X134819500Y-111134500D01*
X134822500Y-111092500D01*
X134828500Y-111051500D01*
X134835500Y-111010500D01*
X134845500Y-110969500D01*
X134857500Y-110929500D01*
X134871500Y-110889500D01*
X134887500Y-110851500D01*
X134905500Y-110813500D01*
X134925500Y-110776500D01*
X134947500Y-110740500D01*
X134971500Y-110706500D01*
X134996500Y-110673500D01*
X135023500Y-110641500D01*
X135052500Y-110610500D01*
X135083500Y-110581500D01*
X135115500Y-110554500D01*
X135148500Y-110529500D01*
X135182500Y-110505500D01*
X135218500Y-110483500D01*
X135255500Y-110463500D01*
X135293500Y-110445500D01*
X135331500Y-110429500D01*
X135371500Y-110415500D01*
X135411500Y-110403500D01*
X135452500Y-110393500D01*
X135493500Y-110386500D01*
X135534500Y-110380500D01*
X135576500Y-110377500D01*
X135618500Y-110376500D01*
X135660500Y-110377500D01*
%TD*%
D11*
%TO.C,C12*%
X116568500Y-86431600D03*
X116568500Y-84881600D03*
%TD*%
D12*
%TO.C,R16*%
X125521500Y-86112000D03*
X123871500Y-86112000D03*
%TD*%
%TO.C,R15*%
X113837500Y-86112000D03*
X112187500Y-86112000D03*
%TD*%
D13*
%TO.C,Q2*%
X111821000Y-87702000D03*
X111821000Y-89602000D03*
X113696000Y-88652000D03*
%TD*%
D14*
%TO.C,R2*%
X89898500Y-89999000D03*
X89898500Y-88349000D03*
%TD*%
D15*
%TO.C,RN2*%
X75445999Y-53804000D03*
X75445999Y-54304000D03*
X75445999Y-54804000D03*
X75445999Y-55304000D03*
X76445999Y-55304000D03*
X76445999Y-54804000D03*
X76445999Y-54304000D03*
X76445999Y-53804000D03*
%TD*%
D14*
%TO.C,R8*%
X121648500Y-89783600D03*
X121648500Y-88133600D03*
%TD*%
D15*
%TO.C,RN1*%
X75445999Y-51264000D03*
X75445999Y-51764000D03*
X75445999Y-52264000D03*
X75445999Y-52764000D03*
X76445999Y-52764000D03*
X76445999Y-52264000D03*
X76445999Y-51764000D03*
X76445999Y-51264000D03*
%TD*%
%TO.C,RN3*%
X75466000Y-61364000D03*
X75466000Y-61864000D03*
X75466000Y-62364000D03*
X75466000Y-62864000D03*
X76466000Y-62864000D03*
X76466000Y-62364000D03*
X76466000Y-61864000D03*
X76466000Y-61364000D03*
%TD*%
D16*
%TO.C,C8*%
X85900000Y-59574000D03*
X86860000Y-59574000D03*
%TD*%
D17*
%TO.C,R18*%
X82867999Y-22849000D03*
X84517999Y-22849000D03*
%TD*%
%TO.C,R19*%
X82740999Y-26024000D03*
X84390999Y-26024000D03*
%TD*%
D18*
%TO.C,U6*%
X78437500Y-59809000D03*
X78437500Y-60459000D03*
X78437500Y-61109000D03*
X78437500Y-61759000D03*
X78437500Y-62409000D03*
X78437500Y-63059000D03*
X78437500Y-63709000D03*
X78437500Y-64359000D03*
X78437500Y-65009000D03*
X78437500Y-65659000D03*
X78437500Y-66309000D03*
X78437500Y-66959000D03*
X84162500Y-66959000D03*
X84162500Y-66309000D03*
X84162500Y-65659000D03*
X84162500Y-65009000D03*
X84162500Y-64359000D03*
X84162500Y-63709000D03*
X84162500Y-63059000D03*
X84162500Y-62409000D03*
X84162500Y-61759000D03*
X84162500Y-61109000D03*
X84162500Y-60459000D03*
X84162500Y-59809000D03*
%TD*%
D15*
%TO.C,RN4*%
X75466000Y-63904000D03*
X75466000Y-64404000D03*
X75466000Y-64904000D03*
X75466000Y-65404000D03*
X76466000Y-65404000D03*
X76466000Y-64904000D03*
X76466000Y-64404000D03*
X76466000Y-63904000D03*
%TD*%
D19*
%TO.C,C13*%
X119108500Y-84881600D03*
X119108500Y-86431600D03*
%TD*%
D12*
%TO.C,R13*%
X84173500Y-108351000D03*
X82523500Y-108351000D03*
%TD*%
D14*
%TO.C,R9*%
X124188500Y-89783600D03*
X124188500Y-88133600D03*
%TD*%
%TO.C,R3*%
X94978500Y-89999000D03*
X94978500Y-88349000D03*
%TD*%
%TO.C,R1*%
X87358500Y-89999000D03*
X87358500Y-88349000D03*
%TD*%
%TO.C,R6*%
X102598500Y-89999000D03*
X102598500Y-88349000D03*
%TD*%
%TO.C,R11*%
X129268500Y-89781600D03*
X129268500Y-88131600D03*
%TD*%
D18*
%TO.C,U4*%
X78437500Y-39609000D03*
X78437500Y-40259000D03*
X78437500Y-40909000D03*
X78437500Y-41559000D03*
X78437500Y-42209000D03*
X78437500Y-42859000D03*
X78437500Y-43509000D03*
X78437500Y-44159000D03*
X78437500Y-44809000D03*
X78437500Y-45459000D03*
X78437500Y-46109000D03*
X78437500Y-46759000D03*
X84162500Y-46759000D03*
X84162500Y-46109000D03*
X84162500Y-45459000D03*
X84162500Y-44809000D03*
X84162500Y-44159000D03*
X84162500Y-43509000D03*
X84162500Y-42859000D03*
X84162500Y-42209000D03*
X84162500Y-41559000D03*
X84162500Y-40909000D03*
X84162500Y-40259000D03*
X84162500Y-39609000D03*
%TD*%
D20*
%TO.C,U1*%
X135488500Y-99561500D03*
X135488500Y-105011500D03*
D21*
X132458500Y-99861500D03*
X132458500Y-104711500D03*
D22*
X132488500Y-102286500D03*
X135788500Y-103286500D03*
X135788500Y-101286500D03*
X128988500Y-99786500D03*
X126488500Y-99786500D03*
X123988500Y-99786500D03*
%TD*%
D12*
%TO.C,R14*%
X109074500Y-86112000D03*
X107424500Y-86112000D03*
%TD*%
D14*
%TO.C,R10*%
X126728500Y-89783600D03*
X126728500Y-88133600D03*
%TD*%
D23*
%TO.C,C3*%
X76679999Y-38980000D03*
X75719999Y-38980000D03*
%TD*%
D14*
%TO.C,R5*%
X100058500Y-89999000D03*
X100058500Y-88349000D03*
%TD*%
D24*
%TO.C,D1*%
X84235000Y-112923000D03*
X82135000Y-112923000D03*
%TD*%
D12*
%TO.C,R17*%
X128823500Y-86112000D03*
X127173500Y-86112000D03*
%TD*%
D23*
%TO.C,C5*%
X76679999Y-49385000D03*
X75719999Y-49385000D03*
%TD*%
%TO.C,C7*%
X76700000Y-59574000D03*
X75740000Y-59574000D03*
%TD*%
D16*
%TO.C,C11*%
X119806499Y-50693000D03*
X120766499Y-50693000D03*
%TD*%
D25*
%TO.C,LED1*%
X89433499Y-22849000D03*
X87858499Y-22849000D03*
%TD*%
D18*
%TO.C,U3*%
X78437500Y-29509000D03*
X78437500Y-30159000D03*
X78437500Y-30809000D03*
X78437500Y-31459000D03*
X78437500Y-32109000D03*
X78437500Y-32759000D03*
X78437500Y-33409000D03*
X78437500Y-34059000D03*
X78437500Y-34709000D03*
X78437500Y-35359000D03*
X78437500Y-36009000D03*
X78437500Y-36659000D03*
X84162500Y-36659000D03*
X84162500Y-36009000D03*
X84162500Y-35359000D03*
X84162500Y-34709000D03*
X84162500Y-34059000D03*
X84162500Y-33409000D03*
X84162500Y-32759000D03*
X84162500Y-32109000D03*
X84162500Y-31459000D03*
X84162500Y-30809000D03*
X84162500Y-30159000D03*
X84162500Y-29509000D03*
%TD*%
D16*
%TO.C,C10*%
X85879999Y-69585000D03*
X86839999Y-69585000D03*
%TD*%
D14*
%TO.C,R7*%
X116568500Y-89783600D03*
X116568500Y-88133600D03*
%TD*%
D18*
%TO.C,U7*%
X78437500Y-69909000D03*
X78437500Y-70559000D03*
X78437500Y-71209000D03*
X78437500Y-71859000D03*
X78437500Y-72509000D03*
X78437500Y-73159000D03*
X78437500Y-73809000D03*
X78437500Y-74459000D03*
X78437500Y-75109000D03*
X78437500Y-75759000D03*
X78437500Y-76409000D03*
X78437500Y-77059000D03*
X84162500Y-77059000D03*
X84162500Y-76409000D03*
X84162500Y-75759000D03*
X84162500Y-75109000D03*
X84162500Y-74459000D03*
X84162500Y-73809000D03*
X84162500Y-73159000D03*
X84162500Y-72509000D03*
X84162500Y-71859000D03*
X84162500Y-71209000D03*
X84162500Y-70559000D03*
X84162500Y-69909000D03*
%TD*%
D23*
%TO.C,C1*%
X76679999Y-29274000D03*
X75719999Y-29274000D03*
%TD*%
D16*
%TO.C,C2*%
X85879999Y-29274000D03*
X86839999Y-29274000D03*
%TD*%
D14*
%TO.C,R4*%
X97518500Y-89999000D03*
X97518500Y-88349000D03*
%TD*%
D18*
%TO.C,U5*%
X78437500Y-49709000D03*
X78437500Y-50359000D03*
X78437500Y-51009000D03*
X78437500Y-51659000D03*
X78437500Y-52309000D03*
X78437500Y-52959000D03*
X78437500Y-53609000D03*
X78437500Y-54259000D03*
X78437500Y-54909000D03*
X78437500Y-55559000D03*
X78437500Y-56209000D03*
X78437500Y-56859000D03*
X84162500Y-56859000D03*
X84162500Y-56209000D03*
X84162500Y-55559000D03*
X84162500Y-54909000D03*
X84162500Y-54259000D03*
X84162500Y-53609000D03*
X84162500Y-52959000D03*
X84162500Y-52309000D03*
X84162500Y-51659000D03*
X84162500Y-51009000D03*
X84162500Y-50359000D03*
X84162500Y-49709000D03*
%TD*%
D16*
%TO.C,C4*%
X85879999Y-39285000D03*
X86839999Y-39285000D03*
%TD*%
D25*
%TO.C,LED2*%
X89433499Y-26024000D03*
X87858499Y-26024000D03*
%TD*%
D16*
%TO.C,C6*%
X85879999Y-49474000D03*
X86839999Y-49474000D03*
%TD*%
D23*
%TO.C,C9*%
X76679999Y-69585000D03*
X75719999Y-69585000D03*
%TD*%
D12*
%TO.C,R12*%
X84173500Y-106700000D03*
X82523500Y-106700000D03*
%TD*%
D13*
%TO.C,Q1*%
X106995000Y-87702000D03*
X106995000Y-89602000D03*
X108870000Y-88652000D03*
%TD*%
M02*
