M48
; DRILL file {KiCad (6.0.9)} date Sat Feb 25 15:14:16 2023
; FORMAT={-:-/ absolute / metric / decimal}
; #@! TF.CreationDate,2023-02-25T15:14:16+00:00
; #@! TF.GenerationSoftware,Kicad,Pcbnew,(6.0.9)
; #@! TF.FileFunction,MixedPlating,1,4
FMAT,2
METRIC
; #@! TA.AperFunction,Plated,PTH,ViaDrill
T1C0.300
; #@! TA.AperFunction,Plated,PTH,ViaDrill
T2C0.400
; #@! TA.AperFunction,Plated,PTH,ComponentDrill
T3C0.800
; #@! TA.AperFunction,Plated,PTH,ComponentDrill
T4C1.000
; #@! TA.AperFunction,Plated,PTH,ComponentDrill
T5C1.100
; #@! TA.AperFunction,NonPlated,NPTH,ComponentDrill
T6C2.100
; #@! TA.AperFunction,NonPlated,NPTH,ComponentDrill
T7C2.700
; #@! TA.AperFunction,NonPlated,NPTH,ComponentDrill
T8C2.850
%
G90
G05
T1
X71.823Y-55.845
X72.179Y-55.087
X72.26Y-35.508
X72.475Y-32.109
X72.559Y-54.349
X72.66Y-34.709
X72.959Y-53.597
X73.242Y-30.908
X73.319Y-52.83
X73.684Y-52.056
X73.814Y-64.232
X73.859Y-34.109
X73.931Y-76.728
X74.116Y-51.407
X74.149Y-62.926
X74.182Y-64.919
X74.317Y-62.145
X74.444Y-50.566
X74.5Y-63.645
X74.696Y-61.441
X74.696Y-65.505
X75.458Y-60.679
X76.233Y-60.484
X76.422Y-71.252
X76.68Y-41.559
X76.68Y-42.859
X76.68Y-44.159
X76.68Y-45.459
X77.18Y-40.909
X77.18Y-42.209
X77.18Y-43.509
X77.18Y-44.809
X79.011Y-69.108
X79.646Y-68.4
X80.106Y-72.478
X80.126Y-51.834
X80.525Y-52.634
X80.525Y-73.159
X80.916Y-31.643
X80.924Y-53.503
X80.925Y-73.952
X81.288Y-74.722
X81.325Y-54.196
X81.551Y-32.278
X81.551Y-40.575
X81.706Y-75.404
X81.724Y-54.888
X82.126Y-55.58
X82.126Y-76.084
X82.649Y-56.229
X82.697Y-76.734
X84.218Y-59.131
X85.18Y-71.859
X85.18Y-73.159
X85.18Y-74.459
X85.18Y-75.759
X85.339Y-54.909
X85.364Y-52.309
X85.364Y-53.609
X85.364Y-63.684
X85.491Y-65.634
X85.804Y-55.559
X85.83Y-72.509
X85.83Y-73.809
X85.83Y-75.109
X85.852Y-76.474
X85.872Y-51.659
X85.872Y-52.959
X85.872Y-54.259
X86.126Y-66.284
X86.16Y-63.759
X86.455Y-51.112
X87.015Y-61.159
X87.774Y-68.6
X87.777Y-60.759
X88.409Y-73.172
X88.536Y-77.363
X89.508Y-77.363
X90.308Y-77.363
X91.46Y-40.3
X91.907Y-60.008
X91.907Y-71.209
X91.996Y-50.286
X92.411Y-52.44
X92.977Y-51.875
X93.489Y-68.6
X93.542Y-51.309
X94.107Y-50.744
X94.107Y-28.468
X94.65Y-50.157
X94.922Y-27.86
X95.249Y-49.552
X95.493Y-48.79
X95.758Y-31.516
X95.758Y-73.172
X95.758Y-75.367
X95.842Y-71.224
X95.849Y-53.106
X96.012Y-34.056
X96.012Y-36.596
X96.012Y-39.136
X96.012Y-41.168
X96.026Y-43.722
X96.11Y-45.076
X96.156Y-28.468
X96.266Y-47.447
X96.342Y-48.804
X96.362Y-69.06
X97.423Y-98.775
X99.31Y-99.342
X100.014Y-98.593
X101.374Y-75.955
X101.408Y-44.91
X101.42Y-70.287
X101.42Y-67.746
X101.579Y-69.06
X101.6Y-43.708
X101.6Y-47.447
X101.741Y-98.593
X101.749Y-72.87
X101.756Y-31.758
X101.854Y-41.168
X101.871Y-34.183
X102.174Y-65.108
X102.2Y-65.907
X102.405Y-38.077
X102.616Y-30.754
X103.033Y-29.846
X105.173Y-84.942
X105.681Y-84.094
X108.221Y-75.361
X108.586Y-74.562
X108.948Y-89.735
X111.424Y-80.774
X115.552Y-86.858
X120.378Y-89.735
X122.918Y-89.735
X125.459Y-89.735
X127.998Y-89.735
X129.165Y-95.567
X130.16Y-90.492
X130.656Y-28.722
X130.656Y-30.246
X131.081Y-29.484
X131.169Y-28.109
X131.359Y-90.492
X131.511Y-95.627
X132.769Y-28.214
X133.186Y-95.896
X133.628Y-29.279
X134.028Y-30.048
X134.257Y-90.543
X134.474Y-28.428
X135.228Y-31.186
X135.828Y-32.024
T2
X69.686Y-35.226
X72.534Y-67.838
X74.522Y-29.274
X75.72Y-37.474
X75.735Y-50.309
X75.9Y-46.168
X76.05Y-40.217
X76.55Y-56.9
X76.792Y-76.694
X76.855Y-50.309
X76.9Y-70.49
X77.106Y-68.473
X78.375Y-68.472
X78.57Y-58.929
X78.855Y-79.097
X79.646Y-28.876
X80.245Y-25.845
X80.665Y-37.469
X81.757Y-22.849
X82.821Y-39.263
X85.499Y-46.239
X85.749Y-56.795
X86.04Y-26.588
X86.05Y-50.309
X86.55Y-70.51
X86.84Y-37.785
X86.84Y-68.71
X86.877Y-58.102
X88.536Y-29.738
X89.806Y-48.153
X90.208Y-67.009
X92.811Y-80.984
X100.519Y-102.636
X101.236Y-79.605
X102.606Y-66.866
X103.868Y-82.302
X105.156Y-102.619
X106.316Y-50.058
X113.301Y-34.056
X113.301Y-39.136
X113.301Y-42.692
X115.968Y-44.978
X117.933Y-85.256
X121.962Y-50.87
X122.925Y-81.847
X130.9Y-104.922
X136.05Y-23.228
X136.226Y-85.018
T3
X110.109Y-51.836
X110.109Y-54.376
X110.109Y-56.916
X110.109Y-59.456
X110.109Y-61.996
X110.109Y-64.536
X110.109Y-67.076
X110.109Y-69.616
X110.109Y-72.156
X110.109Y-74.696
X117.729Y-51.836
X117.729Y-54.376
X117.729Y-56.916
X117.729Y-59.456
X117.729Y-61.996
X117.729Y-64.536
X117.729Y-67.076
X117.729Y-69.616
X117.729Y-72.156
X117.729Y-74.696
T4
X64.77Y-27.96
X64.77Y-30.5
X64.77Y-33.04
X64.77Y-35.58
X64.77Y-38.12
X64.77Y-40.66
X64.77Y-43.2
X64.77Y-45.74
X64.77Y-48.28
X64.77Y-50.82
X64.77Y-53.36
X64.77Y-55.9
X64.77Y-58.44
X64.77Y-60.98
X64.77Y-63.52
X64.77Y-66.06
X64.77Y-68.6
X64.77Y-71.14
X64.77Y-73.68
X64.77Y-76.22
X64.77Y-78.76
X64.77Y-81.3
X64.77Y-83.84
X64.77Y-86.38
X64.77Y-88.92
X64.77Y-91.46
X64.77Y-94.0
X64.77Y-96.54
X64.77Y-99.08
X64.77Y-101.62
X64.77Y-104.16
X64.77Y-106.7
X67.31Y-27.96
X67.31Y-30.5
X67.31Y-33.04
X67.31Y-35.58
X67.31Y-38.12
X67.31Y-40.66
X67.31Y-43.2
X67.31Y-45.74
X67.31Y-48.28
X67.31Y-50.82
X67.31Y-53.36
X67.31Y-55.9
X67.31Y-58.44
X67.31Y-60.98
X67.31Y-63.52
X67.31Y-66.06
X67.31Y-68.6
X67.31Y-71.14
X67.31Y-73.68
X67.31Y-76.22
X67.31Y-78.76
X67.31Y-81.3
X67.31Y-83.84
X67.31Y-86.38
X67.31Y-88.92
X67.31Y-91.46
X67.31Y-94.0
X67.31Y-96.54
X67.31Y-99.08
X67.31Y-101.62
X67.31Y-104.16
X67.31Y-106.7
X75.184Y-91.46
X75.184Y-94.0
X75.184Y-96.54
X75.184Y-99.08
X75.184Y-101.62
X75.184Y-104.16
X75.184Y-106.7
X75.184Y-109.24
X77.724Y-91.46
X77.724Y-94.0
X77.724Y-96.54
X77.724Y-99.08
X77.724Y-101.62
X77.724Y-104.16
X77.724Y-106.7
X77.724Y-109.24
X92.583Y-22.844
X92.583Y-25.444
X97.685Y-29.02
X97.685Y-31.56
X97.685Y-34.1
X97.685Y-36.64
X97.685Y-39.18
X97.685Y-41.72
X97.685Y-44.26
X97.685Y-46.8
X97.685Y-49.34
X97.685Y-51.88
X97.685Y-54.42
X97.685Y-56.96
X97.685Y-59.5
X97.685Y-62.04
X97.685Y-64.58
X97.685Y-67.12
X97.685Y-69.66
X97.685Y-72.2
X97.685Y-74.74
X97.685Y-77.28
X100.225Y-29.02
X100.225Y-31.56
X100.225Y-34.1
X100.225Y-36.64
X100.225Y-39.18
X100.225Y-41.72
X100.225Y-44.26
X100.225Y-46.8
X100.225Y-49.34
X100.225Y-51.88
X100.225Y-54.42
X100.225Y-56.96
X100.225Y-59.5
X100.225Y-62.04
X100.225Y-64.58
X100.225Y-67.12
X100.225Y-69.66
X100.225Y-72.2
X100.225Y-74.74
X100.225Y-77.28
X106.951Y-29.738
X106.951Y-32.278
X109.491Y-29.738
X109.491Y-32.278
X110.072Y-37.358
X110.072Y-39.898
X110.072Y-42.438
X110.109Y-81.808
X112.031Y-29.738
X112.031Y-32.278
X112.649Y-81.808
X115.189Y-81.808
X117.692Y-27.198
X117.692Y-29.738
X117.692Y-32.278
X117.692Y-34.818
X117.692Y-37.358
X117.692Y-39.898
X120.232Y-27.198
X120.232Y-29.738
X120.232Y-32.278
X120.232Y-34.818
X120.232Y-37.358
X120.232Y-39.898
X122.064Y-72.918
X122.064Y-75.458
X125.366Y-27.198
X125.366Y-29.738
X125.366Y-32.278
X125.366Y-34.818
X125.366Y-37.358
X125.366Y-39.898
X125.366Y-42.438
X125.366Y-44.978
X125.366Y-47.518
X125.366Y-50.058
X125.366Y-52.598
X125.366Y-55.138
X125.366Y-57.678
X125.366Y-60.218
X125.366Y-62.758
X125.366Y-65.298
X125.366Y-67.838
X125.366Y-70.378
X125.366Y-72.918
X125.366Y-75.458
X126.221Y-83.064
X127.906Y-27.198
X127.906Y-29.738
X127.906Y-32.278
X127.906Y-34.818
X127.906Y-37.358
X127.906Y-39.898
X127.906Y-42.438
X127.906Y-44.978
X127.906Y-47.518
X127.906Y-50.058
X127.906Y-52.598
X127.906Y-55.138
X127.906Y-57.678
X127.906Y-60.218
X127.906Y-62.758
X127.906Y-65.298
X127.906Y-67.838
X127.906Y-70.378
X127.906Y-72.918
X127.906Y-75.458
X128.761Y-83.064
X134.494Y-87.55
X137.034Y-87.55
T5
X87.358Y-93.396
X87.358Y-111.176
X89.898Y-93.396
X89.898Y-111.176
X92.438Y-93.396
X92.438Y-111.176
X94.978Y-93.396
X94.978Y-111.176
X97.518Y-93.396
X97.518Y-111.176
X100.058Y-93.396
X100.058Y-111.176
X102.599Y-93.396
X102.599Y-111.176
X105.138Y-93.396
X105.138Y-111.176
X107.678Y-93.396
X107.678Y-111.176
X110.218Y-93.396
X110.218Y-111.176
X112.758Y-93.396
X112.758Y-111.176
X115.298Y-93.396
X115.298Y-111.176
X117.838Y-93.396
X117.838Y-111.176
X120.378Y-93.396
X120.378Y-111.176
X122.918Y-93.396
X122.918Y-111.176
X125.459Y-93.396
X125.459Y-111.176
X127.998Y-93.396
X127.998Y-111.176
X130.538Y-93.396
X130.538Y-111.176
X133.078Y-93.396
X133.078Y-111.176
X135.618Y-93.396
X135.618Y-111.176
T6
X87.989Y-96.587
X87.989Y-107.986
X134.988Y-96.587
X134.988Y-107.986
T7
X75.955Y-24.15
X75.955Y-82.15
X98.955Y-24.15
X98.955Y-82.15
T8
X67.01Y-22.33
X67.01Y-112.33
T0
M30
