%TF.GenerationSoftware,KiCad,Pcbnew,(6.0.9)*%
%TF.CreationDate,2023-02-25T15:14:18+00:00*%
%TF.ProjectId,Atom_VGA_Tube_Combo,41746f6d-5f56-4474-915f-547562655f43,rev?*%
%TF.SameCoordinates,Original*%
%TF.FileFunction,Soldermask,Bot*%
%TF.FilePolarity,Negative*%
%FSLAX46Y46*%
G04 Gerber Fmt 4.6, Leading zero omitted, Abs format (unit mm)*
G04 Created by KiCad (PCBNEW (6.0.9)) date 2023-02-25 15:14:18*
%MOMM*%
%LPD*%
G01*
G04 APERTURE LIST*
G04 Aperture macros list*
%AMRoundRect*
0 Rectangle with rounded corners*
0 $1 Rounding radius*
0 $2 $3 $4 $5 $6 $7 $8 $9 X,Y pos of 4 corners*
0 Add a 4 corners polygon primitive as box body*
4,1,4,$2,$3,$4,$5,$6,$7,$8,$9,$2,$3,0*
0 Add four circle primitives for the rounded corners*
1,1,$1+$1,$2,$3*
1,1,$1+$1,$4,$5*
1,1,$1+$1,$6,$7*
1,1,$1+$1,$8,$9*
0 Add four rect primitives between the rounded corners*
20,1,$1+$1,$2,$3,$4,$5,0*
20,1,$1+$1,$4,$5,$6,$7,0*
20,1,$1+$1,$6,$7,$8,$9,0*
20,1,$1+$1,$8,$9,$2,$3,0*%
G04 Aperture macros list end*
%ADD10RoundRect,0.250000X-0.600000X-0.600000X0.600000X-0.600000X0.600000X0.600000X-0.600000X0.600000X0*%
%ADD11C,1.700000*%
%ADD12R,1.700000X1.700000*%
%ADD13O,1.700000X1.700000*%
%ADD14C,2.100000*%
%ADD15O,1.600000X3.200000*%
%ADD16C,6.000000*%
%ADD17R,1.600000X1.600000*%
%ADD18O,1.600000X1.600000*%
%ADD19C,2.850000*%
%ADD20RoundRect,0.249999X-0.525001X-0.525001X0.525001X-0.525001X0.525001X0.525001X-0.525001X0.525001X0*%
%ADD21C,1.550000*%
G04 APERTURE END LIST*
D10*
%TO.C,CN2*%
X125366499Y-27198000D03*
D11*
X127906499Y-27198000D03*
X125366499Y-29738000D03*
X127906499Y-29738000D03*
X125366499Y-32278000D03*
X127906499Y-32278000D03*
X125366499Y-34818000D03*
X127906499Y-34818000D03*
X125366499Y-37358000D03*
X127906499Y-37358000D03*
X125366499Y-39898000D03*
X127906499Y-39898000D03*
X125366499Y-42438000D03*
X127906499Y-42438000D03*
X125366499Y-44978000D03*
X127906499Y-44978000D03*
X125366499Y-47518000D03*
X127906499Y-47518000D03*
X125366499Y-50058000D03*
X127906499Y-50058000D03*
X125366499Y-52598000D03*
X127906499Y-52598000D03*
X125366499Y-55138000D03*
X127906499Y-55138000D03*
X125366499Y-57678000D03*
X127906499Y-57678000D03*
X125366499Y-60218000D03*
X127906499Y-60218000D03*
X125366499Y-62758000D03*
X127906499Y-62758000D03*
X125366499Y-65298000D03*
X127906499Y-65298000D03*
X125366499Y-67838000D03*
X127906499Y-67838000D03*
X125366499Y-70378000D03*
X127906499Y-70378000D03*
X125366499Y-72918000D03*
X127906499Y-72918000D03*
X125366499Y-75458000D03*
X127906499Y-75458000D03*
%TD*%
D12*
%TO.C,CN5*%
X126220500Y-83064000D03*
D13*
X128760500Y-83064000D03*
%TD*%
D12*
%TO.C,CN6*%
X106951499Y-32278000D03*
D13*
X106951499Y-29738000D03*
X109491499Y-32278000D03*
X109491499Y-29738000D03*
X112031499Y-32278000D03*
X112031499Y-29738000D03*
%TD*%
D10*
%TO.C,CN4*%
X117692000Y-27198000D03*
D11*
X120232000Y-27198000D03*
X117692000Y-29738000D03*
X120232000Y-29738000D03*
X117692000Y-32278000D03*
X120232000Y-32278000D03*
X117692000Y-34818000D03*
X120232000Y-34818000D03*
X117692000Y-37358000D03*
X120232000Y-37358000D03*
X117692000Y-39898000D03*
X120232000Y-39898000D03*
%TD*%
D12*
%TO.C,J5*%
X92582999Y-22844000D03*
D11*
X92582999Y-25444000D03*
%TD*%
D14*
%TO.C,U1*%
X134988500Y-107986500D03*
X134988500Y-96586500D03*
X87988500Y-96586500D03*
X87988500Y-107986500D03*
D15*
X135618500Y-93396500D03*
X133078500Y-93396500D03*
X130538500Y-93396500D03*
X127998500Y-93396500D03*
X125458500Y-93396500D03*
X122918500Y-93396500D03*
X120378500Y-93396500D03*
X117838500Y-93396500D03*
X115298500Y-93396500D03*
X112758500Y-93396500D03*
X110218500Y-93396500D03*
X107678500Y-93396500D03*
X105138500Y-93396500D03*
X102598500Y-93396500D03*
X100058500Y-93396500D03*
X97518500Y-93396500D03*
X94978500Y-93396500D03*
X92438500Y-93396500D03*
X89898500Y-93396500D03*
X87358500Y-93396500D03*
X87358500Y-111176500D03*
X89898500Y-111176500D03*
X92438500Y-111176500D03*
X94978500Y-111176500D03*
X97518500Y-111176500D03*
X100058500Y-111176500D03*
X102598500Y-111176500D03*
X105138500Y-111176500D03*
X107678500Y-111176500D03*
X110218500Y-111176500D03*
X112758500Y-111176500D03*
X115298500Y-111176500D03*
X117838500Y-111176500D03*
X120378500Y-111176500D03*
X122918500Y-111176500D03*
X125458500Y-111176500D03*
X127998500Y-111176500D03*
X130538500Y-111176500D03*
X133078500Y-111176500D03*
X135618500Y-111176500D03*
%TD*%
D10*
%TO.C,CN3*%
X75184000Y-91460000D03*
D11*
X77724000Y-91460000D03*
X75184000Y-94000000D03*
X77724000Y-94000000D03*
X75184000Y-96540000D03*
X77724000Y-96540000D03*
X75184000Y-99080000D03*
X77724000Y-99080000D03*
X75184000Y-101620000D03*
X77724000Y-101620000D03*
X75184000Y-104160000D03*
X77724000Y-104160000D03*
X75184000Y-106700000D03*
X77724000Y-106700000D03*
X75184000Y-109240000D03*
X77724000Y-109240000D03*
%TD*%
D16*
%TO.C,U2*%
X98954999Y-82150000D03*
X75954999Y-82150000D03*
X75954999Y-24150000D03*
X98954999Y-24150000D03*
D12*
X97684999Y-77280000D03*
D13*
X100224999Y-77280000D03*
X97684999Y-74740000D03*
X100224999Y-74740000D03*
X97684999Y-72200000D03*
X100224999Y-72200000D03*
X97684999Y-69660000D03*
X100224999Y-69660000D03*
X97684999Y-67120000D03*
X100224999Y-67120000D03*
X97684999Y-64580000D03*
X100224999Y-64580000D03*
X97684999Y-62040000D03*
X100224999Y-62040000D03*
X97684999Y-59500000D03*
X100224999Y-59500000D03*
X97684999Y-56960000D03*
X100224999Y-56960000D03*
X97684999Y-54420000D03*
X100224999Y-54420000D03*
X97684999Y-51880000D03*
X100224999Y-51880000D03*
X97684999Y-49340000D03*
X100224999Y-49340000D03*
X97684999Y-46800000D03*
X100224999Y-46800000D03*
X97684999Y-44260000D03*
X100224999Y-44260000D03*
X97684999Y-41720000D03*
X100224999Y-41720000D03*
X97684999Y-39180000D03*
X100224999Y-39180000D03*
X97684999Y-36640000D03*
X100224999Y-36640000D03*
X97684999Y-34100000D03*
X100224999Y-34100000D03*
X97684999Y-31560000D03*
X100224999Y-31560000D03*
X97684999Y-29020000D03*
X100224999Y-29020000D03*
%TD*%
D12*
%TO.C,J1*%
X134494000Y-87550000D03*
D13*
X137034000Y-87550000D03*
%TD*%
D12*
%TO.C,J3*%
X122064499Y-75458000D03*
D13*
X122064499Y-72918000D03*
%TD*%
D12*
%TO.C,J4*%
X110109000Y-81808000D03*
D13*
X112649000Y-81808000D03*
X115189000Y-81808000D03*
%TD*%
D17*
%TO.C,U8*%
X110109000Y-51836000D03*
D18*
X110109000Y-54376000D03*
X110109000Y-56916000D03*
X110109000Y-59456000D03*
X110109000Y-61996000D03*
X110109000Y-64536000D03*
X110109000Y-67076000D03*
X110109000Y-69616000D03*
X110109000Y-72156000D03*
X110109000Y-74696000D03*
X117729000Y-74696000D03*
X117729000Y-72156000D03*
X117729000Y-69616000D03*
X117729000Y-67076000D03*
X117729000Y-64536000D03*
X117729000Y-61996000D03*
X117729000Y-59456000D03*
X117729000Y-56916000D03*
X117729000Y-54376000D03*
X117729000Y-51836000D03*
%TD*%
D12*
%TO.C,J2*%
X110072000Y-42438000D03*
D13*
X110072000Y-39898000D03*
X110072000Y-37358000D03*
%TD*%
D19*
%TO.C,CN1*%
X67010000Y-22330000D03*
X67010000Y-112330000D03*
D20*
X64770000Y-106700000D03*
D21*
X64770000Y-104160000D03*
X64770000Y-101620000D03*
X64770000Y-99080000D03*
X64770000Y-96540000D03*
X64770000Y-94000000D03*
X64770000Y-91460000D03*
X64770000Y-88920000D03*
X64770000Y-86380000D03*
X64770000Y-83840000D03*
X64770000Y-81300000D03*
X64770000Y-78760000D03*
X64770000Y-76220000D03*
X64770000Y-73680000D03*
X64770000Y-71140000D03*
X64770000Y-68600000D03*
X64770000Y-66060000D03*
X64770000Y-63520000D03*
X64770000Y-60980000D03*
X64770000Y-58440000D03*
X64770000Y-55900000D03*
X64770000Y-53360000D03*
X64770000Y-50820000D03*
X64770000Y-48280000D03*
X64770000Y-45740000D03*
X64770000Y-43200000D03*
X64770000Y-40660000D03*
X64770000Y-38120000D03*
X64770000Y-35580000D03*
X64770000Y-33040000D03*
X64770000Y-30500000D03*
X64770000Y-27960000D03*
X67310000Y-106700000D03*
X67310000Y-104160000D03*
X67310000Y-101620000D03*
X67310000Y-99080000D03*
X67310000Y-96540000D03*
X67310000Y-94000000D03*
X67310000Y-91460000D03*
X67310000Y-88920000D03*
X67310000Y-86380000D03*
X67310000Y-83840000D03*
X67310000Y-81300000D03*
X67310000Y-78760000D03*
X67310000Y-76220000D03*
X67310000Y-73680000D03*
X67310000Y-71140000D03*
X67310000Y-68600000D03*
X67310000Y-66060000D03*
X67310000Y-63520000D03*
X67310000Y-60980000D03*
X67310000Y-58440000D03*
X67310000Y-55900000D03*
X67310000Y-53360000D03*
X67310000Y-50820000D03*
X67310000Y-48280000D03*
X67310000Y-45740000D03*
X67310000Y-43200000D03*
X67310000Y-40660000D03*
X67310000Y-38120000D03*
X67310000Y-35580000D03*
X67310000Y-33040000D03*
X67310000Y-30500000D03*
X67310000Y-27960000D03*
%TD*%
M02*
