M48
; DRILL file {KiCad (6.0.9)} date Mon Jan 16 13:28:40 2023
; FORMAT={-:-/ absolute / metric / decimal}
; #@! TF.CreationDate,2023-01-16T13:28:40+00:00
; #@! TF.GenerationSoftware,Kicad,Pcbnew,(6.0.9)
; #@! TF.FileFunction,MixedPlating,1,2
FMAT,2
METRIC
; #@! TA.AperFunction,Plated,PTH,ComponentDrill
T1C0.800
%
G90
G05
T1
X116.586Y-65.024
X116.586Y-67.564
X116.586Y-70.104
X116.586Y-72.644
X116.586Y-75.184
X116.586Y-77.724
X116.586Y-80.264
X116.586Y-82.804
X116.586Y-85.344
X116.586Y-87.884
X124.206Y-65.024
X124.206Y-67.564
X124.206Y-70.104
X124.206Y-72.644
X124.206Y-75.184
X124.206Y-77.724
X124.206Y-80.264
X124.206Y-82.804
X124.206Y-85.344
X124.206Y-87.884
T0
M30
