%TF.GenerationSoftware,KiCad,Pcbnew,(6.0.9)*%
%TF.CreationDate,2023-01-16T13:28:43+00:00*%
%TF.ProjectId,Buffer_Bypass,42756666-6572-45f4-9279-706173732e6b,rev?*%
%TF.SameCoordinates,Original*%
%TF.FileFunction,Copper,L2,Bot*%
%TF.FilePolarity,Positive*%
%FSLAX46Y46*%
G04 Gerber Fmt 4.6, Leading zero omitted, Abs format (unit mm)*
G04 Created by KiCad (PCBNEW (6.0.9)) date 2023-01-16 13:28:43*
%MOMM*%
%LPD*%
G01*
G04 APERTURE LIST*
%TA.AperFunction,ComponentPad*%
%ADD10R,1.600000X1.600000*%
%TD*%
%TA.AperFunction,ComponentPad*%
%ADD11O,1.600000X1.600000*%
%TD*%
%TA.AperFunction,Conductor*%
%ADD12C,0.250000*%
%TD*%
G04 APERTURE END LIST*
D10*
%TO.P,U1,1,A0*%
%TO.N,/A0*%
X116586000Y-65024000D03*
D11*
%TO.P,U1,2,A1*%
%TO.N,/A1*%
X116586000Y-67564000D03*
%TO.P,U1,3,A2*%
%TO.N,/A2*%
X116586000Y-70104000D03*
%TO.P,U1,4,A3*%
%TO.N,/A3*%
X116586000Y-72644000D03*
%TO.P,U1,5,A4*%
%TO.N,/A4*%
X116586000Y-75184000D03*
%TO.P,U1,6,A5*%
%TO.N,/A5*%
X116586000Y-77724000D03*
%TO.P,U1,7,A6*%
%TO.N,/A6*%
X116586000Y-80264000D03*
%TO.P,U1,8,A7*%
%TO.N,/A7*%
X116586000Y-82804000D03*
%TO.P,U1,9,CE*%
%TO.N,unconnected-(U1-Pad9)*%
X116586000Y-85344000D03*
%TO.P,U1,10,GND*%
%TO.N,unconnected-(U1-Pad10)*%
X116586000Y-87884000D03*
%TO.P,U1,11,A->B*%
%TO.N,unconnected-(U1-Pad11)*%
X124206000Y-87884000D03*
%TO.P,U1,12,B7*%
%TO.N,/A7*%
X124206000Y-85344000D03*
%TO.P,U1,13,B6*%
%TO.N,/A6*%
X124206000Y-82804000D03*
%TO.P,U1,14,B5*%
%TO.N,/A5*%
X124206000Y-80264000D03*
%TO.P,U1,15,B4*%
%TO.N,/A4*%
X124206000Y-77724000D03*
%TO.P,U1,16,B3*%
%TO.N,/A3*%
X124206000Y-75184000D03*
%TO.P,U1,17,B2*%
%TO.N,/A2*%
X124206000Y-72644000D03*
%TO.P,U1,18,B1*%
%TO.N,/A1*%
X124206000Y-70104000D03*
%TO.P,U1,19,B0*%
%TO.N,/A0*%
X124206000Y-67564000D03*
%TO.P,U1,20,VCC*%
%TO.N,unconnected-(U1-Pad20)*%
X124206000Y-65024000D03*
%TD*%
D12*
%TO.N,/A0*%
X124206000Y-67564000D02*
X119126000Y-67564000D01*
X119126000Y-67564000D02*
X116586000Y-65024000D01*
%TO.N,/A1*%
X119126000Y-70104000D02*
X116586000Y-67564000D01*
X124206000Y-70104000D02*
X119126000Y-70104000D01*
%TO.N,/A2*%
X119126000Y-72644000D02*
X116586000Y-70104000D01*
X124206000Y-72644000D02*
X119126000Y-72644000D01*
%TO.N,/A3*%
X119126000Y-75184000D02*
X116586000Y-72644000D01*
X124206000Y-75184000D02*
X119126000Y-75184000D01*
%TO.N,/A4*%
X119126000Y-77724000D02*
X116586000Y-75184000D01*
X124206000Y-77724000D02*
X119126000Y-77724000D01*
%TO.N,/A5*%
X119126000Y-80264000D02*
X116586000Y-77724000D01*
X124206000Y-80264000D02*
X119126000Y-80264000D01*
%TO.N,/A6*%
X124206000Y-82804000D02*
X119126000Y-82804000D01*
X119126000Y-82804000D02*
X116586000Y-80264000D01*
%TO.N,/A7*%
X119126000Y-85344000D02*
X116586000Y-82804000D01*
X124206000Y-85344000D02*
X119126000Y-85344000D01*
%TD*%
%TA.AperFunction,NonConductor*%
G36*
X125165363Y-66039549D02*
G01*
X125213948Y-66091319D01*
X125227500Y-66148165D01*
X125227500Y-66439835D01*
X125207498Y-66507956D01*
X125153842Y-66554449D01*
X125083568Y-66564553D01*
X125029229Y-66543048D01*
X124862749Y-66426477D01*
X124857767Y-66424154D01*
X124857762Y-66424151D01*
X124823543Y-66408195D01*
X124770258Y-66361278D01*
X124750797Y-66293001D01*
X124771339Y-66225041D01*
X124823543Y-66179805D01*
X124857762Y-66163849D01*
X124857767Y-66163846D01*
X124862749Y-66161523D01*
X125029229Y-66044952D01*
X125096503Y-66022264D01*
X125165363Y-66039549D01*
G37*
%TD.AperFunction*%
%TA.AperFunction,NonConductor*%
G36*
X123210933Y-63952502D02*
G01*
X123257426Y-64006158D01*
X123267530Y-64076432D01*
X123238036Y-64141012D01*
X123231907Y-64147595D01*
X123199802Y-64179700D01*
X123068477Y-64367251D01*
X123066154Y-64372233D01*
X123066151Y-64372238D01*
X122974039Y-64569775D01*
X122971716Y-64574757D01*
X122912457Y-64795913D01*
X122892502Y-65024000D01*
X122912457Y-65252087D01*
X122971716Y-65473243D01*
X122974039Y-65478224D01*
X122974039Y-65478225D01*
X123066151Y-65675762D01*
X123066154Y-65675767D01*
X123068477Y-65680749D01*
X123199802Y-65868300D01*
X123361700Y-66030198D01*
X123366208Y-66033355D01*
X123366211Y-66033357D01*
X123444389Y-66088098D01*
X123549251Y-66161523D01*
X123554233Y-66163846D01*
X123554238Y-66163849D01*
X123588457Y-66179805D01*
X123641742Y-66226722D01*
X123661203Y-66294999D01*
X123640661Y-66362959D01*
X123588457Y-66408195D01*
X123554238Y-66424151D01*
X123554233Y-66424154D01*
X123549251Y-66426477D01*
X123530174Y-66439835D01*
X123366211Y-66554643D01*
X123366208Y-66554645D01*
X123361700Y-66557802D01*
X123199802Y-66719700D01*
X123196645Y-66724208D01*
X123196643Y-66724211D01*
X123089819Y-66876771D01*
X123034362Y-66921099D01*
X122986606Y-66930500D01*
X119440595Y-66930500D01*
X119372474Y-66910498D01*
X119351500Y-66893595D01*
X117931405Y-65473500D01*
X117897379Y-65411188D01*
X117894500Y-65384405D01*
X117894500Y-64175866D01*
X117887745Y-64113684D01*
X117883637Y-64102725D01*
X117883420Y-64099762D01*
X117883144Y-64098600D01*
X117883332Y-64098555D01*
X117878457Y-64031918D01*
X117912380Y-63969550D01*
X117974637Y-63935423D01*
X118001621Y-63932500D01*
X123142812Y-63932500D01*
X123210933Y-63952502D01*
G37*
%TD.AperFunction*%
%TA.AperFunction,NonConductor*%
G36*
X125165363Y-68579549D02*
G01*
X125213948Y-68631319D01*
X125227500Y-68688165D01*
X125227500Y-68979835D01*
X125207498Y-69047956D01*
X125153842Y-69094449D01*
X125083568Y-69104553D01*
X125029229Y-69083048D01*
X124983010Y-69050685D01*
X124862749Y-68966477D01*
X124857767Y-68964154D01*
X124857762Y-68964151D01*
X124823543Y-68948195D01*
X124770258Y-68901278D01*
X124750797Y-68833001D01*
X124771339Y-68765041D01*
X124823543Y-68719805D01*
X124857762Y-68703849D01*
X124857767Y-68703846D01*
X124862749Y-68701523D01*
X125029229Y-68584952D01*
X125096503Y-68562264D01*
X125165363Y-68579549D01*
G37*
%TD.AperFunction*%
%TA.AperFunction,NonConductor*%
G36*
X115742771Y-68570948D02*
G01*
X115755055Y-68579549D01*
X115929251Y-68701523D01*
X115934233Y-68703846D01*
X115934238Y-68703849D01*
X115968457Y-68719805D01*
X116021742Y-68766722D01*
X116041203Y-68834999D01*
X116020661Y-68902959D01*
X115968457Y-68948195D01*
X115934238Y-68964151D01*
X115934233Y-68964154D01*
X115929251Y-68966477D01*
X115812887Y-69047956D01*
X115742771Y-69097052D01*
X115675497Y-69119740D01*
X115606636Y-69102455D01*
X115558052Y-69050685D01*
X115544500Y-68993839D01*
X115544500Y-68674161D01*
X115564502Y-68606040D01*
X115618158Y-68559547D01*
X115688432Y-68549443D01*
X115742771Y-68570948D01*
G37*
%TD.AperFunction*%
%TA.AperFunction,NonConductor*%
G36*
X118097393Y-67433534D02*
G01*
X118112589Y-67446493D01*
X118622343Y-67956247D01*
X118629887Y-67964537D01*
X118634000Y-67971018D01*
X118639777Y-67976443D01*
X118683667Y-68017658D01*
X118686509Y-68020413D01*
X118706230Y-68040134D01*
X118709425Y-68042612D01*
X118718447Y-68050318D01*
X118750679Y-68080586D01*
X118757628Y-68084406D01*
X118768432Y-68090346D01*
X118784956Y-68101199D01*
X118800959Y-68113613D01*
X118841543Y-68131176D01*
X118852173Y-68136383D01*
X118890940Y-68157695D01*
X118898617Y-68159666D01*
X118898622Y-68159668D01*
X118910558Y-68162732D01*
X118929266Y-68169137D01*
X118947855Y-68177181D01*
X118955680Y-68178420D01*
X118955682Y-68178421D01*
X118991519Y-68184097D01*
X119003140Y-68186504D01*
X119038289Y-68195528D01*
X119045970Y-68197500D01*
X119066231Y-68197500D01*
X119085940Y-68199051D01*
X119105943Y-68202219D01*
X119113835Y-68201473D01*
X119119062Y-68200979D01*
X119149954Y-68198059D01*
X119161811Y-68197500D01*
X122986606Y-68197500D01*
X123054727Y-68217502D01*
X123089819Y-68251229D01*
X123199802Y-68408300D01*
X123361700Y-68570198D01*
X123366208Y-68573355D01*
X123366211Y-68573357D01*
X123444389Y-68628098D01*
X123549251Y-68701523D01*
X123554233Y-68703846D01*
X123554238Y-68703849D01*
X123588457Y-68719805D01*
X123641742Y-68766722D01*
X123661203Y-68834999D01*
X123640661Y-68902959D01*
X123588457Y-68948195D01*
X123554238Y-68964151D01*
X123554233Y-68964154D01*
X123549251Y-68966477D01*
X123444389Y-69039902D01*
X123366211Y-69094643D01*
X123366208Y-69094645D01*
X123361700Y-69097802D01*
X123199802Y-69259700D01*
X123196645Y-69264208D01*
X123196643Y-69264211D01*
X123089819Y-69416771D01*
X123034362Y-69461099D01*
X122986606Y-69470500D01*
X119440595Y-69470500D01*
X119372474Y-69450498D01*
X119351500Y-69433595D01*
X117895152Y-67977247D01*
X117861126Y-67914935D01*
X117862540Y-67855541D01*
X117879543Y-67792087D01*
X117899498Y-67564000D01*
X117899019Y-67558525D01*
X117899019Y-67558514D01*
X117897974Y-67546570D01*
X117911962Y-67476965D01*
X117961361Y-67425973D01*
X118030487Y-67409782D01*
X118097393Y-67433534D01*
G37*
%TD.AperFunction*%
%TA.AperFunction,NonConductor*%
G36*
X125165363Y-71119549D02*
G01*
X125213948Y-71171319D01*
X125227500Y-71228165D01*
X125227500Y-71519835D01*
X125207498Y-71587956D01*
X125153842Y-71634449D01*
X125083568Y-71644553D01*
X125029229Y-71623048D01*
X124983010Y-71590685D01*
X124862749Y-71506477D01*
X124857767Y-71504154D01*
X124857762Y-71504151D01*
X124823543Y-71488195D01*
X124770258Y-71441278D01*
X124750797Y-71373001D01*
X124771339Y-71305041D01*
X124823543Y-71259805D01*
X124857762Y-71243849D01*
X124857767Y-71243846D01*
X124862749Y-71241523D01*
X125029229Y-71124952D01*
X125096503Y-71102264D01*
X125165363Y-71119549D01*
G37*
%TD.AperFunction*%
%TA.AperFunction,NonConductor*%
G36*
X115742771Y-71110948D02*
G01*
X115755055Y-71119549D01*
X115929251Y-71241523D01*
X115934233Y-71243846D01*
X115934238Y-71243849D01*
X115968457Y-71259805D01*
X116021742Y-71306722D01*
X116041203Y-71374999D01*
X116020661Y-71442959D01*
X115968457Y-71488195D01*
X115934238Y-71504151D01*
X115934233Y-71504154D01*
X115929251Y-71506477D01*
X115812887Y-71587956D01*
X115742771Y-71637052D01*
X115675497Y-71659740D01*
X115606636Y-71642455D01*
X115558052Y-71590685D01*
X115544500Y-71533839D01*
X115544500Y-71214161D01*
X115564502Y-71146040D01*
X115618158Y-71099547D01*
X115688432Y-71089443D01*
X115742771Y-71110948D01*
G37*
%TD.AperFunction*%
%TA.AperFunction,NonConductor*%
G36*
X118097393Y-69973534D02*
G01*
X118112589Y-69986493D01*
X118622343Y-70496247D01*
X118629887Y-70504537D01*
X118634000Y-70511018D01*
X118639777Y-70516443D01*
X118683667Y-70557658D01*
X118686509Y-70560413D01*
X118706230Y-70580134D01*
X118709425Y-70582612D01*
X118718447Y-70590318D01*
X118750679Y-70620586D01*
X118757628Y-70624406D01*
X118768432Y-70630346D01*
X118784956Y-70641199D01*
X118800959Y-70653613D01*
X118841543Y-70671176D01*
X118852173Y-70676383D01*
X118890940Y-70697695D01*
X118898617Y-70699666D01*
X118898622Y-70699668D01*
X118910558Y-70702732D01*
X118929266Y-70709137D01*
X118947855Y-70717181D01*
X118955680Y-70718420D01*
X118955682Y-70718421D01*
X118991519Y-70724097D01*
X119003140Y-70726504D01*
X119038289Y-70735528D01*
X119045970Y-70737500D01*
X119066231Y-70737500D01*
X119085940Y-70739051D01*
X119105943Y-70742219D01*
X119113835Y-70741473D01*
X119119062Y-70740979D01*
X119149954Y-70738059D01*
X119161811Y-70737500D01*
X122986606Y-70737500D01*
X123054727Y-70757502D01*
X123089819Y-70791229D01*
X123199802Y-70948300D01*
X123361700Y-71110198D01*
X123366208Y-71113355D01*
X123366211Y-71113357D01*
X123444389Y-71168098D01*
X123549251Y-71241523D01*
X123554233Y-71243846D01*
X123554238Y-71243849D01*
X123588457Y-71259805D01*
X123641742Y-71306722D01*
X123661203Y-71374999D01*
X123640661Y-71442959D01*
X123588457Y-71488195D01*
X123554238Y-71504151D01*
X123554233Y-71504154D01*
X123549251Y-71506477D01*
X123444389Y-71579902D01*
X123366211Y-71634643D01*
X123366208Y-71634645D01*
X123361700Y-71637802D01*
X123199802Y-71799700D01*
X123196645Y-71804208D01*
X123196643Y-71804211D01*
X123089819Y-71956771D01*
X123034362Y-72001099D01*
X122986606Y-72010500D01*
X119440595Y-72010500D01*
X119372474Y-71990498D01*
X119351500Y-71973595D01*
X117895152Y-70517247D01*
X117861126Y-70454935D01*
X117862540Y-70395541D01*
X117879543Y-70332087D01*
X117899498Y-70104000D01*
X117899019Y-70098525D01*
X117899019Y-70098514D01*
X117897974Y-70086570D01*
X117911962Y-70016965D01*
X117961361Y-69965973D01*
X118030487Y-69949782D01*
X118097393Y-69973534D01*
G37*
%TD.AperFunction*%
%TA.AperFunction,NonConductor*%
G36*
X125165363Y-73659549D02*
G01*
X125213948Y-73711319D01*
X125227500Y-73768165D01*
X125227500Y-74059835D01*
X125207498Y-74127956D01*
X125153842Y-74174449D01*
X125083568Y-74184553D01*
X125029229Y-74163048D01*
X124983010Y-74130685D01*
X124862749Y-74046477D01*
X124857767Y-74044154D01*
X124857762Y-74044151D01*
X124823543Y-74028195D01*
X124770258Y-73981278D01*
X124750797Y-73913001D01*
X124771339Y-73845041D01*
X124823543Y-73799805D01*
X124857762Y-73783849D01*
X124857767Y-73783846D01*
X124862749Y-73781523D01*
X125029229Y-73664952D01*
X125096503Y-73642264D01*
X125165363Y-73659549D01*
G37*
%TD.AperFunction*%
%TA.AperFunction,NonConductor*%
G36*
X115742771Y-73650948D02*
G01*
X115755055Y-73659549D01*
X115929251Y-73781523D01*
X115934233Y-73783846D01*
X115934238Y-73783849D01*
X115968457Y-73799805D01*
X116021742Y-73846722D01*
X116041203Y-73914999D01*
X116020661Y-73982959D01*
X115968457Y-74028195D01*
X115934238Y-74044151D01*
X115934233Y-74044154D01*
X115929251Y-74046477D01*
X115812887Y-74127956D01*
X115742771Y-74177052D01*
X115675497Y-74199740D01*
X115606636Y-74182455D01*
X115558052Y-74130685D01*
X115544500Y-74073839D01*
X115544500Y-73754161D01*
X115564502Y-73686040D01*
X115618158Y-73639547D01*
X115688432Y-73629443D01*
X115742771Y-73650948D01*
G37*
%TD.AperFunction*%
%TA.AperFunction,NonConductor*%
G36*
X118097393Y-72513534D02*
G01*
X118112589Y-72526493D01*
X118622343Y-73036247D01*
X118629887Y-73044537D01*
X118634000Y-73051018D01*
X118639777Y-73056443D01*
X118683667Y-73097658D01*
X118686509Y-73100413D01*
X118706230Y-73120134D01*
X118709425Y-73122612D01*
X118718447Y-73130318D01*
X118750679Y-73160586D01*
X118757628Y-73164406D01*
X118768432Y-73170346D01*
X118784956Y-73181199D01*
X118800959Y-73193613D01*
X118841543Y-73211176D01*
X118852173Y-73216383D01*
X118890940Y-73237695D01*
X118898617Y-73239666D01*
X118898622Y-73239668D01*
X118910558Y-73242732D01*
X118929266Y-73249137D01*
X118947855Y-73257181D01*
X118955680Y-73258420D01*
X118955682Y-73258421D01*
X118991519Y-73264097D01*
X119003140Y-73266504D01*
X119038289Y-73275528D01*
X119045970Y-73277500D01*
X119066231Y-73277500D01*
X119085940Y-73279051D01*
X119105943Y-73282219D01*
X119113835Y-73281473D01*
X119119062Y-73280979D01*
X119149954Y-73278059D01*
X119161811Y-73277500D01*
X122986606Y-73277500D01*
X123054727Y-73297502D01*
X123089819Y-73331229D01*
X123199802Y-73488300D01*
X123361700Y-73650198D01*
X123366208Y-73653355D01*
X123366211Y-73653357D01*
X123444389Y-73708098D01*
X123549251Y-73781523D01*
X123554233Y-73783846D01*
X123554238Y-73783849D01*
X123588457Y-73799805D01*
X123641742Y-73846722D01*
X123661203Y-73914999D01*
X123640661Y-73982959D01*
X123588457Y-74028195D01*
X123554238Y-74044151D01*
X123554233Y-74044154D01*
X123549251Y-74046477D01*
X123444389Y-74119902D01*
X123366211Y-74174643D01*
X123366208Y-74174645D01*
X123361700Y-74177802D01*
X123199802Y-74339700D01*
X123196645Y-74344208D01*
X123196643Y-74344211D01*
X123089819Y-74496771D01*
X123034362Y-74541099D01*
X122986606Y-74550500D01*
X119440595Y-74550500D01*
X119372474Y-74530498D01*
X119351500Y-74513595D01*
X117895152Y-73057247D01*
X117861126Y-72994935D01*
X117862540Y-72935541D01*
X117879543Y-72872087D01*
X117899498Y-72644000D01*
X117899019Y-72638525D01*
X117899019Y-72638514D01*
X117897974Y-72626570D01*
X117911962Y-72556965D01*
X117961361Y-72505973D01*
X118030487Y-72489782D01*
X118097393Y-72513534D01*
G37*
%TD.AperFunction*%
%TA.AperFunction,NonConductor*%
G36*
X125165363Y-76199549D02*
G01*
X125213948Y-76251319D01*
X125227500Y-76308165D01*
X125227500Y-76599835D01*
X125207498Y-76667956D01*
X125153842Y-76714449D01*
X125083568Y-76724553D01*
X125029229Y-76703048D01*
X124983010Y-76670685D01*
X124862749Y-76586477D01*
X124857767Y-76584154D01*
X124857762Y-76584151D01*
X124823543Y-76568195D01*
X124770258Y-76521278D01*
X124750797Y-76453001D01*
X124771339Y-76385041D01*
X124823543Y-76339805D01*
X124857762Y-76323849D01*
X124857767Y-76323846D01*
X124862749Y-76321523D01*
X125029229Y-76204952D01*
X125096503Y-76182264D01*
X125165363Y-76199549D01*
G37*
%TD.AperFunction*%
%TA.AperFunction,NonConductor*%
G36*
X115742771Y-76190948D02*
G01*
X115755055Y-76199549D01*
X115929251Y-76321523D01*
X115934233Y-76323846D01*
X115934238Y-76323849D01*
X115968457Y-76339805D01*
X116021742Y-76386722D01*
X116041203Y-76454999D01*
X116020661Y-76522959D01*
X115968457Y-76568195D01*
X115934238Y-76584151D01*
X115934233Y-76584154D01*
X115929251Y-76586477D01*
X115812887Y-76667956D01*
X115742771Y-76717052D01*
X115675497Y-76739740D01*
X115606636Y-76722455D01*
X115558052Y-76670685D01*
X115544500Y-76613839D01*
X115544500Y-76294161D01*
X115564502Y-76226040D01*
X115618158Y-76179547D01*
X115688432Y-76169443D01*
X115742771Y-76190948D01*
G37*
%TD.AperFunction*%
%TA.AperFunction,NonConductor*%
G36*
X118097393Y-75053534D02*
G01*
X118112589Y-75066493D01*
X118622343Y-75576247D01*
X118629887Y-75584537D01*
X118634000Y-75591018D01*
X118639777Y-75596443D01*
X118683667Y-75637658D01*
X118686509Y-75640413D01*
X118706230Y-75660134D01*
X118709425Y-75662612D01*
X118718447Y-75670318D01*
X118750679Y-75700586D01*
X118757628Y-75704406D01*
X118768432Y-75710346D01*
X118784956Y-75721199D01*
X118800959Y-75733613D01*
X118841543Y-75751176D01*
X118852173Y-75756383D01*
X118890940Y-75777695D01*
X118898617Y-75779666D01*
X118898622Y-75779668D01*
X118910558Y-75782732D01*
X118929266Y-75789137D01*
X118947855Y-75797181D01*
X118955680Y-75798420D01*
X118955682Y-75798421D01*
X118991519Y-75804097D01*
X119003140Y-75806504D01*
X119038289Y-75815528D01*
X119045970Y-75817500D01*
X119066231Y-75817500D01*
X119085940Y-75819051D01*
X119105943Y-75822219D01*
X119113835Y-75821473D01*
X119119062Y-75820979D01*
X119149954Y-75818059D01*
X119161811Y-75817500D01*
X122986606Y-75817500D01*
X123054727Y-75837502D01*
X123089819Y-75871229D01*
X123199802Y-76028300D01*
X123361700Y-76190198D01*
X123366208Y-76193355D01*
X123366211Y-76193357D01*
X123444389Y-76248098D01*
X123549251Y-76321523D01*
X123554233Y-76323846D01*
X123554238Y-76323849D01*
X123588457Y-76339805D01*
X123641742Y-76386722D01*
X123661203Y-76454999D01*
X123640661Y-76522959D01*
X123588457Y-76568195D01*
X123554238Y-76584151D01*
X123554233Y-76584154D01*
X123549251Y-76586477D01*
X123444389Y-76659902D01*
X123366211Y-76714643D01*
X123366208Y-76714645D01*
X123361700Y-76717802D01*
X123199802Y-76879700D01*
X123196645Y-76884208D01*
X123196643Y-76884211D01*
X123089819Y-77036771D01*
X123034362Y-77081099D01*
X122986606Y-77090500D01*
X119440595Y-77090500D01*
X119372474Y-77070498D01*
X119351500Y-77053595D01*
X117895152Y-75597247D01*
X117861126Y-75534935D01*
X117862540Y-75475541D01*
X117879543Y-75412087D01*
X117899498Y-75184000D01*
X117899019Y-75178525D01*
X117899019Y-75178514D01*
X117897974Y-75166570D01*
X117911962Y-75096965D01*
X117961361Y-75045973D01*
X118030487Y-75029782D01*
X118097393Y-75053534D01*
G37*
%TD.AperFunction*%
%TA.AperFunction,NonConductor*%
G36*
X125165363Y-78739549D02*
G01*
X125213948Y-78791319D01*
X125227500Y-78848165D01*
X125227500Y-79139835D01*
X125207498Y-79207956D01*
X125153842Y-79254449D01*
X125083568Y-79264553D01*
X125029229Y-79243048D01*
X124983010Y-79210685D01*
X124862749Y-79126477D01*
X124857767Y-79124154D01*
X124857762Y-79124151D01*
X124823543Y-79108195D01*
X124770258Y-79061278D01*
X124750797Y-78993001D01*
X124771339Y-78925041D01*
X124823543Y-78879805D01*
X124857762Y-78863849D01*
X124857767Y-78863846D01*
X124862749Y-78861523D01*
X125029229Y-78744952D01*
X125096503Y-78722264D01*
X125165363Y-78739549D01*
G37*
%TD.AperFunction*%
%TA.AperFunction,NonConductor*%
G36*
X115742771Y-78730948D02*
G01*
X115755055Y-78739549D01*
X115929251Y-78861523D01*
X115934233Y-78863846D01*
X115934238Y-78863849D01*
X115968457Y-78879805D01*
X116021742Y-78926722D01*
X116041203Y-78994999D01*
X116020661Y-79062959D01*
X115968457Y-79108195D01*
X115934238Y-79124151D01*
X115934233Y-79124154D01*
X115929251Y-79126477D01*
X115812887Y-79207956D01*
X115742771Y-79257052D01*
X115675497Y-79279740D01*
X115606636Y-79262455D01*
X115558052Y-79210685D01*
X115544500Y-79153839D01*
X115544500Y-78834161D01*
X115564502Y-78766040D01*
X115618158Y-78719547D01*
X115688432Y-78709443D01*
X115742771Y-78730948D01*
G37*
%TD.AperFunction*%
%TA.AperFunction,NonConductor*%
G36*
X118097393Y-77593534D02*
G01*
X118112589Y-77606493D01*
X118622343Y-78116247D01*
X118629887Y-78124537D01*
X118634000Y-78131018D01*
X118639777Y-78136443D01*
X118683667Y-78177658D01*
X118686509Y-78180413D01*
X118706230Y-78200134D01*
X118709425Y-78202612D01*
X118718447Y-78210318D01*
X118750679Y-78240586D01*
X118757628Y-78244406D01*
X118768432Y-78250346D01*
X118784956Y-78261199D01*
X118800959Y-78273613D01*
X118841543Y-78291176D01*
X118852173Y-78296383D01*
X118890940Y-78317695D01*
X118898617Y-78319666D01*
X118898622Y-78319668D01*
X118910558Y-78322732D01*
X118929266Y-78329137D01*
X118947855Y-78337181D01*
X118955680Y-78338420D01*
X118955682Y-78338421D01*
X118991519Y-78344097D01*
X119003140Y-78346504D01*
X119038289Y-78355528D01*
X119045970Y-78357500D01*
X119066231Y-78357500D01*
X119085940Y-78359051D01*
X119105943Y-78362219D01*
X119113835Y-78361473D01*
X119119062Y-78360979D01*
X119149954Y-78358059D01*
X119161811Y-78357500D01*
X122986606Y-78357500D01*
X123054727Y-78377502D01*
X123089819Y-78411229D01*
X123199802Y-78568300D01*
X123361700Y-78730198D01*
X123366208Y-78733355D01*
X123366211Y-78733357D01*
X123444389Y-78788098D01*
X123549251Y-78861523D01*
X123554233Y-78863846D01*
X123554238Y-78863849D01*
X123588457Y-78879805D01*
X123641742Y-78926722D01*
X123661203Y-78994999D01*
X123640661Y-79062959D01*
X123588457Y-79108195D01*
X123554238Y-79124151D01*
X123554233Y-79124154D01*
X123549251Y-79126477D01*
X123444389Y-79199902D01*
X123366211Y-79254643D01*
X123366208Y-79254645D01*
X123361700Y-79257802D01*
X123199802Y-79419700D01*
X123196645Y-79424208D01*
X123196643Y-79424211D01*
X123089819Y-79576771D01*
X123034362Y-79621099D01*
X122986606Y-79630500D01*
X119440595Y-79630500D01*
X119372474Y-79610498D01*
X119351500Y-79593595D01*
X117895152Y-78137247D01*
X117861126Y-78074935D01*
X117862540Y-78015541D01*
X117879543Y-77952087D01*
X117899498Y-77724000D01*
X117899019Y-77718525D01*
X117899019Y-77718514D01*
X117897974Y-77706570D01*
X117911962Y-77636965D01*
X117961361Y-77585973D01*
X118030487Y-77569782D01*
X118097393Y-77593534D01*
G37*
%TD.AperFunction*%
%TA.AperFunction,NonConductor*%
G36*
X125165363Y-81279549D02*
G01*
X125213948Y-81331319D01*
X125227500Y-81388165D01*
X125227500Y-81679835D01*
X125207498Y-81747956D01*
X125153842Y-81794449D01*
X125083568Y-81804553D01*
X125029229Y-81783048D01*
X124983010Y-81750685D01*
X124862749Y-81666477D01*
X124857767Y-81664154D01*
X124857762Y-81664151D01*
X124823543Y-81648195D01*
X124770258Y-81601278D01*
X124750797Y-81533001D01*
X124771339Y-81465041D01*
X124823543Y-81419805D01*
X124857762Y-81403849D01*
X124857767Y-81403846D01*
X124862749Y-81401523D01*
X125029229Y-81284952D01*
X125096503Y-81262264D01*
X125165363Y-81279549D01*
G37*
%TD.AperFunction*%
%TA.AperFunction,NonConductor*%
G36*
X115742771Y-81270948D02*
G01*
X115755055Y-81279549D01*
X115929251Y-81401523D01*
X115934233Y-81403846D01*
X115934238Y-81403849D01*
X115968457Y-81419805D01*
X116021742Y-81466722D01*
X116041203Y-81534999D01*
X116020661Y-81602959D01*
X115968457Y-81648195D01*
X115934238Y-81664151D01*
X115934233Y-81664154D01*
X115929251Y-81666477D01*
X115812887Y-81747956D01*
X115742771Y-81797052D01*
X115675497Y-81819740D01*
X115606636Y-81802455D01*
X115558052Y-81750685D01*
X115544500Y-81693839D01*
X115544500Y-81374161D01*
X115564502Y-81306040D01*
X115618158Y-81259547D01*
X115688432Y-81249443D01*
X115742771Y-81270948D01*
G37*
%TD.AperFunction*%
%TA.AperFunction,NonConductor*%
G36*
X118097393Y-80133534D02*
G01*
X118112589Y-80146493D01*
X118622343Y-80656247D01*
X118629887Y-80664537D01*
X118634000Y-80671018D01*
X118639777Y-80676443D01*
X118683667Y-80717658D01*
X118686509Y-80720413D01*
X118706230Y-80740134D01*
X118709425Y-80742612D01*
X118718447Y-80750318D01*
X118750679Y-80780586D01*
X118757628Y-80784406D01*
X118768432Y-80790346D01*
X118784956Y-80801199D01*
X118800959Y-80813613D01*
X118841543Y-80831176D01*
X118852173Y-80836383D01*
X118890940Y-80857695D01*
X118898617Y-80859666D01*
X118898622Y-80859668D01*
X118910558Y-80862732D01*
X118929266Y-80869137D01*
X118947855Y-80877181D01*
X118955680Y-80878420D01*
X118955682Y-80878421D01*
X118991519Y-80884097D01*
X119003140Y-80886504D01*
X119038289Y-80895528D01*
X119045970Y-80897500D01*
X119066231Y-80897500D01*
X119085940Y-80899051D01*
X119105943Y-80902219D01*
X119113835Y-80901473D01*
X119119062Y-80900979D01*
X119149954Y-80898059D01*
X119161811Y-80897500D01*
X122986606Y-80897500D01*
X123054727Y-80917502D01*
X123089819Y-80951229D01*
X123199802Y-81108300D01*
X123361700Y-81270198D01*
X123366208Y-81273355D01*
X123366211Y-81273357D01*
X123444389Y-81328098D01*
X123549251Y-81401523D01*
X123554233Y-81403846D01*
X123554238Y-81403849D01*
X123588457Y-81419805D01*
X123641742Y-81466722D01*
X123661203Y-81534999D01*
X123640661Y-81602959D01*
X123588457Y-81648195D01*
X123554238Y-81664151D01*
X123554233Y-81664154D01*
X123549251Y-81666477D01*
X123444389Y-81739902D01*
X123366211Y-81794643D01*
X123366208Y-81794645D01*
X123361700Y-81797802D01*
X123199802Y-81959700D01*
X123196645Y-81964208D01*
X123196643Y-81964211D01*
X123089819Y-82116771D01*
X123034362Y-82161099D01*
X122986606Y-82170500D01*
X119440595Y-82170500D01*
X119372474Y-82150498D01*
X119351500Y-82133595D01*
X117895152Y-80677247D01*
X117861126Y-80614935D01*
X117862540Y-80555541D01*
X117879543Y-80492087D01*
X117899498Y-80264000D01*
X117899019Y-80258525D01*
X117899019Y-80258514D01*
X117897974Y-80246570D01*
X117911962Y-80176965D01*
X117961361Y-80125973D01*
X118030487Y-80109782D01*
X118097393Y-80133534D01*
G37*
%TD.AperFunction*%
%TA.AperFunction,NonConductor*%
G36*
X125165363Y-83819549D02*
G01*
X125213948Y-83871319D01*
X125227500Y-83928165D01*
X125227500Y-84219835D01*
X125207498Y-84287956D01*
X125153842Y-84334449D01*
X125083568Y-84344553D01*
X125029229Y-84323048D01*
X124983010Y-84290685D01*
X124862749Y-84206477D01*
X124857767Y-84204154D01*
X124857762Y-84204151D01*
X124823543Y-84188195D01*
X124770258Y-84141278D01*
X124750797Y-84073001D01*
X124771339Y-84005041D01*
X124823543Y-83959805D01*
X124857762Y-83943849D01*
X124857767Y-83943846D01*
X124862749Y-83941523D01*
X125029229Y-83824952D01*
X125096503Y-83802264D01*
X125165363Y-83819549D01*
G37*
%TD.AperFunction*%
%TA.AperFunction,NonConductor*%
G36*
X115742771Y-83810948D02*
G01*
X115755055Y-83819549D01*
X115929251Y-83941523D01*
X115934233Y-83943846D01*
X115934238Y-83943849D01*
X115968457Y-83959805D01*
X116021742Y-84006722D01*
X116041203Y-84074999D01*
X116020661Y-84142959D01*
X115968457Y-84188195D01*
X115934238Y-84204151D01*
X115934233Y-84204154D01*
X115929251Y-84206477D01*
X115812887Y-84287956D01*
X115742771Y-84337052D01*
X115675497Y-84359740D01*
X115606636Y-84342455D01*
X115558052Y-84290685D01*
X115544500Y-84233839D01*
X115544500Y-83914161D01*
X115564502Y-83846040D01*
X115618158Y-83799547D01*
X115688432Y-83789443D01*
X115742771Y-83810948D01*
G37*
%TD.AperFunction*%
%TA.AperFunction,NonConductor*%
G36*
X118097393Y-82673534D02*
G01*
X118112589Y-82686493D01*
X118622343Y-83196247D01*
X118629887Y-83204537D01*
X118634000Y-83211018D01*
X118639777Y-83216443D01*
X118683667Y-83257658D01*
X118686509Y-83260413D01*
X118706230Y-83280134D01*
X118709425Y-83282612D01*
X118718447Y-83290318D01*
X118750679Y-83320586D01*
X118757628Y-83324406D01*
X118768432Y-83330346D01*
X118784956Y-83341199D01*
X118800959Y-83353613D01*
X118841543Y-83371176D01*
X118852173Y-83376383D01*
X118890940Y-83397695D01*
X118898617Y-83399666D01*
X118898622Y-83399668D01*
X118910558Y-83402732D01*
X118929266Y-83409137D01*
X118947855Y-83417181D01*
X118955680Y-83418420D01*
X118955682Y-83418421D01*
X118991519Y-83424097D01*
X119003140Y-83426504D01*
X119038289Y-83435528D01*
X119045970Y-83437500D01*
X119066231Y-83437500D01*
X119085940Y-83439051D01*
X119105943Y-83442219D01*
X119113835Y-83441473D01*
X119119062Y-83440979D01*
X119149954Y-83438059D01*
X119161811Y-83437500D01*
X122986606Y-83437500D01*
X123054727Y-83457502D01*
X123089819Y-83491229D01*
X123199802Y-83648300D01*
X123361700Y-83810198D01*
X123366208Y-83813355D01*
X123366211Y-83813357D01*
X123444389Y-83868098D01*
X123549251Y-83941523D01*
X123554233Y-83943846D01*
X123554238Y-83943849D01*
X123588457Y-83959805D01*
X123641742Y-84006722D01*
X123661203Y-84074999D01*
X123640661Y-84142959D01*
X123588457Y-84188195D01*
X123554238Y-84204151D01*
X123554233Y-84204154D01*
X123549251Y-84206477D01*
X123444389Y-84279902D01*
X123366211Y-84334643D01*
X123366208Y-84334645D01*
X123361700Y-84337802D01*
X123199802Y-84499700D01*
X123196645Y-84504208D01*
X123196643Y-84504211D01*
X123089819Y-84656771D01*
X123034362Y-84701099D01*
X122986606Y-84710500D01*
X119440595Y-84710500D01*
X119372474Y-84690498D01*
X119351500Y-84673595D01*
X117895152Y-83217247D01*
X117861126Y-83154935D01*
X117862540Y-83095541D01*
X117879543Y-83032087D01*
X117899498Y-82804000D01*
X117899019Y-82798525D01*
X117899019Y-82798514D01*
X117897974Y-82786570D01*
X117911962Y-82716965D01*
X117961361Y-82665973D01*
X118030487Y-82649782D01*
X118097393Y-82673534D01*
G37*
%TD.AperFunction*%
%TA.AperFunction,NonConductor*%
G36*
X125165363Y-86359549D02*
G01*
X125213948Y-86411319D01*
X125227500Y-86468165D01*
X125227500Y-86759835D01*
X125207498Y-86827956D01*
X125153842Y-86874449D01*
X125083568Y-86884553D01*
X125029229Y-86863048D01*
X124983010Y-86830685D01*
X124862749Y-86746477D01*
X124857767Y-86744154D01*
X124857762Y-86744151D01*
X124823543Y-86728195D01*
X124770258Y-86681278D01*
X124750797Y-86613001D01*
X124771339Y-86545041D01*
X124823543Y-86499805D01*
X124857762Y-86483849D01*
X124857767Y-86483846D01*
X124862749Y-86481523D01*
X125029229Y-86364952D01*
X125096503Y-86342264D01*
X125165363Y-86359549D01*
G37*
%TD.AperFunction*%
%TA.AperFunction,NonConductor*%
G36*
X115742771Y-86350948D02*
G01*
X115755055Y-86359549D01*
X115929251Y-86481523D01*
X115934233Y-86483846D01*
X115934238Y-86483849D01*
X115968457Y-86499805D01*
X116021742Y-86546722D01*
X116041203Y-86614999D01*
X116020661Y-86682959D01*
X115968457Y-86728195D01*
X115934238Y-86744151D01*
X115934233Y-86744154D01*
X115929251Y-86746477D01*
X115812887Y-86827956D01*
X115742771Y-86877052D01*
X115675497Y-86899740D01*
X115606636Y-86882455D01*
X115558052Y-86830685D01*
X115544500Y-86773839D01*
X115544500Y-86454161D01*
X115564502Y-86386040D01*
X115618158Y-86339547D01*
X115688432Y-86329443D01*
X115742771Y-86350948D01*
G37*
%TD.AperFunction*%
%TA.AperFunction,NonConductor*%
G36*
X118097393Y-85213534D02*
G01*
X118112589Y-85226493D01*
X118622343Y-85736247D01*
X118629887Y-85744537D01*
X118634000Y-85751018D01*
X118639777Y-85756443D01*
X118683667Y-85797658D01*
X118686509Y-85800413D01*
X118706230Y-85820134D01*
X118709425Y-85822612D01*
X118718447Y-85830318D01*
X118750679Y-85860586D01*
X118757628Y-85864406D01*
X118768432Y-85870346D01*
X118784956Y-85881199D01*
X118800959Y-85893613D01*
X118841543Y-85911176D01*
X118852173Y-85916383D01*
X118890940Y-85937695D01*
X118898617Y-85939666D01*
X118898622Y-85939668D01*
X118910558Y-85942732D01*
X118929266Y-85949137D01*
X118947855Y-85957181D01*
X118955680Y-85958420D01*
X118955682Y-85958421D01*
X118991519Y-85964097D01*
X119003140Y-85966504D01*
X119038289Y-85975528D01*
X119045970Y-85977500D01*
X119066231Y-85977500D01*
X119085940Y-85979051D01*
X119105943Y-85982219D01*
X119113835Y-85981473D01*
X119119062Y-85980979D01*
X119149954Y-85978059D01*
X119161811Y-85977500D01*
X122986606Y-85977500D01*
X123054727Y-85997502D01*
X123089819Y-86031229D01*
X123199802Y-86188300D01*
X123361700Y-86350198D01*
X123366208Y-86353355D01*
X123366211Y-86353357D01*
X123444389Y-86408098D01*
X123549251Y-86481523D01*
X123554233Y-86483846D01*
X123554238Y-86483849D01*
X123588457Y-86499805D01*
X123641742Y-86546722D01*
X123661203Y-86614999D01*
X123640661Y-86682959D01*
X123588457Y-86728195D01*
X123554238Y-86744151D01*
X123554233Y-86744154D01*
X123549251Y-86746477D01*
X123444389Y-86819902D01*
X123366211Y-86874643D01*
X123366208Y-86874645D01*
X123361700Y-86877802D01*
X123199802Y-87039700D01*
X123068477Y-87227251D01*
X123066154Y-87232233D01*
X123066151Y-87232238D01*
X122974039Y-87429775D01*
X122971716Y-87434757D01*
X122912457Y-87655913D01*
X122892502Y-87884000D01*
X122912457Y-88112087D01*
X122971716Y-88333243D01*
X122974039Y-88338224D01*
X122974039Y-88338225D01*
X123066151Y-88535762D01*
X123066154Y-88535767D01*
X123068477Y-88540749D01*
X123199802Y-88728300D01*
X123221907Y-88750405D01*
X123255933Y-88812717D01*
X123250868Y-88883532D01*
X123208321Y-88940368D01*
X123141801Y-88965179D01*
X123132812Y-88965500D01*
X117659188Y-88965500D01*
X117591067Y-88945498D01*
X117544574Y-88891842D01*
X117534470Y-88821568D01*
X117563964Y-88756988D01*
X117570093Y-88750405D01*
X117592198Y-88728300D01*
X117723523Y-88540749D01*
X117725846Y-88535767D01*
X117725849Y-88535762D01*
X117817961Y-88338225D01*
X117817961Y-88338224D01*
X117820284Y-88333243D01*
X117879543Y-88112087D01*
X117899498Y-87884000D01*
X117879543Y-87655913D01*
X117820284Y-87434757D01*
X117817961Y-87429775D01*
X117725849Y-87232238D01*
X117725846Y-87232233D01*
X117723523Y-87227251D01*
X117592198Y-87039700D01*
X117430300Y-86877802D01*
X117425792Y-86874645D01*
X117425789Y-86874643D01*
X117347611Y-86819902D01*
X117242749Y-86746477D01*
X117237767Y-86744154D01*
X117237762Y-86744151D01*
X117203543Y-86728195D01*
X117150258Y-86681278D01*
X117130797Y-86613001D01*
X117151339Y-86545041D01*
X117203543Y-86499805D01*
X117237762Y-86483849D01*
X117237767Y-86483846D01*
X117242749Y-86481523D01*
X117347611Y-86408098D01*
X117425789Y-86353357D01*
X117425792Y-86353355D01*
X117430300Y-86350198D01*
X117592198Y-86188300D01*
X117723523Y-86000749D01*
X117725846Y-85995767D01*
X117725849Y-85995762D01*
X117817961Y-85798225D01*
X117817961Y-85798224D01*
X117820284Y-85793243D01*
X117879543Y-85572087D01*
X117899498Y-85344000D01*
X117899019Y-85338525D01*
X117899019Y-85338514D01*
X117897974Y-85326570D01*
X117911962Y-85256965D01*
X117961361Y-85205973D01*
X118030487Y-85189782D01*
X118097393Y-85213534D01*
G37*
%TD.AperFunction*%
M02*
