%TF.GenerationSoftware,KiCad,Pcbnew,(7.0.0)*%
%TF.CreationDate,2023-03-04T23:02:33+00:00*%
%TF.ProjectId,VGA_ConnectorV2.kicad_pro,5647415f-436f-46e6-9e65-63746f725632,rev?*%
%TF.SameCoordinates,Original*%
%TF.FileFunction,Copper,L2,Bot*%
%TF.FilePolarity,Positive*%
%FSLAX46Y46*%
G04 Gerber Fmt 4.6, Leading zero omitted, Abs format (unit mm)*
G04 Created by KiCad (PCBNEW (7.0.0)) date 2023-03-04 23:02:33*
%MOMM*%
%LPD*%
G01*
G04 APERTURE LIST*
G04 Aperture macros list*
%AMRoundRect*
0 Rectangle with rounded corners*
0 $1 Rounding radius*
0 $2 $3 $4 $5 $6 $7 $8 $9 X,Y pos of 4 corners*
0 Add a 4 corners polygon primitive as box body*
4,1,4,$2,$3,$4,$5,$6,$7,$8,$9,$2,$3,0*
0 Add four circle primitives for the rounded corners*
1,1,$1+$1,$2,$3*
1,1,$1+$1,$4,$5*
1,1,$1+$1,$6,$7*
1,1,$1+$1,$8,$9*
0 Add four rect primitives between the rounded corners*
20,1,$1+$1,$2,$3,$4,$5,0*
20,1,$1+$1,$4,$5,$6,$7,0*
20,1,$1+$1,$6,$7,$8,$9,0*
20,1,$1+$1,$8,$9,$2,$3,0*%
G04 Aperture macros list end*
%TA.AperFunction,ComponentPad*%
%ADD10C,2.000000*%
%TD*%
%TA.AperFunction,ComponentPad*%
%ADD11RoundRect,0.250000X-0.600000X-0.600000X0.600000X-0.600000X0.600000X0.600000X-0.600000X0.600000X0*%
%TD*%
%TA.AperFunction,ComponentPad*%
%ADD12C,1.700000*%
%TD*%
%TA.AperFunction,ComponentPad*%
%ADD13C,1.600000*%
%TD*%
%TA.AperFunction,ComponentPad*%
%ADD14R,1.600000X1.600000*%
%TD*%
%TA.AperFunction,ComponentPad*%
%ADD15C,4.000000*%
%TD*%
%TA.AperFunction,Conductor*%
%ADD16C,0.250000*%
%TD*%
G04 APERTURE END LIST*
D10*
%TO.P,SW2,1,A*%
%TO.N,/~{PICO_RST}*%
X151838000Y-101289000D03*
X151838000Y-94789000D03*
%TO.P,SW2,2,B*%
%TO.N,GND*%
X147338000Y-101289000D03*
X147338000Y-94789000D03*
%TD*%
%TO.P,SW1,1,A*%
%TO.N,/~{SCR_CAP}*%
X144218000Y-101289000D03*
X144218000Y-94789000D03*
%TO.P,SW1,2,B*%
%TO.N,GND*%
X139718000Y-101289000D03*
X139718000Y-94789000D03*
%TD*%
D11*
%TO.P,J1,1,Pin_1*%
%TO.N,/VGA_RED*%
X142746000Y-69850000D03*
D12*
%TO.P,J1,2,Pin_2*%
%TO.N,/VGA_GREEN*%
X145286000Y-69850000D03*
%TO.P,J1,3,Pin_3*%
%TO.N,/VGA_BLUE*%
X142746000Y-72390000D03*
%TO.P,J1,4,Pin_4*%
%TO.N,unconnected-(J1-Pin_4-Pad4)*%
X145286000Y-72390000D03*
%TO.P,J1,5,Pin_5*%
%TO.N,GND*%
X142746000Y-74930000D03*
%TO.P,J1,6,Pin_6*%
X145286000Y-74930000D03*
%TO.P,J1,7,Pin_7*%
X142746000Y-77470000D03*
%TO.P,J1,8,Pin_8*%
X145286000Y-77470000D03*
%TO.P,J1,9,Pin_9*%
%TO.N,/~{SCR_CAP}*%
X142746000Y-80010000D03*
%TO.P,J1,10,Pin_10*%
%TO.N,GND*%
X145286000Y-80010000D03*
%TO.P,J1,11,Pin_11*%
%TO.N,unconnected-(J1-Pin_11-Pad11)*%
X142746000Y-82550000D03*
%TO.P,J1,12,Pin_12*%
%TO.N,/~{PICO_RST}*%
X145286000Y-82550000D03*
%TO.P,J1,13,Pin_13*%
%TO.N,/HSYNC*%
X142746000Y-85090000D03*
%TO.P,J1,14,Pin_14*%
%TO.N,/VSYNC*%
X145286000Y-85090000D03*
%TO.P,J1,15,Pin_15*%
%TO.N,unconnected-(J1-Pin_15-Pad15)*%
X142746000Y-87630000D03*
%TO.P,J1,16,Pin_16*%
%TO.N,unconnected-(J1-Pin_16-Pad16)*%
X145286000Y-87630000D03*
%TD*%
D13*
%TO.P,J2,15*%
%TO.N,unconnected-(J2-Pad15)*%
X159662000Y-88154000D03*
%TO.P,J2,14*%
%TO.N,/VSYNC*%
X159662000Y-85864000D03*
%TO.P,J2,13*%
%TO.N,/HSYNC*%
X159662000Y-83574000D03*
%TO.P,J2,12*%
%TO.N,unconnected-(J2-Pad12)*%
X159662000Y-81284000D03*
%TO.P,J2,11*%
%TO.N,unconnected-(J2-Pad11)*%
X159662000Y-78994000D03*
%TO.P,J2,10*%
%TO.N,GND*%
X157682000Y-87009000D03*
%TO.P,J2,9*%
%TO.N,unconnected-(J2-Pad9)*%
X157682000Y-84719000D03*
%TO.P,J2,8*%
%TO.N,GND*%
X157682000Y-82429000D03*
%TO.P,J2,7*%
X157682000Y-80139000D03*
%TO.P,J2,6*%
X157682000Y-77849000D03*
%TO.P,J2,5*%
X155702000Y-88154000D03*
%TO.P,J2,4*%
%TO.N,unconnected-(J2-Pad4)*%
X155702000Y-85864000D03*
%TO.P,J2,3*%
%TO.N,/VGA_BLUE*%
X155702000Y-83574000D03*
%TO.P,J2,2*%
%TO.N,/VGA_GREEN*%
X155702000Y-81284000D03*
D14*
%TO.P,J2,1*%
%TO.N,/VGA_RED*%
X155701999Y-78993999D03*
D15*
%TO.P,J2,0*%
%TO.N,GND*%
X157752000Y-70809000D03*
X157752000Y-95809000D03*
%TD*%
D16*
%TO.N,GND*%
X149243000Y-85922000D02*
X149243000Y-83967000D01*
X150324000Y-87003000D02*
X149243000Y-85922000D01*
X154551000Y-87003000D02*
X150324000Y-87003000D01*
X149243000Y-83967000D02*
X145286000Y-80010000D01*
X155702000Y-88154000D02*
X154551000Y-87003000D01*
X142968000Y-98039000D02*
X139718000Y-101289000D01*
X144088000Y-98039000D02*
X147338000Y-94789000D01*
X142968000Y-98039000D02*
X139718000Y-94789000D01*
X144088000Y-98039000D02*
X142968000Y-98039000D01*
X147338000Y-101289000D02*
X144088000Y-98039000D01*
X147338000Y-94789000D02*
X150588000Y-98039000D01*
X147338000Y-101289000D02*
X150588000Y-98039000D01*
X155857000Y-97704000D02*
X157752000Y-95809000D01*
X155522000Y-98039000D02*
X155857000Y-97704000D01*
X150588000Y-98039000D02*
X155522000Y-98039000D01*
X156033000Y-76200000D02*
X157682000Y-77849000D01*
X146556000Y-76200000D02*
X156033000Y-76200000D01*
X146556000Y-76200000D02*
X145286000Y-74930000D01*
X145286000Y-77470000D02*
X146556000Y-76200000D01*
X145286000Y-77470000D02*
X144016000Y-78740000D01*
X144016000Y-78740000D02*
X142746000Y-77470000D01*
X145286000Y-80010000D02*
X144016000Y-78740000D01*
X142746000Y-74930000D02*
X145286000Y-77470000D01*
X142746000Y-77470000D02*
X145286000Y-74930000D01*
X157682000Y-80139000D02*
X157682000Y-82429000D01*
X160292000Y-73349000D02*
X157752000Y-70809000D01*
X160292000Y-75239000D02*
X160292000Y-73349000D01*
X157682000Y-87009000D02*
X156847000Y-87009000D01*
X157682000Y-77849000D02*
X160292000Y-75239000D01*
X156847000Y-87009000D02*
X155702000Y-88154000D01*
X157682000Y-77849000D02*
X157682000Y-80139000D01*
X155702000Y-88154000D02*
X154450000Y-89406000D01*
X154450000Y-89406000D02*
X154450000Y-92507000D01*
X154450000Y-92507000D02*
X157752000Y-95809000D01*
%TD*%
%TA.AperFunction,Conductor*%
%TO.N,GND*%
G36*
X162548500Y-63526381D02*
G01*
X162594619Y-63572500D01*
X162611500Y-63635500D01*
X162611500Y-102982500D01*
X162594619Y-103045500D01*
X162548500Y-103091619D01*
X162485500Y-103108500D01*
X138138500Y-103108500D01*
X138075500Y-103091619D01*
X138029381Y-103045500D01*
X138012500Y-102982500D01*
X138012500Y-102521619D01*
X138848183Y-102521619D01*
X138856286Y-102529565D01*
X139027044Y-102634206D01*
X139035839Y-102638687D01*
X139245987Y-102725733D01*
X139255373Y-102728783D01*
X139476554Y-102781884D01*
X139486300Y-102783428D01*
X139713070Y-102801275D01*
X139722930Y-102801275D01*
X139949699Y-102783428D01*
X139959445Y-102781884D01*
X140180626Y-102728783D01*
X140190012Y-102725733D01*
X140400162Y-102638686D01*
X140408957Y-102634205D01*
X140579708Y-102529568D01*
X140587814Y-102521619D01*
X140581787Y-102511997D01*
X139729729Y-101659939D01*
X139717999Y-101653167D01*
X139706271Y-101659938D01*
X138854208Y-102512000D01*
X138848183Y-102521619D01*
X138012500Y-102521619D01*
X138012500Y-101709408D01*
X138026992Y-101650741D01*
X138067133Y-101605568D01*
X138123690Y-101584281D01*
X138183654Y-101591777D01*
X138233232Y-101626330D01*
X138261019Y-101679994D01*
X138278216Y-101751626D01*
X138281266Y-101761012D01*
X138368312Y-101971160D01*
X138372793Y-101979955D01*
X138477433Y-102150712D01*
X138485379Y-102158816D01*
X138494997Y-102152791D01*
X139347059Y-101300730D01*
X139353832Y-101288999D01*
X140082167Y-101288999D01*
X140088939Y-101300729D01*
X140940997Y-102152787D01*
X140950619Y-102158814D01*
X140958568Y-102150708D01*
X141063205Y-101979957D01*
X141067686Y-101971162D01*
X141154733Y-101761012D01*
X141157783Y-101751626D01*
X141210884Y-101530445D01*
X141212428Y-101520699D01*
X141230275Y-101293930D01*
X141230275Y-101289000D01*
X142704835Y-101289000D01*
X142705223Y-101293930D01*
X142723076Y-101520777D01*
X142723077Y-101520785D01*
X142723465Y-101525711D01*
X142724619Y-101530519D01*
X142724620Y-101530523D01*
X142777739Y-101751781D01*
X142777740Y-101751786D01*
X142778895Y-101756594D01*
X142869760Y-101975963D01*
X142993824Y-102178416D01*
X143148031Y-102358969D01*
X143328584Y-102513176D01*
X143531037Y-102637240D01*
X143750406Y-102728105D01*
X143981289Y-102783535D01*
X144218000Y-102802165D01*
X144454711Y-102783535D01*
X144685594Y-102728105D01*
X144904963Y-102637240D01*
X145093638Y-102521619D01*
X146468183Y-102521619D01*
X146476286Y-102529565D01*
X146647044Y-102634206D01*
X146655839Y-102638687D01*
X146865987Y-102725733D01*
X146875373Y-102728783D01*
X147096554Y-102781884D01*
X147106300Y-102783428D01*
X147333070Y-102801275D01*
X147342930Y-102801275D01*
X147569699Y-102783428D01*
X147579445Y-102781884D01*
X147800626Y-102728783D01*
X147810012Y-102725733D01*
X148020162Y-102638686D01*
X148028957Y-102634205D01*
X148199708Y-102529568D01*
X148207814Y-102521619D01*
X148201787Y-102511997D01*
X147349729Y-101659939D01*
X147337999Y-101653167D01*
X147326271Y-101659938D01*
X146474208Y-102512000D01*
X146468183Y-102521619D01*
X145093638Y-102521619D01*
X145107416Y-102513176D01*
X145287969Y-102358969D01*
X145442176Y-102178416D01*
X145566240Y-101975963D01*
X145657105Y-101756594D01*
X145658262Y-101751771D01*
X145658428Y-101751263D01*
X145692006Y-101698348D01*
X145746923Y-101668154D01*
X145809593Y-101668151D01*
X145864512Y-101698340D01*
X145898094Y-101751253D01*
X145901262Y-101761002D01*
X145988312Y-101971160D01*
X145992793Y-101979955D01*
X146097433Y-102150712D01*
X146105379Y-102158816D01*
X146114997Y-102152791D01*
X146967059Y-101300730D01*
X146973832Y-101288999D01*
X147702167Y-101288999D01*
X147708939Y-101300729D01*
X148560997Y-102152787D01*
X148570619Y-102158814D01*
X148578568Y-102150708D01*
X148683205Y-101979957D01*
X148687686Y-101971162D01*
X148774733Y-101761012D01*
X148777783Y-101751626D01*
X148830884Y-101530445D01*
X148832428Y-101520699D01*
X148850275Y-101293930D01*
X148850275Y-101289000D01*
X150324835Y-101289000D01*
X150325223Y-101293930D01*
X150343076Y-101520777D01*
X150343077Y-101520785D01*
X150343465Y-101525711D01*
X150344619Y-101530519D01*
X150344620Y-101530523D01*
X150397739Y-101751781D01*
X150397740Y-101751786D01*
X150398895Y-101756594D01*
X150489760Y-101975963D01*
X150613824Y-102178416D01*
X150768031Y-102358969D01*
X150948584Y-102513176D01*
X151151037Y-102637240D01*
X151370406Y-102728105D01*
X151601289Y-102783535D01*
X151838000Y-102802165D01*
X152074711Y-102783535D01*
X152305594Y-102728105D01*
X152524963Y-102637240D01*
X152727416Y-102513176D01*
X152907969Y-102358969D01*
X153062176Y-102178416D01*
X153186240Y-101975963D01*
X153277105Y-101756594D01*
X153332535Y-101525711D01*
X153351165Y-101289000D01*
X153332535Y-101052289D01*
X153277105Y-100821406D01*
X153186240Y-100602037D01*
X153062176Y-100399584D01*
X152907969Y-100219031D01*
X152904213Y-100215823D01*
X152731175Y-100068034D01*
X152731171Y-100068031D01*
X152727416Y-100064824D01*
X152524963Y-99940760D01*
X152505440Y-99932673D01*
X152310167Y-99851789D01*
X152310164Y-99851788D01*
X152305594Y-99849895D01*
X152300786Y-99848740D01*
X152300781Y-99848739D01*
X152079523Y-99795620D01*
X152079519Y-99795619D01*
X152074711Y-99794465D01*
X152069785Y-99794077D01*
X152069777Y-99794076D01*
X151842930Y-99776223D01*
X151838000Y-99775835D01*
X151833070Y-99776223D01*
X151606222Y-99794076D01*
X151606212Y-99794077D01*
X151601289Y-99794465D01*
X151596482Y-99795619D01*
X151596476Y-99795620D01*
X151375218Y-99848739D01*
X151375209Y-99848741D01*
X151370406Y-99849895D01*
X151365838Y-99851786D01*
X151365832Y-99851789D01*
X151155611Y-99938865D01*
X151155606Y-99938867D01*
X151151037Y-99940760D01*
X151146817Y-99943345D01*
X151146817Y-99943346D01*
X150952798Y-100062241D01*
X150952792Y-100062245D01*
X150948584Y-100064824D01*
X150944834Y-100068026D01*
X150944824Y-100068034D01*
X150771786Y-100215823D01*
X150771779Y-100215829D01*
X150768031Y-100219031D01*
X150764829Y-100222779D01*
X150764823Y-100222786D01*
X150617034Y-100395824D01*
X150617026Y-100395834D01*
X150613824Y-100399584D01*
X150611245Y-100403792D01*
X150611241Y-100403798D01*
X150596848Y-100427286D01*
X150489760Y-100602037D01*
X150487867Y-100606606D01*
X150487865Y-100606611D01*
X150400789Y-100816832D01*
X150400786Y-100816838D01*
X150398895Y-100821406D01*
X150397741Y-100826209D01*
X150397739Y-100826218D01*
X150357526Y-100993719D01*
X150343465Y-101052289D01*
X150343077Y-101057212D01*
X150343076Y-101057222D01*
X150325758Y-101277270D01*
X150324835Y-101289000D01*
X148850275Y-101289000D01*
X148850275Y-101284070D01*
X148832428Y-101057300D01*
X148830884Y-101047554D01*
X148777783Y-100826373D01*
X148774733Y-100816987D01*
X148687687Y-100606839D01*
X148683206Y-100598044D01*
X148578565Y-100427286D01*
X148570619Y-100419183D01*
X148561000Y-100425208D01*
X147708938Y-101277271D01*
X147702167Y-101288999D01*
X146973832Y-101288999D01*
X146967060Y-101277270D01*
X146114999Y-100425209D01*
X146105378Y-100419183D01*
X146097433Y-100427285D01*
X145992793Y-100598044D01*
X145988312Y-100606839D01*
X145901266Y-100816987D01*
X145898094Y-100826749D01*
X145864511Y-100879660D01*
X145809592Y-100909848D01*
X145746923Y-100909845D01*
X145692007Y-100879652D01*
X145658429Y-100826739D01*
X145658260Y-100826218D01*
X145657105Y-100821406D01*
X145566240Y-100602037D01*
X145442176Y-100399584D01*
X145287969Y-100219031D01*
X145284213Y-100215823D01*
X145111175Y-100068034D01*
X145111171Y-100068031D01*
X145107416Y-100064824D01*
X145093633Y-100056378D01*
X146468183Y-100056378D01*
X146474209Y-100065999D01*
X147326270Y-100918060D01*
X147337999Y-100924832D01*
X147349730Y-100918059D01*
X148201791Y-100065997D01*
X148207816Y-100056379D01*
X148199712Y-100048433D01*
X148028955Y-99943793D01*
X148020160Y-99939312D01*
X147810012Y-99852266D01*
X147800626Y-99849216D01*
X147579445Y-99796115D01*
X147569699Y-99794571D01*
X147342930Y-99776725D01*
X147333070Y-99776725D01*
X147106300Y-99794571D01*
X147096554Y-99796115D01*
X146875373Y-99849216D01*
X146865987Y-99852266D01*
X146655839Y-99939312D01*
X146647044Y-99943793D01*
X146476285Y-100048433D01*
X146468183Y-100056378D01*
X145093633Y-100056378D01*
X144904963Y-99940760D01*
X144885440Y-99932673D01*
X144690167Y-99851789D01*
X144690164Y-99851788D01*
X144685594Y-99849895D01*
X144680786Y-99848740D01*
X144680781Y-99848739D01*
X144459523Y-99795620D01*
X144459519Y-99795619D01*
X144454711Y-99794465D01*
X144449785Y-99794077D01*
X144449777Y-99794076D01*
X144222930Y-99776223D01*
X144218000Y-99775835D01*
X144213070Y-99776223D01*
X143986222Y-99794076D01*
X143986212Y-99794077D01*
X143981289Y-99794465D01*
X143976482Y-99795619D01*
X143976476Y-99795620D01*
X143755218Y-99848739D01*
X143755209Y-99848741D01*
X143750406Y-99849895D01*
X143745838Y-99851786D01*
X143745832Y-99851789D01*
X143535611Y-99938865D01*
X143535606Y-99938867D01*
X143531037Y-99940760D01*
X143526817Y-99943345D01*
X143526817Y-99943346D01*
X143332798Y-100062241D01*
X143332792Y-100062245D01*
X143328584Y-100064824D01*
X143324834Y-100068026D01*
X143324824Y-100068034D01*
X143151786Y-100215823D01*
X143151779Y-100215829D01*
X143148031Y-100219031D01*
X143144829Y-100222779D01*
X143144823Y-100222786D01*
X142997034Y-100395824D01*
X142997026Y-100395834D01*
X142993824Y-100399584D01*
X142991245Y-100403792D01*
X142991241Y-100403798D01*
X142976848Y-100427286D01*
X142869760Y-100602037D01*
X142867867Y-100606606D01*
X142867865Y-100606611D01*
X142780789Y-100816832D01*
X142780786Y-100816838D01*
X142778895Y-100821406D01*
X142777741Y-100826209D01*
X142777739Y-100826218D01*
X142737526Y-100993719D01*
X142723465Y-101052289D01*
X142723077Y-101057212D01*
X142723076Y-101057222D01*
X142705758Y-101277270D01*
X142704835Y-101289000D01*
X141230275Y-101289000D01*
X141230275Y-101284070D01*
X141212428Y-101057300D01*
X141210884Y-101047554D01*
X141157783Y-100826373D01*
X141154733Y-100816987D01*
X141067687Y-100606839D01*
X141063206Y-100598044D01*
X140958565Y-100427286D01*
X140950619Y-100419183D01*
X140941000Y-100425208D01*
X140088938Y-101277271D01*
X140082167Y-101288999D01*
X139353832Y-101288999D01*
X139347060Y-101277270D01*
X138494999Y-100425209D01*
X138485378Y-100419183D01*
X138477433Y-100427285D01*
X138372793Y-100598044D01*
X138368312Y-100606839D01*
X138281266Y-100816987D01*
X138278216Y-100826373D01*
X138261019Y-100898006D01*
X138233232Y-100951670D01*
X138183654Y-100986223D01*
X138123690Y-100993719D01*
X138067133Y-100972432D01*
X138026992Y-100927259D01*
X138012500Y-100868592D01*
X138012500Y-100056378D01*
X138848183Y-100056378D01*
X138854209Y-100065999D01*
X139706270Y-100918060D01*
X139717999Y-100924832D01*
X139729730Y-100918059D01*
X140581791Y-100065997D01*
X140587816Y-100056379D01*
X140579712Y-100048433D01*
X140408955Y-99943793D01*
X140400160Y-99939312D01*
X140190012Y-99852266D01*
X140180626Y-99849216D01*
X139959445Y-99796115D01*
X139949699Y-99794571D01*
X139722930Y-99776725D01*
X139713070Y-99776725D01*
X139486300Y-99794571D01*
X139476554Y-99796115D01*
X139255373Y-99849216D01*
X139245987Y-99852266D01*
X139035839Y-99939312D01*
X139027044Y-99943793D01*
X138856285Y-100048433D01*
X138848183Y-100056378D01*
X138012500Y-100056378D01*
X138012500Y-97755400D01*
X156168182Y-97755400D01*
X156175573Y-97763718D01*
X156402280Y-97928429D01*
X156408961Y-97932669D01*
X156678572Y-98080889D01*
X156685707Y-98084247D01*
X156971769Y-98197507D01*
X156979295Y-98199952D01*
X157277278Y-98276462D01*
X157285050Y-98277944D01*
X157590278Y-98316503D01*
X157598169Y-98317000D01*
X157905831Y-98317000D01*
X157913721Y-98316503D01*
X158218949Y-98277944D01*
X158226721Y-98276462D01*
X158524704Y-98199952D01*
X158532230Y-98197507D01*
X158818292Y-98084247D01*
X158825427Y-98080889D01*
X159095038Y-97932669D01*
X159101719Y-97928429D01*
X159328426Y-97763717D01*
X159335817Y-97755400D01*
X159329815Y-97746025D01*
X157763729Y-96179939D01*
X157751999Y-96173167D01*
X157740270Y-96179939D01*
X156174183Y-97746025D01*
X156168182Y-97755400D01*
X138012500Y-97755400D01*
X138012500Y-96021619D01*
X138848183Y-96021619D01*
X138856286Y-96029565D01*
X139027044Y-96134206D01*
X139035839Y-96138687D01*
X139245987Y-96225733D01*
X139255373Y-96228783D01*
X139476554Y-96281884D01*
X139486300Y-96283428D01*
X139713070Y-96301275D01*
X139722930Y-96301275D01*
X139949699Y-96283428D01*
X139959445Y-96281884D01*
X140180626Y-96228783D01*
X140190012Y-96225733D01*
X140400162Y-96138686D01*
X140408957Y-96134205D01*
X140579708Y-96029568D01*
X140587814Y-96021619D01*
X140581787Y-96011997D01*
X139729729Y-95159939D01*
X139717999Y-95153167D01*
X139706271Y-95159938D01*
X138854208Y-96012000D01*
X138848183Y-96021619D01*
X138012500Y-96021619D01*
X138012500Y-95209408D01*
X138026992Y-95150741D01*
X138067133Y-95105568D01*
X138123690Y-95084281D01*
X138183654Y-95091777D01*
X138233232Y-95126330D01*
X138261019Y-95179994D01*
X138278216Y-95251626D01*
X138281266Y-95261012D01*
X138368312Y-95471160D01*
X138372793Y-95479955D01*
X138477433Y-95650712D01*
X138485379Y-95658816D01*
X138494997Y-95652791D01*
X139347059Y-94800730D01*
X139353832Y-94788999D01*
X140082167Y-94788999D01*
X140088939Y-94800729D01*
X140940997Y-95652787D01*
X140950619Y-95658814D01*
X140958568Y-95650708D01*
X141063205Y-95479957D01*
X141067686Y-95471162D01*
X141154733Y-95261012D01*
X141157783Y-95251626D01*
X141210884Y-95030445D01*
X141212428Y-95020699D01*
X141230275Y-94793930D01*
X141230275Y-94789000D01*
X142704835Y-94789000D01*
X142705223Y-94793930D01*
X142723076Y-95020777D01*
X142723077Y-95020785D01*
X142723465Y-95025711D01*
X142724619Y-95030519D01*
X142724620Y-95030523D01*
X142777739Y-95251781D01*
X142777740Y-95251786D01*
X142778895Y-95256594D01*
X142869760Y-95475963D01*
X142993824Y-95678416D01*
X143148031Y-95858969D01*
X143328584Y-96013176D01*
X143531037Y-96137240D01*
X143750406Y-96228105D01*
X143981289Y-96283535D01*
X144218000Y-96302165D01*
X144454711Y-96283535D01*
X144685594Y-96228105D01*
X144904963Y-96137240D01*
X145093638Y-96021619D01*
X146468183Y-96021619D01*
X146476286Y-96029565D01*
X146647044Y-96134206D01*
X146655839Y-96138687D01*
X146865987Y-96225733D01*
X146875373Y-96228783D01*
X147096554Y-96281884D01*
X147106300Y-96283428D01*
X147333070Y-96301275D01*
X147342930Y-96301275D01*
X147569699Y-96283428D01*
X147579445Y-96281884D01*
X147800626Y-96228783D01*
X147810012Y-96225733D01*
X148020162Y-96138686D01*
X148028957Y-96134205D01*
X148199708Y-96029568D01*
X148207814Y-96021619D01*
X148201787Y-96011997D01*
X147349729Y-95159939D01*
X147337999Y-95153167D01*
X147326271Y-95159938D01*
X146474208Y-96012000D01*
X146468183Y-96021619D01*
X145093638Y-96021619D01*
X145107416Y-96013176D01*
X145287969Y-95858969D01*
X145442176Y-95678416D01*
X145566240Y-95475963D01*
X145657105Y-95256594D01*
X145658262Y-95251771D01*
X145658428Y-95251263D01*
X145692006Y-95198348D01*
X145746923Y-95168154D01*
X145809593Y-95168151D01*
X145864512Y-95198340D01*
X145898094Y-95251253D01*
X145901262Y-95261002D01*
X145988312Y-95471160D01*
X145992793Y-95479955D01*
X146097433Y-95650712D01*
X146105379Y-95658816D01*
X146114997Y-95652791D01*
X146967059Y-94800730D01*
X146973832Y-94788999D01*
X147702167Y-94788999D01*
X147708939Y-94800729D01*
X148560997Y-95652787D01*
X148570619Y-95658814D01*
X148578568Y-95650708D01*
X148683205Y-95479957D01*
X148687686Y-95471162D01*
X148774733Y-95261012D01*
X148777783Y-95251626D01*
X148830884Y-95030445D01*
X148832428Y-95020699D01*
X148850275Y-94793930D01*
X148850275Y-94789000D01*
X150324835Y-94789000D01*
X150325223Y-94793930D01*
X150343076Y-95020777D01*
X150343077Y-95020785D01*
X150343465Y-95025711D01*
X150344619Y-95030519D01*
X150344620Y-95030523D01*
X150397739Y-95251781D01*
X150397740Y-95251786D01*
X150398895Y-95256594D01*
X150489760Y-95475963D01*
X150613824Y-95678416D01*
X150768031Y-95858969D01*
X150948584Y-96013176D01*
X151151037Y-96137240D01*
X151370406Y-96228105D01*
X151601289Y-96283535D01*
X151838000Y-96302165D01*
X152074711Y-96283535D01*
X152305594Y-96228105D01*
X152524963Y-96137240D01*
X152727416Y-96013176D01*
X152907969Y-95858969D01*
X152947266Y-95812958D01*
X155239290Y-95812958D01*
X155258606Y-96119994D01*
X155259599Y-96127855D01*
X155317245Y-96430046D01*
X155319216Y-96437723D01*
X155414284Y-96730309D01*
X155417199Y-96737672D01*
X155548189Y-97016040D01*
X155552001Y-97022974D01*
X155716847Y-97282730D01*
X155721500Y-97289135D01*
X155796826Y-97380187D01*
X155808309Y-97388079D01*
X155820486Y-97381302D01*
X157381060Y-95820729D01*
X157387832Y-95809000D01*
X158116167Y-95809000D01*
X158122939Y-95820729D01*
X159683513Y-97381303D01*
X159695688Y-97388080D01*
X159707172Y-97380187D01*
X159782499Y-97289135D01*
X159787152Y-97282730D01*
X159951998Y-97022974D01*
X159955810Y-97016040D01*
X160086800Y-96737672D01*
X160089715Y-96730309D01*
X160184783Y-96437723D01*
X160186754Y-96430046D01*
X160244400Y-96127855D01*
X160245393Y-96119994D01*
X160264710Y-95812958D01*
X160264710Y-95805042D01*
X160245393Y-95498005D01*
X160244400Y-95490144D01*
X160186754Y-95187953D01*
X160184783Y-95180276D01*
X160089715Y-94887690D01*
X160086800Y-94880327D01*
X159955810Y-94601959D01*
X159951998Y-94595025D01*
X159787152Y-94335269D01*
X159782499Y-94328864D01*
X159707172Y-94237811D01*
X159695689Y-94229919D01*
X159683512Y-94236696D01*
X158122939Y-95797270D01*
X158116167Y-95809000D01*
X157387832Y-95809000D01*
X157381060Y-95797270D01*
X155820486Y-94236696D01*
X155808310Y-94229919D01*
X155796825Y-94237812D01*
X155721495Y-94328870D01*
X155716850Y-94335263D01*
X155552001Y-94595025D01*
X155548189Y-94601959D01*
X155417199Y-94880327D01*
X155414284Y-94887690D01*
X155319216Y-95180276D01*
X155317245Y-95187953D01*
X155259599Y-95490144D01*
X155258606Y-95498005D01*
X155239290Y-95805042D01*
X155239290Y-95812958D01*
X152947266Y-95812958D01*
X153062176Y-95678416D01*
X153186240Y-95475963D01*
X153277105Y-95256594D01*
X153332535Y-95025711D01*
X153351165Y-94789000D01*
X153332535Y-94552289D01*
X153277105Y-94321406D01*
X153186240Y-94102037D01*
X153062176Y-93899584D01*
X153030587Y-93862598D01*
X156168181Y-93862598D01*
X156174183Y-93871973D01*
X157740270Y-95438060D01*
X157752000Y-95444832D01*
X157763729Y-95438060D01*
X159329815Y-93871973D01*
X159335816Y-93862598D01*
X159328425Y-93854280D01*
X159101719Y-93689570D01*
X159095038Y-93685330D01*
X158825427Y-93537110D01*
X158818292Y-93533752D01*
X158532230Y-93420492D01*
X158524704Y-93418047D01*
X158226721Y-93341537D01*
X158218949Y-93340055D01*
X157913721Y-93301496D01*
X157905831Y-93301000D01*
X157598169Y-93301000D01*
X157590278Y-93301496D01*
X157285050Y-93340055D01*
X157277278Y-93341537D01*
X156979295Y-93418047D01*
X156971769Y-93420492D01*
X156685707Y-93533752D01*
X156678572Y-93537110D01*
X156408961Y-93685330D01*
X156402280Y-93689570D01*
X156175572Y-93854281D01*
X156168181Y-93862598D01*
X153030587Y-93862598D01*
X152907969Y-93719031D01*
X152868510Y-93685330D01*
X152731175Y-93568034D01*
X152731171Y-93568031D01*
X152727416Y-93564824D01*
X152524963Y-93440760D01*
X152470129Y-93418047D01*
X152310167Y-93351789D01*
X152310164Y-93351788D01*
X152305594Y-93349895D01*
X152300786Y-93348740D01*
X152300781Y-93348739D01*
X152079523Y-93295620D01*
X152079519Y-93295619D01*
X152074711Y-93294465D01*
X152069785Y-93294077D01*
X152069777Y-93294076D01*
X151842930Y-93276223D01*
X151838000Y-93275835D01*
X151833070Y-93276223D01*
X151606222Y-93294076D01*
X151606212Y-93294077D01*
X151601289Y-93294465D01*
X151596482Y-93295619D01*
X151596476Y-93295620D01*
X151375218Y-93348739D01*
X151375209Y-93348741D01*
X151370406Y-93349895D01*
X151365838Y-93351786D01*
X151365832Y-93351789D01*
X151155611Y-93438865D01*
X151155606Y-93438867D01*
X151151037Y-93440760D01*
X151146817Y-93443345D01*
X151146817Y-93443346D01*
X150952798Y-93562241D01*
X150952792Y-93562245D01*
X150948584Y-93564824D01*
X150944834Y-93568026D01*
X150944824Y-93568034D01*
X150771786Y-93715823D01*
X150771779Y-93715829D01*
X150768031Y-93719031D01*
X150764829Y-93722779D01*
X150764823Y-93722786D01*
X150617034Y-93895824D01*
X150617026Y-93895834D01*
X150613824Y-93899584D01*
X150611245Y-93903792D01*
X150611241Y-93903798D01*
X150596848Y-93927286D01*
X150489760Y-94102037D01*
X150487867Y-94106606D01*
X150487865Y-94106611D01*
X150400789Y-94316832D01*
X150400786Y-94316838D01*
X150398895Y-94321406D01*
X150397741Y-94326209D01*
X150397739Y-94326218D01*
X150357526Y-94493719D01*
X150343465Y-94552289D01*
X150343077Y-94557212D01*
X150343076Y-94557222D01*
X150325758Y-94777270D01*
X150324835Y-94789000D01*
X148850275Y-94789000D01*
X148850275Y-94784070D01*
X148832428Y-94557300D01*
X148830884Y-94547554D01*
X148777783Y-94326373D01*
X148774733Y-94316987D01*
X148687687Y-94106839D01*
X148683206Y-94098044D01*
X148578565Y-93927286D01*
X148570619Y-93919183D01*
X148561000Y-93925208D01*
X147708938Y-94777271D01*
X147702167Y-94788999D01*
X146973832Y-94788999D01*
X146967060Y-94777270D01*
X146114999Y-93925209D01*
X146105378Y-93919183D01*
X146097433Y-93927285D01*
X145992793Y-94098044D01*
X145988312Y-94106839D01*
X145901266Y-94316987D01*
X145898094Y-94326749D01*
X145864511Y-94379660D01*
X145809592Y-94409848D01*
X145746923Y-94409845D01*
X145692007Y-94379652D01*
X145658429Y-94326739D01*
X145658260Y-94326218D01*
X145657105Y-94321406D01*
X145566240Y-94102037D01*
X145442176Y-93899584D01*
X145287969Y-93719031D01*
X145248510Y-93685330D01*
X145111175Y-93568034D01*
X145111171Y-93568031D01*
X145107416Y-93564824D01*
X145093633Y-93556378D01*
X146468183Y-93556378D01*
X146474209Y-93565999D01*
X147326270Y-94418060D01*
X147337999Y-94424832D01*
X147349730Y-94418059D01*
X148201791Y-93565997D01*
X148207816Y-93556379D01*
X148199712Y-93548433D01*
X148028955Y-93443793D01*
X148020160Y-93439312D01*
X147810012Y-93352266D01*
X147800626Y-93349216D01*
X147579445Y-93296115D01*
X147569699Y-93294571D01*
X147342930Y-93276725D01*
X147333070Y-93276725D01*
X147106300Y-93294571D01*
X147096554Y-93296115D01*
X146875373Y-93349216D01*
X146865987Y-93352266D01*
X146655839Y-93439312D01*
X146647044Y-93443793D01*
X146476285Y-93548433D01*
X146468183Y-93556378D01*
X145093633Y-93556378D01*
X144904963Y-93440760D01*
X144850129Y-93418047D01*
X144690167Y-93351789D01*
X144690164Y-93351788D01*
X144685594Y-93349895D01*
X144680786Y-93348740D01*
X144680781Y-93348739D01*
X144459523Y-93295620D01*
X144459519Y-93295619D01*
X144454711Y-93294465D01*
X144449785Y-93294077D01*
X144449777Y-93294076D01*
X144222930Y-93276223D01*
X144218000Y-93275835D01*
X144213070Y-93276223D01*
X143986222Y-93294076D01*
X143986212Y-93294077D01*
X143981289Y-93294465D01*
X143976482Y-93295619D01*
X143976476Y-93295620D01*
X143755218Y-93348739D01*
X143755209Y-93348741D01*
X143750406Y-93349895D01*
X143745838Y-93351786D01*
X143745832Y-93351789D01*
X143535611Y-93438865D01*
X143535606Y-93438867D01*
X143531037Y-93440760D01*
X143526817Y-93443345D01*
X143526817Y-93443346D01*
X143332798Y-93562241D01*
X143332792Y-93562245D01*
X143328584Y-93564824D01*
X143324834Y-93568026D01*
X143324824Y-93568034D01*
X143151786Y-93715823D01*
X143151779Y-93715829D01*
X143148031Y-93719031D01*
X143144829Y-93722779D01*
X143144823Y-93722786D01*
X142997034Y-93895824D01*
X142997026Y-93895834D01*
X142993824Y-93899584D01*
X142991245Y-93903792D01*
X142991241Y-93903798D01*
X142976848Y-93927286D01*
X142869760Y-94102037D01*
X142867867Y-94106606D01*
X142867865Y-94106611D01*
X142780789Y-94316832D01*
X142780786Y-94316838D01*
X142778895Y-94321406D01*
X142777741Y-94326209D01*
X142777739Y-94326218D01*
X142737526Y-94493719D01*
X142723465Y-94552289D01*
X142723077Y-94557212D01*
X142723076Y-94557222D01*
X142705758Y-94777270D01*
X142704835Y-94789000D01*
X141230275Y-94789000D01*
X141230275Y-94784070D01*
X141212428Y-94557300D01*
X141210884Y-94547554D01*
X141157783Y-94326373D01*
X141154733Y-94316987D01*
X141067687Y-94106839D01*
X141063206Y-94098044D01*
X140958565Y-93927286D01*
X140950619Y-93919183D01*
X140941000Y-93925208D01*
X140088938Y-94777271D01*
X140082167Y-94788999D01*
X139353832Y-94788999D01*
X139347060Y-94777270D01*
X138494999Y-93925209D01*
X138485378Y-93919183D01*
X138477433Y-93927285D01*
X138372793Y-94098044D01*
X138368312Y-94106839D01*
X138281266Y-94316987D01*
X138278216Y-94326373D01*
X138261019Y-94398006D01*
X138233232Y-94451670D01*
X138183654Y-94486223D01*
X138123690Y-94493719D01*
X138067133Y-94472432D01*
X138026992Y-94427259D01*
X138012500Y-94368592D01*
X138012500Y-93556378D01*
X138848183Y-93556378D01*
X138854209Y-93565999D01*
X139706270Y-94418060D01*
X139717999Y-94424832D01*
X139729730Y-94418059D01*
X140581791Y-93565997D01*
X140587816Y-93556379D01*
X140579712Y-93548433D01*
X140408955Y-93443793D01*
X140400160Y-93439312D01*
X140190012Y-93352266D01*
X140180626Y-93349216D01*
X139959445Y-93296115D01*
X139949699Y-93294571D01*
X139722930Y-93276725D01*
X139713070Y-93276725D01*
X139486300Y-93294571D01*
X139476554Y-93296115D01*
X139255373Y-93349216D01*
X139245987Y-93352266D01*
X139035839Y-93439312D01*
X139027044Y-93443793D01*
X138856285Y-93548433D01*
X138848183Y-93556378D01*
X138012500Y-93556378D01*
X138012500Y-89240770D01*
X154977860Y-89240770D01*
X154985414Y-89249014D01*
X155040996Y-89287933D01*
X155050482Y-89293410D01*
X155247946Y-89385489D01*
X155258238Y-89389235D01*
X155468687Y-89445625D01*
X155479480Y-89447528D01*
X155696525Y-89466517D01*
X155707475Y-89466517D01*
X155924519Y-89447528D01*
X155935312Y-89445625D01*
X156145761Y-89389235D01*
X156156053Y-89385489D01*
X156353510Y-89293413D01*
X156363006Y-89287931D01*
X156418586Y-89249013D01*
X156426138Y-89240771D01*
X156420128Y-89231338D01*
X155713729Y-88524939D01*
X155701999Y-88518167D01*
X155690271Y-88524938D01*
X154983867Y-89231341D01*
X154977860Y-89240770D01*
X138012500Y-89240770D01*
X138012500Y-87630000D01*
X141382844Y-87630000D01*
X141401436Y-87854368D01*
X141456704Y-88072616D01*
X141458797Y-88077389D01*
X141458799Y-88077393D01*
X141497547Y-88165730D01*
X141547140Y-88278791D01*
X141670278Y-88467268D01*
X141673806Y-88471100D01*
X141819227Y-88629069D01*
X141819231Y-88629073D01*
X141822760Y-88632906D01*
X142000424Y-88771189D01*
X142198426Y-88878342D01*
X142203355Y-88880034D01*
X142203357Y-88880035D01*
X142304895Y-88914892D01*
X142411365Y-88951444D01*
X142633431Y-88988500D01*
X142853358Y-88988500D01*
X142858569Y-88988500D01*
X143080635Y-88951444D01*
X143293574Y-88878342D01*
X143491576Y-88771189D01*
X143669240Y-88632906D01*
X143821722Y-88467268D01*
X143910518Y-88331354D01*
X143956030Y-88289457D01*
X144016000Y-88274271D01*
X144075970Y-88289457D01*
X144121481Y-88331354D01*
X144210278Y-88467268D01*
X144213806Y-88471100D01*
X144359227Y-88629069D01*
X144359231Y-88629073D01*
X144362760Y-88632906D01*
X144540424Y-88771189D01*
X144738426Y-88878342D01*
X144743355Y-88880034D01*
X144743357Y-88880035D01*
X144844895Y-88914892D01*
X144951365Y-88951444D01*
X145173431Y-88988500D01*
X145393358Y-88988500D01*
X145398569Y-88988500D01*
X145620635Y-88951444D01*
X145833574Y-88878342D01*
X146031576Y-88771189D01*
X146209240Y-88632906D01*
X146361722Y-88467268D01*
X146484860Y-88278791D01*
X146537196Y-88159475D01*
X154389483Y-88159475D01*
X154408471Y-88376519D01*
X154410374Y-88387312D01*
X154466764Y-88597761D01*
X154470510Y-88608053D01*
X154562587Y-88805513D01*
X154568066Y-88815002D01*
X154606985Y-88870586D01*
X154615228Y-88878138D01*
X154624656Y-88872132D01*
X155331059Y-88165730D01*
X155337832Y-88153999D01*
X155331060Y-88142270D01*
X154624659Y-87435869D01*
X154615227Y-87429860D01*
X154606985Y-87437413D01*
X154568067Y-87492995D01*
X154562587Y-87502485D01*
X154470510Y-87699946D01*
X154466764Y-87710238D01*
X154410374Y-87920687D01*
X154408471Y-87931480D01*
X154389483Y-88148525D01*
X154389483Y-88159475D01*
X146537196Y-88159475D01*
X146575296Y-88072616D01*
X146630564Y-87854368D01*
X146649156Y-87630000D01*
X146630564Y-87405632D01*
X146575296Y-87187384D01*
X146484860Y-86981209D01*
X146361722Y-86792732D01*
X146283996Y-86708300D01*
X146212772Y-86630930D01*
X146212767Y-86630925D01*
X146209240Y-86627094D01*
X146031576Y-86488811D01*
X146026997Y-86486333D01*
X146026994Y-86486331D01*
X145998318Y-86470812D01*
X145950047Y-86424494D01*
X145932289Y-86359996D01*
X145950050Y-86295499D01*
X145998321Y-86249185D01*
X146031576Y-86231189D01*
X146209240Y-86092906D01*
X146361722Y-85927268D01*
X146403057Y-85864000D01*
X154388502Y-85864000D01*
X154388981Y-85869475D01*
X154403243Y-86032498D01*
X154408457Y-86092087D01*
X154467716Y-86313243D01*
X154564477Y-86520749D01*
X154567630Y-86525252D01*
X154567633Y-86525257D01*
X154636696Y-86623888D01*
X154695802Y-86708300D01*
X154857700Y-86870198D01*
X154908525Y-86905786D01*
X154930747Y-86921346D01*
X154966666Y-86959977D01*
X154983624Y-87009928D01*
X154978646Y-87062443D01*
X154977376Y-87066468D01*
X154983869Y-87076659D01*
X156779338Y-88872128D01*
X156788771Y-88878138D01*
X156797013Y-88870586D01*
X156835931Y-88815006D01*
X156841413Y-88805510D01*
X156933489Y-88608053D01*
X156937235Y-88597761D01*
X156993625Y-88387312D01*
X156995528Y-88376519D01*
X157000389Y-88320955D01*
X157019642Y-88264236D01*
X157062909Y-88222816D01*
X157120414Y-88206055D01*
X157179160Y-88217740D01*
X157227946Y-88240489D01*
X157238238Y-88244235D01*
X157448687Y-88300625D01*
X157459480Y-88302528D01*
X157676525Y-88321517D01*
X157687475Y-88321517D01*
X157904519Y-88302528D01*
X157915312Y-88300625D01*
X158125761Y-88244235D01*
X158136053Y-88240489D01*
X158184357Y-88217965D01*
X158243102Y-88206280D01*
X158300607Y-88223041D01*
X158343874Y-88264460D01*
X158363128Y-88321178D01*
X158367969Y-88376519D01*
X158368457Y-88382087D01*
X158427716Y-88603243D01*
X158524477Y-88810749D01*
X158527630Y-88815252D01*
X158527633Y-88815257D01*
X158604123Y-88924496D01*
X158655802Y-88998300D01*
X158817700Y-89160198D01*
X159005251Y-89291523D01*
X159212757Y-89388284D01*
X159433913Y-89447543D01*
X159662000Y-89467498D01*
X159890087Y-89447543D01*
X160111243Y-89388284D01*
X160318749Y-89291523D01*
X160506300Y-89160198D01*
X160668198Y-88998300D01*
X160799523Y-88810749D01*
X160896284Y-88603243D01*
X160955543Y-88382087D01*
X160975498Y-88154000D01*
X160955543Y-87925913D01*
X160896284Y-87704757D01*
X160799523Y-87497251D01*
X160668198Y-87309700D01*
X160506300Y-87147802D01*
X160455472Y-87112211D01*
X160415981Y-87067181D01*
X160401744Y-87009000D01*
X160415981Y-86950819D01*
X160455472Y-86905788D01*
X160506300Y-86870198D01*
X160668198Y-86708300D01*
X160799523Y-86520749D01*
X160896284Y-86313243D01*
X160955543Y-86092087D01*
X160975498Y-85864000D01*
X160955543Y-85635913D01*
X160896284Y-85414757D01*
X160799523Y-85207251D01*
X160668198Y-85019700D01*
X160506300Y-84857802D01*
X160455472Y-84822211D01*
X160415981Y-84777181D01*
X160401744Y-84719000D01*
X160415981Y-84660819D01*
X160455472Y-84615788D01*
X160506300Y-84580198D01*
X160668198Y-84418300D01*
X160799523Y-84230749D01*
X160896284Y-84023243D01*
X160955543Y-83802087D01*
X160975498Y-83574000D01*
X160955543Y-83345913D01*
X160896284Y-83124757D01*
X160799523Y-82917251D01*
X160668198Y-82729700D01*
X160506300Y-82567802D01*
X160455472Y-82532211D01*
X160415981Y-82487181D01*
X160401744Y-82429000D01*
X160415981Y-82370819D01*
X160455472Y-82325788D01*
X160506300Y-82290198D01*
X160668198Y-82128300D01*
X160799523Y-81940749D01*
X160896284Y-81733243D01*
X160955543Y-81512087D01*
X160975498Y-81284000D01*
X160955543Y-81055913D01*
X160896284Y-80834757D01*
X160799523Y-80627251D01*
X160668198Y-80439700D01*
X160506300Y-80277802D01*
X160455472Y-80242211D01*
X160415981Y-80197181D01*
X160401744Y-80139000D01*
X160415981Y-80080819D01*
X160455472Y-80035788D01*
X160506300Y-80000198D01*
X160668198Y-79838300D01*
X160799523Y-79650749D01*
X160896284Y-79443243D01*
X160955543Y-79222087D01*
X160975498Y-78994000D01*
X160955543Y-78765913D01*
X160896284Y-78544757D01*
X160799523Y-78337251D01*
X160668198Y-78149700D01*
X160506300Y-77987802D01*
X160405503Y-77917223D01*
X160323257Y-77859633D01*
X160323252Y-77859630D01*
X160318749Y-77856477D01*
X160313761Y-77854151D01*
X160116225Y-77762039D01*
X160116223Y-77762038D01*
X160111243Y-77759716D01*
X159890087Y-77700457D01*
X159884611Y-77699977D01*
X159884606Y-77699977D01*
X159667475Y-77680981D01*
X159662000Y-77680502D01*
X159656525Y-77680981D01*
X159439393Y-77699977D01*
X159439386Y-77699978D01*
X159433913Y-77700457D01*
X159428599Y-77701880D01*
X159428598Y-77701881D01*
X159218067Y-77758293D01*
X159218065Y-77758293D01*
X159212757Y-77759716D01*
X159207779Y-77762036D01*
X159207774Y-77762039D01*
X159159112Y-77784730D01*
X159100366Y-77796414D01*
X159042863Y-77779653D01*
X158999596Y-77738233D01*
X158980343Y-77681515D01*
X158975528Y-77626480D01*
X158973625Y-77615687D01*
X158917235Y-77405238D01*
X158913489Y-77394946D01*
X158821410Y-77197482D01*
X158815933Y-77187996D01*
X158777014Y-77132414D01*
X158768771Y-77124860D01*
X158759338Y-77130870D01*
X157771094Y-78119114D01*
X157714610Y-78151726D01*
X157649388Y-78151726D01*
X157592904Y-78119114D01*
X156604659Y-77130869D01*
X156595227Y-77124860D01*
X156586985Y-77132413D01*
X156548067Y-77187995D01*
X156542587Y-77197485D01*
X156450510Y-77394946D01*
X156446764Y-77405238D01*
X156396692Y-77592111D01*
X156371507Y-77640491D01*
X156328235Y-77673695D01*
X156274985Y-77685500D01*
X154853362Y-77685500D01*
X154850015Y-77685859D01*
X154850011Y-77685860D01*
X154800632Y-77691168D01*
X154800625Y-77691169D01*
X154792799Y-77692011D01*
X154785423Y-77694761D01*
X154785419Y-77694763D01*
X154664236Y-77739962D01*
X154664230Y-77739965D01*
X154655796Y-77743111D01*
X154648588Y-77748506D01*
X154648582Y-77748510D01*
X154545950Y-77825340D01*
X154545946Y-77825343D01*
X154538739Y-77830739D01*
X154533343Y-77837946D01*
X154533340Y-77837950D01*
X154456510Y-77940582D01*
X154456506Y-77940588D01*
X154451111Y-77947796D01*
X154447965Y-77956230D01*
X154447962Y-77956236D01*
X154402763Y-78077419D01*
X154402761Y-78077423D01*
X154400011Y-78084799D01*
X154399169Y-78092625D01*
X154399168Y-78092632D01*
X154395913Y-78122913D01*
X154393500Y-78145362D01*
X154393500Y-79842638D01*
X154393859Y-79845985D01*
X154393860Y-79845988D01*
X154399168Y-79895367D01*
X154399169Y-79895373D01*
X154400011Y-79903201D01*
X154402762Y-79910578D01*
X154402763Y-79910580D01*
X154447962Y-80031763D01*
X154447964Y-80031766D01*
X154451111Y-80040204D01*
X154456508Y-80047414D01*
X154456510Y-80047417D01*
X154525068Y-80138999D01*
X154538739Y-80157261D01*
X154655796Y-80244889D01*
X154662490Y-80247385D01*
X154703100Y-80283070D01*
X154725010Y-80333815D01*
X154723094Y-80389055D01*
X154698122Y-80437379D01*
X154695802Y-80439700D01*
X154692657Y-80444191D01*
X154692649Y-80444201D01*
X154567633Y-80622742D01*
X154567627Y-80622752D01*
X154564477Y-80627251D01*
X154562153Y-80632233D01*
X154562151Y-80632238D01*
X154470039Y-80829774D01*
X154470036Y-80829779D01*
X154467716Y-80834757D01*
X154466293Y-80840065D01*
X154466293Y-80840067D01*
X154463337Y-80851100D01*
X154408457Y-81055913D01*
X154407978Y-81061386D01*
X154407977Y-81061393D01*
X154394520Y-81215217D01*
X154388502Y-81284000D01*
X154388981Y-81289475D01*
X154399701Y-81412012D01*
X154408457Y-81512087D01*
X154467716Y-81733243D01*
X154470038Y-81738223D01*
X154470039Y-81738225D01*
X154548265Y-81905982D01*
X154564477Y-81940749D01*
X154567630Y-81945252D01*
X154567633Y-81945257D01*
X154644123Y-82054496D01*
X154695802Y-82128300D01*
X154857700Y-82290198D01*
X154899801Y-82319677D01*
X154908526Y-82325787D01*
X154948018Y-82370820D01*
X154962255Y-82429000D01*
X154948018Y-82487180D01*
X154908526Y-82532213D01*
X154862211Y-82564643D01*
X154862208Y-82564645D01*
X154857700Y-82567802D01*
X154853808Y-82571693D01*
X154853802Y-82571699D01*
X154699699Y-82725802D01*
X154699693Y-82725808D01*
X154695802Y-82729700D01*
X154692645Y-82734208D01*
X154692643Y-82734211D01*
X154567633Y-82912742D01*
X154567627Y-82912752D01*
X154564477Y-82917251D01*
X154562153Y-82922233D01*
X154562151Y-82922238D01*
X154470039Y-83119774D01*
X154470036Y-83119779D01*
X154467716Y-83124757D01*
X154466293Y-83130065D01*
X154466293Y-83130067D01*
X154409881Y-83340598D01*
X154408457Y-83345913D01*
X154407978Y-83351386D01*
X154407977Y-83351393D01*
X154396313Y-83484716D01*
X154388502Y-83574000D01*
X154388981Y-83579475D01*
X154398971Y-83693668D01*
X154408457Y-83802087D01*
X154467716Y-84023243D01*
X154564477Y-84230749D01*
X154567630Y-84235252D01*
X154567633Y-84235257D01*
X154644123Y-84344496D01*
X154695802Y-84418300D01*
X154857700Y-84580198D01*
X154890826Y-84603393D01*
X154908526Y-84615787D01*
X154948018Y-84660820D01*
X154962255Y-84719000D01*
X154948018Y-84777180D01*
X154908526Y-84822213D01*
X154862211Y-84854643D01*
X154862208Y-84854645D01*
X154857700Y-84857802D01*
X154853808Y-84861693D01*
X154853802Y-84861699D01*
X154699699Y-85015802D01*
X154699693Y-85015808D01*
X154695802Y-85019700D01*
X154692645Y-85024208D01*
X154692643Y-85024211D01*
X154567633Y-85202742D01*
X154567627Y-85202752D01*
X154564477Y-85207251D01*
X154562153Y-85212233D01*
X154562151Y-85212238D01*
X154470039Y-85409774D01*
X154470036Y-85409779D01*
X154467716Y-85414757D01*
X154466293Y-85420065D01*
X154466293Y-85420067D01*
X154424348Y-85576606D01*
X154408457Y-85635913D01*
X154407978Y-85641386D01*
X154407977Y-85641393D01*
X154389835Y-85848760D01*
X154388502Y-85864000D01*
X146403057Y-85864000D01*
X146484860Y-85738791D01*
X146575296Y-85532616D01*
X146630564Y-85314368D01*
X146649156Y-85090000D01*
X146630564Y-84865632D01*
X146575296Y-84647384D01*
X146484860Y-84441209D01*
X146361722Y-84252732D01*
X146300956Y-84186723D01*
X146212772Y-84090930D01*
X146212767Y-84090925D01*
X146209240Y-84087094D01*
X146031576Y-83948811D01*
X146027002Y-83946336D01*
X146026995Y-83946331D01*
X145998320Y-83930814D01*
X145950048Y-83884498D01*
X145932289Y-83820000D01*
X145950048Y-83755502D01*
X145998320Y-83709186D01*
X146026990Y-83693671D01*
X146031576Y-83691189D01*
X146209240Y-83552906D01*
X146361722Y-83387268D01*
X146484860Y-83198791D01*
X146575296Y-82992616D01*
X146630564Y-82774368D01*
X146649156Y-82550000D01*
X146630564Y-82325632D01*
X146575296Y-82107384D01*
X146484860Y-81901209D01*
X146361722Y-81712732D01*
X146300956Y-81646723D01*
X146212772Y-81550930D01*
X146212767Y-81550925D01*
X146209240Y-81547094D01*
X146031576Y-81408811D01*
X146027000Y-81406334D01*
X146026990Y-81406328D01*
X145997794Y-81390529D01*
X145949521Y-81344213D01*
X145931762Y-81279715D01*
X145949522Y-81215217D01*
X145997794Y-81168900D01*
X146026725Y-81153243D01*
X146035410Y-81147569D01*
X146037552Y-81145902D01*
X146045787Y-81134533D01*
X146039019Y-81122229D01*
X145297729Y-80380939D01*
X145285999Y-80374167D01*
X145274271Y-80380938D01*
X144532978Y-81122230D01*
X144526210Y-81134532D01*
X144534446Y-81145901D01*
X144536592Y-81147571D01*
X144545277Y-81153245D01*
X144574206Y-81168901D01*
X144622478Y-81215217D01*
X144640237Y-81279715D01*
X144622478Y-81344212D01*
X144574207Y-81390528D01*
X144573680Y-81390814D01*
X144545000Y-81406334D01*
X144544994Y-81406337D01*
X144540424Y-81408811D01*
X144536313Y-81412010D01*
X144536311Y-81412012D01*
X144366878Y-81543888D01*
X144366872Y-81543893D01*
X144362760Y-81547094D01*
X144359237Y-81550919D01*
X144359227Y-81550930D01*
X144213806Y-81708899D01*
X144213802Y-81708902D01*
X144210278Y-81712732D01*
X144207430Y-81717090D01*
X144207427Y-81717095D01*
X144121483Y-81848643D01*
X144075969Y-81890542D01*
X144016000Y-81905728D01*
X143956031Y-81890542D01*
X143910517Y-81848643D01*
X143835122Y-81733243D01*
X143821722Y-81712732D01*
X143760956Y-81646723D01*
X143672772Y-81550930D01*
X143672767Y-81550925D01*
X143669240Y-81547094D01*
X143491576Y-81408811D01*
X143487002Y-81406336D01*
X143486995Y-81406331D01*
X143458320Y-81390814D01*
X143410048Y-81344498D01*
X143392289Y-81280000D01*
X143410048Y-81215502D01*
X143458320Y-81169186D01*
X143458849Y-81168900D01*
X143491576Y-81151189D01*
X143669240Y-81012906D01*
X143821722Y-80847268D01*
X143910817Y-80710896D01*
X143956328Y-80669001D01*
X144016297Y-80653814D01*
X144076266Y-80669000D01*
X144121780Y-80710897D01*
X144155232Y-80762098D01*
X144163328Y-80769947D01*
X144172859Y-80763929D01*
X144915059Y-80021730D01*
X144921832Y-80009999D01*
X145650167Y-80009999D01*
X145656939Y-80021729D01*
X146399138Y-80763928D01*
X146408670Y-80769947D01*
X146416765Y-80762099D01*
X146481566Y-80662916D01*
X146486512Y-80653776D01*
X146572729Y-80457223D01*
X146576099Y-80447407D01*
X146628790Y-80239335D01*
X146630499Y-80229092D01*
X146648224Y-80015189D01*
X146648224Y-80004811D01*
X146630499Y-79790907D01*
X146628790Y-79780664D01*
X146576099Y-79572592D01*
X146572729Y-79562776D01*
X146486513Y-79366225D01*
X146481563Y-79357078D01*
X146416764Y-79257898D01*
X146408670Y-79250051D01*
X146399138Y-79256070D01*
X145656938Y-79998271D01*
X145650167Y-80009999D01*
X144921832Y-80009999D01*
X144915060Y-79998270D01*
X144172860Y-79256070D01*
X144163328Y-79250051D01*
X144155232Y-79257900D01*
X144121780Y-79309102D01*
X144076266Y-79350999D01*
X144016297Y-79366185D01*
X143956328Y-79350998D01*
X143910816Y-79309101D01*
X143821722Y-79172732D01*
X143760956Y-79106723D01*
X143672772Y-79010930D01*
X143672767Y-79010925D01*
X143669240Y-79007094D01*
X143512973Y-78885465D01*
X144526210Y-78885465D01*
X144532979Y-78897769D01*
X145274270Y-79639060D01*
X145285999Y-79645832D01*
X145297730Y-79639059D01*
X146039022Y-78897766D01*
X146045788Y-78885466D01*
X146037551Y-78874096D01*
X146035411Y-78872431D01*
X146026721Y-78866753D01*
X145997267Y-78850814D01*
X145948995Y-78804498D01*
X145931236Y-78740000D01*
X145948995Y-78675502D01*
X145997267Y-78629186D01*
X146026721Y-78613246D01*
X146035410Y-78607569D01*
X146037552Y-78605902D01*
X146045787Y-78594533D01*
X146039019Y-78582229D01*
X145297729Y-77840939D01*
X145285999Y-77834167D01*
X145274271Y-77840938D01*
X144532978Y-78582230D01*
X144526210Y-78594532D01*
X144534446Y-78605901D01*
X144536592Y-78607571D01*
X144545282Y-78613248D01*
X144574733Y-78629187D01*
X144623004Y-78675503D01*
X144640763Y-78740000D01*
X144623004Y-78804497D01*
X144574733Y-78850813D01*
X144545282Y-78866751D01*
X144536591Y-78872428D01*
X144534445Y-78874098D01*
X144526210Y-78885465D01*
X143512973Y-78885465D01*
X143491576Y-78868811D01*
X143487000Y-78866334D01*
X143486990Y-78866328D01*
X143457794Y-78850529D01*
X143409521Y-78804213D01*
X143391762Y-78739715D01*
X143409522Y-78675217D01*
X143457794Y-78628900D01*
X143486725Y-78613243D01*
X143495410Y-78607569D01*
X143497552Y-78605902D01*
X143505787Y-78594533D01*
X143499019Y-78582229D01*
X142757729Y-77840939D01*
X142745999Y-77834167D01*
X142734271Y-77840938D01*
X141992978Y-78582230D01*
X141986210Y-78594532D01*
X141994446Y-78605901D01*
X141996592Y-78607571D01*
X142005277Y-78613245D01*
X142034206Y-78628901D01*
X142082478Y-78675217D01*
X142100237Y-78739715D01*
X142082478Y-78804212D01*
X142034207Y-78850528D01*
X142033680Y-78850814D01*
X142005000Y-78866334D01*
X142004994Y-78866337D01*
X142000424Y-78868811D01*
X141996313Y-78872010D01*
X141996311Y-78872012D01*
X141826878Y-79003888D01*
X141826872Y-79003893D01*
X141822760Y-79007094D01*
X141819237Y-79010919D01*
X141819227Y-79010930D01*
X141673806Y-79168899D01*
X141673802Y-79168902D01*
X141670278Y-79172732D01*
X141667430Y-79177090D01*
X141667427Y-79177095D01*
X141549992Y-79356843D01*
X141547140Y-79361209D01*
X141545048Y-79365978D01*
X141545046Y-79365982D01*
X141458799Y-79562606D01*
X141458796Y-79562614D01*
X141456704Y-79567384D01*
X141401436Y-79785632D01*
X141401006Y-79790820D01*
X141401005Y-79790827D01*
X141392343Y-79895367D01*
X141382844Y-80010000D01*
X141383274Y-80015189D01*
X141400998Y-80229092D01*
X141401436Y-80234368D01*
X141402717Y-80239426D01*
X141454575Y-80444211D01*
X141456704Y-80452616D01*
X141547140Y-80658791D01*
X141670278Y-80847268D01*
X141673806Y-80851100D01*
X141819227Y-81009069D01*
X141819231Y-81009073D01*
X141822760Y-81012906D01*
X142000424Y-81151189D01*
X142005002Y-81153666D01*
X142005009Y-81153671D01*
X142033680Y-81169187D01*
X142081951Y-81215503D01*
X142099710Y-81280000D01*
X142081951Y-81344497D01*
X142033680Y-81390813D01*
X142005009Y-81406328D01*
X142004993Y-81406338D01*
X142000424Y-81408811D01*
X141996313Y-81412010D01*
X141996311Y-81412012D01*
X141826878Y-81543888D01*
X141826872Y-81543893D01*
X141822760Y-81547094D01*
X141819237Y-81550919D01*
X141819227Y-81550930D01*
X141673806Y-81708899D01*
X141673802Y-81708902D01*
X141670278Y-81712732D01*
X141667430Y-81717090D01*
X141667427Y-81717095D01*
X141581483Y-81848643D01*
X141547140Y-81901209D01*
X141545048Y-81905978D01*
X141545046Y-81905982D01*
X141458799Y-82102606D01*
X141458796Y-82102614D01*
X141456704Y-82107384D01*
X141401436Y-82325632D01*
X141401006Y-82330820D01*
X141401005Y-82330827D01*
X141388049Y-82487181D01*
X141382844Y-82550000D01*
X141383274Y-82555189D01*
X141397734Y-82729700D01*
X141401436Y-82774368D01*
X141456704Y-82992616D01*
X141458797Y-82997389D01*
X141458799Y-82997393D01*
X141512480Y-83119774D01*
X141547140Y-83198791D01*
X141670278Y-83387268D01*
X141673806Y-83391100D01*
X141819227Y-83549069D01*
X141819231Y-83549073D01*
X141822760Y-83552906D01*
X142000424Y-83691189D01*
X142005002Y-83693666D01*
X142005009Y-83693671D01*
X142033680Y-83709187D01*
X142081951Y-83755503D01*
X142099710Y-83820000D01*
X142081951Y-83884497D01*
X142033680Y-83930813D01*
X142005009Y-83946328D01*
X142004993Y-83946338D01*
X142000424Y-83948811D01*
X141996313Y-83952010D01*
X141996311Y-83952012D01*
X141826878Y-84083888D01*
X141826872Y-84083893D01*
X141822760Y-84087094D01*
X141819237Y-84090919D01*
X141819227Y-84090930D01*
X141673806Y-84248899D01*
X141673802Y-84248902D01*
X141670278Y-84252732D01*
X141667430Y-84257090D01*
X141667427Y-84257095D01*
X141581483Y-84388643D01*
X141547140Y-84441209D01*
X141545048Y-84445978D01*
X141545046Y-84445982D01*
X141458799Y-84642606D01*
X141458796Y-84642614D01*
X141456704Y-84647384D01*
X141455423Y-84652440D01*
X141455422Y-84652445D01*
X141438568Y-84719000D01*
X141401436Y-84865632D01*
X141401006Y-84870820D01*
X141401005Y-84870827D01*
X141383909Y-85077147D01*
X141382844Y-85090000D01*
X141401436Y-85314368D01*
X141456704Y-85532616D01*
X141458797Y-85537389D01*
X141458799Y-85537393D01*
X141534147Y-85709170D01*
X141547140Y-85738791D01*
X141670278Y-85927268D01*
X141673806Y-85931100D01*
X141819227Y-86089069D01*
X141819231Y-86089073D01*
X141822760Y-86092906D01*
X142000424Y-86231189D01*
X142005002Y-86233666D01*
X142005009Y-86233671D01*
X142033680Y-86249187D01*
X142081951Y-86295503D01*
X142099710Y-86360000D01*
X142081951Y-86424497D01*
X142033680Y-86470813D01*
X142005009Y-86486328D01*
X142004993Y-86486338D01*
X142000424Y-86488811D01*
X141996313Y-86492010D01*
X141996311Y-86492012D01*
X141826878Y-86623888D01*
X141826872Y-86623893D01*
X141822760Y-86627094D01*
X141819237Y-86630919D01*
X141819227Y-86630930D01*
X141673806Y-86788899D01*
X141673802Y-86788902D01*
X141670278Y-86792732D01*
X141667430Y-86797090D01*
X141667427Y-86797095D01*
X141554109Y-86970542D01*
X141547140Y-86981209D01*
X141545048Y-86985978D01*
X141545046Y-86985982D01*
X141458799Y-87182606D01*
X141458796Y-87182614D01*
X141456704Y-87187384D01*
X141401436Y-87405632D01*
X141401006Y-87410820D01*
X141401005Y-87410827D01*
X141393844Y-87497251D01*
X141382844Y-87630000D01*
X138012500Y-87630000D01*
X138012500Y-77475189D01*
X141383776Y-77475189D01*
X141401500Y-77689092D01*
X141403209Y-77699335D01*
X141455900Y-77907407D01*
X141459270Y-77917223D01*
X141545488Y-78113778D01*
X141550431Y-78122913D01*
X141615233Y-78222099D01*
X141623328Y-78229947D01*
X141632859Y-78223929D01*
X142375059Y-77481730D01*
X142381832Y-77469999D01*
X143110167Y-77469999D01*
X143116939Y-77481729D01*
X143859138Y-78223928D01*
X143868670Y-78229947D01*
X143876764Y-78222100D01*
X143910516Y-78170440D01*
X143956030Y-78128542D01*
X144015999Y-78113356D01*
X144075968Y-78128542D01*
X144121481Y-78170439D01*
X144155232Y-78222098D01*
X144163328Y-78229947D01*
X144172859Y-78223929D01*
X144915059Y-77481730D01*
X144921832Y-77469999D01*
X145650167Y-77469999D01*
X145656939Y-77481729D01*
X146399138Y-78223928D01*
X146408670Y-78229947D01*
X146416765Y-78222099D01*
X146481566Y-78122916D01*
X146486512Y-78113776D01*
X146572729Y-77917223D01*
X146576099Y-77907407D01*
X146628790Y-77699335D01*
X146630499Y-77689092D01*
X146648224Y-77475189D01*
X146648224Y-77464811D01*
X146630499Y-77250907D01*
X146628790Y-77240664D01*
X146576099Y-77032592D01*
X146572729Y-77022776D01*
X146486513Y-76826225D01*
X146481563Y-76817078D01*
X146445726Y-76762227D01*
X156957860Y-76762227D01*
X156963869Y-76771659D01*
X157670270Y-77478060D01*
X157681999Y-77484832D01*
X157693730Y-77478059D01*
X158400132Y-76771656D01*
X158406138Y-76762228D01*
X158398586Y-76753985D01*
X158343002Y-76715066D01*
X158333513Y-76709587D01*
X158136053Y-76617510D01*
X158125761Y-76613764D01*
X157915312Y-76557374D01*
X157904519Y-76555471D01*
X157687475Y-76536483D01*
X157676525Y-76536483D01*
X157459480Y-76555471D01*
X157448687Y-76557374D01*
X157238238Y-76613764D01*
X157227946Y-76617510D01*
X157030485Y-76709587D01*
X157020995Y-76715067D01*
X156965413Y-76753985D01*
X156957860Y-76762227D01*
X146445726Y-76762227D01*
X146416764Y-76717898D01*
X146408670Y-76710051D01*
X146399138Y-76716070D01*
X145656938Y-77458271D01*
X145650167Y-77469999D01*
X144921832Y-77469999D01*
X144915060Y-77458270D01*
X144172860Y-76716070D01*
X144163328Y-76710051D01*
X144155232Y-76717900D01*
X144121481Y-76769560D01*
X144075968Y-76811457D01*
X144015999Y-76826643D01*
X143956030Y-76811457D01*
X143910517Y-76769560D01*
X143876763Y-76717897D01*
X143868670Y-76710051D01*
X143859138Y-76716070D01*
X143116938Y-77458271D01*
X143110167Y-77469999D01*
X142381832Y-77469999D01*
X142375060Y-77458270D01*
X141632860Y-76716070D01*
X141623328Y-76710051D01*
X141615234Y-76717899D01*
X141550431Y-76817086D01*
X141545488Y-76826221D01*
X141459270Y-77022776D01*
X141455900Y-77032592D01*
X141403209Y-77240664D01*
X141401500Y-77250907D01*
X141383776Y-77464811D01*
X141383776Y-77475189D01*
X138012500Y-77475189D01*
X138012500Y-76345465D01*
X141986210Y-76345465D01*
X141992979Y-76357769D01*
X142734270Y-77099060D01*
X142745999Y-77105832D01*
X142757730Y-77099059D01*
X143499022Y-76357766D01*
X143505788Y-76345466D01*
X143505787Y-76345465D01*
X144526210Y-76345465D01*
X144532979Y-76357769D01*
X145274270Y-77099060D01*
X145285999Y-77105832D01*
X145297730Y-77099059D01*
X146039022Y-76357766D01*
X146045788Y-76345466D01*
X146037551Y-76334096D01*
X146035411Y-76332431D01*
X146026721Y-76326753D01*
X145997267Y-76310814D01*
X145948995Y-76264498D01*
X145931236Y-76200000D01*
X145948995Y-76135502D01*
X145997267Y-76089186D01*
X146026721Y-76073246D01*
X146035410Y-76067569D01*
X146037552Y-76065902D01*
X146045787Y-76054533D01*
X146039019Y-76042229D01*
X145297729Y-75300939D01*
X145285999Y-75294167D01*
X145274271Y-75300938D01*
X144532978Y-76042230D01*
X144526210Y-76054532D01*
X144534446Y-76065901D01*
X144536592Y-76067571D01*
X144545272Y-76073242D01*
X144574731Y-76089184D01*
X144623003Y-76135499D01*
X144640763Y-76199996D01*
X144623005Y-76264494D01*
X144574736Y-76310811D01*
X144545277Y-76326754D01*
X144536591Y-76332428D01*
X144534445Y-76334098D01*
X144526210Y-76345465D01*
X143505787Y-76345465D01*
X143497551Y-76334096D01*
X143495411Y-76332431D01*
X143486721Y-76326753D01*
X143457267Y-76310814D01*
X143408995Y-76264498D01*
X143391236Y-76200000D01*
X143408995Y-76135502D01*
X143457267Y-76089186D01*
X143486721Y-76073246D01*
X143495410Y-76067569D01*
X143497552Y-76065902D01*
X143505787Y-76054533D01*
X143499019Y-76042229D01*
X142757729Y-75300939D01*
X142745999Y-75294167D01*
X142734271Y-75300938D01*
X141992978Y-76042230D01*
X141986210Y-76054532D01*
X141994446Y-76065901D01*
X141996592Y-76067571D01*
X142005272Y-76073242D01*
X142034731Y-76089184D01*
X142083003Y-76135499D01*
X142100763Y-76199996D01*
X142083005Y-76264494D01*
X142034736Y-76310811D01*
X142005277Y-76326754D01*
X141996591Y-76332428D01*
X141994445Y-76334098D01*
X141986210Y-76345465D01*
X138012500Y-76345465D01*
X138012500Y-74935189D01*
X141383776Y-74935189D01*
X141401500Y-75149092D01*
X141403209Y-75159335D01*
X141455900Y-75367407D01*
X141459270Y-75377223D01*
X141545488Y-75573778D01*
X141550431Y-75582913D01*
X141615233Y-75682099D01*
X141623328Y-75689947D01*
X141632859Y-75683929D01*
X142375059Y-74941730D01*
X142381832Y-74929999D01*
X143110167Y-74929999D01*
X143116939Y-74941729D01*
X143859138Y-75683928D01*
X143868670Y-75689947D01*
X143876764Y-75682100D01*
X143910516Y-75630440D01*
X143956030Y-75588542D01*
X144015999Y-75573356D01*
X144075968Y-75588542D01*
X144121481Y-75630439D01*
X144155232Y-75682098D01*
X144163328Y-75689947D01*
X144172859Y-75683929D01*
X144915059Y-74941730D01*
X144921832Y-74929999D01*
X145650167Y-74929999D01*
X145656939Y-74941729D01*
X146399138Y-75683928D01*
X146408670Y-75689947D01*
X146416765Y-75682099D01*
X146481566Y-75582916D01*
X146486512Y-75573776D01*
X146572729Y-75377223D01*
X146576099Y-75367407D01*
X146628790Y-75159335D01*
X146630499Y-75149092D01*
X146648224Y-74935189D01*
X146648224Y-74924811D01*
X146630499Y-74710907D01*
X146628790Y-74700664D01*
X146576099Y-74492592D01*
X146572729Y-74482776D01*
X146486513Y-74286225D01*
X146481563Y-74277078D01*
X146416764Y-74177898D01*
X146408670Y-74170051D01*
X146399138Y-74176070D01*
X145656938Y-74918271D01*
X145650167Y-74929999D01*
X144921832Y-74929999D01*
X144915060Y-74918270D01*
X144172860Y-74176070D01*
X144163328Y-74170051D01*
X144155232Y-74177900D01*
X144121481Y-74229560D01*
X144075968Y-74271457D01*
X144015999Y-74286643D01*
X143956030Y-74271457D01*
X143910517Y-74229560D01*
X143876763Y-74177897D01*
X143868670Y-74170051D01*
X143859138Y-74176070D01*
X143116938Y-74918271D01*
X143110167Y-74929999D01*
X142381832Y-74929999D01*
X142375060Y-74918270D01*
X141632860Y-74176070D01*
X141623328Y-74170051D01*
X141615234Y-74177899D01*
X141550431Y-74277086D01*
X141545488Y-74286221D01*
X141459270Y-74482776D01*
X141455900Y-74492592D01*
X141403209Y-74700664D01*
X141401500Y-74710907D01*
X141383776Y-74924811D01*
X141383776Y-74935189D01*
X138012500Y-74935189D01*
X138012500Y-72390000D01*
X141382844Y-72390000D01*
X141401436Y-72614368D01*
X141456704Y-72832616D01*
X141458797Y-72837389D01*
X141458799Y-72837393D01*
X141498731Y-72928429D01*
X141547140Y-73038791D01*
X141670278Y-73227268D01*
X141673806Y-73231100D01*
X141819227Y-73389069D01*
X141819231Y-73389073D01*
X141822760Y-73392906D01*
X142000424Y-73531189D01*
X142005000Y-73533665D01*
X142005004Y-73533668D01*
X142015582Y-73539392D01*
X142034205Y-73549470D01*
X142082476Y-73595784D01*
X142100237Y-73660281D01*
X142082479Y-73724779D01*
X142034209Y-73771096D01*
X142005282Y-73786751D01*
X141996591Y-73792428D01*
X141994445Y-73794098D01*
X141986210Y-73805465D01*
X141992979Y-73817769D01*
X142734270Y-74559060D01*
X142745999Y-74565832D01*
X142757730Y-74559059D01*
X143499022Y-73817766D01*
X143505788Y-73805466D01*
X143497551Y-73794096D01*
X143495411Y-73792431D01*
X143486716Y-73786750D01*
X143457792Y-73771097D01*
X143409520Y-73724780D01*
X143391762Y-73660281D01*
X143409523Y-73595784D01*
X143457791Y-73549472D01*
X143491576Y-73531189D01*
X143669240Y-73392906D01*
X143821722Y-73227268D01*
X143910518Y-73091354D01*
X143956030Y-73049457D01*
X144016000Y-73034271D01*
X144075970Y-73049457D01*
X144121481Y-73091354D01*
X144210278Y-73227268D01*
X144213806Y-73231100D01*
X144359227Y-73389069D01*
X144359231Y-73389073D01*
X144362760Y-73392906D01*
X144540424Y-73531189D01*
X144545000Y-73533665D01*
X144545004Y-73533668D01*
X144555582Y-73539392D01*
X144574205Y-73549470D01*
X144622476Y-73595784D01*
X144640237Y-73660281D01*
X144622479Y-73724779D01*
X144574209Y-73771096D01*
X144545282Y-73786751D01*
X144536591Y-73792428D01*
X144534445Y-73794098D01*
X144526210Y-73805465D01*
X144532979Y-73817769D01*
X145274270Y-74559060D01*
X145285999Y-74565832D01*
X145297730Y-74559059D01*
X146039022Y-73817766D01*
X146045788Y-73805466D01*
X146037551Y-73794096D01*
X146035411Y-73792431D01*
X146026716Y-73786750D01*
X145997792Y-73771097D01*
X145949520Y-73724780D01*
X145931762Y-73660281D01*
X145949523Y-73595784D01*
X145997791Y-73549472D01*
X146031576Y-73531189D01*
X146209240Y-73392906D01*
X146361722Y-73227268D01*
X146484860Y-73038791D01*
X146575296Y-72832616D01*
X146594850Y-72755400D01*
X156168182Y-72755400D01*
X156175573Y-72763718D01*
X156402280Y-72928429D01*
X156408961Y-72932669D01*
X156678572Y-73080889D01*
X156685707Y-73084247D01*
X156971769Y-73197507D01*
X156979295Y-73199952D01*
X157277278Y-73276462D01*
X157285050Y-73277944D01*
X157590278Y-73316503D01*
X157598169Y-73317000D01*
X157905831Y-73317000D01*
X157913721Y-73316503D01*
X158218949Y-73277944D01*
X158226721Y-73276462D01*
X158524704Y-73199952D01*
X158532230Y-73197507D01*
X158818292Y-73084247D01*
X158825427Y-73080889D01*
X159095038Y-72932669D01*
X159101719Y-72928429D01*
X159328426Y-72763717D01*
X159335817Y-72755400D01*
X159329815Y-72746025D01*
X157763729Y-71179939D01*
X157752000Y-71173167D01*
X157740270Y-71179939D01*
X156174183Y-72746025D01*
X156168182Y-72755400D01*
X146594850Y-72755400D01*
X146630564Y-72614368D01*
X146649156Y-72390000D01*
X146630564Y-72165632D01*
X146575296Y-71947384D01*
X146484860Y-71741209D01*
X146361722Y-71552732D01*
X146255848Y-71437723D01*
X146212772Y-71390930D01*
X146212767Y-71390925D01*
X146209240Y-71387094D01*
X146031576Y-71248811D01*
X146026997Y-71246333D01*
X146026994Y-71246331D01*
X145998318Y-71230812D01*
X145950047Y-71184494D01*
X145932289Y-71119996D01*
X145950050Y-71055499D01*
X145998321Y-71009185D01*
X146031576Y-70991189D01*
X146209240Y-70852906D01*
X146246015Y-70812958D01*
X155239290Y-70812958D01*
X155258606Y-71119994D01*
X155259599Y-71127855D01*
X155317245Y-71430046D01*
X155319216Y-71437723D01*
X155414284Y-71730309D01*
X155417199Y-71737672D01*
X155548189Y-72016040D01*
X155552001Y-72022974D01*
X155716847Y-72282730D01*
X155721500Y-72289135D01*
X155796826Y-72380187D01*
X155808309Y-72388079D01*
X155820486Y-72381302D01*
X157381060Y-70820729D01*
X157387832Y-70808999D01*
X158116167Y-70808999D01*
X158122939Y-70820729D01*
X159683513Y-72381303D01*
X159695688Y-72388080D01*
X159707172Y-72380187D01*
X159782499Y-72289135D01*
X159787152Y-72282730D01*
X159951998Y-72022974D01*
X159955810Y-72016040D01*
X160086800Y-71737672D01*
X160089715Y-71730309D01*
X160184783Y-71437723D01*
X160186754Y-71430046D01*
X160244400Y-71127855D01*
X160245393Y-71119994D01*
X160264710Y-70812958D01*
X160264710Y-70805042D01*
X160245393Y-70498005D01*
X160244400Y-70490144D01*
X160186754Y-70187953D01*
X160184783Y-70180276D01*
X160089715Y-69887690D01*
X160086800Y-69880327D01*
X159955810Y-69601959D01*
X159951998Y-69595025D01*
X159787152Y-69335269D01*
X159782499Y-69328864D01*
X159707172Y-69237811D01*
X159695689Y-69229919D01*
X159683512Y-69236696D01*
X158122939Y-70797270D01*
X158116167Y-70808999D01*
X157387832Y-70808999D01*
X157381060Y-70797270D01*
X155820486Y-69236696D01*
X155808310Y-69229919D01*
X155796825Y-69237812D01*
X155721495Y-69328870D01*
X155716850Y-69335263D01*
X155552001Y-69595025D01*
X155548189Y-69601959D01*
X155417199Y-69880327D01*
X155414284Y-69887690D01*
X155319216Y-70180276D01*
X155317245Y-70187953D01*
X155259599Y-70490144D01*
X155258606Y-70498005D01*
X155239290Y-70805042D01*
X155239290Y-70812958D01*
X146246015Y-70812958D01*
X146361722Y-70687268D01*
X146484860Y-70498791D01*
X146575296Y-70292616D01*
X146630564Y-70074368D01*
X146649156Y-69850000D01*
X146630564Y-69625632D01*
X146575296Y-69407384D01*
X146484860Y-69201209D01*
X146361722Y-69012732D01*
X146283041Y-68927262D01*
X146223513Y-68862598D01*
X156168181Y-68862598D01*
X156174183Y-68871973D01*
X157740270Y-70438060D01*
X157752000Y-70444832D01*
X157763729Y-70438060D01*
X159329815Y-68871973D01*
X159335816Y-68862598D01*
X159328425Y-68854280D01*
X159101719Y-68689570D01*
X159095038Y-68685330D01*
X158825427Y-68537110D01*
X158818292Y-68533752D01*
X158532230Y-68420492D01*
X158524704Y-68418047D01*
X158226721Y-68341537D01*
X158218949Y-68340055D01*
X157913721Y-68301496D01*
X157905831Y-68301000D01*
X157598169Y-68301000D01*
X157590278Y-68301496D01*
X157285050Y-68340055D01*
X157277278Y-68341537D01*
X156979295Y-68418047D01*
X156971769Y-68420492D01*
X156685707Y-68533752D01*
X156678572Y-68537110D01*
X156408961Y-68685330D01*
X156402280Y-68689570D01*
X156175572Y-68854281D01*
X156168181Y-68862598D01*
X146223513Y-68862598D01*
X146212772Y-68850930D01*
X146212767Y-68850925D01*
X146209240Y-68847094D01*
X146031576Y-68708811D01*
X146026997Y-68706333D01*
X146026994Y-68706331D01*
X145838159Y-68604139D01*
X145838156Y-68604137D01*
X145833574Y-68601658D01*
X145828650Y-68599967D01*
X145828642Y-68599964D01*
X145625565Y-68530248D01*
X145625559Y-68530246D01*
X145620635Y-68528556D01*
X145615498Y-68527698D01*
X145615495Y-68527698D01*
X145403706Y-68492357D01*
X145403703Y-68492356D01*
X145398569Y-68491500D01*
X145173431Y-68491500D01*
X145168297Y-68492356D01*
X145168293Y-68492357D01*
X144956504Y-68527698D01*
X144956498Y-68527699D01*
X144951365Y-68528556D01*
X144946443Y-68530245D01*
X144946434Y-68530248D01*
X144743357Y-68599964D01*
X144743344Y-68599969D01*
X144738426Y-68601658D01*
X144733847Y-68604135D01*
X144733840Y-68604139D01*
X144545005Y-68706331D01*
X144544997Y-68706336D01*
X144540424Y-68708811D01*
X144536313Y-68712010D01*
X144536311Y-68712012D01*
X144366878Y-68843888D01*
X144366872Y-68843893D01*
X144362760Y-68847094D01*
X144359229Y-68850929D01*
X144359221Y-68850937D01*
X144249230Y-68970417D01*
X144198124Y-69004016D01*
X144137218Y-69009590D01*
X144080861Y-68985828D01*
X144042334Y-68938327D01*
X144040424Y-68934232D01*
X144038115Y-68927262D01*
X143945030Y-68776348D01*
X143819652Y-68650970D01*
X143813404Y-68647116D01*
X143674981Y-68561735D01*
X143674976Y-68561732D01*
X143668738Y-68557885D01*
X143661776Y-68555578D01*
X143661774Y-68555577D01*
X143506951Y-68504275D01*
X143506949Y-68504274D01*
X143500426Y-68502113D01*
X143493589Y-68501414D01*
X143493587Y-68501414D01*
X143399729Y-68491825D01*
X143399723Y-68491824D01*
X143396545Y-68491500D01*
X143393339Y-68491500D01*
X142098661Y-68491500D01*
X142098641Y-68491500D01*
X142095456Y-68491501D01*
X142092279Y-68491825D01*
X142092270Y-68491826D01*
X141998411Y-68501414D01*
X141998405Y-68501415D01*
X141991574Y-68502113D01*
X141985058Y-68504271D01*
X141985049Y-68504274D01*
X141830225Y-68555577D01*
X141830219Y-68555579D01*
X141823262Y-68557885D01*
X141817026Y-68561730D01*
X141817018Y-68561735D01*
X141678595Y-68647116D01*
X141678590Y-68647119D01*
X141672348Y-68650970D01*
X141667158Y-68656159D01*
X141667154Y-68656163D01*
X141552163Y-68771154D01*
X141552159Y-68771158D01*
X141546970Y-68776348D01*
X141543119Y-68782590D01*
X141543116Y-68782595D01*
X141457735Y-68921018D01*
X141457730Y-68921026D01*
X141453885Y-68927262D01*
X141451579Y-68934219D01*
X141451577Y-68934225D01*
X141400275Y-69089048D01*
X141398113Y-69095574D01*
X141397414Y-69102408D01*
X141397414Y-69102412D01*
X141387825Y-69196270D01*
X141387500Y-69199455D01*
X141387500Y-69202659D01*
X141387500Y-69202660D01*
X141387500Y-70497338D01*
X141387500Y-70497357D01*
X141387501Y-70500544D01*
X141398113Y-70604426D01*
X141400272Y-70610943D01*
X141400274Y-70610950D01*
X141451577Y-70765774D01*
X141453885Y-70772738D01*
X141457732Y-70778976D01*
X141457735Y-70778981D01*
X141503333Y-70852906D01*
X141546970Y-70923652D01*
X141672348Y-71049030D01*
X141823262Y-71142115D01*
X141830232Y-71144424D01*
X141833795Y-71146086D01*
X141882838Y-71186712D01*
X141905750Y-71246131D01*
X141896678Y-71309166D01*
X141857939Y-71359712D01*
X141822760Y-71387094D01*
X141819237Y-71390919D01*
X141819227Y-71390930D01*
X141673806Y-71548899D01*
X141673802Y-71548902D01*
X141670278Y-71552732D01*
X141667430Y-71557090D01*
X141667427Y-71557095D01*
X141581483Y-71688643D01*
X141547140Y-71741209D01*
X141545048Y-71745978D01*
X141545046Y-71745982D01*
X141458799Y-71942606D01*
X141458796Y-71942614D01*
X141456704Y-71947384D01*
X141401436Y-72165632D01*
X141401006Y-72170820D01*
X141401005Y-72170827D01*
X141391733Y-72282730D01*
X141382844Y-72390000D01*
X138012500Y-72390000D01*
X138012500Y-63635500D01*
X138029381Y-63572500D01*
X138075500Y-63526381D01*
X138138500Y-63509500D01*
X162485500Y-63509500D01*
X162548500Y-63526381D01*
G37*
%TD.AperFunction*%
%TD*%
M02*
