%TF.GenerationSoftware,KiCad,Pcbnew,(7.0.0)*%
%TF.CreationDate,2023-03-04T23:02:33+00:00*%
%TF.ProjectId,VGA_ConnectorV2.kicad_pro,5647415f-436f-46e6-9e65-63746f725632,rev?*%
%TF.SameCoordinates,Original*%
%TF.FileFunction,Legend,Top*%
%TF.FilePolarity,Positive*%
%FSLAX46Y46*%
G04 Gerber Fmt 4.6, Leading zero omitted, Abs format (unit mm)*
G04 Created by KiCad (PCBNEW (7.0.0)) date 2023-03-04 23:02:33*
%MOMM*%
%LPD*%
G01*
G04 APERTURE LIST*
%ADD10C,0.150000*%
%ADD11C,0.120000*%
G04 APERTURE END LIST*
D10*
X150837780Y-85994028D02*
X151837780Y-85660695D01*
X151837780Y-85660695D02*
X150837780Y-85327362D01*
X150885400Y-84470219D02*
X150837780Y-84565457D01*
X150837780Y-84565457D02*
X150837780Y-84708314D01*
X150837780Y-84708314D02*
X150885400Y-84851171D01*
X150885400Y-84851171D02*
X150980638Y-84946409D01*
X150980638Y-84946409D02*
X151075876Y-84994028D01*
X151075876Y-84994028D02*
X151266352Y-85041647D01*
X151266352Y-85041647D02*
X151409209Y-85041647D01*
X151409209Y-85041647D02*
X151599685Y-84994028D01*
X151599685Y-84994028D02*
X151694923Y-84946409D01*
X151694923Y-84946409D02*
X151790161Y-84851171D01*
X151790161Y-84851171D02*
X151837780Y-84708314D01*
X151837780Y-84708314D02*
X151837780Y-84613076D01*
X151837780Y-84613076D02*
X151790161Y-84470219D01*
X151790161Y-84470219D02*
X151742542Y-84422600D01*
X151742542Y-84422600D02*
X151409209Y-84422600D01*
X151409209Y-84422600D02*
X151409209Y-84613076D01*
X151552066Y-84041647D02*
X151552066Y-83565457D01*
X151837780Y-84136885D02*
X150837780Y-83803552D01*
X150837780Y-83803552D02*
X151837780Y-83470219D01*
X151837780Y-82536885D02*
X150837780Y-82536885D01*
X151171114Y-82060695D02*
X151837780Y-82060695D01*
X151266352Y-82060695D02*
X151218733Y-82013076D01*
X151218733Y-82013076D02*
X151171114Y-81917838D01*
X151171114Y-81917838D02*
X151171114Y-81774981D01*
X151171114Y-81774981D02*
X151218733Y-81679743D01*
X151218733Y-81679743D02*
X151313971Y-81632124D01*
X151313971Y-81632124D02*
X151837780Y-81632124D01*
X151171114Y-81298790D02*
X151171114Y-80917838D01*
X150837780Y-81155933D02*
X151694923Y-81155933D01*
X151694923Y-81155933D02*
X151790161Y-81108314D01*
X151790161Y-81108314D02*
X151837780Y-81013076D01*
X151837780Y-81013076D02*
X151837780Y-80917838D01*
X151790161Y-80203552D02*
X151837780Y-80298790D01*
X151837780Y-80298790D02*
X151837780Y-80489266D01*
X151837780Y-80489266D02*
X151790161Y-80584504D01*
X151790161Y-80584504D02*
X151694923Y-80632123D01*
X151694923Y-80632123D02*
X151313971Y-80632123D01*
X151313971Y-80632123D02*
X151218733Y-80584504D01*
X151218733Y-80584504D02*
X151171114Y-80489266D01*
X151171114Y-80489266D02*
X151171114Y-80298790D01*
X151171114Y-80298790D02*
X151218733Y-80203552D01*
X151218733Y-80203552D02*
X151313971Y-80155933D01*
X151313971Y-80155933D02*
X151409209Y-80155933D01*
X151409209Y-80155933D02*
X151504447Y-80632123D01*
X151837780Y-79727361D02*
X151171114Y-79727361D01*
X151361590Y-79727361D02*
X151266352Y-79679742D01*
X151266352Y-79679742D02*
X151218733Y-79632123D01*
X151218733Y-79632123D02*
X151171114Y-79536885D01*
X151171114Y-79536885D02*
X151171114Y-79441647D01*
X151171114Y-79251170D02*
X151171114Y-78870218D01*
X151837780Y-79108313D02*
X150980638Y-79108313D01*
X150980638Y-79108313D02*
X150885400Y-79060694D01*
X150885400Y-79060694D02*
X150837780Y-78965456D01*
X150837780Y-78965456D02*
X150837780Y-78870218D01*
X151837780Y-78108313D02*
X151313971Y-78108313D01*
X151313971Y-78108313D02*
X151218733Y-78155932D01*
X151218733Y-78155932D02*
X151171114Y-78251170D01*
X151171114Y-78251170D02*
X151171114Y-78441646D01*
X151171114Y-78441646D02*
X151218733Y-78536884D01*
X151790161Y-78108313D02*
X151837780Y-78203551D01*
X151837780Y-78203551D02*
X151837780Y-78441646D01*
X151837780Y-78441646D02*
X151790161Y-78536884D01*
X151790161Y-78536884D02*
X151694923Y-78584503D01*
X151694923Y-78584503D02*
X151599685Y-78584503D01*
X151599685Y-78584503D02*
X151504447Y-78536884D01*
X151504447Y-78536884D02*
X151456828Y-78441646D01*
X151456828Y-78441646D02*
X151456828Y-78203551D01*
X151456828Y-78203551D02*
X151409209Y-78108313D01*
X151790161Y-77203551D02*
X151837780Y-77298789D01*
X151837780Y-77298789D02*
X151837780Y-77489265D01*
X151837780Y-77489265D02*
X151790161Y-77584503D01*
X151790161Y-77584503D02*
X151742542Y-77632122D01*
X151742542Y-77632122D02*
X151647304Y-77679741D01*
X151647304Y-77679741D02*
X151361590Y-77679741D01*
X151361590Y-77679741D02*
X151266352Y-77632122D01*
X151266352Y-77632122D02*
X151218733Y-77584503D01*
X151218733Y-77584503D02*
X151171114Y-77489265D01*
X151171114Y-77489265D02*
X151171114Y-77298789D01*
X151171114Y-77298789D02*
X151218733Y-77203551D01*
X151790161Y-76394027D02*
X151837780Y-76489265D01*
X151837780Y-76489265D02*
X151837780Y-76679741D01*
X151837780Y-76679741D02*
X151790161Y-76774979D01*
X151790161Y-76774979D02*
X151694923Y-76822598D01*
X151694923Y-76822598D02*
X151313971Y-76822598D01*
X151313971Y-76822598D02*
X151218733Y-76774979D01*
X151218733Y-76774979D02*
X151171114Y-76679741D01*
X151171114Y-76679741D02*
X151171114Y-76489265D01*
X151171114Y-76489265D02*
X151218733Y-76394027D01*
X151218733Y-76394027D02*
X151313971Y-76346408D01*
X151313971Y-76346408D02*
X151409209Y-76346408D01*
X151409209Y-76346408D02*
X151504447Y-76822598D01*
X152933971Y-92074982D02*
X152933971Y-92408315D01*
X153457780Y-92408315D02*
X152457780Y-92408315D01*
X152457780Y-92408315D02*
X152457780Y-91932125D01*
X153457780Y-91408315D02*
X153410161Y-91503553D01*
X153410161Y-91503553D02*
X153362542Y-91551172D01*
X153362542Y-91551172D02*
X153267304Y-91598791D01*
X153267304Y-91598791D02*
X152981590Y-91598791D01*
X152981590Y-91598791D02*
X152886352Y-91551172D01*
X152886352Y-91551172D02*
X152838733Y-91503553D01*
X152838733Y-91503553D02*
X152791114Y-91408315D01*
X152791114Y-91408315D02*
X152791114Y-91265458D01*
X152791114Y-91265458D02*
X152838733Y-91170220D01*
X152838733Y-91170220D02*
X152886352Y-91122601D01*
X152886352Y-91122601D02*
X152981590Y-91074982D01*
X152981590Y-91074982D02*
X153267304Y-91074982D01*
X153267304Y-91074982D02*
X153362542Y-91122601D01*
X153362542Y-91122601D02*
X153410161Y-91170220D01*
X153410161Y-91170220D02*
X153457780Y-91265458D01*
X153457780Y-91265458D02*
X153457780Y-91408315D01*
X153457780Y-90646410D02*
X152791114Y-90646410D01*
X152981590Y-90646410D02*
X152886352Y-90598791D01*
X152886352Y-90598791D02*
X152838733Y-90551172D01*
X152838733Y-90551172D02*
X152791114Y-90455934D01*
X152791114Y-90455934D02*
X152791114Y-90360696D01*
X152791114Y-88998791D02*
X153457780Y-88998791D01*
X152791114Y-89427362D02*
X153314923Y-89427362D01*
X153314923Y-89427362D02*
X153410161Y-89379743D01*
X153410161Y-89379743D02*
X153457780Y-89284505D01*
X153457780Y-89284505D02*
X153457780Y-89141648D01*
X153457780Y-89141648D02*
X153410161Y-89046410D01*
X153410161Y-89046410D02*
X153362542Y-88998791D01*
X153410161Y-88570219D02*
X153457780Y-88474981D01*
X153457780Y-88474981D02*
X153457780Y-88284505D01*
X153457780Y-88284505D02*
X153410161Y-88189267D01*
X153410161Y-88189267D02*
X153314923Y-88141648D01*
X153314923Y-88141648D02*
X153267304Y-88141648D01*
X153267304Y-88141648D02*
X153172066Y-88189267D01*
X153172066Y-88189267D02*
X153124447Y-88284505D01*
X153124447Y-88284505D02*
X153124447Y-88427362D01*
X153124447Y-88427362D02*
X153076828Y-88522600D01*
X153076828Y-88522600D02*
X152981590Y-88570219D01*
X152981590Y-88570219D02*
X152933971Y-88570219D01*
X152933971Y-88570219D02*
X152838733Y-88522600D01*
X152838733Y-88522600D02*
X152791114Y-88427362D01*
X152791114Y-88427362D02*
X152791114Y-88284505D01*
X152791114Y-88284505D02*
X152838733Y-88189267D01*
X153410161Y-87332124D02*
X153457780Y-87427362D01*
X153457780Y-87427362D02*
X153457780Y-87617838D01*
X153457780Y-87617838D02*
X153410161Y-87713076D01*
X153410161Y-87713076D02*
X153314923Y-87760695D01*
X153314923Y-87760695D02*
X152933971Y-87760695D01*
X152933971Y-87760695D02*
X152838733Y-87713076D01*
X152838733Y-87713076D02*
X152791114Y-87617838D01*
X152791114Y-87617838D02*
X152791114Y-87427362D01*
X152791114Y-87427362D02*
X152838733Y-87332124D01*
X152838733Y-87332124D02*
X152933971Y-87284505D01*
X152933971Y-87284505D02*
X153029209Y-87284505D01*
X153029209Y-87284505D02*
X153124447Y-87760695D01*
X152791114Y-86351171D02*
X153457780Y-86160695D01*
X153457780Y-86160695D02*
X152981590Y-85970219D01*
X152981590Y-85970219D02*
X153457780Y-85779743D01*
X153457780Y-85779743D02*
X152791114Y-85589267D01*
X153457780Y-85208314D02*
X152791114Y-85208314D01*
X152457780Y-85208314D02*
X152505400Y-85255933D01*
X152505400Y-85255933D02*
X152553019Y-85208314D01*
X152553019Y-85208314D02*
X152505400Y-85160695D01*
X152505400Y-85160695D02*
X152457780Y-85208314D01*
X152457780Y-85208314D02*
X152553019Y-85208314D01*
X152791114Y-84874981D02*
X152791114Y-84494029D01*
X152457780Y-84732124D02*
X153314923Y-84732124D01*
X153314923Y-84732124D02*
X153410161Y-84684505D01*
X153410161Y-84684505D02*
X153457780Y-84589267D01*
X153457780Y-84589267D02*
X153457780Y-84494029D01*
X153457780Y-84160695D02*
X152457780Y-84160695D01*
X153457780Y-83732124D02*
X152933971Y-83732124D01*
X152933971Y-83732124D02*
X152838733Y-83779743D01*
X152838733Y-83779743D02*
X152791114Y-83874981D01*
X152791114Y-83874981D02*
X152791114Y-84017838D01*
X152791114Y-84017838D02*
X152838733Y-84113076D01*
X152838733Y-84113076D02*
X152886352Y-84160695D01*
X153172066Y-82703552D02*
X153172066Y-82227362D01*
X153457780Y-82798790D02*
X152457780Y-82465457D01*
X152457780Y-82465457D02*
X153457780Y-82132124D01*
X152791114Y-81941647D02*
X152791114Y-81560695D01*
X152457780Y-81798790D02*
X153314923Y-81798790D01*
X153314923Y-81798790D02*
X153410161Y-81751171D01*
X153410161Y-81751171D02*
X153457780Y-81655933D01*
X153457780Y-81655933D02*
X153457780Y-81560695D01*
X153457780Y-81084504D02*
X153410161Y-81179742D01*
X153410161Y-81179742D02*
X153362542Y-81227361D01*
X153362542Y-81227361D02*
X153267304Y-81274980D01*
X153267304Y-81274980D02*
X152981590Y-81274980D01*
X152981590Y-81274980D02*
X152886352Y-81227361D01*
X152886352Y-81227361D02*
X152838733Y-81179742D01*
X152838733Y-81179742D02*
X152791114Y-81084504D01*
X152791114Y-81084504D02*
X152791114Y-80941647D01*
X152791114Y-80941647D02*
X152838733Y-80846409D01*
X152838733Y-80846409D02*
X152886352Y-80798790D01*
X152886352Y-80798790D02*
X152981590Y-80751171D01*
X152981590Y-80751171D02*
X153267304Y-80751171D01*
X153267304Y-80751171D02*
X153362542Y-80798790D01*
X153362542Y-80798790D02*
X153410161Y-80846409D01*
X153410161Y-80846409D02*
X153457780Y-80941647D01*
X153457780Y-80941647D02*
X153457780Y-81084504D01*
X153457780Y-80322599D02*
X152791114Y-80322599D01*
X152886352Y-80322599D02*
X152838733Y-80274980D01*
X152838733Y-80274980D02*
X152791114Y-80179742D01*
X152791114Y-80179742D02*
X152791114Y-80036885D01*
X152791114Y-80036885D02*
X152838733Y-79941647D01*
X152838733Y-79941647D02*
X152933971Y-79894028D01*
X152933971Y-79894028D02*
X153457780Y-79894028D01*
X152933971Y-79894028D02*
X152838733Y-79846409D01*
X152838733Y-79846409D02*
X152791114Y-79751171D01*
X152791114Y-79751171D02*
X152791114Y-79608314D01*
X152791114Y-79608314D02*
X152838733Y-79513075D01*
X152838733Y-79513075D02*
X152933971Y-79465456D01*
X152933971Y-79465456D02*
X153457780Y-79465456D01*
X152457780Y-78532123D02*
X153457780Y-78198790D01*
X153457780Y-78198790D02*
X152457780Y-77865457D01*
X152505400Y-77008314D02*
X152457780Y-77103552D01*
X152457780Y-77103552D02*
X152457780Y-77246409D01*
X152457780Y-77246409D02*
X152505400Y-77389266D01*
X152505400Y-77389266D02*
X152600638Y-77484504D01*
X152600638Y-77484504D02*
X152695876Y-77532123D01*
X152695876Y-77532123D02*
X152886352Y-77579742D01*
X152886352Y-77579742D02*
X153029209Y-77579742D01*
X153029209Y-77579742D02*
X153219685Y-77532123D01*
X153219685Y-77532123D02*
X153314923Y-77484504D01*
X153314923Y-77484504D02*
X153410161Y-77389266D01*
X153410161Y-77389266D02*
X153457780Y-77246409D01*
X153457780Y-77246409D02*
X153457780Y-77151171D01*
X153457780Y-77151171D02*
X153410161Y-77008314D01*
X153410161Y-77008314D02*
X153362542Y-76960695D01*
X153362542Y-76960695D02*
X153029209Y-76960695D01*
X153029209Y-76960695D02*
X153029209Y-77151171D01*
X153172066Y-76579742D02*
X153172066Y-76103552D01*
X153457780Y-76674980D02*
X152457780Y-76341647D01*
X152457780Y-76341647D02*
X153457780Y-76008314D01*
X153457780Y-74646409D02*
X152933971Y-74646409D01*
X152933971Y-74646409D02*
X152838733Y-74694028D01*
X152838733Y-74694028D02*
X152791114Y-74789266D01*
X152791114Y-74789266D02*
X152791114Y-74979742D01*
X152791114Y-74979742D02*
X152838733Y-75074980D01*
X153410161Y-74646409D02*
X153457780Y-74741647D01*
X153457780Y-74741647D02*
X153457780Y-74979742D01*
X153457780Y-74979742D02*
X153410161Y-75074980D01*
X153410161Y-75074980D02*
X153314923Y-75122599D01*
X153314923Y-75122599D02*
X153219685Y-75122599D01*
X153219685Y-75122599D02*
X153124447Y-75074980D01*
X153124447Y-75074980D02*
X153076828Y-74979742D01*
X153076828Y-74979742D02*
X153076828Y-74741647D01*
X153076828Y-74741647D02*
X153029209Y-74646409D01*
X153457780Y-73741647D02*
X152457780Y-73741647D01*
X153410161Y-73741647D02*
X153457780Y-73836885D01*
X153457780Y-73836885D02*
X153457780Y-74027361D01*
X153457780Y-74027361D02*
X153410161Y-74122599D01*
X153410161Y-74122599D02*
X153362542Y-74170218D01*
X153362542Y-74170218D02*
X153267304Y-74217837D01*
X153267304Y-74217837D02*
X152981590Y-74217837D01*
X152981590Y-74217837D02*
X152886352Y-74170218D01*
X152886352Y-74170218D02*
X152838733Y-74122599D01*
X152838733Y-74122599D02*
X152791114Y-74027361D01*
X152791114Y-74027361D02*
X152791114Y-73836885D01*
X152791114Y-73836885D02*
X152838733Y-73741647D01*
X153457780Y-72836885D02*
X152933971Y-72836885D01*
X152933971Y-72836885D02*
X152838733Y-72884504D01*
X152838733Y-72884504D02*
X152791114Y-72979742D01*
X152791114Y-72979742D02*
X152791114Y-73170218D01*
X152791114Y-73170218D02*
X152838733Y-73265456D01*
X153410161Y-72836885D02*
X153457780Y-72932123D01*
X153457780Y-72932123D02*
X153457780Y-73170218D01*
X153457780Y-73170218D02*
X153410161Y-73265456D01*
X153410161Y-73265456D02*
X153314923Y-73313075D01*
X153314923Y-73313075D02*
X153219685Y-73313075D01*
X153219685Y-73313075D02*
X153124447Y-73265456D01*
X153124447Y-73265456D02*
X153076828Y-73170218D01*
X153076828Y-73170218D02*
X153076828Y-72932123D01*
X153076828Y-72932123D02*
X153029209Y-72836885D01*
X152791114Y-72360694D02*
X153791114Y-72360694D01*
X152838733Y-72360694D02*
X152791114Y-72265456D01*
X152791114Y-72265456D02*
X152791114Y-72074980D01*
X152791114Y-72074980D02*
X152838733Y-71979742D01*
X152838733Y-71979742D02*
X152886352Y-71932123D01*
X152886352Y-71932123D02*
X152981590Y-71884504D01*
X152981590Y-71884504D02*
X153267304Y-71884504D01*
X153267304Y-71884504D02*
X153362542Y-71932123D01*
X153362542Y-71932123D02*
X153410161Y-71979742D01*
X153410161Y-71979742D02*
X153457780Y-72074980D01*
X153457780Y-72074980D02*
X153457780Y-72265456D01*
X153457780Y-72265456D02*
X153410161Y-72360694D01*
X152791114Y-71598789D02*
X152791114Y-71217837D01*
X152457780Y-71455932D02*
X153314923Y-71455932D01*
X153314923Y-71455932D02*
X153410161Y-71408313D01*
X153410161Y-71408313D02*
X153457780Y-71313075D01*
X153457780Y-71313075D02*
X153457780Y-71217837D01*
X153457780Y-70741646D02*
X153410161Y-70836884D01*
X153410161Y-70836884D02*
X153362542Y-70884503D01*
X153362542Y-70884503D02*
X153267304Y-70932122D01*
X153267304Y-70932122D02*
X152981590Y-70932122D01*
X152981590Y-70932122D02*
X152886352Y-70884503D01*
X152886352Y-70884503D02*
X152838733Y-70836884D01*
X152838733Y-70836884D02*
X152791114Y-70741646D01*
X152791114Y-70741646D02*
X152791114Y-70598789D01*
X152791114Y-70598789D02*
X152838733Y-70503551D01*
X152838733Y-70503551D02*
X152886352Y-70455932D01*
X152886352Y-70455932D02*
X152981590Y-70408313D01*
X152981590Y-70408313D02*
X153267304Y-70408313D01*
X153267304Y-70408313D02*
X153362542Y-70455932D01*
X153362542Y-70455932D02*
X153410161Y-70503551D01*
X153410161Y-70503551D02*
X153457780Y-70598789D01*
X153457780Y-70598789D02*
X153457780Y-70741646D01*
X153457780Y-69979741D02*
X152791114Y-69979741D01*
X152981590Y-69979741D02*
X152886352Y-69932122D01*
X152886352Y-69932122D02*
X152838733Y-69884503D01*
X152838733Y-69884503D02*
X152791114Y-69789265D01*
X152791114Y-69789265D02*
X152791114Y-69694027D01*
X138754028Y-89901504D02*
X138754028Y-89139600D01*
X139134980Y-88063409D02*
X138134980Y-88063409D01*
X138134980Y-88063409D02*
X138134980Y-87682457D01*
X138134980Y-87682457D02*
X138182600Y-87587219D01*
X138182600Y-87587219D02*
X138230219Y-87539600D01*
X138230219Y-87539600D02*
X138325457Y-87491981D01*
X138325457Y-87491981D02*
X138468314Y-87491981D01*
X138468314Y-87491981D02*
X138563552Y-87539600D01*
X138563552Y-87539600D02*
X138611171Y-87587219D01*
X138611171Y-87587219D02*
X138658790Y-87682457D01*
X138658790Y-87682457D02*
X138658790Y-88063409D01*
X139134980Y-87063409D02*
X138468314Y-87063409D01*
X138134980Y-87063409D02*
X138182600Y-87111028D01*
X138182600Y-87111028D02*
X138230219Y-87063409D01*
X138230219Y-87063409D02*
X138182600Y-87015790D01*
X138182600Y-87015790D02*
X138134980Y-87063409D01*
X138134980Y-87063409D02*
X138230219Y-87063409D01*
X139087361Y-86158648D02*
X139134980Y-86253886D01*
X139134980Y-86253886D02*
X139134980Y-86444362D01*
X139134980Y-86444362D02*
X139087361Y-86539600D01*
X139087361Y-86539600D02*
X139039742Y-86587219D01*
X139039742Y-86587219D02*
X138944504Y-86634838D01*
X138944504Y-86634838D02*
X138658790Y-86634838D01*
X138658790Y-86634838D02*
X138563552Y-86587219D01*
X138563552Y-86587219D02*
X138515933Y-86539600D01*
X138515933Y-86539600D02*
X138468314Y-86444362D01*
X138468314Y-86444362D02*
X138468314Y-86253886D01*
X138468314Y-86253886D02*
X138515933Y-86158648D01*
X139134980Y-85587219D02*
X139087361Y-85682457D01*
X139087361Y-85682457D02*
X139039742Y-85730076D01*
X139039742Y-85730076D02*
X138944504Y-85777695D01*
X138944504Y-85777695D02*
X138658790Y-85777695D01*
X138658790Y-85777695D02*
X138563552Y-85730076D01*
X138563552Y-85730076D02*
X138515933Y-85682457D01*
X138515933Y-85682457D02*
X138468314Y-85587219D01*
X138468314Y-85587219D02*
X138468314Y-85444362D01*
X138468314Y-85444362D02*
X138515933Y-85349124D01*
X138515933Y-85349124D02*
X138563552Y-85301505D01*
X138563552Y-85301505D02*
X138658790Y-85253886D01*
X138658790Y-85253886D02*
X138944504Y-85253886D01*
X138944504Y-85253886D02*
X139039742Y-85301505D01*
X139039742Y-85301505D02*
X139087361Y-85349124D01*
X139087361Y-85349124D02*
X139134980Y-85444362D01*
X139134980Y-85444362D02*
X139134980Y-85587219D01*
X139134980Y-83653886D02*
X138658790Y-83987219D01*
X139134980Y-84225314D02*
X138134980Y-84225314D01*
X138134980Y-84225314D02*
X138134980Y-83844362D01*
X138134980Y-83844362D02*
X138182600Y-83749124D01*
X138182600Y-83749124D02*
X138230219Y-83701505D01*
X138230219Y-83701505D02*
X138325457Y-83653886D01*
X138325457Y-83653886D02*
X138468314Y-83653886D01*
X138468314Y-83653886D02*
X138563552Y-83701505D01*
X138563552Y-83701505D02*
X138611171Y-83749124D01*
X138611171Y-83749124D02*
X138658790Y-83844362D01*
X138658790Y-83844362D02*
X138658790Y-84225314D01*
X139087361Y-82844362D02*
X139134980Y-82939600D01*
X139134980Y-82939600D02*
X139134980Y-83130076D01*
X139134980Y-83130076D02*
X139087361Y-83225314D01*
X139087361Y-83225314D02*
X138992123Y-83272933D01*
X138992123Y-83272933D02*
X138611171Y-83272933D01*
X138611171Y-83272933D02*
X138515933Y-83225314D01*
X138515933Y-83225314D02*
X138468314Y-83130076D01*
X138468314Y-83130076D02*
X138468314Y-82939600D01*
X138468314Y-82939600D02*
X138515933Y-82844362D01*
X138515933Y-82844362D02*
X138611171Y-82796743D01*
X138611171Y-82796743D02*
X138706409Y-82796743D01*
X138706409Y-82796743D02*
X138801647Y-83272933D01*
X139087361Y-82415790D02*
X139134980Y-82320552D01*
X139134980Y-82320552D02*
X139134980Y-82130076D01*
X139134980Y-82130076D02*
X139087361Y-82034838D01*
X139087361Y-82034838D02*
X138992123Y-81987219D01*
X138992123Y-81987219D02*
X138944504Y-81987219D01*
X138944504Y-81987219D02*
X138849266Y-82034838D01*
X138849266Y-82034838D02*
X138801647Y-82130076D01*
X138801647Y-82130076D02*
X138801647Y-82272933D01*
X138801647Y-82272933D02*
X138754028Y-82368171D01*
X138754028Y-82368171D02*
X138658790Y-82415790D01*
X138658790Y-82415790D02*
X138611171Y-82415790D01*
X138611171Y-82415790D02*
X138515933Y-82368171D01*
X138515933Y-82368171D02*
X138468314Y-82272933D01*
X138468314Y-82272933D02*
X138468314Y-82130076D01*
X138468314Y-82130076D02*
X138515933Y-82034838D01*
X139087361Y-81177695D02*
X139134980Y-81272933D01*
X139134980Y-81272933D02*
X139134980Y-81463409D01*
X139134980Y-81463409D02*
X139087361Y-81558647D01*
X139087361Y-81558647D02*
X138992123Y-81606266D01*
X138992123Y-81606266D02*
X138611171Y-81606266D01*
X138611171Y-81606266D02*
X138515933Y-81558647D01*
X138515933Y-81558647D02*
X138468314Y-81463409D01*
X138468314Y-81463409D02*
X138468314Y-81272933D01*
X138468314Y-81272933D02*
X138515933Y-81177695D01*
X138515933Y-81177695D02*
X138611171Y-81130076D01*
X138611171Y-81130076D02*
X138706409Y-81130076D01*
X138706409Y-81130076D02*
X138801647Y-81606266D01*
X138468314Y-80844361D02*
X138468314Y-80463409D01*
X138134980Y-80701504D02*
X138992123Y-80701504D01*
X138992123Y-80701504D02*
X139087361Y-80653885D01*
X139087361Y-80653885D02*
X139134980Y-80558647D01*
X139134980Y-80558647D02*
X139134980Y-80463409D01*
X161147380Y-87926048D02*
X161861666Y-87926048D01*
X161861666Y-87926048D02*
X162004523Y-87973667D01*
X162004523Y-87973667D02*
X162099761Y-88068905D01*
X162099761Y-88068905D02*
X162147380Y-88211762D01*
X162147380Y-88211762D02*
X162147380Y-88307000D01*
X162147380Y-86973667D02*
X162147380Y-87449857D01*
X162147380Y-87449857D02*
X161147380Y-87449857D01*
X162052142Y-86068905D02*
X162099761Y-86116524D01*
X162099761Y-86116524D02*
X162147380Y-86259381D01*
X162147380Y-86259381D02*
X162147380Y-86354619D01*
X162147380Y-86354619D02*
X162099761Y-86497476D01*
X162099761Y-86497476D02*
X162004523Y-86592714D01*
X162004523Y-86592714D02*
X161909285Y-86640333D01*
X161909285Y-86640333D02*
X161718809Y-86687952D01*
X161718809Y-86687952D02*
X161575952Y-86687952D01*
X161575952Y-86687952D02*
X161385476Y-86640333D01*
X161385476Y-86640333D02*
X161290238Y-86592714D01*
X161290238Y-86592714D02*
X161195000Y-86497476D01*
X161195000Y-86497476D02*
X161147380Y-86354619D01*
X161147380Y-86354619D02*
X161147380Y-86259381D01*
X161147380Y-86259381D02*
X161195000Y-86116524D01*
X161195000Y-86116524D02*
X161242619Y-86068905D01*
X161147380Y-85354619D02*
X161861666Y-85354619D01*
X161861666Y-85354619D02*
X162004523Y-85402238D01*
X162004523Y-85402238D02*
X162099761Y-85497476D01*
X162099761Y-85497476D02*
X162147380Y-85640333D01*
X162147380Y-85640333D02*
X162147380Y-85735571D01*
X162147380Y-84402238D02*
X162147380Y-84878428D01*
X162147380Y-84878428D02*
X161147380Y-84878428D01*
X162052142Y-83497476D02*
X162099761Y-83545095D01*
X162099761Y-83545095D02*
X162147380Y-83687952D01*
X162147380Y-83687952D02*
X162147380Y-83783190D01*
X162147380Y-83783190D02*
X162099761Y-83926047D01*
X162099761Y-83926047D02*
X162004523Y-84021285D01*
X162004523Y-84021285D02*
X161909285Y-84068904D01*
X161909285Y-84068904D02*
X161718809Y-84116523D01*
X161718809Y-84116523D02*
X161575952Y-84116523D01*
X161575952Y-84116523D02*
X161385476Y-84068904D01*
X161385476Y-84068904D02*
X161290238Y-84021285D01*
X161290238Y-84021285D02*
X161195000Y-83926047D01*
X161195000Y-83926047D02*
X161147380Y-83783190D01*
X161147380Y-83783190D02*
X161147380Y-83687952D01*
X161147380Y-83687952D02*
X161195000Y-83545095D01*
X161195000Y-83545095D02*
X161242619Y-83497476D01*
X161147380Y-82783190D02*
X161861666Y-82783190D01*
X161861666Y-82783190D02*
X162004523Y-82830809D01*
X162004523Y-82830809D02*
X162099761Y-82926047D01*
X162099761Y-82926047D02*
X162147380Y-83068904D01*
X162147380Y-83068904D02*
X162147380Y-83164142D01*
X162147380Y-81830809D02*
X162147380Y-82306999D01*
X162147380Y-82306999D02*
X161147380Y-82306999D01*
X162052142Y-80926047D02*
X162099761Y-80973666D01*
X162099761Y-80973666D02*
X162147380Y-81116523D01*
X162147380Y-81116523D02*
X162147380Y-81211761D01*
X162147380Y-81211761D02*
X162099761Y-81354618D01*
X162099761Y-81354618D02*
X162004523Y-81449856D01*
X162004523Y-81449856D02*
X161909285Y-81497475D01*
X161909285Y-81497475D02*
X161718809Y-81545094D01*
X161718809Y-81545094D02*
X161575952Y-81545094D01*
X161575952Y-81545094D02*
X161385476Y-81497475D01*
X161385476Y-81497475D02*
X161290238Y-81449856D01*
X161290238Y-81449856D02*
X161195000Y-81354618D01*
X161195000Y-81354618D02*
X161147380Y-81211761D01*
X161147380Y-81211761D02*
X161147380Y-81116523D01*
X161147380Y-81116523D02*
X161195000Y-80973666D01*
X161195000Y-80973666D02*
X161242619Y-80926047D01*
X161147380Y-80211761D02*
X161861666Y-80211761D01*
X161861666Y-80211761D02*
X162004523Y-80259380D01*
X162004523Y-80259380D02*
X162099761Y-80354618D01*
X162099761Y-80354618D02*
X162147380Y-80497475D01*
X162147380Y-80497475D02*
X162147380Y-80592713D01*
X162147380Y-79259380D02*
X162147380Y-79735570D01*
X162147380Y-79735570D02*
X161147380Y-79735570D01*
X162052142Y-78354618D02*
X162099761Y-78402237D01*
X162099761Y-78402237D02*
X162147380Y-78545094D01*
X162147380Y-78545094D02*
X162147380Y-78640332D01*
X162147380Y-78640332D02*
X162099761Y-78783189D01*
X162099761Y-78783189D02*
X162004523Y-78878427D01*
X162004523Y-78878427D02*
X161909285Y-78926046D01*
X161909285Y-78926046D02*
X161718809Y-78973665D01*
X161718809Y-78973665D02*
X161575952Y-78973665D01*
X161575952Y-78973665D02*
X161385476Y-78926046D01*
X161385476Y-78926046D02*
X161290238Y-78878427D01*
X161290238Y-78878427D02*
X161195000Y-78783189D01*
X161195000Y-78783189D02*
X161147380Y-78640332D01*
X161147380Y-78640332D02*
X161147380Y-78545094D01*
X161147380Y-78545094D02*
X161195000Y-78402237D01*
X161195000Y-78402237D02*
X161242619Y-78354618D01*
X154116000Y-64322476D02*
X154020761Y-64274857D01*
X154020761Y-64274857D02*
X153830285Y-64274857D01*
X153830285Y-64274857D02*
X153735047Y-64322476D01*
X153735047Y-64322476D02*
X153639809Y-64417714D01*
X153639809Y-64417714D02*
X153592190Y-64512952D01*
X153592190Y-64512952D02*
X153592190Y-64703428D01*
X153592190Y-64703428D02*
X153639809Y-64798666D01*
X153639809Y-64798666D02*
X153735047Y-64893904D01*
X153735047Y-64893904D02*
X153830285Y-64941523D01*
X153830285Y-64941523D02*
X154020761Y-64941523D01*
X154020761Y-64941523D02*
X154116000Y-64893904D01*
X153925523Y-63941523D02*
X153687428Y-63989142D01*
X153687428Y-63989142D02*
X153449333Y-64132000D01*
X153449333Y-64132000D02*
X153306476Y-64370095D01*
X153306476Y-64370095D02*
X153258857Y-64608190D01*
X153258857Y-64608190D02*
X153306476Y-64846285D01*
X153306476Y-64846285D02*
X153449333Y-65084380D01*
X153449333Y-65084380D02*
X153687428Y-65227238D01*
X153687428Y-65227238D02*
X153925523Y-65274857D01*
X153925523Y-65274857D02*
X154163619Y-65227238D01*
X154163619Y-65227238D02*
X154401714Y-65084380D01*
X154401714Y-65084380D02*
X154544571Y-64846285D01*
X154544571Y-64846285D02*
X154592190Y-64608190D01*
X154592190Y-64608190D02*
X154544571Y-64370095D01*
X154544571Y-64370095D02*
X154401714Y-64132000D01*
X154401714Y-64132000D02*
X154163619Y-63989142D01*
X154163619Y-63989142D02*
X153925523Y-63941523D01*
X155620762Y-65084380D02*
X155620762Y-64084380D01*
X156192190Y-65084380D02*
X155763619Y-64512952D01*
X156192190Y-64084380D02*
X155620762Y-64655809D01*
X157001714Y-65036761D02*
X156906476Y-65084380D01*
X156906476Y-65084380D02*
X156716000Y-65084380D01*
X156716000Y-65084380D02*
X156620762Y-65036761D01*
X156620762Y-65036761D02*
X156573143Y-64941523D01*
X156573143Y-64941523D02*
X156573143Y-64560571D01*
X156573143Y-64560571D02*
X156620762Y-64465333D01*
X156620762Y-64465333D02*
X156716000Y-64417714D01*
X156716000Y-64417714D02*
X156906476Y-64417714D01*
X156906476Y-64417714D02*
X157001714Y-64465333D01*
X157001714Y-64465333D02*
X157049333Y-64560571D01*
X157049333Y-64560571D02*
X157049333Y-64655809D01*
X157049333Y-64655809D02*
X156573143Y-64751047D01*
X157477905Y-64417714D02*
X157477905Y-65084380D01*
X157477905Y-64512952D02*
X157525524Y-64465333D01*
X157525524Y-64465333D02*
X157620762Y-64417714D01*
X157620762Y-64417714D02*
X157763619Y-64417714D01*
X157763619Y-64417714D02*
X157858857Y-64465333D01*
X157858857Y-64465333D02*
X157906476Y-64560571D01*
X157906476Y-64560571D02*
X157906476Y-65084380D01*
X159458857Y-65084380D02*
X158982667Y-65084380D01*
X158982667Y-65084380D02*
X158982667Y-64084380D01*
X159935048Y-65084380D02*
X159839810Y-65036761D01*
X159839810Y-65036761D02*
X159792191Y-64989142D01*
X159792191Y-64989142D02*
X159744572Y-64893904D01*
X159744572Y-64893904D02*
X159744572Y-64608190D01*
X159744572Y-64608190D02*
X159792191Y-64512952D01*
X159792191Y-64512952D02*
X159839810Y-64465333D01*
X159839810Y-64465333D02*
X159935048Y-64417714D01*
X159935048Y-64417714D02*
X160077905Y-64417714D01*
X160077905Y-64417714D02*
X160173143Y-64465333D01*
X160173143Y-64465333D02*
X160220762Y-64512952D01*
X160220762Y-64512952D02*
X160268381Y-64608190D01*
X160268381Y-64608190D02*
X160268381Y-64893904D01*
X160268381Y-64893904D02*
X160220762Y-64989142D01*
X160220762Y-64989142D02*
X160173143Y-65036761D01*
X160173143Y-65036761D02*
X160077905Y-65084380D01*
X160077905Y-65084380D02*
X159935048Y-65084380D01*
X160601715Y-64417714D02*
X160792191Y-65084380D01*
X160792191Y-65084380D02*
X160982667Y-64608190D01*
X160982667Y-64608190D02*
X161173143Y-65084380D01*
X161173143Y-65084380D02*
X161363619Y-64417714D01*
X162125524Y-65036761D02*
X162030286Y-65084380D01*
X162030286Y-65084380D02*
X161839810Y-65084380D01*
X161839810Y-65084380D02*
X161744572Y-65036761D01*
X161744572Y-65036761D02*
X161696953Y-64941523D01*
X161696953Y-64941523D02*
X161696953Y-64560571D01*
X161696953Y-64560571D02*
X161744572Y-64465333D01*
X161744572Y-64465333D02*
X161839810Y-64417714D01*
X161839810Y-64417714D02*
X162030286Y-64417714D01*
X162030286Y-64417714D02*
X162125524Y-64465333D01*
X162125524Y-64465333D02*
X162173143Y-64560571D01*
X162173143Y-64560571D02*
X162173143Y-64655809D01*
X162173143Y-64655809D02*
X161696953Y-64751047D01*
X154416000Y-66704380D02*
X154416000Y-65704380D01*
X154416000Y-65704380D02*
X154749333Y-66418666D01*
X154749333Y-66418666D02*
X155082666Y-65704380D01*
X155082666Y-65704380D02*
X155082666Y-66704380D01*
X155987428Y-66704380D02*
X155987428Y-66180571D01*
X155987428Y-66180571D02*
X155939809Y-66085333D01*
X155939809Y-66085333D02*
X155844571Y-66037714D01*
X155844571Y-66037714D02*
X155654095Y-66037714D01*
X155654095Y-66037714D02*
X155558857Y-66085333D01*
X155987428Y-66656761D02*
X155892190Y-66704380D01*
X155892190Y-66704380D02*
X155654095Y-66704380D01*
X155654095Y-66704380D02*
X155558857Y-66656761D01*
X155558857Y-66656761D02*
X155511238Y-66561523D01*
X155511238Y-66561523D02*
X155511238Y-66466285D01*
X155511238Y-66466285D02*
X155558857Y-66371047D01*
X155558857Y-66371047D02*
X155654095Y-66323428D01*
X155654095Y-66323428D02*
X155892190Y-66323428D01*
X155892190Y-66323428D02*
X155987428Y-66275809D01*
X156463619Y-66704380D02*
X156463619Y-66037714D01*
X156463619Y-66228190D02*
X156511238Y-66132952D01*
X156511238Y-66132952D02*
X156558857Y-66085333D01*
X156558857Y-66085333D02*
X156654095Y-66037714D01*
X156654095Y-66037714D02*
X156749333Y-66037714D01*
X157635048Y-65799619D02*
X157682667Y-65752000D01*
X157682667Y-65752000D02*
X157777905Y-65704380D01*
X157777905Y-65704380D02*
X158016000Y-65704380D01*
X158016000Y-65704380D02*
X158111238Y-65752000D01*
X158111238Y-65752000D02*
X158158857Y-65799619D01*
X158158857Y-65799619D02*
X158206476Y-65894857D01*
X158206476Y-65894857D02*
X158206476Y-65990095D01*
X158206476Y-65990095D02*
X158158857Y-66132952D01*
X158158857Y-66132952D02*
X157587429Y-66704380D01*
X157587429Y-66704380D02*
X158206476Y-66704380D01*
X158825524Y-65704380D02*
X158920762Y-65704380D01*
X158920762Y-65704380D02*
X159016000Y-65752000D01*
X159016000Y-65752000D02*
X159063619Y-65799619D01*
X159063619Y-65799619D02*
X159111238Y-65894857D01*
X159111238Y-65894857D02*
X159158857Y-66085333D01*
X159158857Y-66085333D02*
X159158857Y-66323428D01*
X159158857Y-66323428D02*
X159111238Y-66513904D01*
X159111238Y-66513904D02*
X159063619Y-66609142D01*
X159063619Y-66609142D02*
X159016000Y-66656761D01*
X159016000Y-66656761D02*
X158920762Y-66704380D01*
X158920762Y-66704380D02*
X158825524Y-66704380D01*
X158825524Y-66704380D02*
X158730286Y-66656761D01*
X158730286Y-66656761D02*
X158682667Y-66609142D01*
X158682667Y-66609142D02*
X158635048Y-66513904D01*
X158635048Y-66513904D02*
X158587429Y-66323428D01*
X158587429Y-66323428D02*
X158587429Y-66085333D01*
X158587429Y-66085333D02*
X158635048Y-65894857D01*
X158635048Y-65894857D02*
X158682667Y-65799619D01*
X158682667Y-65799619D02*
X158730286Y-65752000D01*
X158730286Y-65752000D02*
X158825524Y-65704380D01*
X159539810Y-65799619D02*
X159587429Y-65752000D01*
X159587429Y-65752000D02*
X159682667Y-65704380D01*
X159682667Y-65704380D02*
X159920762Y-65704380D01*
X159920762Y-65704380D02*
X160016000Y-65752000D01*
X160016000Y-65752000D02*
X160063619Y-65799619D01*
X160063619Y-65799619D02*
X160111238Y-65894857D01*
X160111238Y-65894857D02*
X160111238Y-65990095D01*
X160111238Y-65990095D02*
X160063619Y-66132952D01*
X160063619Y-66132952D02*
X159492191Y-66704380D01*
X159492191Y-66704380D02*
X160111238Y-66704380D01*
X160444572Y-65704380D02*
X161063619Y-65704380D01*
X161063619Y-65704380D02*
X160730286Y-66085333D01*
X160730286Y-66085333D02*
X160873143Y-66085333D01*
X160873143Y-66085333D02*
X160968381Y-66132952D01*
X160968381Y-66132952D02*
X161016000Y-66180571D01*
X161016000Y-66180571D02*
X161063619Y-66275809D01*
X161063619Y-66275809D02*
X161063619Y-66513904D01*
X161063619Y-66513904D02*
X161016000Y-66609142D01*
X161016000Y-66609142D02*
X160968381Y-66656761D01*
X160968381Y-66656761D02*
X160873143Y-66704380D01*
X160873143Y-66704380D02*
X160587429Y-66704380D01*
X160587429Y-66704380D02*
X160492191Y-66656761D01*
X160492191Y-66656761D02*
X160444572Y-66609142D01*
X149472828Y-89545904D02*
X149472828Y-88784000D01*
X149806161Y-87755428D02*
X149853780Y-87612571D01*
X149853780Y-87612571D02*
X149853780Y-87374476D01*
X149853780Y-87374476D02*
X149806161Y-87279238D01*
X149806161Y-87279238D02*
X149758542Y-87231619D01*
X149758542Y-87231619D02*
X149663304Y-87184000D01*
X149663304Y-87184000D02*
X149568066Y-87184000D01*
X149568066Y-87184000D02*
X149472828Y-87231619D01*
X149472828Y-87231619D02*
X149425209Y-87279238D01*
X149425209Y-87279238D02*
X149377590Y-87374476D01*
X149377590Y-87374476D02*
X149329971Y-87564952D01*
X149329971Y-87564952D02*
X149282352Y-87660190D01*
X149282352Y-87660190D02*
X149234733Y-87707809D01*
X149234733Y-87707809D02*
X149139495Y-87755428D01*
X149139495Y-87755428D02*
X149044257Y-87755428D01*
X149044257Y-87755428D02*
X148949019Y-87707809D01*
X148949019Y-87707809D02*
X148901400Y-87660190D01*
X148901400Y-87660190D02*
X148853780Y-87564952D01*
X148853780Y-87564952D02*
X148853780Y-87326857D01*
X148853780Y-87326857D02*
X148901400Y-87184000D01*
X149806161Y-86326857D02*
X149853780Y-86422095D01*
X149853780Y-86422095D02*
X149853780Y-86612571D01*
X149853780Y-86612571D02*
X149806161Y-86707809D01*
X149806161Y-86707809D02*
X149758542Y-86755428D01*
X149758542Y-86755428D02*
X149663304Y-86803047D01*
X149663304Y-86803047D02*
X149377590Y-86803047D01*
X149377590Y-86803047D02*
X149282352Y-86755428D01*
X149282352Y-86755428D02*
X149234733Y-86707809D01*
X149234733Y-86707809D02*
X149187114Y-86612571D01*
X149187114Y-86612571D02*
X149187114Y-86422095D01*
X149187114Y-86422095D02*
X149234733Y-86326857D01*
X149853780Y-85898285D02*
X149187114Y-85898285D01*
X149377590Y-85898285D02*
X149282352Y-85850666D01*
X149282352Y-85850666D02*
X149234733Y-85803047D01*
X149234733Y-85803047D02*
X149187114Y-85707809D01*
X149187114Y-85707809D02*
X149187114Y-85612571D01*
X149806161Y-84898285D02*
X149853780Y-84993523D01*
X149853780Y-84993523D02*
X149853780Y-85183999D01*
X149853780Y-85183999D02*
X149806161Y-85279237D01*
X149806161Y-85279237D02*
X149710923Y-85326856D01*
X149710923Y-85326856D02*
X149329971Y-85326856D01*
X149329971Y-85326856D02*
X149234733Y-85279237D01*
X149234733Y-85279237D02*
X149187114Y-85183999D01*
X149187114Y-85183999D02*
X149187114Y-84993523D01*
X149187114Y-84993523D02*
X149234733Y-84898285D01*
X149234733Y-84898285D02*
X149329971Y-84850666D01*
X149329971Y-84850666D02*
X149425209Y-84850666D01*
X149425209Y-84850666D02*
X149520447Y-85326856D01*
X149806161Y-84041142D02*
X149853780Y-84136380D01*
X149853780Y-84136380D02*
X149853780Y-84326856D01*
X149853780Y-84326856D02*
X149806161Y-84422094D01*
X149806161Y-84422094D02*
X149710923Y-84469713D01*
X149710923Y-84469713D02*
X149329971Y-84469713D01*
X149329971Y-84469713D02*
X149234733Y-84422094D01*
X149234733Y-84422094D02*
X149187114Y-84326856D01*
X149187114Y-84326856D02*
X149187114Y-84136380D01*
X149187114Y-84136380D02*
X149234733Y-84041142D01*
X149234733Y-84041142D02*
X149329971Y-83993523D01*
X149329971Y-83993523D02*
X149425209Y-83993523D01*
X149425209Y-83993523D02*
X149520447Y-84469713D01*
X149187114Y-83564951D02*
X149853780Y-83564951D01*
X149282352Y-83564951D02*
X149234733Y-83517332D01*
X149234733Y-83517332D02*
X149187114Y-83422094D01*
X149187114Y-83422094D02*
X149187114Y-83279237D01*
X149187114Y-83279237D02*
X149234733Y-83183999D01*
X149234733Y-83183999D02*
X149329971Y-83136380D01*
X149329971Y-83136380D02*
X149853780Y-83136380D01*
X149758542Y-81488761D02*
X149806161Y-81536380D01*
X149806161Y-81536380D02*
X149853780Y-81679237D01*
X149853780Y-81679237D02*
X149853780Y-81774475D01*
X149853780Y-81774475D02*
X149806161Y-81917332D01*
X149806161Y-81917332D02*
X149710923Y-82012570D01*
X149710923Y-82012570D02*
X149615685Y-82060189D01*
X149615685Y-82060189D02*
X149425209Y-82107808D01*
X149425209Y-82107808D02*
X149282352Y-82107808D01*
X149282352Y-82107808D02*
X149091876Y-82060189D01*
X149091876Y-82060189D02*
X148996638Y-82012570D01*
X148996638Y-82012570D02*
X148901400Y-81917332D01*
X148901400Y-81917332D02*
X148853780Y-81774475D01*
X148853780Y-81774475D02*
X148853780Y-81679237D01*
X148853780Y-81679237D02*
X148901400Y-81536380D01*
X148901400Y-81536380D02*
X148949019Y-81488761D01*
X149853780Y-80631618D02*
X149329971Y-80631618D01*
X149329971Y-80631618D02*
X149234733Y-80679237D01*
X149234733Y-80679237D02*
X149187114Y-80774475D01*
X149187114Y-80774475D02*
X149187114Y-80964951D01*
X149187114Y-80964951D02*
X149234733Y-81060189D01*
X149806161Y-80631618D02*
X149853780Y-80726856D01*
X149853780Y-80726856D02*
X149853780Y-80964951D01*
X149853780Y-80964951D02*
X149806161Y-81060189D01*
X149806161Y-81060189D02*
X149710923Y-81107808D01*
X149710923Y-81107808D02*
X149615685Y-81107808D01*
X149615685Y-81107808D02*
X149520447Y-81060189D01*
X149520447Y-81060189D02*
X149472828Y-80964951D01*
X149472828Y-80964951D02*
X149472828Y-80726856D01*
X149472828Y-80726856D02*
X149425209Y-80631618D01*
X149187114Y-80155427D02*
X150187114Y-80155427D01*
X149234733Y-80155427D02*
X149187114Y-80060189D01*
X149187114Y-80060189D02*
X149187114Y-79869713D01*
X149187114Y-79869713D02*
X149234733Y-79774475D01*
X149234733Y-79774475D02*
X149282352Y-79726856D01*
X149282352Y-79726856D02*
X149377590Y-79679237D01*
X149377590Y-79679237D02*
X149663304Y-79679237D01*
X149663304Y-79679237D02*
X149758542Y-79726856D01*
X149758542Y-79726856D02*
X149806161Y-79774475D01*
X149806161Y-79774475D02*
X149853780Y-79869713D01*
X149853780Y-79869713D02*
X149853780Y-80060189D01*
X149853780Y-80060189D02*
X149806161Y-80155427D01*
X149187114Y-79393522D02*
X149187114Y-79012570D01*
X148853780Y-79250665D02*
X149710923Y-79250665D01*
X149710923Y-79250665D02*
X149806161Y-79203046D01*
X149806161Y-79203046D02*
X149853780Y-79107808D01*
X149853780Y-79107808D02*
X149853780Y-79012570D01*
X149187114Y-78250665D02*
X149853780Y-78250665D01*
X149187114Y-78679236D02*
X149710923Y-78679236D01*
X149710923Y-78679236D02*
X149806161Y-78631617D01*
X149806161Y-78631617D02*
X149853780Y-78536379D01*
X149853780Y-78536379D02*
X149853780Y-78393522D01*
X149853780Y-78393522D02*
X149806161Y-78298284D01*
X149806161Y-78298284D02*
X149758542Y-78250665D01*
X149853780Y-77774474D02*
X149187114Y-77774474D01*
X149377590Y-77774474D02*
X149282352Y-77726855D01*
X149282352Y-77726855D02*
X149234733Y-77679236D01*
X149234733Y-77679236D02*
X149187114Y-77583998D01*
X149187114Y-77583998D02*
X149187114Y-77488760D01*
X149806161Y-76774474D02*
X149853780Y-76869712D01*
X149853780Y-76869712D02*
X149853780Y-77060188D01*
X149853780Y-77060188D02*
X149806161Y-77155426D01*
X149806161Y-77155426D02*
X149710923Y-77203045D01*
X149710923Y-77203045D02*
X149329971Y-77203045D01*
X149329971Y-77203045D02*
X149234733Y-77155426D01*
X149234733Y-77155426D02*
X149187114Y-77060188D01*
X149187114Y-77060188D02*
X149187114Y-76869712D01*
X149187114Y-76869712D02*
X149234733Y-76774474D01*
X149234733Y-76774474D02*
X149329971Y-76726855D01*
X149329971Y-76726855D02*
X149425209Y-76726855D01*
X149425209Y-76726855D02*
X149520447Y-77203045D01*
%TO.C,SW2*%
X149907761Y-93276332D02*
X149955380Y-93133475D01*
X149955380Y-93133475D02*
X149955380Y-92895380D01*
X149955380Y-92895380D02*
X149907761Y-92800142D01*
X149907761Y-92800142D02*
X149860142Y-92752523D01*
X149860142Y-92752523D02*
X149764904Y-92704904D01*
X149764904Y-92704904D02*
X149669666Y-92704904D01*
X149669666Y-92704904D02*
X149574428Y-92752523D01*
X149574428Y-92752523D02*
X149526809Y-92800142D01*
X149526809Y-92800142D02*
X149479190Y-92895380D01*
X149479190Y-92895380D02*
X149431571Y-93085856D01*
X149431571Y-93085856D02*
X149383952Y-93181094D01*
X149383952Y-93181094D02*
X149336333Y-93228713D01*
X149336333Y-93228713D02*
X149241095Y-93276332D01*
X149241095Y-93276332D02*
X149145857Y-93276332D01*
X149145857Y-93276332D02*
X149050619Y-93228713D01*
X149050619Y-93228713D02*
X149003000Y-93181094D01*
X149003000Y-93181094D02*
X148955380Y-93085856D01*
X148955380Y-93085856D02*
X148955380Y-92847761D01*
X148955380Y-92847761D02*
X149003000Y-92704904D01*
X148955380Y-92371570D02*
X149955380Y-92133475D01*
X149955380Y-92133475D02*
X149241095Y-91942999D01*
X149241095Y-91942999D02*
X149955380Y-91752523D01*
X149955380Y-91752523D02*
X148955380Y-91514428D01*
X149050619Y-91181094D02*
X149003000Y-91133475D01*
X149003000Y-91133475D02*
X148955380Y-91038237D01*
X148955380Y-91038237D02*
X148955380Y-90800142D01*
X148955380Y-90800142D02*
X149003000Y-90704904D01*
X149003000Y-90704904D02*
X149050619Y-90657285D01*
X149050619Y-90657285D02*
X149145857Y-90609666D01*
X149145857Y-90609666D02*
X149241095Y-90609666D01*
X149241095Y-90609666D02*
X149383952Y-90657285D01*
X149383952Y-90657285D02*
X149955380Y-91228713D01*
X149955380Y-91228713D02*
X149955380Y-90609666D01*
%TO.C,SW1*%
X139087361Y-93276332D02*
X139134980Y-93133475D01*
X139134980Y-93133475D02*
X139134980Y-92895380D01*
X139134980Y-92895380D02*
X139087361Y-92800142D01*
X139087361Y-92800142D02*
X139039742Y-92752523D01*
X139039742Y-92752523D02*
X138944504Y-92704904D01*
X138944504Y-92704904D02*
X138849266Y-92704904D01*
X138849266Y-92704904D02*
X138754028Y-92752523D01*
X138754028Y-92752523D02*
X138706409Y-92800142D01*
X138706409Y-92800142D02*
X138658790Y-92895380D01*
X138658790Y-92895380D02*
X138611171Y-93085856D01*
X138611171Y-93085856D02*
X138563552Y-93181094D01*
X138563552Y-93181094D02*
X138515933Y-93228713D01*
X138515933Y-93228713D02*
X138420695Y-93276332D01*
X138420695Y-93276332D02*
X138325457Y-93276332D01*
X138325457Y-93276332D02*
X138230219Y-93228713D01*
X138230219Y-93228713D02*
X138182600Y-93181094D01*
X138182600Y-93181094D02*
X138134980Y-93085856D01*
X138134980Y-93085856D02*
X138134980Y-92847761D01*
X138134980Y-92847761D02*
X138182600Y-92704904D01*
X138134980Y-92371570D02*
X139134980Y-92133475D01*
X139134980Y-92133475D02*
X138420695Y-91942999D01*
X138420695Y-91942999D02*
X139134980Y-91752523D01*
X139134980Y-91752523D02*
X138134980Y-91514428D01*
X139134980Y-90609666D02*
X139134980Y-91181094D01*
X139134980Y-90895380D02*
X138134980Y-90895380D01*
X138134980Y-90895380D02*
X138277838Y-90990618D01*
X138277838Y-90990618D02*
X138373076Y-91085856D01*
X138373076Y-91085856D02*
X138420695Y-91181094D01*
%TO.C,J1*%
X149254666Y-64894380D02*
X149254666Y-65608666D01*
X149254666Y-65608666D02*
X149207047Y-65751523D01*
X149207047Y-65751523D02*
X149111809Y-65846761D01*
X149111809Y-65846761D02*
X148968952Y-65894380D01*
X148968952Y-65894380D02*
X148873714Y-65894380D01*
X150254666Y-65894380D02*
X149683238Y-65894380D01*
X149968952Y-65894380D02*
X149968952Y-64894380D01*
X149968952Y-64894380D02*
X149873714Y-65037238D01*
X149873714Y-65037238D02*
X149778476Y-65132476D01*
X149778476Y-65132476D02*
X149683238Y-65180095D01*
%TO.C,J2*%
X160478666Y-99676380D02*
X160478666Y-100390666D01*
X160478666Y-100390666D02*
X160431047Y-100533523D01*
X160431047Y-100533523D02*
X160335809Y-100628761D01*
X160335809Y-100628761D02*
X160192952Y-100676380D01*
X160192952Y-100676380D02*
X160097714Y-100676380D01*
X160907238Y-99771619D02*
X160954857Y-99724000D01*
X160954857Y-99724000D02*
X161050095Y-99676380D01*
X161050095Y-99676380D02*
X161288190Y-99676380D01*
X161288190Y-99676380D02*
X161383428Y-99724000D01*
X161383428Y-99724000D02*
X161431047Y-99771619D01*
X161431047Y-99771619D02*
X161478666Y-99866857D01*
X161478666Y-99866857D02*
X161478666Y-99962095D01*
X161478666Y-99962095D02*
X161431047Y-100104952D01*
X161431047Y-100104952D02*
X160859619Y-100676380D01*
X160859619Y-100676380D02*
X161478666Y-100676380D01*
D11*
%TO.C,SW2*%
X148838000Y-101539000D02*
X150338000Y-101539000D01*
X152838000Y-100289000D02*
X152838000Y-95789000D01*
X150338000Y-94539000D02*
X148838000Y-94539000D01*
X146338000Y-95789000D02*
X146338000Y-100289000D01*
%TO.C,SW1*%
X145218000Y-100289000D02*
X145218000Y-95789000D01*
X142718000Y-94539000D02*
X141218000Y-94539000D01*
X138718000Y-95789000D02*
X138718000Y-100289000D01*
X141218000Y-101539000D02*
X142718000Y-101539000D01*
%TO.C,J1*%
X138066000Y-69350000D02*
X138066000Y-70350000D01*
X140766000Y-80790000D02*
X140766000Y-80790000D01*
X148576000Y-64640000D02*
X148576000Y-92840000D01*
X139456000Y-92840000D02*
X139456000Y-64640000D01*
X140766000Y-91540000D02*
X140766000Y-80790000D01*
X140766000Y-80790000D02*
X139456000Y-80790000D01*
X139066000Y-69850000D02*
X138066000Y-69350000D01*
X139456000Y-76690000D02*
X140766000Y-76690000D01*
X147266000Y-65940000D02*
X147266000Y-91540000D01*
X138066000Y-70350000D02*
X139066000Y-69850000D01*
X140766000Y-76690000D02*
X140766000Y-65940000D01*
X139456000Y-64640000D02*
X148576000Y-64640000D01*
X148576000Y-92840000D02*
X139456000Y-92840000D01*
X147266000Y-91540000D02*
X140766000Y-91540000D01*
X140766000Y-65940000D02*
X147266000Y-65940000D01*
%TO.C,J2*%
X154032000Y-67824000D02*
X162632000Y-67824000D01*
X153137662Y-78744000D02*
X153570675Y-78994000D01*
X162632000Y-98794000D02*
X154032000Y-98794000D01*
X154032000Y-98794000D02*
X154032000Y-67824000D01*
X153570675Y-78994000D02*
X153137662Y-79244000D01*
X153137662Y-79244000D02*
X153137662Y-78744000D01*
%TD*%
M02*
