%TF.GenerationSoftware,KiCad,Pcbnew,(7.0.0)*%
%TF.CreationDate,2023-03-04T23:02:33+00:00*%
%TF.ProjectId,VGA_ConnectorV2.kicad_pro,5647415f-436f-46e6-9e65-63746f725632,rev?*%
%TF.SameCoordinates,Original*%
%TF.FileFunction,Soldermask,Bot*%
%TF.FilePolarity,Negative*%
%FSLAX46Y46*%
G04 Gerber Fmt 4.6, Leading zero omitted, Abs format (unit mm)*
G04 Created by KiCad (PCBNEW (7.0.0)) date 2023-03-04 23:02:33*
%MOMM*%
%LPD*%
G01*
G04 APERTURE LIST*
G04 Aperture macros list*
%AMRoundRect*
0 Rectangle with rounded corners*
0 $1 Rounding radius*
0 $2 $3 $4 $5 $6 $7 $8 $9 X,Y pos of 4 corners*
0 Add a 4 corners polygon primitive as box body*
4,1,4,$2,$3,$4,$5,$6,$7,$8,$9,$2,$3,0*
0 Add four circle primitives for the rounded corners*
1,1,$1+$1,$2,$3*
1,1,$1+$1,$4,$5*
1,1,$1+$1,$6,$7*
1,1,$1+$1,$8,$9*
0 Add four rect primitives between the rounded corners*
20,1,$1+$1,$2,$3,$4,$5,0*
20,1,$1+$1,$4,$5,$6,$7,0*
20,1,$1+$1,$6,$7,$8,$9,0*
20,1,$1+$1,$8,$9,$2,$3,0*%
G04 Aperture macros list end*
%ADD10C,2.000000*%
%ADD11RoundRect,0.250000X-0.600000X-0.600000X0.600000X-0.600000X0.600000X0.600000X-0.600000X0.600000X0*%
%ADD12C,1.700000*%
%ADD13C,1.600000*%
%ADD14R,1.600000X1.600000*%
%ADD15C,4.000000*%
G04 APERTURE END LIST*
D10*
%TO.C,SW2*%
X151838000Y-101289000D03*
X151838000Y-94789000D03*
X147338000Y-101289000D03*
X147338000Y-94789000D03*
%TD*%
%TO.C,SW1*%
X144218000Y-101289000D03*
X144218000Y-94789000D03*
X139718000Y-101289000D03*
X139718000Y-94789000D03*
%TD*%
D11*
%TO.C,J1*%
X142746000Y-69850000D03*
D12*
X145286000Y-69850000D03*
X142746000Y-72390000D03*
X145286000Y-72390000D03*
X142746000Y-74930000D03*
X145286000Y-74930000D03*
X142746000Y-77470000D03*
X145286000Y-77470000D03*
X142746000Y-80010000D03*
X145286000Y-80010000D03*
X142746000Y-82550000D03*
X145286000Y-82550000D03*
X142746000Y-85090000D03*
X145286000Y-85090000D03*
X142746000Y-87630000D03*
X145286000Y-87630000D03*
%TD*%
D13*
%TO.C,J2*%
X159662000Y-88154000D03*
X159662000Y-85864000D03*
X159662000Y-83574000D03*
X159662000Y-81284000D03*
X159662000Y-78994000D03*
X157682000Y-87009000D03*
X157682000Y-84719000D03*
X157682000Y-82429000D03*
X157682000Y-80139000D03*
X157682000Y-77849000D03*
X155702000Y-88154000D03*
X155702000Y-85864000D03*
X155702000Y-83574000D03*
X155702000Y-81284000D03*
D14*
X155701999Y-78993999D03*
D15*
X157752000Y-70809000D03*
X157752000Y-95809000D03*
%TD*%
M02*
