M48
; DRILL file {KiCad (7.0.0)} date Sat Mar  4 23:02:30 2023
; FORMAT={-:-/ absolute / metric / decimal}
; #@! TF.CreationDate,2023-03-04T23:02:30+00:00
; #@! TF.GenerationSoftware,Kicad,Pcbnew,(7.0.0)
; #@! TF.FileFunction,MixedPlating,1,2
FMAT,2
METRIC
; #@! TA.AperFunction,Plated,PTH,ComponentDrill
T1C1.000
; #@! TA.AperFunction,Plated,PTH,ComponentDrill
T2C1.100
; #@! TA.AperFunction,Plated,PTH,ComponentDrill
T3C3.200
%
G90
G05
T1
X142.746Y-69.85
X142.746Y-72.39
X142.746Y-74.93
X142.746Y-77.47
X142.746Y-80.01
X142.746Y-82.55
X142.746Y-85.09
X142.746Y-87.63
X145.286Y-69.85
X145.286Y-72.39
X145.286Y-74.93
X145.286Y-77.47
X145.286Y-80.01
X145.286Y-82.55
X145.286Y-85.09
X145.286Y-87.63
X155.702Y-78.994
X155.702Y-81.284
X155.702Y-83.574
X155.702Y-85.864
X155.702Y-88.154
X157.682Y-77.849
X157.682Y-80.139
X157.682Y-82.429
X157.682Y-84.719
X157.682Y-87.009
X159.662Y-78.994
X159.662Y-81.284
X159.662Y-83.574
X159.662Y-85.864
X159.662Y-88.154
T2
X139.718Y-94.789
X139.718Y-101.289
X144.218Y-94.789
X144.218Y-101.289
X147.338Y-94.789
X147.338Y-101.289
X151.838Y-94.789
X151.838Y-101.289
T3
X157.752Y-70.809
X157.752Y-95.809
T0
M30
